<?xml version="1.0" encoding="UTF-8"?><svg id="a" xmlns="http://www.w3.org/2000/svg" viewBox="0 0 175 61.68"><g id="b"><path d="M34.25,10.03c2.29-2.82,3.38-6.4,3.06-9.99-3.52.35-6.79,2.04-9.11,4.72-2.32,2.6-3.52,6.02-3.27,9.5,3.55.14,7.04-1.44,9.32-4.22" fill="#fff"/><path d="M34.25,9.78c2.22-2.74,3.31-6.26,3.06-9.78-3.52.35-6.79,2.04-9.11,4.72-2.32,2.6-3.52,6.02-3.27,9.5,3.62.11,7.07-1.55,9.32-4.43" fill="#fff"/><path d="M37.24,14.81c-5.07-.32-9.4,2.89-11.72,2.89s-6.12-2.74-10.17-2.67c-5.35.14-10.2,3.13-12.74,7.81-5.49,9.43-1.44,23.51,3.91,31.04,2.57,3.91,5.67,7.81,9.78,7.81s5.38-2.5,10.1-2.5,6.05,2.5,10.17,2.43,6.9-3.91,9.47-7.6c1.83-2.67,3.24-5.63,4.22-8.73-5-2.22-8.2-7.18-8.16-12.63.07-4.79,2.6-9.22,6.69-11.72-2.6-3.69-6.79-5.98-11.3-6.12" fill="#fff"/><path d="M77.25,9.82v9.75h7.81v6.72h-7.81v22.87c0,3.55,1.55,5.21,5.03,5.21.95,0,1.86-.07,2.82-.21v6.69c-1.55.28-3.13.42-4.72.39-8.41,0-11.72-3.17-11.72-11.19v-23.65h-5.91v-6.83h6.02v-9.75h8.48Z" fill="#fff"/><polygon points="113.67 61.12 104.59 61.12 89.6 19.56 98.68 19.56 109.09 52.71 109.09 52.71 119.65 19.56 128.55 19.56 113.67 61.12" fill="#fff"/><polygon points="175 36.21 158.46 36.21 158.46 19.63 150.58 19.63 150.58 36.21 134.11 36.21 134.11 43.98 150.58 43.98 150.58 60.66 158.46 60.66 158.46 43.98 175 43.98 175 36.21" fill="#fff"/></g></svg>