<?xml version="1.0" encoding="UTF-8"?><svg id="a" xmlns="http://www.w3.org/2000/svg" xmlns:xlink="http://www.w3.org/1999/xlink" viewBox="0 0 175.02 37.92"><defs><clipPath id="b"><rect x=".02" width="175" height="37.92" fill="none"/></clipPath></defs><path d="M51.15,10.35h7.36c4.08,0,6.19,1.67,6.19,4.81v.16c.01.23,0,.46-.02.68-.03.23-.07.45-.14.67-.07.22-.15.43-.25.63-.1.2-.22.4-.36.58-.14.18-.29.35-.46.51-.17.16-.35.29-.54.42-.19.12-.39.23-.61.31-.21.09-.43.15-.65.2.13.01.27.03.4.05.13.02.26.06.39.09.13.04.25.08.38.13.12.05.25.11.36.17.12.06.23.13.35.2.11.07.22.15.33.23.1.08.2.17.3.26.1.09.19.19.27.29.09.1.17.21.24.32.08.11.15.22.21.34.07.12.12.24.18.36.05.12.1.25.14.37.04.13.08.26.1.39.03.13.05.26.07.4.02.13.02.27.03.4,0,.13,0,.27-.01.4v.11c0,3.43-2.25,5.23-6.56,5.23h-7.69V10.35h0ZM57.82,18.03c2.04,0,2.85-.73,2.85-2.4v-.11c0-1.56-.89-2.27-2.87-2.27h-2.51v4.81l2.54-.02h0ZM58.18,26.12c2.09,0,3.04-.95,3.04-2.64v-.11c0-1.73-.95-2.61-3.25-2.61h-2.69v5.37h2.9" fill="#fff"/><path d="M66.51,25.26c0-3.2,2.92-4.4,7.12-4.4h1.54v-.54c0-1.62-.49-2.51-2.22-2.51-.14-.02-.28-.02-.42,0-.14.01-.28.04-.41.08-.13.04-.26.09-.39.16-.12.07-.24.15-.35.24-.11.09-.21.19-.29.3-.09.11-.16.23-.23.36-.06.13-.11.26-.15.39-.04.14-.06.27-.07.42h-3.61c.24-3.25,2.8-4.69,6.15-4.69s5.72,1.36,5.72,5.07v8.92h-3.69v-1.65c-.23.33-.5.62-.81.87-.31.26-.64.47-1,.64-.36.17-.74.29-1.13.36-.39.07-.79.09-1.19.06-2.48,0-4.57-1.2-4.57-4.07M75.17,24.26v-1.2h-1.47c-2.2,0-3.47.48-3.47,1.93,0,1,.6,1.66,1.98,1.66,1.67.05,2.96-.88,2.96-2.39" fill="#fff"/><path d="M80.51,24.75h3.53c.16,1.2.76,1.95,2.4,1.95,1.47,0,2.15-.55,2.15-1.5s-.82-1.33-2.78-1.61c-3.61-.55-5.05-1.6-5.05-4.27s2.62-4.27,5.41-4.27c3.04,0,5.31,1.11,5.65,4.24h-3.47c-.2-1.13-.84-1.65-2.14-1.65s-1.94.58-1.94,1.41.65,1.2,2.63,1.49c3.43.49,5.31,1.36,5.31,4.29s-2.14,4.5-5.76,4.5-5.83-1.62-5.96-4.58" fill="#fff"/><path d="M93.2,22.37v-.2c-.01-.23-.01-.47,0-.7.01-.23.04-.47.07-.7.04-.23.09-.46.15-.69.06-.23.13-.45.22-.67.08-.22.18-.43.28-.64.11-.21.22-.41.35-.61.13-.2.26-.39.41-.57.15-.18.3-.36.47-.52.16-.17.34-.32.52-.47.18-.15.37-.29.57-.42.2-.13.4-.25.61-.36.21-.11.42-.21.64-.29.22-.09.44-.16.67-.22.23-.06.45-.12.69-.15.23-.04.46-.07.7-.08.23-.02.47-.02.7-.01,3.53,0,6.67,2.07,6.67,6.96v1.05h-9.82c.1,2.27,1.33,3.61,3.39,3.61,1.75,0,2.62-.76,2.86-1.91h3.61c-.44,2.96-2.8,4.6-6.54,4.6-4.2-.02-7.2-2.61-7.2-6.98M103.21,20.73c-.12-2.07-1.18-3.01-2.98-3.01-.2,0-.4.02-.6.05-.2.04-.39.09-.58.17-.19.07-.36.17-.53.27-.17.11-.33.23-.47.37-.15.14-.28.29-.39.45-.12.16-.22.34-.3.52-.08.18-.15.37-.19.57-.05.2-.07.39-.08.59h6.13" fill="#fff"/><path d="M107.9,22.37v-.2c-.01-.23-.01-.47,0-.7.01-.23.04-.47.07-.7.04-.23.09-.46.15-.69.06-.23.13-.45.22-.67.08-.22.18-.43.29-.64.11-.21.22-.41.35-.61.13-.2.26-.39.41-.57.15-.18.3-.36.47-.52.17-.17.34-.32.52-.47.18-.15.37-.29.57-.42.2-.13.4-.25.61-.36.21-.11.42-.21.64-.29.22-.09.44-.16.67-.22.23-.06.46-.11.69-.15.23-.04.46-.07.7-.08.23-.02.47-.02.7,0,3.17,0,6.09,1.38,6.44,5.31h-3.61c-.01-.17-.04-.33-.09-.5-.05-.16-.11-.32-.18-.47-.08-.15-.17-.29-.27-.42-.1-.13-.22-.25-.35-.36-.13-.11-.27-.2-.42-.28-.15-.08-.3-.15-.47-.2-.16-.05-.33-.08-.49-.1-.17-.02-.34-.02-.5,0-1.96,0-3.27,1.47-3.27,4.09v.2c0,2.75,1.2,4.16,3.35,4.16.18.01.37,0,.55-.02.18-.03.36-.07.53-.13.17-.06.34-.14.5-.23.16-.09.3-.2.44-.33.14-.12.26-.26.37-.41.11-.15.2-.3.28-.47.08-.17.14-.34.18-.52.04-.18.07-.36.08-.54h3.43c-.2,3.24-2.56,5.49-6.54,5.49s-7.01-2.49-7.01-6.96" fill="#fff"/><path d="M122.33,25.26c0-3.2,2.92-4.4,7.1-4.4h1.55v-.54c0-1.62-.5-2.51-2.22-2.51-.14-.02-.28-.02-.42-.01-.14.01-.28.04-.42.08-.14.04-.27.09-.39.16-.13.07-.24.14-.35.24-.11.09-.21.19-.3.3-.09.11-.17.23-.23.36-.06.13-.11.26-.15.4-.04.14-.06.28-.07.42h-3.61c.24-3.25,2.8-4.69,6.14-4.69s5.73,1.36,5.73,5.07v8.92h-3.69v-1.65c-.23.33-.5.62-.81.87-.31.26-.64.47-1,.64-.36.17-.74.29-1.13.36-.39.07-.79.09-1.19.06-2.4,0-4.54-1.2-4.54-4.07M130.98,24.26v-1.2h-1.44c-2.2,0-3.49.48-3.49,1.93,0,1,.61,1.66,2,1.66,1.69.05,2.98-.88,2.98-2.39h-.05" fill="#fff"/><path d="M137.36,15.32h3.79v2.09c.1-.18.22-.36.34-.53.13-.17.26-.33.41-.48.15-.15.31-.29.47-.42.17-.13.34-.25.53-.35.18-.11.37-.2.57-.28.2-.08.4-.15.6-.2.21-.05.41-.09.62-.12.21-.02.42-.03.63-.03.2-.02.4-.02.6,0,.2.02.4.05.6.1.2.05.39.11.57.19.19.08.37.17.54.28.17.11.33.23.48.36.15.13.29.28.42.43.13.16.24.32.35.5.1.17.19.36.26.54.25-.38.55-.72.89-1.02.34-.3.71-.56,1.11-.77.4-.21.82-.37,1.27-.47.44-.1.89-.15,1.34-.14,2.54,0,4.5,1.6,4.5,5.23v8.76h-3.76v-8.29c0-1.75-.78-2.54-2.15-2.54-.09,0-.18,0-.27,0-.09,0-.18.02-.27.03-.09.02-.18.04-.27.06-.09.02-.17.05-.26.09-.08.03-.17.07-.25.12-.08.04-.16.09-.23.14-.08.05-.15.11-.22.17-.07.06-.13.12-.2.19-.06.07-.12.14-.18.21-.05.07-.11.15-.15.23-.05.08-.09.16-.13.24-.04.08-.07.17-.1.25-.03.09-.05.17-.07.26-.02.09-.03.18-.04.27-.01.09-.02.18-.02.27,0,.09,0,.18.01.27v8.08h-3.77v-8.34c0-1.75-.81-2.54-2.14-2.54-.09,0-.18,0-.27,0-.09,0-.18.02-.27.03-.09.01-.18.03-.27.06-.09.02-.17.05-.26.09-.08.03-.17.07-.25.12-.08.04-.16.09-.23.14-.07.05-.15.11-.22.17-.07.06-.14.12-.2.19-.06.07-.12.14-.18.21-.06.07-.11.15-.15.23-.05.08-.09.16-.13.24-.04.08-.07.17-.1.25-.03.09-.05.17-.07.26-.02.09-.03.18-.04.27-.01.09-.02.18-.02.27,0,.09,0,.18.01.27v8.08h-3.79v-13.73" fill="#fff"/><path d="M160.85,15.32h3.8v2.15c.23-.38.5-.72.81-1.02.31-.31.66-.57,1.05-.78.38-.22.79-.38,1.21-.49.42-.11.86-.17,1.3-.17,3.35,0,6.01,2.49,6.01,7.01v.22c0,4.52-2.56,7.05-6.01,7.05-.22,0-.44,0-.65-.02-.22-.02-.43-.06-.65-.11-.21-.05-.42-.11-.63-.19-.2-.08-.4-.17-.59-.28-.19-.11-.37-.22-.55-.35-.18-.13-.34-.27-.5-.43-.16-.15-.3-.32-.43-.49-.13-.17-.25-.35-.36-.54v6.83h-3.8V15.32h0ZM171.13,22.25v-.2c0-2.78-1.36-4.13-3.27-4.13s-3.34,1.38-3.34,4.13v.2c0,2.74,1.31,4.07,3.38,4.07s3.23-1.39,3.23-4.03v-.05" fill="#fff"/><g clip-path="url(#b)"><path d="M1.77,21C4.91,12.11,10.92,1.77,23.05,1.77s18.13,15.95,18.88,26.77c-3.19,5.53-10.82,7.61-18.88,7.61-.81.01-1.63-.02-2.44-.09-.81-.07-1.61-.19-2.41-.35-.8-.16-1.58-.36-2.36-.61-.78-.25-1.54-.53-2.28-.86-.74-.33-1.47-.69-2.18-1.1-.71-.41-1.39-.85-2.05-1.33-.66-.48-1.29-.99-1.89-1.54-.6-.55-1.17-1.12-1.72-1.73,0,0,3.8-10.25,7.34-10.28,2.61,0,4.81,4.81,6.89,4.81s6.41-9.23,6.41-9.23" fill="none" stroke="#fff" stroke-linecap="round" stroke-linejoin="round" stroke-width="3.55"/></g></svg>