<?xml version="1.0" encoding="UTF-8"?><svg id="a" xmlns="http://www.w3.org/2000/svg" xmlns:xlink="http://www.w3.org/1999/xlink" viewBox="0 0 175 33.84"><defs><clipPath id="b"><rect x="0" width="175" height="33.84" fill="none"/></clipPath></defs><g clip-path="url(#b)"><rect x="0" width="175" height="33.84" fill="none"/><path d="M37.04,2.83C34.21,1.51,31.18.55,28.02,0c-.39.7-.84,1.65-1.16,2.4-3.36-.51-6.7-.51-10,0C16.55,1.65,16.09.7,15.69,0c-3.17.55-6.2,1.51-9.03,2.84C.96,11.47-.59,19.88.19,28.17c3.79,2.83,7.46,4.54,11.06,5.67.89-1.23,1.68-2.53,2.37-3.9-1.3-.5-2.55-1.11-3.73-1.82.31-.23.62-.47.91-.72,7.19,3.36,15.01,3.36,22.12,0,.3.25.61.49.91.72-1.18.71-2.43,1.32-3.74,1.82.68,1.37,1.48,2.68,2.37,3.9,3.61-1.12,7.28-2.84,11.07-5.67.91-9.61-1.55-17.95-6.5-25.34ZM14.6,23.07c-2.16,0-3.93-2.02-3.93-4.47s1.73-4.47,3.93-4.47,3.97,2.02,3.93,4.47c0,2.46-1.73,4.47-3.93,4.47ZM29.12,23.07c-2.16,0-3.93-2.02-3.93-4.47s1.73-4.47,3.93-4.47,3.97,2.02,3.93,4.47c0,2.46-1.73,4.47-3.93,4.47Z" fill="#fff"/><path d="M58.75,8.63h9.39c2.26,0,4.17.36,5.74,1.08,1.56.72,2.74,1.72,3.51,3.01.78,1.29,1.17,2.76,1.17,4.41s-.41,3.09-1.22,4.41c-.81,1.32-2.05,2.36-3.71,3.13-1.66.77-3.72,1.16-6.18,1.16h-8.71V8.63ZM67.37,21.47c1.52,0,2.7-.39,3.51-1.17.82-.78,1.23-1.84,1.23-3.19,0-1.25-.36-2.24-1.09-2.99-.73-.74-1.83-1.12-3.31-1.12h-2.94v8.46h2.6Z" fill="#fff"/><path d="M92.62,25.82c-1.3-.34-2.47-.84-3.51-1.5v-4.08c.79.62,1.84,1.13,3.17,1.54,1.32.4,2.6.6,3.84.6.58,0,1.01-.08,1.31-.23.3-.15.44-.34.44-.55,0-.25-.08-.45-.24-.61-.16-.17-.47-.3-.94-.42l-2.89-.66c-1.65-.39-2.83-.94-3.52-1.64-.7-.7-1.05-1.61-1.05-2.74,0-.95.3-1.78.92-2.48.61-.71,1.47-1.25,2.6-1.63,1.12-.39,2.44-.58,3.95-.58,1.35,0,2.58.15,3.71.44,1.12.3,2.05.67,2.79,1.13v3.86c-.76-.46-1.62-.82-2.61-1.1-.99-.27-2-.4-3.05-.4-1.51,0-2.26.26-2.26.79,0,.25.12.43.35.55.23.12.66.25,1.29.38l2.41.44c1.57.28,2.74.77,3.51,1.46.77.7,1.16,1.72,1.16,3.09,0,1.49-.64,2.68-1.91,3.55s-3.08,1.32-5.43,1.32c-1.38,0-2.72-.18-4.02-.52Z" fill="#fff"/><path d="M109.66,25.3c-1.38-.69-2.42-1.62-3.12-2.8s-1.05-2.51-1.05-3.98.36-2.8,1.08-3.96,1.78-2.08,3.18-2.74c1.4-.66,3.06-.99,5.01-.99,2.41,0,4.4.52,5.99,1.55v4.5c-.56-.39-1.21-.71-1.96-.96-.75-.25-1.54-.37-2.4-.37-1.49,0-2.66.28-3.5.84-.84.56-1.27,1.29-1.27,2.19s.41,1.61,1.23,2.18c.82.57,2,.85,3.56.85.8,0,1.59-.12,2.37-.35.78-.24,1.45-.53,2.01-.87v4.35c-1.76,1.08-3.81,1.62-6.14,1.62-1.96,0-3.63-.35-5.01-1.04Z" fill="#fff"/><path d="M126.77,25.3c-1.39-.69-2.45-1.63-3.18-2.83-.73-1.2-1.1-2.53-1.1-4.01s.36-2.79,1.1-3.95c.73-1.16,1.78-2.06,3.17-2.72,1.38-.66,3.03-.98,4.93-.98s3.56.33,4.93.98,2.43,1.56,3.15,2.7c.72,1.15,1.08,2.47,1.08,3.96s-.36,2.81-1.08,4.01c-.72,1.2-1.78,2.14-3.17,2.83-1.39.69-3.03,1.03-4.92,1.03s-3.54-.34-4.92-1.03ZM134.08,20.94c.58-.6.88-1.39.88-2.37s-.29-1.77-.88-2.35c-.58-.58-1.38-.87-2.39-.87s-1.83.29-2.42.87c-.58.58-.88,1.36-.88,2.35s.29,1.77.88,2.37c.58.6,1.39.9,2.42.9,1.01,0,1.81-.3,2.39-.9Z" fill="#fff"/><path d="M155.32,11.73v5.31c-.61-.41-1.4-.61-2.38-.61-1.28,0-2.27.4-2.96,1.19-.69.79-1.04,2.03-1.04,3.7v4.52h-5.9v-14.38h5.78v4.57c.32-1.67.84-2.9,1.55-3.7.71-.79,1.63-1.19,2.75-1.19.85,0,1.58.2,2.19.59Z" fill="#fff"/><path d="M174.92,8.14v17.7h-5.9v-3.22c-.5,1.21-1.25,2.14-2.27,2.77-1.02.63-2.28.94-3.77.94-1.33,0-2.5-.33-3.49-.99-.99-.66-1.76-1.57-2.3-2.73-.54-1.16-.81-2.46-.81-3.92-.02-1.51.27-2.86.86-4.06.58-1.2,1.41-2.13,2.48-2.8,1.07-.67,2.28-1.01,3.65-1.01,2.81,0,4.69,1.25,5.66,3.74v-6.42h5.9ZM168.14,20.84c.6-.6.9-1.37.9-2.32s-.29-1.66-.88-2.24c-.58-.57-1.39-.86-2.39-.86s-1.79.29-2.38.87c-.6.58-.89,1.34-.89,2.27s.3,1.7.89,2.29,1.38.89,2.36.89c.99,0,1.79-.3,2.39-.9Z" fill="#fff"/><path d="M83.53,12.99c1.62,0,2.94-1.21,2.94-2.7s-1.32-2.7-2.94-2.7-2.94,1.21-2.94,2.7,1.32,2.7,2.94,2.7Z" fill="#fff"/><path d="M80.59,14.85c1.8.79,4.04.83,5.88,0v11.07h-5.88v-11.07Z" fill="#fff"/></g></svg>