<?xml version="1.0" encoding="UTF-8"?><svg id="a" xmlns="http://www.w3.org/2000/svg" viewBox="0 0 175 29.09"><path d="M20.68,28.96h-7.74v-11.04h-5.01v11.04H0V.48h7.93v10.63h5.01V.48h7.74v28.49ZM56.19,29.09c7.93,0,14.4-6.6,14.4-14.62,0-8.15-6.47-14.47-14.4-14.47s-12.09,5.84-13.07,8.22c0-3.52-3.52-7.74-7.61-7.74h-13.23v28.49h12.31c5.01,0,8.53-4.28,8.53-8.03,1.11,2.32,5.04,8.15,13.07,8.15h0ZM33.6,17.51c1.14,0,2.06,1.11,2.06,2.38,0,1.33-.92,2.44-2.06,2.44h-3.93v-4.82h3.93ZM33.6,6.82c1.14,0,2.06,1.11,2.06,2.38s-.92,2.38-2.06,2.38h-3.93v-4.76h3.93ZM38.8,14.47c.92-.06,2.41-1.11,2.98-1.75-.22.76-.22,3.17,0,3.93-.63-.92-2.06-2.03-2.98-2.19ZM48.95,14.47c0-4.01,3.26-7.26,7.28-7.23,3.99.02,7.2,3.26,7.19,7.25,0,.03,0,.06,0,.09-.06,3.98-3.27,7.16-7.23,7.16s-7.23-3.24-7.23-7.26ZM56.19,20.18c3.08,0,5.68-2.54,5.68-5.71s-2.6-5.68-5.68-5.68-5.71,2.51-5.71,5.68,2.54,5.71,5.71,5.71h0Z" fill="#fff" fill-rule="evenodd"/><path d="M111.97,10.56C111.81,3.66,106.93,0,100.94,0c-3.29,0-6.24,1.1-8.26,3.24-2.02-2.14-4.97-3.24-8.26-3.24-5.99,0-10.87,3.66-11.02,10.57,0,.02,0,.03,0,.05v15.74c0,1.45,1.17,2.62,2.62,2.62h2.47c.24,0,.44-.2.44-.44h0V10.62h0c.1-3.4,2.53-5.21,5.5-5.21s5.39,1.8,5.5,5.21h0v15.74c0,1.45,1.17,2.62,2.62,2.62h2.47c.24,0,.44-.2.44-.44h0V10.62h0c.1-3.4,2.53-5.21,5.5-5.21s5.39,1.8,5.5,5.21h0v15.74c0,1.45,1.17,2.62,2.62,2.62h2.47c.24,0,.44-.2.44-.44h0V10.62s0-.04,0-.06Z" fill="#fff"/><path d="M167.65.47h-4.2c-1.16,0-2.25.58-2.89,1.54l-4.64,6.88c-.47.7-1.42.88-2.12.42-.16-.11-.3-.25-.42-.42l-4.64-6.88c-.65-.96-1.73-1.54-2.89-1.54h-4.2c-.18,0-.33.15-.33.33,0,.07.02.13.06.18l8.28,12.28c.6.89.6,2.04,0,2.93l-8.28,12.28c-.1.15-.06.35.09.45.05.04.12.06.18.06h4.2c1.16,0,2.25-.58,2.89-1.54l4.64-6.88c.47-.7,1.42-.88,2.12-.42.16.11.3.25.42.42l4.64,6.88c.65.96,1.73,1.54,2.89,1.54h4.2c.18,0,.33-.15.33-.33,0-.07-.02-.13-.06-.18l-8.28-12.28c-.6-.89-.6-2.04,0-2.93l8.28-12.28c.1-.15.06-.35-.09-.45-.05-.04-.12-.06-.18-.06Z" fill="#fff"/><path d="M139.46.47h-2.47c-1.23,0-2.3.86-2.56,2.07-2.21-1.67-4.96-2.53-7.94-2.53-7.24,0-13.11,5.04-13.11,14.55s5.87,14.55,13.11,14.55c2.96,0,5.7-.84,7.9-2.5.12,1.35,1.25,2.38,2.61,2.38h2.47c.24,0,.44-.2.44-.44h0V.9c0-.24-.2-.44-.44-.44ZM126.49,23.68c-4.32,0-7.83-3.16-7.83-9.13s3.51-9.13,7.83-9.13,7.83,3.16,7.83,9.13-3.51,9.13-7.83,9.13Z" fill="#fff"/><path d="M171.46,1.01h-.82v2.48h-.6V1.01h-.82V.44h2.25v.58Z" fill="#fff"/><path d="M175,3.49h-.6v-1.98l-.86,1.42h-.07l-.86-1.41v1.98h-.6V.44h.62l.88,1.44.87-1.44h.62v3.06h0Z" fill="#fff"/></svg>