<?xml version="1.0" encoding="UTF-8"?><svg id="a" xmlns="http://www.w3.org/2000/svg" viewBox="0 0 175 49.22"><path d="M3.27,45.94c2.02,2.02,4.81,3.27,7.9,3.27h26.88c3.08,0,5.88-1.25,7.9-3.27.79-.79,1.46-1.69,1.98-2.68.82-1.56,1.29-3.33,1.29-5.22V11.17c0-1.62-.35-3.16-.97-4.55-.56-1.25-1.35-2.39-2.3-3.34-2.02-2.02-4.81-3.27-7.9-3.27H11.17c-3.08,0-5.88,1.25-7.9,3.27-.96.96-1.74,2.09-2.3,3.34-.62,1.39-.97,2.93-.97,4.55v26.88c0,1.88.47,3.66,1.29,5.22.52.99,1.19,1.89,1.98,2.68" fill="#fff"/><path d="M32.25,6.6h-15.28c-5.76,0-10.43,4.67-10.43,10.43v15.28c0,5.76,4.67,10.43,10.43,10.43h15.28c5.76,0,10.43-4.67,10.43-10.43v-15.28c0-5.76-4.67-10.43-10.43-10.43M39.35,32.57c0,3.82-3.1,6.92-6.92,6.92h-15.63c-3.82,0-6.92-3.1-6.92-6.92v-15.63c0-3.82,3.1-6.92,6.92-6.92h15.63c3.82,0,6.92,3.1,6.92,6.92v15.63Z"/><path d="M24.61,15.38c-5.18,0-9.38,4.2-9.38,9.38s4.2,9.38,9.38,9.38,9.38-4.2,9.38-9.38-4.2-9.38-9.38-9.38M24.61,30.83c-3.36,0-6.08-2.72-6.08-6.08s2.72-6.08,6.08-6.08,6.08,2.72,6.08,6.08-2.72,6.08-6.08,6.08"/><path d="M34.3,12.84c-1.21,0-2.18.98-2.18,2.18s.98,2.18,2.18,2.18,2.18-.98,2.18-2.18-.98-2.18-2.18-2.18"/><path d="M68.01,8.7c.33-.09.67-.04.99.04.48.12.99.25,1.39.57.2.16.39.39.37.67,0,4.65,0,9.3,0,13.95-.01,1.52.08,3.06-.2,4.57-.21,1.22-.69,2.44-1.56,3.35-.29.33-.62.62-1,.83-.32.17-.68.33-1.05.3-.09-.09-.16-.2-.14-.33.03-.36.16-.7.28-1.05.36-1.16.45-2.38.5-3.58.03-5.66.04-11.33.07-16.99,0-.15-.01-.29-.03-.44-.22,0-.35.19-.5.32-.68.67-1.25,1.45-1.65,2.32-.53,1.1-.79,2.31-.9,3.53-.09.79-.03,1.59.16,2.36.16.59.4,1.18.79,1.66.17.19.22.49.08.72-.21.21-.53.1-.77.02-.82-.29-1.52-.85-2.05-1.52-.64-.81-.92-1.86-.93-2.89.06-.91.31-1.79.63-2.63.48-1.25,1.18-2.41,2.09-3.39.59-.62,1.24-1.17,1.94-1.65.48-.3.97-.59,1.52-.73M98.73,8.93c.27-.23.64-.19.97-.15.58.1,1.16.24,1.7.47.17.07.31.18.44.3-.05,1.27-.1,2.54-.17,3.8,1.28.06,2.55.13,3.83.2.22,0,.52.07.56.34.05.39,0,.81-.19,1.16-.11.18-.27.41-.51.39-1.24.02-2.48.06-3.72.08-.07,1.78-.12,3.56-.18,5.35-.03,1.62-.18,3.25,0,4.88.08.63.16,1.28.47,1.85.12.25.35.46.64.49.37.03.73-.12,1.01-.36.44-.37.74-.88,1-1.38.3-.58.52-1.21.72-1.83.07-.28.02-.56.04-.84.02-1.49.25-2.98.76-4.39.38-1.02.93-2.02,1.79-2.71.94-.78,2.31-1.04,3.45-.56.74.29,1.33.86,1.7,1.56.05-.33-.03-.68.12-.99.21-.33.64-.35.99-.32.47.05.94.17,1.35.4.25.14.5.37.51.68-.08,2.72-.19,5.44-.11,8.16.03.59.11,1.18.24,1.76.11.42.24.87.59,1.15.33.25.79.17,1.1-.07.5-.39.78-.97,1.03-1.53.06-.16.16-.33.12-.51-.19-1.63-.22-3.29.04-4.91.19-1.09.51-2.17,1.08-3.13.57-.98,1.4-1.83,2.43-2.32.2-.08.4-.19.62-.2,1.02,0,2.07.33,2.79,1.06.19.2.35.43.49.67.07-.31,0-.63.11-.93.16-.34.61-.36.93-.32.55.09,1.12.21,1.61.49.3.18.3.57.29.88-.03,3.06-.07,6.13-.09,9.19.7-.98,1.33-2.01,1.87-3.08.67-1.3,1.23-2.67,1.52-4.11-.38-.34-.73-.77-.84-1.28-.1-.42,0-.85.11-1.25.18-.61.64-1.17,1.27-1.35.48-.13,1.03-.15,1.47.09.34.18.53.55.59.92.06.38,0,.76-.07,1.13.82-.13,1.64-.26,2.44-.47.55-.13,1.15-.23,1.7-.05.39.12.68.47.78.87.1.42.13.87-.03,1.28-.22.54-.27,1.13-.39,1.69-.26,1.5-.6,3.04-.35,4.57.09.68.23,1.36.5,2,.16.34.37.71.76.83.38.1.76-.09,1.05-.32.48-.43.79-1.03.94-1.65-.32-1.6-.4-3.26-.14-4.88.19-1.21.53-2.41,1.12-3.5.46-.82,1.1-1.57,1.96-1.98.95-.47,2.14-.47,3.07.06.58.3,1.02.8,1.35,1.35.05-.33-.03-.7.14-1,.26-.33.74-.31,1.12-.25.55.1,1.16.23,1.55.67.25.28.13.67.13,1-.05,1.79-.12,3.57-.12,5.36.01,1.36-.04,2.75.32,4.08.11.34.24.7.54.92.33.24.8.19,1.12-.05.43-.33.73-.8.98-1.27.2-.42.44-.84.55-1.3,0-3,.02-6.01.03-9.01-.02-.26.07-.55.32-.66.18-.11.4-.03.6,0,.53.1,1.09.12,1.58.37.18.09.38.25.36.48,0,1.48,0,2.97,0,4.45,0,.17,0,.34.02.52.44-1.35.9-2.7,1.42-4.03.21-.49.42-.98.69-1.44.2-.37.67-.43,1.05-.41.81.06,1.66.41,2.09,1.13.15.26.22.57.22.87-.02,1.54.07,3.09.18,4.63.04.48.04.96.12,1.43.05-.04.08-.08.09-.15.16-1.14.44-2.26.77-3.36.36-1.22.76-2.44,1.27-3.61.13-.29.26-.62.56-.78.43-.24.95-.16,1.4-.03.51.18,1.04.36,1.45.72.3.25.54.62.55,1.02-.13,2.39-.24,4.79-.06,7.18.05.66.13,1.32.3,1.96.1.36.22.73.45,1.03.22.29.63.44.97.3.31-.12.51-.4.66-.68.36-.66.46-1.42.66-2.14.05-.22.15-.46.38-.53.16-.1.34.02.47.12.17.16.12.41.12.61-.05,1.15-.23,2.36-.91,3.33-.54.8-1.51,1.32-2.48,1.2-.89-.04-1.72-.55-2.2-1.3-.61-.92-.85-2.02-1.01-3.1-.28-2.15-.21-4.32-.16-6.48-.09.06-.15.15-.19.24-.6,1.2-1.01,2.5-1.33,3.8-.42,1.69-.68,3.43-.74,5.17,0,.23-.17.4-.38.45-.48.19-1.05.24-1.52,0-.48-.23-.84-.66-1.05-1.14-.23-.49-.32-1.04-.4-1.57-.29-2.22-.38-4.46-.49-6.69.02-.16-.17-.06-.25-.04-1.09,1.89-1.64,4.04-1.92,6.19-.17,1.25-.23,2.52-.25,3.78,0,.23-.13.45-.33.56-.37.21-.82.2-1.24.17-.49-.05-1.02-.09-1.44-.38-.18-.12-.3-.31-.3-.53-.03-.41-.04-.82-.07-1.23-.23.33-.41.69-.68.99-.43.51-.99.94-1.65,1.1-.93.21-1.97-.09-2.61-.8-.53-.57-.81-1.32-.95-2.07-.47,1.02-1.22,1.93-2.23,2.44-.49.26-1.03.41-1.58.47-.6.07-1.24,0-1.78-.28-.8-.41-1.4-1.14-1.77-1.95-.43.96-1.16,1.88-2.21,2.16-1.04.29-2.15-.14-2.9-.88-.95-.93-1.45-2.23-1.59-3.53-.08-.63-.05-1.26,0-1.89.09-1.41.25-2.83.62-4.19,0-.08,0-.15,0-.23-.76-.04-1.51,0-2.27.01-.37,1.28-.93,2.51-1.55,3.69-1.07,2.02-2.39,3.9-3.87,5.65.02,1.68.07,3.36-.01,5.04-.08,1.33-.28,2.68-.84,3.9-.42.91-1.09,1.74-1.98,2.22-.67.37-1.43.57-2.19.61-.95-.07-1.93-.3-2.67-.93-.52-.43-.88-1.04-1.01-1.7-.1-.57-.13-1.18.06-1.74.33-1.05,1.01-1.95,1.73-2.77.73-.83,1.58-1.55,2.38-2.31.64-.6,1.29-1.2,1.93-1.79.01-.47-.06-.93-.08-1.4-.3.39-.56.8-.93,1.12-.93.9-2.26,1.36-3.54,1.19-.89-.16-1.62-.77-2.15-1.47-.2-.25-.38-.53-.54-.81-.47.93-1.15,1.89-2.2,2.21-1.04.29-2.22-.13-2.9-.95-.45-.55-.74-1.23-.83-1.93-.44.94-1.11,1.79-2,2.34-.57.36-1.24.56-1.91.62-.73.09-1.49-.09-2.09-.51-1.09-.77-1.63-2.06-1.95-3.31-.17.56-.44,1.07-.73,1.58-.29.45-.59.9-.98,1.27-.46.45-1.03.81-1.67.89-.74.09-1.52-.13-2.08-.61-.46-.39-.8-.91-1.05-1.46-.47-1-.64-2.11-.74-3.2-.58,1.27-1.26,2.53-2.27,3.51-.77.79-1.75,1.39-2.83,1.65-.85.22-1.74.2-2.61.12-.75-.08-1.51-.22-2.17-.59-.32-.19-.64-.45-.74-.83-.06-.41.17-.79.4-1.11.22-.3.47-.61.83-.74.33-.11.62.16.89.33.4.36.86.68,1.4.79.52.14,1.15-.04,1.46-.5.28-.43.36-.96.39-1.46,0-.95-.62-1.76-1.26-2.41-.6-.58-1.23-1.12-1.86-1.68-.88,1.51-1.83,2.98-2.73,4.48-.54.96-1.18,1.88-2,2.62-.59.53-1.3.98-2.1,1.09-.54.08-1.08-.19-1.41-.61-.43-.55-.61-1.24-.72-1.91-.16-1.21-.1-2.43-.08-3.65.02-1.55.1-3.09.15-4.64,0-.33.05-.66.01-.99-.1.02-.23.03-.29.12-1.48,1.67-2.4,3.74-3.12,5.82-.61,1.83-1.05,3.71-1.33,5.61-.24.19-.56.25-.86.2-.36-.05-.73,0-1.09-.08-.32-.08-.54-.36-.67-.66-.26-.6-.29-1.27-.29-1.92.03-3.66.05-7.31.08-10.97,0-.18.04-.4.23-.46.38-.12.78-.02,1.16.06.42.11.88.22,1.2.54.16.15.09.39.11.59,0,2.03-.04,4.06-.03,6.09.67-1.8,1.32-3.62,2.36-5.25.23-.33.45-.68.74-.97.49-.57,1.17-1.08,1.96-1.09.59-.02,1.13.25,1.65.5.48.24.94.59,1.14,1.11.13.3.08.64.07.96-.05,1.74-.1,3.49-.16,5.23-.01.71-.07,1.42-.03,2.14.02.34.06.68.18,1,.07.18.18.38.39.42.2.02.36-.12.51-.24.32-.29.58-.64.84-.99.73-1.02,1.36-2.1,1.98-3.19.37-.67.75-1.33,1.09-2.02-.12-.2-.3-.36-.41-.57-.4-.65-.52-1.47-.3-2.21.19-.72.64-1.36,1.24-1.81.42-.3.91-.49,1.41-.59.48-.12,1.01-.05,1.44.2.29.18.44.52.45.86.03.63-.21,1.24-.5,1.78-.29.54-.66,1.03-1.05,1.5,1.25.91,2.55,1.78,3.63,2.9.57.6,1.04,1.33,1.13,2.16.07.43,0,.86-.06,1.29,1.18-1.03,2.09-2.43,2.33-3.99.03-2.38.02-4.77.05-7.15-1.09-.02-2.18-.02-3.27-.05-.22-.13-.26-.4-.27-.63,0-.55.15-1.12.53-1.53.06-.09.17-.06.26-.07.97.01,1.94.03,2.92.04.05-1.1.07-2.21.11-3.31,0-.32,0-.67.22-.93M110.62,18.13c-.64.13-1.11.64-1.41,1.19-.4.75-.59,1.59-.71,2.42-.15,1.08-.19,2.18-.14,3.27.06.84.17,1.7.56,2.46.22.41.55.8,1,.96.3.12.64.1.92-.05.58-.3.97-.85,1.26-1.41.51-1.04.73-2.2.85-3.35.09-1.19.13-2.42-.16-3.59-.15-.56-.39-1.12-.82-1.52-.36-.33-.88-.5-1.36-.39M124.19,18.17c-.77.21-1.3.88-1.64,1.56-.5,1.06-.7,2.24-.79,3.4-.06,1.31-.07,2.65.33,3.91.2.59.55,1.2,1.14,1.47.37.18.82.14,1.17-.08.3-.19.55-.44.76-.73.48-.65.76-1.42.95-2.19.28-1.15.38-2.35.37-3.53-.01-.81-.08-1.63-.34-2.4-.17-.47-.42-.95-.84-1.24-.32-.23-.74-.28-1.11-.17M147.74,18.27c-.67.11-1.18.63-1.48,1.2-.54,1.03-.71,2.2-.81,3.35-.08,1.29-.12,2.6.18,3.86.15.62.41,1.24.91,1.66.33.26.79.41,1.19.26.53-.18.91-.64,1.21-1.09.68-1.13.94-2.47,1.07-3.77.1-1.18.12-2.4-.17-3.56-.15-.57-.39-1.15-.85-1.54-.33-.3-.81-.46-1.25-.37M125.8,32.56c-1.18,1.17-2.28,2.48-2.93,4.02-.24.55-.36,1.17-.19,1.76.11.46.48.84.93.96.57.15,1.22.15,1.73-.17.46-.31.77-.8.95-1.32.35-.99.42-2.05.47-3.1.02-1.02.04-2.04.05-3.06-.37.26-.68.61-1.01.91" fill="#fff"/></svg>