<?xml version="1.0" encoding="UTF-8"?><svg id="a" xmlns="http://www.w3.org/2000/svg" viewBox="0 0 175 43.07"><path d="M124.8,16.77c-2.58,0-4.42.88-5.32,2.55l-.48.9v-3.01h-4.19v18.32h4.41v-10.9c0-2.6,1.42-4.1,3.88-4.1s3.7,1.45,3.7,3.99v11.01h4.41v-11.8c0-4.36-2.39-6.96-6.41-6.96ZM103.42,16.77c-5.2,0-8.43,3.25-8.43,8.47v2.57c0,5.03,3.26,8.15,8.51,8.15,3.51,0,5.97-1.29,7.52-3.93l-2.73-1.57c-1.14,1.53-2.97,2.47-4.78,2.47-2.66,0-4.24-1.64-4.24-4.39v-.73h12.31v-3.04c0-4.87-3.2-8-8.14-8h0ZM107.55,24.85h-8.31v-.44c0-3.02,1.48-4.68,4.17-4.68s4.14,1.64,4.14,4.39v.73ZM175,14.19v-3.51h-15.25v3.51h5.35v17.83h-5.35v3.51h15.25v-3.51h-5.35V14.19h5.35ZM59.35,10.18c-6.81,0-11.05,4.24-11.05,11.08v3.7c0,6.83,4.23,11.08,11.05,11.08s11.05-4.25,11.05-11.08v-3.7c0-6.84-4.24-11.08-11.05-11.08ZM65.84,25.21c0,4.54-2.36,7.14-6.49,7.14s-6.49-2.6-6.49-7.14v-4.2c0-4.54,2.37-7.14,6.49-7.14s6.49,2.6,6.49,7.14v4.2ZM84.25,16.77c-2.31,0-4.32.96-5.36,2.56l-.47.73v-2.86h-4.19v24.63h4.41v-8.92l.47.7c.99,1.47,2.93,2.35,5.18,2.35,3.8,0,7.64-2.48,7.64-8.04v-3.12c0-4-2.36-8.04-7.68-8.04h0ZM87.51,27.71c0,2.95-1.72,4.79-4.49,4.79-2.58,0-4.39-1.94-4.39-4.71v-2.76c0-2.81,1.82-4.79,4.42-4.79,2.75,0,4.46,1.83,4.46,4.79v2.68ZM143.4,10.69l-8.9,24.84h4.48l1.7-5.33h10.23l.02.05,1.69,5.27h4.48l-8.91-24.84h-4.78ZM141.78,26.7l4.01-12.56,3.97,12.56h-7.99Z" fill="#fff"/><path d="M39.68,17.62c.98-2.93.64-6.14-.92-8.81-2.35-4.09-7.07-6.19-11.68-5.2C25.02,1.3,22.07-.02,18.98,0c-4.72-.01-8.9,3.03-10.35,7.52-3.03.62-5.64,2.52-7.17,5.2-2.36,4.08-1.82,9.22,1.34,12.72-.97,2.93-.64,6.14.92,8.8,2.35,4.1,7.08,6.2,11.69,5.21,2.05,2.31,4.99,3.63,8.08,3.61,4.72.01,8.9-3.03,10.35-7.52,3.03-.62,5.64-2.52,7.17-5.2,2.37-4.08,1.83-9.22-1.33-12.72ZM23.49,40.26c-1.89,0-3.72-.66-5.16-1.87.06-.04.19-.1.26-.14l8.58-4.95c.44-.25.71-.72.7-1.22v-12.09l3.62,2.09s.07.06.07.1v10.01c0,4.46-3.61,8.07-8.07,8.08h0ZM6.16,32.85c-.95-1.63-1.29-3.55-.96-5.41.06.04.18.11.25.15l8.58,4.95c.43.25.97.25,1.41,0l10.46-6.05v4.18s-.02.09-.05.11l-8.67,5c-3.86,2.22-8.79.9-11.02-2.95h0ZM3.91,14.13c.94-1.64,2.43-2.89,4.2-3.54v10.19c0,.5.27.97.7,1.22l10.47,6.04-3.64,2.1s-.08.03-.12.01l-8.67-5c-3.86-2.23-5.18-7.16-2.95-11.02h0ZM33.68,21.06l-10.47-6.04,3.62-2.09s.08-.03.12-.01l8.67,5c2.71,1.57,4.27,4.56,4,7.68-.27,3.12-2.31,5.8-5.25,6.88v-10.19c0-.5-.26-.97-.7-1.22h0ZM37.29,15.63c-.06-.04-.18-.11-.25-.15l-8.58-4.95c-.43-.25-.97-.25-1.41,0l-10.47,6.04v-4.18s.02-.09.05-.11l8.67-5c2.71-1.56,6.08-1.42,8.65.37,2.57,1.79,3.87,4.9,3.34,7.99h0ZM14.61,23.09l-3.62-2.09s-.06-.06-.07-.1v-10.01c0-3.13,1.81-5.98,4.64-7.31,2.84-1.33,6.18-.9,8.59,1.11-.06.04-.18.1-.26.14l-8.58,4.95c-.44.25-.71.72-.7,1.22v12.09ZM16.58,18.84l4.66-2.69,4.66,2.69v5.38l-4.66,2.69-4.66-2.69v-5.38Z" fill="#fff"/></svg>