<?xml version="1.0" encoding="UTF-8"?><svg id="a" xmlns="http://www.w3.org/2000/svg" viewBox="0 0 175 53.91"><path d="M11.25,16.65c-6.2,0-11.25,5.04-11.25,11.25v26.01h5.33v-14.44l1.96,2.07,7.84-3.08c4.46-1.74,7.36-5.77,7.36-10.56,0-6.2-5.04-11.25-11.25-11.25M13.24,33.74l-7.91,3.08v-8.92c0-3.59,2.68-6.17,5.91-6.17s5.91,2.61,5.91,6.17c0,2.25-1.09,4.72-3.92,5.84M105.35,16.65c-6.2,0-11.25,5.04-11.25,11.25s5.04,11.25,11.25,11.25,11.25-5.04,11.25-11.25-5.04-11.25-11.25-11.25M105.35,34.06c-3.41,0-5.91-2.72-5.91-6.17s2.58-6.17,5.91-6.17,5.91,2.72,5.91,6.17-2.5,6.17-5.91,6.17M129.69,21.73c2.32,0,4.21,1.27,5.19,3.16l4.17-3.19c-2.03-3.01-5.44-5.01-9.36-5.01-6.2,0-11.25,5.04-11.25,11.25s5.04,11.25,11.25,11.25c3.88,0,7.33-1.99,9.36-5.01l-4.17-3.19c-.98,1.89-2.87,3.16-5.19,3.16-3.41,0-5.91-2.72-5.91-6.17s2.58-6.24,5.91-6.24M84.2,21.73c2.32,0,4.21,1.27,5.19,3.16l4.17-3.19c-2.03-3.01-5.44-5.01-9.36-5.01-6.2,0-11.25,5.04-11.25,11.25s5.04,11.25,11.25,11.25c3.88,0,7.33-1.99,9.36-5.01l-4.17-3.19c-.98,1.89-2.87,3.16-5.19,3.16-3.41,0-5.91-2.72-5.91-6.17s2.54-6.24,5.91-6.24M65.55,19.34c-1.81-1.89-4.21-2.68-6.71-2.68-5.22,0-10.52,4.75-10.52,11.25s5.3,11.25,10.52,11.25c2.5,0,4.9-.8,6.71-2.68v2.03h5.33v-21.15h-5.33v2ZM59.64,34.06c-3.41,0-5.99-2.72-5.99-6.17s2.65-6.17,5.99-6.17,5.91,2.72,5.91,6.17-2.5,6.17-5.91,6.17M153.89,27.14h-2.39l9.25-9.83h-6.86l-7.47,8.05V5.77h-5.33v32.72h5.33v-6.02l2.94-3.12,6.28,9.14h6.46l-8.2-11.36ZM35.48,16.65c-6.2,0-11.25,5.04-11.25,11.25s5.04,11.25,11.25,11.25c3.7,0,7.18-1.78,9.18-4.53l-4.28-2.97c-.51.83-2.14,2.43-4.9,2.43-2.54,0-4.61-1.52-5.48-3.74h16.22c.18-.8.26-1.6.26-2.43.03-6.2-4.79-11.25-10.99-11.25M30.04,25.47c.87-2.21,2.94-3.74,5.44-3.74s4.46,1.52,5.26,3.74h-10.7Z" fill="#fff"/><path d="M171.77,35.3c-1.78,0-3.23,1.45-3.23,3.23s1.45,3.23,3.23,3.23,3.23-1.45,3.23-3.23-1.45-3.23-3.23-3.23" fill="#069de0"/><path d="M171.77,26.48c-1.78,0-3.23,1.45-3.23,3.23s1.45,3.23,3.23,3.23,3.23-1.45,3.23-3.23c-.04-1.81-1.45-3.23-3.23-3.23" fill="#6e55dc"/><path d="M171.77,44.11c-1.78,0-3.23,1.45-3.23,3.23s1.45,3.23,3.23,3.23,3.23-1.45,3.23-3.23-1.45-3.23-3.23-3.23" fill="#05ac3f"/><path d="M171.77,17.63c-1.78,0-3.23,1.45-3.23,3.23s1.45,3.23,3.23,3.23,3.23-1.45,3.23-3.23c-.04-1.78-1.45-3.23-3.23-3.23" fill="#ef1541"/><path d="M171.77,8.82c-1.78,0-3.23,1.45-3.23,3.23s1.45,3.23,3.23,3.23,3.23-1.45,3.23-3.23c-.04-1.78-1.45-3.23-3.23-3.23" fill="#ff7112"/><path d="M171.77,0c-1.78,0-3.23,1.45-3.23,3.23s1.45,3.23,3.23,3.23,3.23-1.45,3.23-3.23c-.04-1.78-1.45-3.23-3.23-3.23" fill="#fccc12"/></svg>