<?xml version="1.0" encoding="UTF-8"?><svg id="a" xmlns="http://www.w3.org/2000/svg" viewBox="0 0 175 56.53"><circle cx="28.27" cy="28.27" r="28.27" fill="#ff4500"/><path d="M47.12,28.27c-.08-2.28-2-4.05-4.28-3.98-1.01.04-1.97.45-2.71,1.15-3.22-2.19-7-3.39-10.88-3.48l1.83-8.82,6.05,1.27c.17,1.55,1.56,2.68,3.11,2.51,1.55-.17,2.68-1.56,2.51-3.11s-1.56-2.68-3.11-2.51c-.89.09-1.69.61-2.14,1.38l-6.93-1.38c-.47-.11-.94.19-1.05.67h0s-2.09,9.82-2.09,9.82c-3.93.06-7.76,1.27-11.02,3.48-1.66-1.56-4.27-1.48-5.83.18-1.56,1.66-1.48,4.27.18,5.83.32.3.7.56,1.11.74-.03.41-.03.83,0,1.24,0,6.33,7.38,11.48,16.48,11.48s16.48-5.14,16.48-11.48c.03-.41.03-.83,0-1.24,1.42-.71,2.31-2.17,2.28-3.76ZM18.85,31.1c0-1.56,1.27-2.83,2.83-2.83s2.83,1.27,2.83,2.83-1.27,2.83-2.83,2.83c-1.57-.01-2.83-1.27-2.83-2.83ZM35.27,38.87c-2.01,1.51-4.47,2.28-6.98,2.18-2.52.11-4.97-.67-6.98-2.18-.27-.32-.22-.81.11-1.08.28-.23.68-.23.97,0,1.7,1.24,3.77,1.88,5.88,1.78,2.11.11,4.19-.49,5.91-1.72.31-.3.82-.3,1.12.01s.3.82-.01,1.12h0v-.11h0ZM34.77,34.03c-1.56,0-2.83-1.27-2.83-2.83s1.27-2.83,2.83-2.83,2.83,1.27,2.83,2.83c.06,1.56-1.15,2.87-2.71,2.94h-.14l.02-.11Z" fill="#fff"/><circle cx="157.71" cy="15.8" r="3.85" fill="#ff4500"/><path d="M103.14,32.18c1.49.11,2.78-1.02,2.89-2.52,0-.08,0-.18,0-.27-.02-.52-.08-1.05-.19-1.56-.91-4.88-5.08-8.47-10.03-8.66-5.64,0-10.36,5.19-10.36,11.55s4.64,11.56,10.35,11.56c3.03.12,5.97-1.1,8-3.34.84-.91.77-2.33-.15-3.16-.07-.06-.13-.12-.2-.17-.91-.57-2.1-.45-2.87.3-1.27,1.26-2.98,1.99-4.78,2.04-3.11-.25-5.59-2.68-5.9-5.79h13.15l.08.03ZM95.79,23.52c2.73.18,5.03,2.14,5.64,4.81h-11.27c.6-2.68,2.89-4.64,5.63-4.81Z" fill="#fff"/><path d="M85.69,21.41c0-1.08-.8-2-1.88-2.14-2.9-.48-5.85.59-7.76,2.84v-.28c0-1.2-.97-2.17-2.17-2.17s-2.17.97-2.17,2.17v17.78c-.03,1.17.86,2.16,2.03,2.26,1.19.08,2.23-.82,2.3-2,0-.08,0-.17,0-.25v-9.12c-.19-3.64,2.6-6.74,6.24-6.94.32-.02.65-.01.98.02h.44c1.12-.1,1.99-1.03,1.99-2.16Z" fill="#fff"/><path d="M159.87,23.74c0-1.2-.97-2.17-2.17-2.17s-2.17.97-2.17,2.17h0v15.86c0,1.2.97,2.17,2.17,2.17s2.17-.97,2.17-2.17v-15.86Z" fill="#fff"/><path d="M127.83,11.69c0-1.19-.97-2.16-2.16-2.16h0c-1.19,0-2.16.97-2.16,2.16v9.7c-1.46-1.48-3.47-2.28-5.54-2.22-5.64,0-10.36,5.19-10.36,11.55s4.64,11.56,10.36,11.56c2.11.06,4.15-.74,5.64-2.24.34,1.15,1.54,1.8,2.68,1.46.86-.25,1.48-1.01,1.54-1.92V11.69h0ZM117.95,38c-3.32,0-6.03-3.23-6.03-7.23s2.68-7.23,6.03-7.23,6.03,3.23,6.03,7.23-2.68,7.2-6.01,7.2v.04Z" fill="#fff"/><path d="M150.47,11.69c0-1.19-.97-2.16-2.16-2.16h0c-1.19,0-2.16.97-2.16,2.16h0v9.7c-1.46-1.48-3.47-2.28-5.54-2.22-5.64,0-10.36,5.19-10.36,11.55s4.64,11.56,10.36,11.56c2.11.06,4.15-.74,5.64-2.24.34,1.15,1.54,1.8,2.68,1.46.86-.25,1.48-1.01,1.54-1.92V11.69h0ZM140.59,38c-3.32,0-6.03-3.23-6.03-7.23s2.68-7.23,6.03-7.23,6.03,3.23,6.03,7.23-2.68,7.2-6.01,7.2v.04Z" fill="#fff"/><path d="M171.12,39.59v-16.08h1.88c1.04.06,1.93-.73,1.99-1.76,0-.04,0-.08,0-.12.09-1.03-.67-1.95-1.7-2.04-.06,0-.12,0-.18,0h-1.99v-2.99c.01-1.16-.87-2.14-2.03-2.24-1.19-.08-2.22.82-2.3,2,0,.05,0,.11,0,.15v3.12h-1.88c-1.04-.06-1.93.73-1.99,1.76,0,.04,0,.08,0,.12-.09,1.03.67,1.95,1.7,2.04.06,0,.12,0,.18,0h1.88v16.03c0,1.19.97,2.16,2.16,2.16h0c1.19.08,2.21-.84,2.29-2.03,0-.04,0-.09,0-.14Z" fill="#fff"/></svg>