<?xml version="1.0" encoding="UTF-8"?><svg id="a" xmlns="http://www.w3.org/2000/svg" viewBox="0 0 217.02 240.94"><path d="M0,117.49h27.34c43.01,0,77.88-34.87,77.88-77.88V0c-4.12.46-8.11,1.76-11.72,3.84L15,49.16C5.75,54.51,0,64.46,0,75.15v42.34Z"/><path d="M0,124.07v41.73c0,10.69,5.75,20.64,15,25.99l78.5,45.32c3.6,2.08,7.6,3.38,11.72,3.84v-39c0-43.01-34.87-77.88-77.88-77.88H0Z"/><path d="M189.67,117.49h27.34v-42.34c0-10.69-5.75-20.64-15-25.99L123.51,3.84c-3.6-2.08-7.6-3.38-11.72-3.84v39.61c0,43.01,34.87,77.88,77.88,77.88Z"/><path d="M111.8,201.95v39c4.12-.46,8.11-1.76,11.72-3.84l78.5-45.32c9.25-5.34,15-15.3,15-25.99v-41.73h-27.34c-43.01,0-77.88,34.87-77.88,77.88Z"/><path d="M0,124.07v41.73c0,10.69,5.75,20.64,15,25.99l78.5,45.32c3.6,2.08,7.6,3.38,11.72,3.84v-39c0-43.01-34.87-77.88-77.88-77.88H0Z"/></svg>