<?xml version="1.0" encoding="UTF-8"?><svg id="a" xmlns="http://www.w3.org/2000/svg" viewBox="0 0 255.12 255.12"><polygon points="127.56 153.07 134.02 255.12 121.1 255.12 127.56 153.07"/><polygon points="127.56 102.05 121.1 0 134.02 0 127.56 102.05"/><polygon points="134.16 152.2 166.82 249.1 154.34 252.44 134.16 152.2"/><polygon points="120.96 102.92 88.31 6.02 100.78 2.68 120.96 102.92"/><polygon points="140.32 149.65 196.93 234.8 185.75 241.26 140.32 149.65"/><polygon points="114.8 105.47 58.19 20.32 69.37 13.86 114.8 105.47"/><polygon points="145.6 145.6 222.33 213.19 213.19 222.32 145.6 145.6"/><polygon points="109.52 109.52 32.79 41.93 41.93 32.79 109.52 109.52"/><polygon points="149.65 140.32 241.26 185.74 234.8 196.93 149.65 140.32"/><polygon points="105.47 114.8 13.86 69.37 20.32 58.19 105.47 114.8"/><polygon points="152.2 134.16 252.45 154.34 249.1 166.81 152.2 134.16"/><polygon points="102.92 120.96 2.68 100.78 6.02 88.31 102.92 120.96"/><polygon points="153.07 127.56 255.12 121.1 255.12 134.02 153.07 127.56"/><polygon points="102.05 127.56 0 134.02 0 121.1 102.05 127.56"/><polygon points="152.2 120.96 249.1 88.31 252.45 100.78 152.2 120.96"/><polygon points="102.92 134.16 6.02 166.81 2.68 154.34 102.92 134.16"/><polygon points="149.65 114.8 234.8 58.19 241.26 69.37 149.65 114.8"/><polygon points="105.47 140.32 20.32 196.93 13.86 185.74 105.47 140.32"/><polygon points="145.6 109.52 213.19 32.79 222.33 41.93 145.6 109.52"/><polygon points="109.52 145.6 41.93 222.32 32.79 213.19 109.52 145.6"/><polygon points="140.32 105.47 185.75 13.86 196.93 20.32 140.32 105.47"/><polygon points="114.8 149.65 69.37 241.26 58.19 234.8 114.8 149.65"/><polygon points="134.16 102.92 154.34 2.68 166.82 6.02 134.16 102.92"/><polygon points="120.96 152.2 100.78 252.44 88.31 249.1 120.96 152.2"/></svg>