<?xml version="1.0" encoding="UTF-8"?><svg id="a" xmlns="http://www.w3.org/2000/svg" viewBox="0 0 226.77 226.77"><path d="M150.16,36.77c-23.58,23.58-36.48,52.28-36.77,76.61,24.34-.29,53.03-13.19,76.61-36.77C213.58,53.03,226.48,24.34,226.77,0c-24.34.29-53.03,13.19-76.61,36.77Z"/><path d="M36.77,150.16C13.19,173.74.29,202.44,0,226.77c24.34-.29,53.03-13.19,76.61-36.77,23.58-23.58,36.48-52.28,36.77-76.61-24.34.29-53.03,13.19-76.61,36.77Z"/><path d="M36.77,76.61c23.58,23.58,52.28,36.48,76.61,36.77-.29-24.34-13.19-53.03-36.77-76.61C53.03,13.19,24.34.29,0,0c.29,24.34,13.19,53.03,36.77,76.61Z"/><path d="M150.16,190c23.58,23.58,52.28,36.48,76.61,36.77-.29-24.34-13.19-53.03-36.77-76.61-23.58-23.58-52.28-36.48-76.61-36.77.29,24.34,13.19,53.03,36.77,76.61Z"/></svg>