<?xml version="1.0" encoding="UTF-8"?><svg id="a" xmlns="http://www.w3.org/2000/svg" viewBox="0 0 226.77 226.77"><path d="M0,56.69v56.69h56.69C25.38,113.39,0,88,0,56.69Z"/><path d="M56.69,0H0v56.69C0,25.38,25.38,0,56.69,0Z"/><path d="M56.69,113.39h56.69v-56.69c0,31.31-25.38,56.69-56.69,56.69Z"/><path d="M56.69,0c31.31,0,56.69,25.38,56.69,56.69V0h-56.69Z"/><path d="M113.39,170.08v56.69h56.69c-31.31,0-56.69-25.38-56.69-56.69Z"/><path d="M170.08,113.39h-56.69v56.69c0-31.31,25.38-56.69,56.69-56.69Z"/><path d="M170.08,113.39c31.31,0,56.69,25.38,56.69,56.69v-56.69h-56.69Z"/><path d="M170.08,226.77h56.69v-56.69c0,31.31-25.38,56.69-56.69,56.69Z"/><circle cx="170.08" cy="56.69" r="56.69" transform="translate(-2.39 7.77) rotate(-2.6)"/><path d="M56.69,113.39h0c-31.31,0-56.69,25.38-56.69,56.69s25.38,56.69,56.69,56.69h0c31.31,0,56.69-25.38,56.69-56.69s-25.38-56.69-56.69-56.69Z"/></svg>