<?xml version="1.0" encoding="UTF-8"?><svg id="a" xmlns="http://www.w3.org/2000/svg" viewBox="0 0 240.94 240.94"><circle cx="120.47" cy="120.47" r="60.24" transform="translate(-49.9 120.47) rotate(-45)"/><path d="M180.71,60.24v120.47c33.27,0,60.24-26.97,60.24-60.24s-26.97-60.24-60.24-60.24Z"/><path d="M60.24,60.24h120.47C180.71,26.97,153.74,0,120.47,0s-60.24,26.97-60.24,60.24Z"/><path d="M60.24,180.71V60.24C26.97,60.24,0,87.2,0,120.47s26.97,60.24,60.24,60.24Z"/><path d="M180.71,180.71H60.24c0,33.27,26.97,60.24,60.24,60.24s60.24-26.97,60.24-60.24Z"/><path d="M240.94,60.24C240.94,26.97,213.98,0,180.71,0v60.24h60.24Z"/><path d="M60.24,0C26.97,0,0,26.97,0,60.24h60.24V0Z"/><path d="M0,180.71c0,33.27,26.97,60.24,60.24,60.24v-60.24H0Z"/><path d="M180.71,240.94c33.27,0,60.24-26.97,60.24-60.24h-60.24v60.24Z"/></svg>