<?xml version="1.0" encoding="UTF-8"?><svg id="a" xmlns="http://www.w3.org/2000/svg" viewBox="0 0 240.94 240.94"><polygon points="0 120.47 60.24 180.71 0 240.94 0 120.47"/><polygon points="120.47 240.94 60.24 180.71 120.47 120.47 120.47 240.94"/><polygon points="0 120.47 60.24 60.24 120.47 120.47 0 120.47"/><polygon points="120.47 0 60.24 60.24 0 0 120.47 0"/><polygon points="240.94 120.47 180.71 60.24 240.94 0 240.94 120.47"/><polygon points="120.47 0 180.71 60.24 120.47 120.47 120.47 0"/><polygon points="240.94 120.47 180.71 180.71 120.47 120.47 240.94 120.47"/><polygon points="120.47 240.94 180.71 180.71 240.94 240.94 120.47 240.94"/></svg>