<?xml version="1.0" encoding="UTF-8"?><svg id="a" xmlns="http://www.w3.org/2000/svg" viewBox="0 0 240.94 237.55"><polygon points="22.46 56.89 22.46 22.46 22.46 0 0 22.46 0 79.34 56.89 79.34 79.34 56.89 56.89 56.89 22.46 56.89"/><polygon points="103.26 56.89 103.26 22.46 103.26 0 80.8 22.46 80.8 79.34 137.69 79.34 160.14 56.89 137.69 56.89 103.26 56.89"/><polygon points="184.06 56.89 184.06 22.46 184.06 0 161.6 22.46 161.6 79.34 218.49 79.34 240.94 56.89 218.49 56.89 184.06 56.89"/><polygon points="22.46 136.22 22.46 101.79 22.46 79.33 0 101.79 0 158.67 56.89 158.67 79.34 136.22 56.89 136.22 22.46 136.22"/><polygon points="103.26 136.22 103.26 101.79 103.26 79.33 80.8 101.79 80.8 158.67 137.69 158.67 160.14 136.22 137.69 136.22 103.26 136.22"/><polygon points="184.06 136.22 184.06 101.79 184.06 79.33 161.6 101.79 161.6 158.67 218.49 158.67 240.94 136.22 218.49 136.22 184.06 136.22"/><polygon points="22.46 215.09 22.46 180.67 22.46 158.21 0 180.67 0 237.55 56.89 237.55 79.34 215.09 56.89 215.09 22.46 215.09"/><polygon points="103.26 215.09 103.26 180.67 103.26 158.21 80.8 180.67 80.8 237.55 137.69 237.55 160.14 215.09 137.69 215.09 103.26 215.09"/><polygon points="184.06 215.09 184.06 180.67 184.06 158.21 161.6 180.67 161.6 237.55 218.49 237.55 240.94 215.09 218.49 215.09 184.06 215.09"/></svg>