<?xml version="1.0" encoding="UTF-8"?><svg id="a" xmlns="http://www.w3.org/2000/svg" viewBox="0 0 226.77 226.77"><path d="M56.69,0C25.43,0,0,25.43,0,56.69s25.43,56.69,56.69,56.69,56.69-25.43,56.69-56.69S87.95,0,56.69,0ZM78.62,56.69c0,12.09-9.83,21.93-21.92,21.93s-21.93-9.84-21.93-21.93,9.84-21.93,21.93-21.93,21.92,9.84,21.92,21.93Z"/><path d="M170.08,0c-31.26,0-56.69,25.43-56.69,56.69s25.43,56.69,56.69,56.69,56.69-25.43,56.69-56.69S201.34,0,170.08,0ZM192,56.69c0,12.09-9.84,21.93-21.93,21.93s-21.93-9.84-21.93-21.93,9.84-21.93,21.93-21.93,21.93,9.84,21.93,21.93Z"/><path d="M56.69,113.38c-31.26,0-56.69,25.43-56.69,56.69s25.43,56.69,56.69,56.69,56.69-25.43,56.69-56.69-25.43-56.69-56.69-56.69ZM78.62,170.08c0,12.09-9.83,21.93-21.92,21.93s-21.93-9.84-21.93-21.93,9.84-21.93,21.93-21.93,21.92,9.84,21.92,21.93Z"/><path d="M170.08,113.38c-31.26,0-56.69,25.43-56.69,56.69s25.43,56.69,56.69,56.69,56.69-25.43,56.69-56.69-25.43-56.69-56.69-56.69ZM192,170.08c0,12.09-9.84,21.93-21.93,21.93s-21.93-9.84-21.93-21.93,9.84-21.93,21.93-21.93,21.93,9.84,21.93,21.93Z"/></svg>