<?xml version="1.0" encoding="UTF-8"?><svg id="a" xmlns="http://www.w3.org/2000/svg" viewBox="0 0 253.39 226.77"><path d="M126.7,138.36c0-55.64-45.11-100.75-100.75-100.75,0,55.64,45.11,100.75,100.75,100.75Z"/><path d="M227.44,37.61c-55.64,0-100.75,45.11-100.75,100.75,55.64,0,100.75-45.11,100.75-100.75Z"/><path d="M126.7,226.77c0-69.97-56.72-126.7-126.7-126.7,0,69.97,56.72,126.7,126.7,126.7Z"/><path d="M253.39,100.08c-69.97,0-126.7,56.72-126.7,126.7,69.97,0,126.7-56.72,126.7-126.7Z"/><path d="M126.7,69.66C126.7,31.19,95.51,0,57.03,0c0,38.47,31.19,69.66,69.66,69.66Z"/><path d="M196.36,0c-38.48,0-69.66,31.19-69.66,69.66,38.47,0,69.66-31.19,69.66-69.66Z"/></svg>