<?xml version="1.0" encoding="UTF-8"?><svg id="a" xmlns="http://www.w3.org/2000/svg" viewBox="0 0 1920 1920"><rect width="1920" height="1920" fill="#49e385"/><path d="M777.6,822.1v138c0,96.2-77.6,174.9-173.2,174.9h-2.8c-95.9,0-174.9-78.3-175.9-175.2,0-5.2.7-10.7,3.1-15.5,6.2-13.8,19.3-22.1,33.4-22.1h105.6v-100c0-20.3,16.2-36.9,36.5-36.9h136.9c20,0,36.5,16.5,36.5,36.9h-.3l.2-.1ZM1129.4,803.4c-6.6-11.4-18.6-18.3-31.7-18.3h-267.3c-13.1,0-25.2,6.9-31.7,18.3-6.6,11.4-6.6,25.5,0,36.9l67.6,117.3-67.6,117.3c-6.6,11.4-6.6,25.5,0,36.9s18.6,18.3,31.7,18.3h267.3c16.2,0,31-10.7,35.5-27.3,2.8-9.6,1-20-4.1-28.6l-67.3-116.9,67.6-117.3c6.6-11.4,6.6-25.5,0-36.9h0v.3h0ZM1472.2,789c-13.8-5.5-29.3-2.4-40,7.9l-110,110-110-110c-10.4-10.4-26.2-13.8-40-7.9-13.8,5.8-22.8,19-22.8,33.8v272.1c0,20.3,16.5,36.5,36.5,36.5h271.8c20.3,0,36.5-16.5,36.5-36.5v-272.1c0-14.8-9-28.3-22.8-33.8h.8Z" fill="#fff"/></svg>