<?xml version="1.0" encoding="UTF-8"?><svg id="a" xmlns="http://www.w3.org/2000/svg" width="105.87" height="42.04" viewBox="0 0 105.87 42.04"><path d="M83.64,9.86c-.92-.38-1.95-.18-2.64.52l-7.11,7.13-7.11-7.13c-.69-.7-1.72-.9-2.64-.52-.92.38-1.5,1.26-1.5,2.24v17.69c0,1.32,1.08,2.42,2.42,2.42h17.67c1.32,0,2.42-1.08,2.42-2.42V12.1c0-.99-.58-1.86-1.5-2.24Z" fill="#f3f1ec"/><path d="M36.11,9.61h-8.9c-1.34,0-2.42,1.1-2.42,2.45v6.43h-6.82c-.96,0-1.84.58-2.22,1.48-.14.31-.2.65-.2,1.03.09,6.3,5.25,11.41,11.48,11.41v.02h.18c6.25,0,11.32-5.13,11.32-11.41v-8.97c0-1.35-1.1-2.45-2.42-2.45Z" fill="#f3f1ec"/><path d="M57.02,20.86l4.37-7.6c.43-.76.43-1.7,0-2.45-.45-.74-1.23-1.21-2.11-1.21h-17.37c-.87,0-1.68.47-2.11,1.21-.43.76-.43,1.68,0,2.45l4.37,7.6-4.37,7.6c-.43.76-.45,1.7,0,2.45s1.23,1.21,2.11,1.21h17.37c1.1,0,2.06-.74,2.35-1.8.16-.6.07-1.3-.27-1.88l-4.35-7.58Z" fill="#f3f1ec"/><path d="M98.56,42.04H7.31c-4.03,0-7.31-3.28-7.31-7.31V7.31C0,3.28,3.28,0,7.31,0h91.25c4.03,0,7.31,3.28,7.31,7.31v27.42c0,4.03-3.28,7.31-7.31,7.31ZM7.31,2c-2.93,0-5.31,2.38-5.31,5.31v27.42c0,2.93,2.38,5.31,5.31,5.31h91.25c2.93,0,5.31-2.38,5.31-5.31V7.31c0-2.93-2.38-5.31-5.31-5.31H7.31Z" fill="#f3f1ec"/></svg>
