<?xml version="1.0" encoding="UTF-8"?>
<svg id="Layer_1" xmlns="http://www.w3.org/2000/svg" version="1.1" viewBox="0 0 351 466.9">
  <!-- Generator: Adobe Illustrator 30.2.1, SVG Export Plug-In . SVG Version: 2.1.1 Build 1)  -->
  <g id="b">
    <g id="c">
      <g>
        <path d="M175.5,0C78.6,0,0,78.6,0,175.5s78.6,175.5,175.5,175.5,175.5-78.6,175.5-175.5S272.4,0,175.5,0ZM175.5,338.1c-89.8,0-162.6-72.8-162.6-162.6S85.7,12.9,175.5,12.9s162.6,72.8,162.6,162.6-72.8,162.6-162.6,162.6Z"/>
        <path d="M169.1,25.1c-5.7.2-11.4.8-17.2,1.7C69.8,39.8,13.8,116.9,26.8,199.1c11.5,72.7,73.4,125,144.4,126.9l-2.1-300.9ZM135.5,275.1l-1.3.2-12.2,1.9-1.8.3v-1.8l-2.6-155.3-15.6,2.4,2.6,16.1.2,1.5-1.5.2-11.5,1.8-1.5.3-.2-1.6-4.7-29.5-.3-1.5,1.6-.3,44.1-7,1.7-.3v1.8c.1,0,3,169.4,3,169.4v1.4Z"/>
        <path d="M272.7,252l-2.9-169.4v-1.8l-1.8.3-44.1,7-1.5.2.2,1.5,4.7,29.6.2,1.5,1.5-.2,11.4-1.8,1.5-.2-.2-1.5-2.5-16,15.6-2.5,2.6,155.4v1.8l1.8-.3,12.2-1.9,1.3-.2v-1.4h0ZM203.3,92.9l-.3-2.1-1.9.9-20.6,9.9,2,12.4,8.4-2.9,23.7,149.9.2,1.5,1.5-.2,11.9-1.9,1.5-.2-.2-1.5-26.2-165.7h0Z"/>
        <path id="d" d="M128.5,410.4c-2.9,1-6.2,1.8-8.7,2.2-3.8.6-5.1-1-5.5-4l-1.9-11.8c-.5-3,.2-4.9,4-5.5,2.5-.4,5.9-.6,9-.6v-6.9c-3.5-.2-6.6,0-10.1.5-8.6,1.4-11.8,6.2-10.8,12.5l2.3,14.3c1,6.2,5.5,9.9,14.2,8.5,3.4-.5,6.5-1.4,9.8-2.6l-2.1-6.6h-.2ZM166,412l9.2-1.5-10.1-10.4c3.2-2,4.3-5.1,3.6-9.4l-.7-4.2c-1-6.4-4.6-9.2-13-7.9l-14.2,2.3,5.4,34.3,7.7-1.2-1.7-10.6,4.5-.7,9.2,9.5h0v-.2ZM151.1,396.5l-1.6-10.1,6.1-1c3.1-.5,4.3.4,4.7,3l.4,2.7c.4,2.6-.2,3.9-3.5,4.4l-6.1,1h0ZM211.1,404.8l-1.1-6.8-13.8,2.2-1.2-7.5,12.8-2-1.1-6.8-12.8,2-1-6.3,13.8-2.2-1.1-6.8-21.6,3.4,5.4,34.3,21.6-3.4h.1ZM250.8,389.4l-2.6-16.5c-.7-4.6-4.6-8.4-13-7.1l-13.3,2.1,5.4,34.3,13.3-2.1c8.4-1.3,10.9-6.2,10.2-10.7h0ZM233.9,394.2l-3.3-20.6,4.6-.7c3.9-.6,5,.7,5.4,3.4l1.9,12.2c.4,2.7-.3,4.3-4.1,4.9l-4.6.7h.1ZM263.2,361.4l5.4,34.3,7.7-1.2-5.4-34.3-7.7,1.2ZM295.7,363.3l4.3,27.4,7.7-1.2-4.3-27.4,9.2-1.5-1.1-6.8-26.1,4.1,1.1,6.8,9.2-1.5h0ZM148.2,429.8l-7.7,1.2,3.7,23.6c.4,2.8-.6,4.6-4.5,5.2s-5.4-.8-5.9-3.5l-3.7-23.6-7.7,1.2,3.8,24.3c.8,5.2,4.9,10,14.6,8.5,9.7-1.5,12.1-7.3,11.2-12.5l-3.9-24.3h0ZM185.7,423.8l3.7,23.6-15-21.8-9.5,1.5,5.4,34.3,7.4-1.2-3.6-22.5,14.8,20.8,9.5-1.5-5.4-34.3-7.4,1.2h.1ZM210.3,419.9l5.4,34.3,7.7-1.2-5.4-34.3-7.7,1.2ZM262.6,421.9c-.8-5.2-5.3-9.9-14.9-8.4-9.7,1.5-12.4,7.4-11.6,12.6l2.3,14.3c.8,5.2,5.3,9.9,14.9,8.4,9.7-1.5,12.4-7.4,11.6-12.6l-2.3-14.3ZM252.1,441.9c-3.9.6-5.8-.8-6.2-3.4l-2.1-13c-.4-2.7,1-4.6,4.9-5.2s5.8.8,6.2,3.4l2.1,13c.4,2.7-1,4.6-4.9,5.2ZM297.9,406l3.7,23.6-15-21.8-9.5,1.5,5.4,34.3,7.4-1.2-3.6-22.5,14.8,20.8,9.5-1.5-5.4-34.3-7.4,1.2h.1Z"/>
      </g>
    </g>
  </g>
</svg>