<svg xmlns="http://www.w3.org/2000/svg" viewBox="0 0 800 400">
  <defs>
    <style>
      .cls-1 {
        mix-blend-mode: multiply;
      }

      .cls-2 {
        isolation: isolate;
      }

      .cls-3 {
        fill: #202020;
        stroke-width: 0px;
      }
    </style>
  </defs>
  <g class="cls-2">
    <g id="Layer_1" data-name="Layer 1">
      <g class="cls-1">
        <g>
          <path class="cls-3" d="M355.444,101.2981v48.348h-.3568c-7.1892-10.2503-21.7511-15.2796-35.7727-15.2796-28.3993,0-51.2258,18.1531-51.2258,49.792s22.8265,49.7869,51.2258,49.7869c13.8416,0,28.757-5.3885,35.7727-15.2755h.3568v12.0344h17.9732V101.2981h-17.9732ZM321.6553,218.85c-24.2729,0-34.5131-16.8961-34.5131-34.6915,0-21.5752,13.6591-34.6941,34.5131-34.6941,21.0275,0,34.8624,13.1189,34.8624,34.6941,0,17.7955-10.4204,34.6915-34.8624,34.6915ZM247.9831,210.7605v-50.6872c0-21.9296-24.0861-26.7872-43.3221-26.7872-28.2208,0-44.3941,9.165-46.7367,32.7201h16.9003c.5402-14.5627,13.6591-18.6935,29.1171-18.6935,14.5651,0,27.1404,2.5102,27.1404,15.4522,0,8.4473-6.2889,10.2454-16.355,11.3257l-20.4923,2.1558c-30.1932,3.2411-40.4461,12.0394-40.4461,29.2955,0,12.2309,7.0108,28.4034,38.2845,28.4034,15.2871,0,32.8992-5.572,40.0927-15.2755,1.2571,10.6039,7.1851,13.1114,16.1775,13.1114,2.089,0,4.4348-.0833,6.7941-.2501v-12.7411c-4.8985-.2902-7.1543-2.7911-7.1543-8.0297ZM231.0821,193.5011c0,15.6388-17.0693,26.4227-37.3834,26.4227-13.1204,0-21.9318-6.1088-21.9318-14.9219,0-9.8802,7.3751-13.6582,21.3893-15.4556l20.3063-2.5191c10.0736-1.2572,14.9236-2.5143,17.6196-5.5645v12.0385Z"/>
          <path class="cls-3" d="M505.691,121.0668h17.9732v-19.7687h-17.9732v19.7687ZM505.691,230.7043h17.9732v-94.1769h-17.9732v94.1769ZM639.052,210.7605v-50.6872c0-21.9296-24.0786-26.7872-43.3155-26.7872-28.2068,0-44.3958,9.165-46.7367,32.7201h16.9027c.537-14.5627,13.6548-18.6935,29.1171-18.6935,14.5518,0,27.1464,2.5102,27.1464,15.4522,0,8.4473-6.2923,10.2454-16.3625,11.3257l-20.4907,2.1558c-30.194,3.2411-40.4444,12.0394-40.4444,29.2955,0,12.2309,7.0191,28.4034,38.2836,28.4034,15.2821,0,32.8917-5.572,40.0843-15.2755,1.2706,10.6039,7.1793,13.1114,16.1792,13.1114,2.1008,0,4.435-.0833,6.7958-.2501v-12.7411c-4.9052-.2902-7.1593-2.7911-7.1593-8.0297ZM622.166,193.5011c0,15.6388-17.0794,26.4227-37.3967,26.4227-13.118,0-21.9245-6.1088-21.9245-14.9219,0-9.8802,7.3725-13.6582,21.3876-15.4556l20.3106-2.5191c10.067-1.2572,14.9153-2.5143,17.623-5.5645v12.0385ZM467.294,147.3179l-27.1964,63.6227-32.3515-74.4132h-20.6741l42.7753,94.1769h19.7737l42.4185-94.1769h-8.2163c-7.3725.0382-13.6782,4.4516-16.5292,10.7905Z"/>
          <path class="cls-3" d="M239.3318,293.8835c-7.3476,0-10.6181-4.8183-10.6181-11.2506s3.2705-11.254,10.6181-11.254c5.3376,0,8.4379,2.3542,9.1281,6.2589h6.0822c-1.2021-7.4627-7.5776-11.0773-15.6122-11.0773-10.8497,0-16.3041,7.3527-16.3041,16.2492,0,7.8028,4.4215,15.8924,16.3617,15.8924,7.8053,0,13.2606-3.0412,15.6714-12.051h-6.0856c-1.262,4.9951-4.0756,7.2325-9.2415,7.2325ZM266.5465,273.1061h-.1151v-5.522h-5.7421v30.0841h5.7421v-15.2687c0-6.539,3.9631-9.8735,9.6485-9.8735,1.5454,0,2.6393.2366,4.073.5801v-6.2056c-1.092-.2867-1.8357-.3401-3.2694-.3401-3.7913,0-7.6378,1.774-10.337,6.5457ZM300.7646,266.5604c-11.7068,0-17.4521,7.406-17.4521,16.0725s5.7453,16.0691,17.4521,16.0691c5.9121,0,12.6279-2.921,15.4988-10.1537h-6.0822c-1.9507,4.245-6.4289,5.3352-9.7001,5.3352-5.1111,0-10.6213-3.3311-11.0816-9.53h27.6674v-.7503c0-12.451-8.3762-17.0427-16.3024-17.0427ZM289.5713,279.8751c.862-5.3986,5.627-8.4963,10.9098-8.4963,5.3919,0,9.6434,3.0378,10.5037,8.4963h-21.4135ZM350.0854,271.7857h-.12c-2.2941-3.2746-6.9425-4.8852-11.4207-4.8852-9.0699,0-16.3625,5.7955-16.3625,15.9091,0,10.1037,7.2926,15.8924,16.3625,15.8924,4.4183,0,9.1833-1.7206,11.4207-4.8717h.12v3.838h5.7388v-41.328h-5.7388v15.4456ZM339.2949,293.8835c-7.7527,0-11.0239-5.3986-11.0239-11.0739,0-6.8924,4.3616-11.084,11.0239-11.084,6.7125,0,11.1307,4.1915,11.1307,11.084,0,5.6753-3.3312,11.0739-11.1307,11.0739ZM363.4069,262.6557h5.7421v-6.3156h-5.7421v6.3156ZM363.4069,297.6682h5.7421v-30.0841h-5.7421v30.0841ZM384.9913,258.3475h-5.7388v9.2365h-6.2022v4.485h6.2022v19.5203c0,4.3582,2.2942,7.1125,7.9161,7.1125,2.3576,0,4.485-.0567,6.4291-.3968v-4.8285c-1.3172.2402-2.6343.4068-3.9614.4068-2.9211,0-4.645-.8603-4.645-3.2711v-18.5432h8.6064v-4.485h-8.6064v-9.2365ZM442.802,284.9303c0,5.9188-4.6517,8.9531-9.8703,8.9531-6.1388,0-8.8964-2.5242-8.8964-6.9457v-19.3537h-5.7421v20.5006c0,7.5194,5.402,10.6172,12.6313,10.6172,4.3015,0,9.0631-1.3704,11.7674-5.5686h.1101v4.5349h5.7421v-30.0841h-5.7421v17.3463ZM473.7496,266.5604c-4.3015,0-9.0632,1.3738-11.7674,5.5686h-.1168v-4.5449h-5.732v30.0841h5.732v-17.3295c0-5.922,4.655-8.9598,9.8769-8.9598,6.1455,0,8.8997,2.5343,8.8997,6.9491v19.3402h5.7388v-20.494c0-7.5194-5.3919-10.6138-12.6313-10.6138ZM493.9635,297.6682h5.7421v-30.0841h-5.7421v30.0841ZM493.9635,262.6557h5.7421v-6.3156h-5.7421v6.3156ZM523.4173,266.5604c-11.7141,0-17.4562,7.406-17.4562,16.0725s5.7421,16.0691,17.4562,16.0691c11.7076,0,17.453-7.3993,17.453-16.0691s-5.7453-16.0725-17.453-16.0725ZM523.4173,293.8835c-8.323,0-11.364-5.7988-11.364-11.2506,0-5.4587,3.041-11.254,11.364-11.254,8.333,0,11.3642,5.7953,11.3642,11.254,0,5.4518-3.0311,11.2506-11.3642,11.2506ZM564.7554,266.5604c-4.3015,0-9.0731,1.3738-11.7775,5.5686h-.1168v-4.5449h-5.7254v30.0841h5.7254v-17.3295c0-5.922,4.6583-8.9598,9.877-8.9598,6.1487,0,8.9031,2.5343,8.9031,6.9491v19.3402h5.7455v-20.494c0-7.5194-5.402-10.6138-12.6313-10.6138Z"/>
        </g>
      </g>
    </g>
  </g>
</svg>