<svg version="1.1" id="Layer_1" xmlns="http://www.w3.org/2000/svg" xmlns:xlink="http://www.w3.org/1999/xlink" x="0px" y="0px"
	 viewBox="0 0 800 400" style="enable-background:new 0 0 800 400;" xml:space="preserve">
<style type="text/css">
	.st0{fill:#202020;}
	.st1{fill-rule:evenodd;clip-rule:evenodd;fill:#202020;}
	.st2{fill:#FFFFFF;}
</style>
<g>
	<path class="st0" d="M331.8,156.9c0,2.2,0,4.4,0,6.8c0.3-0.4,0.6-0.6,0.8-0.9c4-5.8,11-7.7,17.2-6.3c3.1,0.7,5.3,2.6,6.5,5.6
		c0.2,0.5,0.4,0.9,0.6,1.4c0,0,0.1,0.1,0.2,0.2c0.3-0.4,0.6-0.8,0.9-1.2c4.5-6,11.7-7.3,17.2-5.9c4.4,1.1,6.5,4.3,7.2,8.6
		c0.2,1,0.2,2,0.2,3.1c0,7.9,0,15.7,0,23.6c0,0.5-0.1,1-0.1,1.6c-3.4,0-6.7,0-10.3,0c0-0.6-0.1-1.3-0.1-1.9c0-6.4,0-12.9,0-19.3
		c0-1.5-0.3-3.1-0.6-4.6c-0.5-1.9-1.8-3.1-3.8-3.5c-1.7-0.3-3.4-0.4-5.1,0c-2.9,0.7-4.8,2.7-5.2,5.6c-0.1,1-0.2,2-0.2,3.1
		c0,6.2,0,12.3,0,18.5c0,0.7,0,1.3,0,2.1c-3.5,0-6.8,0-10.3,0c0-0.7-0.1-1.4-0.1-2c0-6.4,0-12.8,0-19.2c0-1.5-0.2-3.1-0.6-4.6
		c-0.5-2-1.8-3.2-3.9-3.6c-1.7-0.3-3.4-0.4-5.1,0.1c-2.8,0.7-4.6,2.5-5.1,5.4c-0.2,1.1-0.3,2.2-0.3,3.2c0,6.2,0,12.4,0,18.6
		c0,0.6,0,1.2,0,1.8c-1.3,0.4-8.1,0.5-10.2,0.1c0-12.1,0-24.2,0-36.3C322.9,156.7,329.5,156.6,331.8,156.9z"/>
	<path class="st0" d="M300.3,225.3c-0.2-1.5-0.3-2.9-0.5-4.3c-0.1-0.8-0.4-1.7-0.7-2.5c-1.1-3.1-3.3-4.8-6.5-5.4
		c-2.4-0.4-4.9-0.4-7.3,0c-3.4,0.6-5.9,2.4-7.2,5.7c-0.7,2-1.3,4-1.5,6.1c-0.7,5.2-0.7,10.5,0.5,15.6c0.3,1.3,0.8,2.6,1.4,3.8
		c1.2,2.4,3.2,4,5.8,4.8c4.3,1.2,8.7,1.1,13-0.1c4.3-1.3,6-4.6,6.6-8.7c0.2-1.5,0.3-3.1,0.4-4.6c1.2-0.4,8.4-0.4,10.3-0.1
		c1.1,8-2.2,15.3-8.4,18.7c-3.2,1.8-6.6,2.7-10.2,3.2c-5.2,0.6-10.4,0.5-15.5-0.7c-7.9-1.8-12.9-6.7-14.9-14.6
		c-1.7-6.9-1.7-13.8-0.2-20.7c2-9.2,7.6-14.3,17.1-15.8c5.2-0.8,10.5-0.8,15.7,0.3c1.2,0.2,2.3,0.6,3.4,1c6,2.3,9.1,6.8,10.1,12.9
		c0.3,1.7,0.3,3.5,0.5,5.2C310.8,225.6,302.7,225.7,300.3,225.3z"/>
	<path class="st0" d="M285.3,142.4c4.7,0,9.4,0,14.2,0c6.4,16.9,12.7,33.9,19.1,51c-4.4,0-8.5,0-12.8,0c-1.6-4.3-3.2-8.7-4.8-13.1
		c-6.7,0-13.4,0-20.2,0c-1.6,4.3-3.3,8.7-5,13.1c-3.2,0-6.4,0-9.5,0C266.4,192.1,282.8,148,285.3,142.4z M291.2,152.9
		c-0.1,0-0.2,0-0.4,0c-2.5,6.6-5,13.1-7.5,19.7c2.3,0.4,13.8,0.3,15.1-0.1C296,166,293.6,159.4,291.2,152.9z"/>
	<path class="st0" d="M503.5,206.1c3.9,0,7.5,0,11.4,0c0,0.7,0.1,1.4,0.1,2c0,9.3,0,18.6,0,27.9c0,1.6,0.1,3.2,0.4,4.8
		c0.8,4.8,3.4,7.4,8.2,8.4c2.5,0.5,5.1,0.6,7.7,0.2c5.3-0.8,8.3-3.9,8.8-9.3c0.1-1.4,0.2-2.7,0.2-4.1c0-9.2,0-18.4,0-27.5
		c0-0.7,0-1.4,0-2c1.4-0.4,7.1-0.4,9.1-0.1c0,0.5,0.1,0.9,0.1,1.4c0,10.2,0,20.4,0,30.6c0,2.6-0.4,5.2-1.2,7.7
		c-1.5,4.5-4.5,7.7-8.9,9.6c-3.3,1.4-6.8,1.9-10.3,2.1c-4.4,0.2-8.8,0-13.1-1.2c-7-1.9-11.3-6.8-12.2-14c-0.2-1.6-0.3-3.2-0.3-4.8
		c0-9.8,0-19.6,0-29.4C503.5,207.7,503.5,207,503.5,206.1z"/>
	<path class="st0" d="M436.2,256.8c-3.3,0-6.6,0-10.1,0c0-2.4,0-4.7,0-7.3c-0.4,0.5-0.7,0.8-1,1.2c-4.9,6.9-13.1,8.1-19.4,6.1
		c-3.2-1-5.5-3.1-7-6.1c-1.3-2.5-1.9-5.2-2.2-8c-0.4-4.2-0.3-8.3,0.8-12.4c1.8-6.3,5.9-9.8,12.4-10.6c1.9-0.2,3.8-0.3,5.6-0.2
		c4.2,0.4,7.8,2,10.4,5.6c0.3-1.7,0.2-3.4,0.2-5c0-1.7,0-3.3,0-5c0-1.7,0-3.4,0-5.1c0-1.6,0-3.3,0-5c3.5,0,6.8,0,10.2,0
		C436.5,206.4,436.6,255.1,436.2,256.8z M406.8,238.7c0.3,2,0.5,4.4,1.1,6.7c0.7,2.6,2.5,4.1,5.1,4.7c2,0.4,3.9,0.5,5.9,0.2
		c3.6-0.5,5.7-2.6,6.5-6.1c0.7-3.1,0.8-6.3,0.4-9.5c-0.2-1.3-0.5-2.7-0.9-4c-0.8-2.2-2.4-3.8-4.8-4.2c-1.6-0.3-3.3-0.4-4.9-0.4
		c-4.3,0.2-6.9,2.3-7.7,6.6C407.2,234.5,407.1,236.4,406.8,238.7z"/>
	<path class="st0" d="M552.8,187.5c-0.1,0.2-0.1,0.5-0.2,0.6c-2.1,3.2-5.2,4.9-8.9,5.6c-3.9,0.8-7.8,0.8-11.7-0.5
		c-1.3-0.4-2.7-1.1-3.8-1.9c-2.3-1.6-3.7-3.9-3.9-6.7c-0.1-0.9-0.1-1.7,0-2.6c0.1-3.8,2-6.5,5.2-8.2c3.2-1.7,6.7-2.1,10.3-1.9
		c1.7,0.1,3.4,0.4,5.1,0.8c2.1,0.5,3.9,1.5,5.6,3.1c0.1-0.4,0.3-0.7,0.3-1c0-2.2,0-4.4,0-6.7c-0.1-3.4-1.6-5.2-5-5.5
		c-1.5-0.1-3.1,0-4.6,0.2c-1.8,0.3-2.9,1.5-3.2,3.3c-0.1,0.8-0.3,1.6-0.4,2.4c-3.3,0-6.6,0-9.9,0c-0.8-3.5,1.1-7.8,4.3-9.9
		c2.1-1.4,4.4-2.1,6.9-2.4c4.2-0.6,8.4-0.6,12.6,0.2c6.5,1.3,9.6,5.3,9.7,12.1c0.1,4.7,0.1,9.4,0,14c-0.1,3.3,0.8,4.6,4.3,4.2
		c0.2,0,0.3,0,0.7,0.1c0.1,2.2,0.1,4.4,0,6.6c-2.8,0.7-5.4,0.6-7.9-0.2c-2.7-0.9-4.3-2.9-5-5.6C553.1,187.5,553,187.5,552.8,187.5z
		 M542.9,188.1c1.6-0.2,3.2-0.3,4.8-0.7c2.2-0.6,3.3-2.1,3.4-4.3c0.1-2.3-0.9-4-3.2-4.7c-3.3-1-6.6-1-9.9,0
		c-2.3,0.7-3.4,2.4-3.3,4.6c0.1,2.3,1.2,3.9,3.5,4.4C539.7,187.8,541.3,187.9,542.9,188.1z"/>
	<path class="st0" d="M417.9,180.3c3.1,0,6.1,0,9.3,0c-0.1,1-0.1,1.9-0.3,2.7c-0.9,4.5-3.5,7.8-7.8,9.5c-1.9,0.8-3.9,1.3-5.9,1.5
		c-4.5,0.6-9,0.5-13.4-0.6c-6.4-1.6-10.2-5.6-11.5-12c-0.9-4.3-0.9-8.7,0.1-13.1c1.6-6.8,6.2-11,13-12c4-0.6,8-0.6,11.9,0
		c7.2,1.2,11.2,5.3,11.9,12.7c0.2,2.2,0,4.4,0,6.8c-0.7,0-1.4,0.1-2,0.1c-7.5,0-14.9,0-22.4,0c-0.7,0-1.3,0-2.2,0
		c0.1,3.2,0.3,6.1,2,8.7c1,1.6,2.6,2.3,4.4,2.7c2.5,0.6,5,0.6,7.5,0c2.9-0.6,4.6-2.4,5.1-5.3C417.7,181.5,417.8,181,417.9,180.3z
		 M398.6,169.9c2.4,0.4,15.2,0.3,16.6-0.1c-0.1-1-0.1-2.1-0.3-3.1c-0.4-2.3-1.8-3.6-4-4.1c-2.2-0.5-4.5-0.5-6.8,0
		c-2.2,0.5-3.8,1.7-4.6,3.9C399.1,167.5,398.9,168.7,398.6,169.9z"/>
	<path class="st0" d="M391.7,239.4c-8.8,0-17.5,0-26.5,0c0,0.9,0.1,1.7,0.1,2.4c0.1,0.7,0.1,1.4,0.3,2c1,5,3.4,7,8.4,7.3
		c1.4,0.1,2.9,0,4.3-0.2c3.7-0.6,5.3-2.3,5.9-6c0.1-0.3,0.1-0.7,0.2-1.2c3-0.1,6.1-0.1,9.3,0c0.2,1.2-0.1,2.3-0.3,3.4
		c-0.9,3.8-3.2,6.6-6.7,8.4c-2.2,1.2-4.6,1.8-7,2c-4.2,0.4-8.3,0.4-12.4-0.5c-7.4-1.6-11.4-5.8-12.6-13.3c-0.6-3.9-0.6-7.7,0.2-11.6
		c1.5-7,6.3-11.5,13.4-12.5c4.3-0.6,8.5-0.6,12.8,0.3c6,1.3,9.5,4.9,10.6,10.9C392.1,233.6,392.3,236.4,391.7,239.4z M381.5,233.5
		c0.3-1.6,0.2-3-0.3-4.4c-0.5-1.4-1.4-2.4-2.7-2.9c-3.1-1-6.3-1.1-9.4,0.2c-2.6,1.1-4.2,4.4-3.5,7.1
		C370.9,233.5,376.1,233.5,381.5,233.5z"/>
	<path class="st0" d="M636.4,258c-2.4-0.3-5-0.5-7.5-1.1c-6.4-1.4-10.2-5.4-11.7-11.7c-1-4.2-1-8.5-0.2-12.7
		c1.3-6.6,5.4-10.8,11.9-12.4c5.1-1.3,10.3-1.3,15.4,0c6.6,1.6,10.7,5.8,12,12.5c0.8,4.4,0.8,8.7-0.3,13.1
		c-1.7,6.5-6.1,10.3-12.6,11.5C641.2,257.6,638.8,257.7,636.4,258z M646.3,238.4c-0.3-2.3-0.5-4.5-1-6.7c-0.7-3.1-2.7-5-5.9-5.4
		c-1.6-0.2-3.3-0.3-4.9-0.1c-4,0.5-6,2.5-6.8,6.4c-0.7,3.4-0.7,6.9-0.2,10.4c0.2,1.2,0.5,2.3,0.9,3.5c0.8,2.1,2.3,3.6,4.6,4
		c1.7,0.3,3.5,0.5,5.2,0.4c3.7-0.2,6-2,6.9-5.5C645.8,243,646,240.7,646.3,238.4z"/>
	<path class="st0" d="M704.4,244.9c3.2,0,6.3,0,9.4,0c0.1,0.6,0.1,1,0.2,1.5c0.3,2,1.3,3.6,3.3,4.2c3.7,1.2,7.4,1.2,11.1,0.2
		c1.7-0.5,2.7-1.8,2.9-3.6c0.2-1.6-0.4-2.8-1.9-3.4c-1.1-0.4-2.3-0.7-3.5-0.9c-3.7-0.6-7.3-1.1-11-1.7c-1.1-0.2-2.1-0.5-3.1-0.9
		c-4.5-1.8-6.5-5.1-6.2-9.9c0.2-4.6,2.6-7.7,6.7-9.4c4-1.7,8.3-1.9,12.6-1.7c2.6,0.1,5.1,0.4,7.6,1.3c5.2,1.8,8,5.7,7.7,11.2
		c-3.1,0.1-6.2,0.1-9.3,0c-0.1-0.8-0.2-1.5-0.3-2.1c-0.4-1.7-1.4-2.9-3-3.4c-2.9-0.9-5.9-0.9-8.8,0c-0.6,0.2-1.3,0.6-1.7,1
		c-2,1.9-1.4,4.9,1.1,5.8c1.6,0.6,3.4,0.8,5.2,1c3,0.5,6.1,0.9,9.1,1.4c1.2,0.2,2.3,0.6,3.4,1c3.5,1.3,5.3,3.9,5.7,7.6
		c0.5,5.3-1.8,9.6-6.7,11.7c-1.9,0.8-4,1.4-6.1,1.7c-4.8,0.7-9.7,0.6-14.5-0.6c-1.7-0.4-3.5-1.1-5-2
		C705.7,252.6,704.4,249.2,704.4,244.9z"/>
	<path class="st0" d="M700.1,256.8c-3.5,0-6.7,0-10.3,0c0-0.7-0.1-1.3-0.1-2c0-6.5,0-13,0-19.5c0-1.4-0.2-2.7-0.5-4
		c-0.5-2.1-2-3.3-4-3.7c-2.3-0.5-4.5-0.5-6.8,0c-3.1,0.8-5.1,2.7-5.5,6c-0.1,0.8-0.2,1.7-0.2,2.6c0,6.2,0,12.4,0,18.6
		c0,0.6,0,1.2,0,1.8c-1.3,0.4-8.2,0.4-10.4,0.1c0-12.1,0-24.2,0-36.3c1.1-0.4,7.8-0.5,10.4-0.1c-0.1,2.2-0.2,4.3-0.3,6.9
		c0.5-0.4,0.7-0.6,0.8-0.8c4.2-5.7,10-7.4,16.7-6.9c0.8,0.1,1.7,0.3,2.5,0.5c4.4,1.1,6.8,4.1,7.7,8.5c0.2,1,0.2,2,0.2,3.1
		c0,7.8,0,15.6,0,23.4C700.2,255.5,700.1,256.1,700.1,256.8z"/>
	<path class="st0" d="M556,256.8c0-12.2,0-24.4,0-36.6c3.4,0,6.7,0,10.2,0c0,2.2,0,4.4,0,6.9c0.3-0.4,0.5-0.6,0.7-0.8
		c3.3-4.6,7.9-6.6,13.4-6.9c1.9-0.1,3.8,0.1,5.6,0.5c4.6,1,7.6,4.6,8,9.3c0.1,1,0.1,1.9,0.1,2.9c0,7.6,0,15.2,0,22.8
		c0,0.6-0.1,1.2-0.1,1.9c-3.5,0-6.8,0-10.3,0c0-0.7-0.1-1.4-0.1-2c0-6.5,0-13,0-19.5c0-1.4-0.2-2.7-0.5-4c-0.5-1.9-1.8-3.1-3.8-3.6
		c-2.4-0.6-4.9-0.6-7.3,0.1c-3.5,1-5.4,3.4-5.4,7.2c0,6.7,0,13.3,0,20c0,0.6,0,1.2,0,1.9C562.9,256.8,559.6,256.8,556,256.8z"/>
	<path class="st0" d="M612.4,168.3c-3.1,0-6.1,0-9.3,0c-0.1-0.5-0.2-1.1-0.2-1.6c-0.2-1.9-1.2-3.2-3-3.8c-3-1-6.1-1-9.1,0
		c-0.6,0.2-1.2,0.6-1.7,1.1c-1.8,1.9-1.3,4.8,1.2,5.7c1.8,0.6,3.7,0.8,5.5,1.1c3,0.5,6.1,0.8,9.1,1.4c1.5,0.3,2.9,0.9,4.3,1.6
		c2.4,1.1,3.8,3.1,4.2,5.7c1,5.9-0.9,10.8-6.8,13.2c-1.8,0.7-3.8,1.3-5.8,1.5c-5.2,0.6-10.4,0.6-15.4-0.8c-1.4-0.4-2.8-1-4.1-1.7
		c-3.6-2.3-5-5.7-5-10c3.2,0,6.2,0,9.5,0c0.1,0.6,0.2,1.3,0.3,2c0.4,1.9,1.4,3.3,3.3,3.8c3.6,1.2,7.3,1.2,11,0.2
		c1.5-0.4,2.4-1.4,2.9-2.9c0.6-2.1-0.1-3.7-2.2-4.3c-2.4-0.6-4.9-1-7.4-1.4c-2.2-0.4-4.4-0.7-6.6-1c-0.7-0.1-1.4-0.4-2.1-0.6
		c-7.3-2.2-8.2-8.2-6.7-13.4c0.8-3,3-4.9,5.8-6.2c2.4-1.1,5-1.6,7.6-1.8c4-0.4,8-0.2,11.9,0.9c1.3,0.4,2.6,0.9,3.8,1.6
		C610.9,160.3,612.7,163.9,612.4,168.3z"/>
	<path class="st0" d="M520,171.2c-3.4,0-6.7,0-10.2,0c0-0.6-0.1-1.2-0.1-1.8c-0.2-4.7-2.2-6.7-7-6.7c-0.9,0-1.8,0.1-2.7,0.3
		c-2,0.4-3.5,1.6-4.2,3.5c-1.9,5.5-2,11.1,0,16.6c0.7,2,2.3,3.1,4.3,3.6c2.3,0.6,4.6,0.7,6.9,0.2c3.3-0.7,5-2.5,5.6-5.8
		c0.2-1,0.3-2,0.4-3.1c3.1,0,6.1,0,9.1,0c0.6,5.6-2.2,11.4-6.9,13.9c-2.2,1.2-4.5,1.9-7,2.2c-4,0.4-8,0.4-11.9-0.5
		c-7-1.6-11.2-5.9-12.4-12.9c-0.7-4.1-0.7-8.2,0.1-12.2c1.3-6.4,5.1-10.4,11.5-11.9c5-1.2,10-1.2,14.9,0.2
		C518,158.8,520.8,165.1,520,171.2z"/>
	<path class="st0" d="M464.4,226.8c-2.3,0-4.3,0-6.4,0c0-2.3,0-4.4,0-6.7c2.2,0,4.4,0,6.7,0c0.7-3,1.4-5.8,2.1-8.6
		c2.7,0,5.3,0,8.2,0c0,2.8,0,5.6,0,8.6c4.6,0,9,0,13.6,0c0,2.3,0,4.4,0,6.6c-1.4,0.4-2.9,0.1-4.3,0.2c-1.5,0.1-3,0-4.4,0
		c-1.5,0-3,0-4.6,0c-0.1,0.5-0.2,0.9-0.2,1.4c0,5.6,0,11.3,0,16.9c0,0.9,0.2,1.8,0.3,2.7c0.4,1.7,1.5,2.6,3.2,2.9
		c3.4,0.6,5.6-0.9,6.2-4.3c0.2-1.3,0.3-2.7,0.5-4.1c2.5,0,4.9,0,7.5,0c0.1,0.4,0.2,0.7,0.2,1.1c-0.2,1.8-0.3,3.6-0.7,5.4
		c-1.1,4.6-4,7.4-8.7,8.4c-3.3,0.7-6.7,0.7-10,0.1c-4.8-0.9-9.2-3.9-9.1-11c0.1-5.8,0-11.6,0-17.4
		C464.4,228.3,464.4,227.7,464.4,226.8z"/>
	<path class="st0" d="M351.3,236.7c-3.2,0-6.2,0-9.4,0c0-1.2,0.1-2.2,0-3.3c-0.1-1.1-0.2-2.3-0.4-3.4c-0.3-1.4-1.4-2.2-2.7-2.6
		c-1.6-0.4-3.2-0.4-4.7,0c-2,0.5-3.4,1.8-3.9,3.8c-0.4,1.6-0.6,3.3-0.6,4.9c-0.1,6.2,0,12.4,0,18.6c0,0.6,0,1.2,0,2
		c-3.6,0-6.9,0-10.4,0c0-12.2,0-24.3,0-36.4c1.3-0.3,7.6-0.4,10.2-0.1c0.4,2.2-0.3,4.4-0.1,6.6c0.7-0.1,0.8-0.7,1.1-1.2
		c1.9-2.7,4.2-4.8,7.4-5.8c2.4-0.7,4.8-0.8,7.3-0.1c2.3,0.6,4.1,1.9,5,4c0.6,1.2,1.1,2.6,1.2,3.9
		C351.4,230.6,351.3,233.6,351.3,236.7z"/>
	<path class="st0" d="M441.8,193.5c-3.6,0-6.9,0-10.3,0c-0.4-1.3-0.5-34.5-0.1-36.6c3.3,0,6.6,0,10.1,0c0,2.3,0,4.4,0,7
		c0.6-0.8,0.9-1.3,1.2-1.7c2.2-3.1,5-5.3,8.8-5.9c2-0.3,4-0.3,5.9,0.3c2.1,0.6,3.7,1.8,4.7,3.7c0.5,0.9,0.9,1.9,1.1,2.9
		c0.7,3.4,0.4,6.8,0.4,10.3c-3.2,0-6.2,0-9.4,0c0-0.5-0.1-1-0.1-1.4c0-0.8,0-1.6,0-2.4c0-3.7-1.2-5.2-4.1-5.6
		c-3.8-0.6-6.7,0.9-7.7,4.1c-0.4,1.2-0.5,2.6-0.5,3.9c-0.1,6.5,0,13,0,19.5C441.8,192,441.8,192.6,441.8,193.5z"/>
	<path class="st0" d="M467.9,156.8c3.4,0,6.8,0,10.3,0c0,12.2,0,24.4,0,36.6c-3.5,0-6.9,0-10.3,0C467.6,192,467.6,158.4,467.9,156.8
		z"/>
	<path class="st0" d="M600.6,256.8c0-12.2,0-24.3,0-36.7c3.4-0.1,6.8,0,10,0c0.2,0.2,0.3,0.2,0.3,0.2c0,0,0.1,0.1,0.1,0.1
		c0,0.2,0.1,0.4,0.1,0.7c0,11.6,0,23.1,0,34.7c0,0.3-0.1,0.6-0.1,0.8C609.7,257,603.7,257.1,600.6,256.8z"/>
	<path class="st0" d="M443.4,220.2c3.5,0,6.9,0,10.4,0c0,12.2,0,24.4,0,36.6c-3.5,0-6.9,0-10.4,0
		C443.4,244.6,443.4,232.5,443.4,220.2z"/>
	<path class="st0" d="M566.8,164c-1.1-1.4-2.1-2.7-3.2-4.1c1.6-1.2,3.2-2.2,4.7-3.3c1.5-1.1,3.1-2.1,4.7-3.4
		c-1.1-0.3-1.8-0.4-2.6-0.7c-2.4-0.8-3.4-2.4-3.3-4.8c0.1-2.5,1.3-4.1,3.7-4.7c1.6-0.4,3.3-0.4,4.9,0c2,0.5,3.2,1.7,3.7,3.6
		c0.8,2.8,0.4,5.4-1.5,7.7c-0.6,0.8-1.3,1.4-2,2.1c-2.6,2.2-5.1,4.4-7.7,6.5C567.8,163.2,567.3,163.6,566.8,164z"/>
	<path class="st0" d="M472.6,152.3c-0.7-0.1-1.8-0.2-2.8-0.5c-1.6-0.5-2.7-1.5-2.9-3.2c-0.1-1.1-0.1-2.3,0.1-3.4
		c0.3-1.5,1.3-2.5,2.7-3c2.2-0.7,4.5-0.8,6.7-0.1c1.5,0.5,2.5,1.5,2.8,3.1c0.1,0.8,0.3,1.6,0.2,2.4c-0.2,2.6-1.5,4.1-4.1,4.5
		C474.5,152.2,473.7,152.2,472.6,152.3z"/>
	<path class="st0" d="M605.8,215.7c-1.1-0.2-2.3-0.3-3.3-0.6c-1.5-0.4-2.6-1.5-2.8-3.1c-0.2-1.2-0.1-2.4,0.1-3.5
		c0.2-1.5,1.2-2.4,2.6-2.9c2.3-0.8,4.6-0.8,6.9-0.1c1.6,0.5,2.5,1.7,2.8,3.3c0.1,0.5,0.2,1,0.2,1.5c0,3.2-1.5,4.8-4.7,5.1
		C606.9,215.6,606.4,215.6,605.8,215.7C605.8,215.7,605.8,215.7,605.8,215.7z"/>
	<path class="st0" d="M448.2,215.7c-0.8-0.2-2-0.3-3.2-0.6c-1.4-0.4-2.4-1.4-2.6-2.9c-0.2-1.1-0.2-2.3-0.1-3.4c0.3-2,1.7-3,3.6-3.5
		c1.8-0.4,3.6-0.4,5.4,0c2.1,0.5,3.2,1.7,3.5,3.9c0.1,0.7,0.1,1.5,0,2.2c-0.3,2.3-1.5,3.6-3.8,4
		C450.3,215.6,449.4,215.6,448.2,215.7z"/>
	<path class="st0" d="M84.3,140.5c1.4-1.2,2.6-2.2,4-3.3c1.6,1.9,3.1,3.7,4.6,5.6c0.8,1.1,0.4,2.6-0.6,3.4c-1,0.8-2.5,0.8-3.4-0.2
		C87.4,144.2,85.9,142.4,84.3,140.5z"/>
	<path class="st0" d="M59.7,183.8c2.5,0.4,4.7,0.8,6.9,1.3c1.4,0.3,2.1,1.5,1.9,2.8c-0.2,1.3-1.3,2.4-2.6,2.2
		c-2.3-0.3-4.6-0.8-7.1-1.2C59.1,187.1,59.4,185.5,59.7,183.8z"/>
	<path class="st0" d="M155,277.9c-1.8,0.3-3.4,0.6-5.1,0.9c-0.4-2.3-0.9-4.5-1.1-6.7c-0.2-1.7,0.7-2.9,2.2-3.1
		c1.3-0.2,2.5,0.8,2.8,2.3C154.2,273.5,154.6,275.6,155,277.9z"/>
	<path class="st0" d="M121.2,121.6c1.9-0.3,3.4-0.6,5.1-0.9c0.4,2.3,0.8,4.5,1.2,6.6c0.2,1.6-0.6,2.8-2,3.1
		c-1.5,0.3-2.7-0.5-3.1-2.2C121.9,126,121.6,123.9,121.2,121.6z"/>
	<path class="st0" d="M200.7,150c-1.9,1.6-3.6,3.1-5.4,4.4c-1.1,0.9-2.7,0.6-3.5-0.4c-0.9-1.1-0.8-2.5,0.3-3.5
		c1.6-1.5,3.4-2.9,5.2-4.4c0.6,0.7,1.2,1.3,1.7,1.9C199.5,148.6,200,149.2,200.7,150z"/>
	<path class="st0" d="M59.9,216.6c-0.3-1.8-0.6-3.4-0.9-5.1c2.4-0.4,4.6-0.9,6.8-1.2c1.6-0.2,2.8,0.7,3,2.2c0.2,1.4-0.7,2.6-2.3,2.9
		C64.3,215.9,62.2,216.2,59.9,216.6z"/>
	<path class="st0" d="M175.3,129.1c0.6,0.3,1,0.5,1.4,0.7c1,0.6,2,1.1,3.1,1.8c-1.2,2.1-2.4,4.2-3.6,6.2c-0.7,1.1-2.2,1.3-3.3,0.7
		c-1.2-0.7-1.6-2.1-0.9-3.4C173,133.1,174.2,131.2,175.3,129.1z"/>
	<path class="st0" d="M78.8,253.5c-1.1-1.3-2.2-2.5-3.3-3.8c0.4-0.4,0.6-0.7,1-1c1.3-1.1,2.7-2.3,4-3.4c1.3-1,2.9-0.9,3.8,0.2
		c1,1.2,0.8,2.6-0.5,3.8C82.3,250.6,80.6,251.9,78.8,253.5z"/>
	<path class="st0" d="M148.9,120.6c1.7,0.3,3.3,0.5,5.1,0.8c-0.4,2.5-0.8,4.7-1.3,6.9c-0.3,1.4-1.6,2.2-3,1.9
		c-1.3-0.2-2.2-1.4-2-2.7C148.1,125.3,148.5,123,148.9,120.6z"/>
	<path class="st0" d="M191.8,259c-1.4,1.2-2.6,2.2-4,3.3c-1.6-1.9-3.1-3.6-4.4-5.4c-0.9-1.1-0.6-2.7,0.4-3.5
		c1.1-0.9,2.5-0.8,3.5,0.3C188.8,255.4,190.2,257.1,191.8,259z"/>
	<path class="st0" d="M67.7,237.9c2.2-1.2,4.2-2.5,6.3-3.5c1.2-0.6,2.6,0,3.2,1.1c0.6,1.1,0.3,2.6-0.8,3.3c-1.9,1.2-3.9,2.3-6,3.5
		C69.5,240.9,68.7,239.5,67.7,237.9z"/>
	<path class="st0" d="M201.3,248.8c-1.2,1.4-2.2,2.6-3.3,4c-1.9-1.6-3.7-3.1-5.4-4.6c-1-0.9-0.9-2.4-0.1-3.4c0.8-1,2.3-1.2,3.4-0.4
		C197.7,245.7,199.4,247.2,201.3,248.8z"/>
	<path class="st0" d="M58.2,202.8c0-1.7,0-3.2,0-4.9c0.3-0.1,0.6-0.2,0.9-0.2c1.9,0,3.9,0,5.8,0c1.5,0,2.5,1,2.5,2.4
		c0,1.4-0.9,2.6-2.3,2.6C62.9,202.9,60.6,202.8,58.2,202.8z"/>
	<path class="st0" d="M135,119.9c1.7,0,3.3,0,5.1,0c0,2.5,0.1,4.9,0,7.3c-0.1,1.1-1.2,2-2.4,2c-1.2,0-2.3-0.8-2.6-2.1
		c-0.1-0.4,0-0.8,0-1.2C135,124,135,122,135,119.9z"/>
	<path class="st0" d="M216.3,182.9c0.3,1.9,0.6,3.4,0.9,5.1c-2.5,0.4-4.9,0.9-7.3,1.1c-1.2,0.1-2.2-0.8-2.4-2
		c-0.2-1.3,0.4-2.6,1.6-2.9C211.4,183.7,213.8,183.3,216.3,182.9z"/>
	<path class="st0" d="M127.2,278.9c-1.7-0.3-3.3-0.5-5.1-0.8c0.5-2.5,0.8-4.9,1.4-7.3c0.3-1.2,1.6-1.8,2.9-1.6
		c1.2,0.2,2.2,1.3,2,2.6C128.1,274.2,127.6,276.5,127.2,278.9z"/>
	<path class="st0" d="M208.9,237.1c-0.9,1.6-1.7,3-2.5,4.5c-2.1-1.3-4.2-2.4-6.2-3.7c-1.1-0.7-1.3-2.2-0.6-3.3c0.7-1.1,2-1.6,3.3-1
		C204.7,234.6,206.7,235.8,208.9,237.1z"/>
	<path class="st0" d="M217.3,210.6c-0.3,1.7-0.5,3.2-0.8,4.9c-0.5,0-0.8,0-1.1,0c-1.9-0.3-3.8-0.6-5.7-1c-1.5-0.3-2.3-1.5-2.1-2.9
		c0.2-1.4,1.3-2.4,2.8-2.2C212.7,209.7,214.9,210.2,217.3,210.6z"/>
	<path class="st0" d="M187.1,136.6c1.4,1.1,2.6,2.1,3.9,3.2c-0.4,0.5-0.7,1-1.1,1.4c-1,1.2-2,2.5-3.1,3.7c-1.1,1.3-2.6,1.5-3.8,0.6
		c-1.1-0.9-1.3-2.5-0.2-3.8C184.2,140,185.6,138.4,187.1,136.6z"/>
	<path class="st0" d="M67.3,162.4c0.9-1.6,1.7-2.9,2.5-4.4c2.1,1.2,4.2,2.3,6.1,3.6c1.2,0.7,1.4,2.2,0.8,3.3c-0.6,1.2-2,1.7-3.2,1.1
		c-1.6-0.8-3.1-1.7-4.6-2.6C68.4,163.1,68,162.8,67.3,162.4z"/>
	<path class="st0" d="M107.9,125.7c1.6-0.6,3.2-1.2,4.8-1.8c0.8,2.3,1.7,4.5,2.4,6.7c0.4,1.3-0.4,2.6-1.6,3c-1.3,0.5-2.7,0-3.2-1.4
		C109.4,130.2,108.7,128,107.9,125.7z"/>
	<path class="st0" d="M89,262.9c-1.4-1.2-2.6-2.2-4-3.3c1.5-1.8,2.9-3.5,4.4-5.2c1-1.1,2.6-1.2,3.7-0.3c1.1,0.9,1.2,2.5,0.2,3.7
		C92,259.5,90.6,261.1,89,262.9z"/>
	<path class="st0" d="M96.3,267.9c1.2-2,2.2-3.9,3.3-5.7c0.9-1.5,2.3-1.9,3.6-1.2c1.4,0.7,1.7,2.2,0.8,3.8c-1,1.8-2.1,3.6-3.3,5.6
		C99.2,269.6,97.8,268.8,96.3,267.9z"/>
	<path class="st0" d="M176.2,270c-1.2-2.1-2.4-4-3.5-6c-0.7-1.3-0.2-2.7,1-3.4c1.1-0.6,2.7-0.3,3.4,0.9c1.2,1.9,2.2,3.8,3.5,5.9
		c-0.8,0.5-1.4,0.9-2.1,1.4C177.9,269.1,177.2,269.5,176.2,270z"/>
	<path class="st0" d="M214.3,224.2c-0.6,1.7-1.2,3.2-1.8,4.9c-2.4-0.9-4.6-1.6-6.8-2.6c-1.2-0.5-1.6-2-1.1-3.2
		c0.5-1.1,1.8-1.8,3-1.4C209.8,222.5,211.9,223.4,214.3,224.2z"/>
	<path class="st0" d="M162.6,123.6c1.6,0.6,3.1,1.1,4.7,1.6c-0.1,0.4-0.1,0.8-0.2,1.1c-0.6,1.8-1.2,3.5-1.9,5.3
		c-0.6,1.5-2,2.2-3.4,1.6c-1.3-0.5-1.9-1.9-1.4-3.4C161,127.8,161.8,125.8,162.6,123.6z"/>
	<path class="st0" d="M74.9,150.8c1.1-1.4,2.1-2.6,3.2-3.9c0.4,0.3,0.7,0.4,1,0.7c1.4,1.2,2.8,2.3,4.2,3.5c1.3,1.1,1.4,2.6,0.5,3.8
		c-0.9,1.1-2.5,1.2-3.8,0.2C78.2,153.6,76.6,152.2,74.9,150.8z"/>
	<path class="st0" d="M217.9,196.7c0,1.7,0,3.3,0,5.1c-2.4,0-4.7,0.1-6.9,0c-1.4,0-2.3-1.1-2.4-2.4c-0.1-1.4,0.9-2.6,2.3-2.6
		C213.3,196.7,215.5,196.7,217.9,196.7z"/>
	<path class="st0" d="M95.5,132.1c1.5-0.9,2.9-1.7,4.4-2.7c1.2,2.2,2.5,4.2,3.5,6.2c0.6,1.2,0.1,2.6-1,3.2c-1.1,0.6-2.6,0.4-3.3-0.7
		C97.8,136.3,96.7,134.3,95.5,132.1z"/>
	<path class="st0" d="M212.2,169.6c0.6,1.7,1.2,3.1,1.8,4.8c-2.4,0.8-4.6,1.7-6.9,2.4c-1.3,0.4-2.5-0.4-2.9-1.6
		c-0.5-1.3,0.1-2.7,1.4-3.3C207.7,171.1,209.8,170.4,212.2,169.6z"/>
	<path class="st0" d="M208.4,161.6c-2,1.2-3.9,2.3-5.9,3.4c-1.4,0.7-2.9,0.3-3.6-0.9c-0.7-1.2-0.3-2.7,1-3.5
		c1.8-1.1,3.7-2.2,5.8-3.3C206.7,158.6,207.5,160,208.4,161.6z"/>
	<path class="st0" d="M61.9,175.3c0.6-1.7,1.2-3.2,1.8-4.9c2.4,0.9,4.6,1.7,6.8,2.6c1.2,0.5,1.6,2.1,1,3.3c-0.5,1.1-1.8,1.8-3,1.4
		C66.4,177,64.3,176.2,61.9,175.3z"/>
	<path class="st0" d="M141.1,279.6c-1.8,0-3.3,0-5.1,0c0-2.5-0.1-4.9,0-7.2c0.1-1.2,1.2-2.1,2.5-2.1c1.3,0,2.5,0.9,2.5,2.3
		C141.2,274.8,141.1,277.1,141.1,279.6z"/>
	<path class="st0" d="M168.3,273.8c-1.6,0.6-3.1,1.2-4.7,1.7c-0.2-0.4-0.4-0.7-0.6-1.1c-0.6-1.6-1.2-3.3-1.8-4.9
		c-0.3-0.9-0.4-1.9,0.2-2.8c1.1-1.5,3.5-1.4,4.3,0.3C166.7,269.2,167.4,271.5,168.3,273.8z"/>
	<path class="st0" d="M64,230c-0.6-1.6-1.2-3.2-1.8-4.9c2.4-0.8,4.5-1.7,6.8-2.3c1.4-0.4,2.6,0.4,3,1.7c0.4,1.3-0.1,2.6-1.4,3.1
		C68.5,228.4,66.3,229.1,64,230z"/>
	<path class="st0" d="M113.6,275.9c-1.7-0.6-3.2-1.2-4.9-1.8c0.9-2.4,1.6-4.6,2.6-6.8c0.5-1.2,2.1-1.6,3.3-1c1.1,0.5,1.8,1.8,1.4,3
		C115.3,271.4,114.5,273.5,113.6,275.9z"/>
	<path class="st0" d="M202.6,277.9c0.7-1.7,1.3-3,1.9-4.4c0.4-0.9,0.4-0.9,1.9-0.7c0,2.1,0,4.2,0,6.3c0,0.7-0.4,0.9-1.1,0.6
		c0-1.3,0-2.6,0-4.2c-1.4,1.3-1.4,3.2-2.8,4.5c-0.4-0.8-0.8-1.5-1.1-2.2c-0.3-0.7-0.7-1.4-1.3-2.1c0,1.3,0,2.5,0,3.9
		c-0.5,0-0.8,0-1.2,0.1c0-2.3,0-4.6,0-7c0.5,0,0.9-0.1,1.4-0.1C201,274.4,201.8,276,202.6,277.9z"/>
	<path class="st0" d="M141.1,251.7c0,1.7,0,3.2,0,4.9c-1.7,0-3.3,0-4.9,0c0-1.7,0-3.2,0-4.9C137.8,251.7,139.3,251.7,141.1,251.7z"
		/>
	<path class="st0" d="M204.5,199.3c0,1.7-1.1,2.8-2.7,2.8c-1.7,0-2.8-1.1-2.8-2.9c0-1.7,1.1-2.8,2.9-2.8
		C203.5,196.5,204.5,197.6,204.5,199.3z"/>
	<path class="st0" d="M74.4,197.5c1.7,0,2.7,1.1,2.7,2.9c0,1.6-1.1,2.7-2.8,2.7c-1.7,0-2.7-1.1-2.7-2.9
		C71.7,198.5,72.7,197.4,74.4,197.5z"/>
	<path class="st0" d="M137.5,138.8c-1.6,0-2.8-1.1-2.7-2.8c0-1.7,1.2-2.7,3-2.7c1.6,0,2.7,1.2,2.6,2.8
		C140.4,137.8,139.2,138.9,137.5,138.8z"/>
	<path class="st0" d="M138.7,260.7c1.7,0,2.7,1.1,2.7,2.8c0,1.6-1.1,2.7-2.8,2.7c-1.7,0-2.8-1.1-2.8-2.9
		C135.8,261.7,136.9,260.7,138.7,260.7z"/>
	<path class="st0" d="M102.4,161.9c-1.1-1.4-2.1-2.5-3.3-3.9c1.3-1.1,2.5-2.1,3.9-3.3c1.1,1.3,2.1,2.5,3.3,3.9
		C105,159.7,103.8,160.8,102.4,161.9z"/>
	<path class="st0" d="M85.5,222.1c-0.6-1.6-1.1-3.1-1.8-4.8c1.6-0.6,3.1-1.1,4.7-1.7c0.6,1.6,1.1,3,1.7,4.6
		C88.7,221.1,87.2,221.4,85.5,222.1z"/>
	<path class="st0" d="M103.7,245.4c-1.3-1.1-2.5-2.1-3.9-3.3c1.1-1.3,2.1-2.5,3.2-3.8c1.4,0.9,2.6,2.1,3.9,3.2
		C105.9,242.8,104.8,244,103.7,245.4z"/>
	<path class="st0" d="M155.6,254c-0.6-1.7-1.1-3.2-1.7-4.8c1.6-0.6,3.1-1.1,4.7-1.7c0.6,1.6,1.2,3.1,1.8,4.7
		C158.8,252.8,157.3,253.4,155.6,254z"/>
	<path class="st0" d="M176.5,234.7c1.2-1.4,2.2-2.6,3.3-3.9c1.3,1.1,2.5,2.1,3.9,3.3c-1.1,1.3-2.1,2.5-3.3,3.9
		C179.1,236.9,177.9,235.9,176.5,234.7z"/>
	<path class="st0" d="M169.9,240.8c1.3-1.1,2.5-2.1,3.8-3.1c1.4,1,2.2,2.4,3.4,3.8c-1.3,1.1-2.5,2.1-3.9,3.3
		C172,243.4,171,242.2,169.9,240.8z"/>
	<path class="st0" d="M132,251.4c-0.3,1.7-0.6,3.2-0.9,4.9c-1.7-0.3-3.2-0.5-5-0.8c0.3-1.7,0.6-3.3,0.9-5
		C128.8,250.8,130.3,251.1,132,251.4z"/>
	<path class="st0" d="M187,243.2c-1.4,0-2.6-1.3-2.6-3c0-1.6,1.3-2.7,3-2.7c1.5,0,2.7,1.4,2.6,3.1C190,242,188.6,243.2,187,243.2z"
		/>
	<path class="st0" d="M140,147.7c-1.7,0-3.2,0-4.9,0c0-1.6,0-3.1,0-4.9c1.6-0.2,3.2-0.1,4.9-0.1C140,144.5,140,146,140,147.7z"/>
	<path class="st0" d="M150.9,255.3c-1.8,0.3-3.3,0.6-4.9,0.9c-0.3-1.7-0.6-3.3-0.9-5c1.7-0.3,3.2-0.6,5-0.9
		C150.4,252.1,150.6,253.6,150.9,255.3z"/>
	<path class="st0" d="M185.9,168.7c0.8,1.4,1.6,2.8,2.6,4.4c-1.5,0.8-2.8,1.7-4.4,2.6c-0.9-1.5-1.6-2.8-2.6-4.4
		C183,170.4,184.4,169.5,185.9,168.7z"/>
	<path class="st0" d="M122.2,150.3c-1.6,0.6-3.1,1.1-4.7,1.7c-0.6-1.6-1.1-3.1-1.8-4.7c1.6-0.6,3.1-1.1,4.8-1.7
		C121.1,147.2,121.7,148.7,122.2,150.3z"/>
	<path class="st0" d="M91.8,159.4c0,1.5-1.5,2.6-3.2,2.6c-1.4,0-2.5-1.5-2.5-3.1c0-1.4,1.4-2.6,3-2.6
		C90.7,156.4,91.8,157.7,91.8,159.4z"/>
	<path class="st0" d="M90.2,230.9c-0.9-1.5-1.7-2.9-2.5-4.4c1.4-0.8,2.8-1.6,4.4-2.6c0.9,1.5,1.7,2.9,2.6,4.4
		C93.1,229.2,91.8,230,90.2,230.9z"/>
	<path class="st0" d="M99.6,164.8c-1.2,1.4-2.2,2.6-3.3,3.9c-1.3-1.1-2.5-2.1-3.9-3.3c1.1-1.3,2.1-2.5,3.3-3.9
		C97,162.6,98.2,163.6,99.6,164.8z"/>
	<path class="st0" d="M172.4,154.2c1.3,1.1,2.5,2.1,3.9,3.3c-1.1,1.3-2.1,2.5-3.3,3.9c-1.3-1.1-2.5-2.1-3.9-3.3
		C170.2,156.7,171.3,155.5,172.4,154.2z"/>
	<path class="st0" d="M178.9,147.9c1.5,0,2.6,1.5,2.6,3.2c-0.1,1.4-1.5,2.5-3.1,2.5c-1.5,0-2.6-1.5-2.6-3.2
		C175.9,148.9,177.3,147.8,178.9,147.9z"/>
	<path class="st0" d="M78.1,189c-0.1,1.6-1.3,3-2.6,3c-1.7,0-3.1-1.3-3.1-2.7c0.1-1.6,1.3-3,2.6-3C76.8,186.4,78.2,187.6,78.1,189z"
		/>
	<path class="st0" d="M169.2,247.6c-1.5,0.9-2.8,1.7-4.4,2.6c-0.8-1.4-1.7-2.8-2.6-4.4c1.5-0.9,2.8-1.6,4.4-2.5
		C167.5,244.7,168.3,246.1,169.2,247.6z"/>
	<path class="st0" d="M93.1,234.8c1.3-1.1,2.5-2.1,3.9-3.3c1.1,1.3,2.1,2.5,3.3,3.9c-1.3,1.1-2.5,2.1-3.9,3.3
		C95.2,237.4,94.2,236.2,93.1,234.8z"/>
	<path class="st0" d="M86.4,193.7c-1.7-0.3-3.2-0.6-4.9-0.9c0.3-1.7,0.6-3.3,0.9-5c1.7,0.3,3.2,0.6,4.8,0.8
		C87.2,190.4,86.7,191.9,86.4,193.7z"/>
	<path class="st0" d="M176.6,248.3c0.1-1.8,1.3-3,2.9-2.9c1.7,0.1,2.8,1.3,2.7,2.9c-0.1,1.6-1.3,2.7-2.8,2.7
		C177.7,251,176.5,249.7,176.6,248.3z"/>
	<path class="st0" d="M90,180.1c-0.6,1.7-1.1,3.1-1.7,4.7c-1.6-0.4-3.1-1-4.8-1.7c0.6-1.6,1.1-3,1.7-4.7
		C86.8,178.9,88.3,179.5,90,180.1z"/>
	<path class="st0" d="M86.8,241c0.1-1.6,1.3-2.8,2.8-2.7c1.6,0.1,2.9,1.3,2.8,2.7c-0.1,1.8-1.2,3-2.8,2.9
		C87.8,243.8,86.7,242.6,86.8,241z"/>
	<path class="st0" d="M183.1,164.7c-1.4,1.1-2.6,2.1-3.9,3.2c-1.1-1.3-2.1-2.5-3.2-3.9c1.3-1.1,2.5-2.1,3.8-3.3
		C181,162,181.9,163.3,183.1,164.7z"/>
	<path class="st0" d="M190.6,177.4c0.6,1.7,1.1,3.1,1.7,4.7c-1.6,0.6-3.1,1.1-4.8,1.7c-0.6-1.6-1.1-3.1-1.7-4.7
		C187.5,178.6,189,178,190.6,177.4z"/>
	<path class="st0" d="M96.7,148.5c1.6,0,3,1.2,2.9,2.6c-0.1,1.7-1.2,3-2.6,3c-1.9,0-3.1-1.2-3-2.8C94,149.6,95.2,148.5,96.7,148.5z"
		/>
	<path class="st0" d="M81.6,207.6c1.8-0.3,3.3-0.6,5-0.9c0.3,1.7,0.6,3.2,0.9,5c-1.7,0.3-3.3,0.6-5,0.8
		C82.2,210.9,81.9,209.4,81.6,207.6z"/>
	<path class="st0" d="M164,148.9c1.6,0.9,2.9,1.7,4.4,2.5c-0.8,1.5-1.6,2.8-2.5,4.4c-1.5-0.9-2.9-1.7-4.4-2.6
		C162.3,151.8,163.1,150.4,164,148.9z"/>
	<path class="st0" d="M130.2,143.3c0.3,1.8,0.5,3.2,0.8,4.9c-1.6,0.3-3.2,0.6-4.9,0.9c-0.3-1.7-0.6-3.3-0.9-5
		C126.9,143.9,128.5,143.6,130.2,143.3z"/>
	<path class="st0" d="M144.1,148.1c0.3-1.8,0.6-3.3,0.9-5c1.7,0.3,3.3,0.6,5,0.9c-0.3,1.7-0.6,3.2-0.9,4.9
		C147.5,148.7,146,148.4,144.1,148.1z"/>
	<path class="st0" d="M172.4,144.5c0,1.4-1.5,2.8-3,2.8c-1.2,0-2.6-1.6-2.7-3c-0.1-1.3,1.6-2.8,3.1-2.8
		C171,141.5,172.4,143,172.4,144.5z"/>
	<path class="st0" d="M81.1,202.6c0-1.6,0-3.1,0-4.8c1.6,0,3.2,0,4.8,0c0.4,1.5,0.1,3.1,0.1,4.8C84.4,202.6,82.9,202.6,81.1,202.6z"
		/>
	<path class="st0" d="M113.9,153.8c-1.5,0.9-2.9,1.7-4.4,2.5c-0.8-1.5-1.6-2.8-2.5-4.4c1.4-0.8,2.8-1.6,4.4-2.5
		C112.2,150.9,113,152.2,113.9,153.8z"/>
	<path class="st0" d="M149.4,265.2c-1.6-0.2-2.6-1.1-2.7-3.1c0-1.3,1.7-2.7,3.2-2.6c1.3,0.1,2.5,1.6,2.5,3.1
		C152.4,264.1,151.1,265.2,149.4,265.2z"/>
	<path class="st0" d="M195,201.7c-1.7,0-3.2,0-4.8,0c0-1.6,0-3.2,0-4.9c1.6,0,3.1,0,4.8,0C195,198.5,195,200,195,201.7z"/>
	<path class="st0" d="M189.6,192.8c-0.3-1.7-0.6-3.2-0.9-5c1.7-0.3,3.3-0.6,5-0.9c0.3,1.7,0.6,3.2,0.9,5
		C192.9,192.2,191.4,192.4,189.6,192.8z"/>
	<path class="st0" d="M186.6,155.7c1.7,0,2.8,1.2,2.8,2.7c0,1.6-1.2,3-2.6,2.9c-1.8-0.1-3.1-1.2-3-2.7
		C183.8,156.8,185,155.6,186.6,155.7z"/>
	<path class="st0" d="M114.7,246.2c-0.8,1.5-1.6,2.8-2.5,4.4c-1.5-0.9-2.9-1.7-4.4-2.6c0.9-1.5,1.7-2.9,2.5-4.4
		C111.8,244.6,113.2,245.3,114.7,246.2z"/>
	<path class="st0" d="M184.6,223.1c1.6,0.9,2.9,1.7,4.4,2.6c-0.9,1.5-1.7,2.9-2.5,4.4c-1.5-0.8-2.8-1.6-4.3-2.5
		C182.8,226,183.7,224.7,184.6,223.1z"/>
	<path class="st0" d="M194.7,206.7c-0.3,1.8-0.6,3.3-0.9,5c-1.7-0.3-3.3-0.6-4.9-0.9c0.3-1.7,0.6-3.2,0.9-5
		C191.5,206.1,193.1,206.4,194.7,206.7z"/>
	<path class="st0" d="M153,149.9c0.6-1.6,1.1-3,1.7-4.7c1.6,0.6,3.1,1.1,4.7,1.7c-0.6,1.6-1.1,3.1-1.7,4.7
		C156.1,151.2,154.7,150.6,153,149.9z"/>
	<path class="st0" d="M97.3,251.7c-1.4,0-2.6-1.3-2.6-2.9c0-1.5,1.2-2.6,2.8-2.7c1.6,0,2.8,1.1,2.8,2.9
		C100.4,250.4,99.1,251.6,97.3,251.7z"/>
	<path class="st0" d="M78.3,211.5c0,1.4-1.3,2.6-2.9,2.6c-1.5,0-2.7-1.3-2.7-3c0-1.3,1.4-2.6,2.9-2.6
		C76.9,208.4,78.2,209.8,78.3,211.5z"/>
	<path class="st0" d="M194.9,177.5c-0.1-1.3,1.6-3,3-3c1.2,0,2.8,1.6,2.8,2.9c0.1,1.3-1.6,2.9-3,2.9
		C196.4,180.5,195,178.9,194.9,177.5z"/>
	<path class="st0" d="M148.5,134.1c1.7,0,3,1.3,3,2.8c-0.1,1.6-1.3,3-2.6,2.9c-1.5,0-3-1.3-3-2.6
		C145.8,135.6,147.1,134.1,148.5,134.1z"/>
	<path class="st0" d="M118.4,247.8c1.7,0.6,3.1,1.1,4.7,1.7c-0.3,1.7-1,3.1-1.7,4.8c-1.6-0.6-3-1.1-4.7-1.7
		C117.2,251,117.8,249.5,118.4,247.8z"/>
	<path class="st0" d="M130.3,262.3c0,1.6-1.3,3.2-2.7,3.1c-1.6,0-3-1.3-3-2.6c0-1.7,1.2-3.1,2.7-3.1
		C128.9,259.7,130.3,261,130.3,262.3z"/>
	<path class="st0" d="M91.5,176.4c-1.5-0.9-2.8-1.6-4.3-2.5c0.9-1.5,1.6-2.8,2.5-4.4c1.5,0.8,2.8,1.6,4.3,2.5
		C93.3,173.5,92.5,174.9,91.5,176.4z"/>
	<path class="st0" d="M106.6,258c-1.4,0-2.8-1.5-2.8-3c0-1.3,1.5-2.7,3-2.7c1.3-0.1,2.8,1.6,2.8,3.1C109.6,256.6,108,258,106.6,258z
		"/>
	<path class="st0" d="M195.9,167.6c-0.2,1.7-1.6,2.9-3,2.8c-1.6-0.2-2.8-1.5-2.7-2.9c0.1-1.5,1.5-2.9,2.8-2.8
		C194.6,164.8,196,166.2,195.9,167.6z"/>
	<path class="st0" d="M200.8,185.4c1.5,0,2.7,1.3,2.7,3c0,1.4-1.5,2.7-3.1,2.7c-1.2,0-2.5-1.5-2.6-3.1
		C197.8,186.7,199.2,185.5,200.8,185.4z"/>
	<path class="st0" d="M126.2,140c-1.4,0-2.6-1.5-2.5-3.1c0-1.4,1.5-2.7,3.2-2.6c1.2,0,2.5,1.6,2.5,3.1
		C129.4,138.7,127.8,140,126.2,140z"/>
	<path class="st0" d="M159.4,142.7c-1.4,0-2.9-1.4-2.9-2.8c0-1.4,1.5-3,2.9-3c1.3,0,2.9,1.5,2.9,2.8
		C162.4,141,160.8,142.7,159.4,142.7z"/>
	<path class="st0" d="M198.2,218.2c1.4,0.1,2.9,1.7,2.8,2.9c-0.1,1.4-1.8,3-3,2.9c-1.5-0.2-2.9-1.7-2.7-3.1
		C195.5,219.4,196.9,218.1,198.2,218.2z"/>
	<path class="st0" d="M186.2,219.4c0.6-1.7,1.2-3.1,1.7-4.7c1.6,0.6,3.1,1.1,4.7,1.7c-0.6,1.6-1.1,3-1.7,4.6
		C189.3,220.8,187.9,220,186.2,219.4z"/>
	<path class="st0" d="M170.3,257.5c-1.7-0.2-2.9-1.6-2.7-3c0.2-1.6,1.5-2.8,2.9-2.7c1.5,0.1,2.9,1.6,2.8,2.8
		C173.1,256.3,171.6,257.7,170.3,257.5z"/>
	<path class="st0" d="M108.7,144.8c-0.1,1.5-1.4,2.9-2.7,2.9c-1.5,0-3.1-1.5-3-2.8c0.1-1.5,1.5-2.9,2.8-2.9
		C107.3,142,108.7,143.4,108.7,144.8z"/>
	<path class="st0" d="M115.9,137.2c1.3,0,2.9,1.7,2.8,3.1c-0.1,1.3-1.7,2.8-3,2.7c-1.4,0-2.9-1.7-2.8-3.1
		C113,138.6,114.6,137.2,115.9,137.2z"/>
	<path class="st0" d="M83.1,229.1c1.6,0.1,3,1.4,2.9,2.9c-0.1,1.5-1.5,3-2.8,2.9c-1.6-0.1-3.1-1.5-3-2.9
		C80.4,230.5,81.7,229.1,83.1,229.1z"/>
	<path class="st0" d="M200.9,213.1c-1.7-0.1-2.9-1.3-2.8-2.7c0.1-1.6,1.4-3,2.7-2.9c1.7,0.1,3.1,1.4,3,2.8
		C203.6,212,202.4,213.2,200.9,213.1z"/>
	<path class="st0" d="M78,175.5c1.4,0,3,1.6,2.9,3c-0.1,1.4-1.5,2.9-2.8,2.8c-1.4,0-2.9-1.4-2.9-2.8C75.1,177.2,76.7,175.5,78,175.5
		z"/>
	<path class="st0" d="M196.3,231.3c0,1.4-1.3,2.7-2.9,2.8c-1.4,0.1-2.8-1.4-2.9-2.9c0-1.3,1.6-2.8,3.1-2.8
		C195,228.3,196.3,229.8,196.3,231.3z"/>
	<path class="st0" d="M163.2,259.4c0.1,1.3-1.6,2.9-3,2.9c-1.2,0-2.8-1.6-2.8-2.9c-0.1-1.3,1.4-2.8,2.8-2.9
		C161.6,256.5,163.2,258,163.2,259.4z"/>
	<path class="st0" d="M82.5,171.2c-1.3,0-2.6-1.4-2.7-2.9c-0.1-1.4,1.4-2.8,3-2.8c1.3,0,2.7,1.4,2.8,2.9
		C85.7,169.7,84.1,171.2,82.5,171.2z"/>
	<path class="st0" d="M116.9,262.7c-1.3,0.1-3.1-1.5-3.1-2.9c0-1.3,1.5-2.9,2.8-3c1.3-0.1,2.9,1.3,3,2.7
		C119.7,260.9,118.2,262.6,116.9,262.7z"/>
	<path class="st0" d="M81.3,222c0,1.4-1.6,2.9-3,2.9c-1.3,0-2.8-1.6-2.8-2.9c0-1.3,1.7-2.9,3-2.9C79.8,219.1,81.2,220.7,81.3,222z"
		/>
	<path class="st0" d="M135.5,152.4c1.4,0,2.7,0,4.1,0c0.2,1.3,0.5,2.7-0.6,3.7c-0.6,0.6-1.6,0.7-2.4,0.3
		C135,155.5,135.4,154,135.5,152.4z"/>
	<path class="st0" d="M185.4,197.2c0,1.4,0,2.6,0,4.1c-1.3,0.2-2.7,0.6-3.7-0.6c-0.6-0.6-0.7-1.7-0.2-2.4
		C182.4,196.7,183.9,197.1,185.4,197.2z"/>
	<path class="st0" d="M90.7,202.3c0-1.4,0-2.7,0-4.1c1.5-0.1,2.9-0.5,3.9,0.9c0.5,0.7,0.4,1.7-0.1,2.4
		C93.5,202.8,92.2,202.5,90.7,202.3z"/>
	<path class="st0" d="M136.4,247.1c0-1.6-0.4-3.1,1.1-3.9c0.7-0.4,1.6-0.4,2.3,0.1c1.3,1,1,2.4,0.8,3.8
		C139.2,247.1,137.9,247.1,136.4,247.1z"/>
	<path class="st0" d="M128.2,246.2c0.2-0.9,0.2-1.7,0.4-2.3c0.3-1.1,1.4-1.7,2.5-1.5c1.1,0.2,1.8,1.2,1.7,2.4
		c-0.1,0.7-0.2,1.3-0.4,2.2C131,246.6,129.7,246.4,128.2,246.2z"/>
	<path class="st0" d="M143.8,152.6c1.5,0.3,2.8,0.5,4.2,0.8c-0.1,0.8-0.2,1.5-0.4,2.2c-0.3,1.2-1.3,1.8-2.4,1.6
		c-1.2-0.2-1.9-1.2-1.8-2.5C143.4,154.1,143.6,153.5,143.8,152.6z"/>
	<path class="st0" d="M185.2,205.4c-0.2,1.4-0.5,2.7-0.7,4.2c-0.8-0.1-1.6-0.2-2.3-0.4c-1.2-0.3-1.8-1.3-1.6-2.4
		c0.2-1.1,1.1-1.9,2.3-1.8C183.7,205.1,184.4,205.3,185.2,205.4z"/>
	<path class="st0" d="M183.6,213.5c-0.5,1.5-1,2.7-1.5,4.1c-0.8-0.3-1.6-0.5-2.3-0.9c-1-0.5-1.4-1.6-1.1-2.6
		c0.4-1.1,1.4-1.7,2.6-1.4C182,212.9,182.7,213.2,183.6,213.5z"/>
	<path class="st0" d="M91.7,189.9c0.9,0.2,1.7,0.3,2.4,0.5c1.1,0.3,1.6,1.4,1.5,2.4c-0.2,1.1-1.2,1.9-2.3,1.8
		c-0.7-0.1-1.4-0.3-2.3-0.4C91.2,192.7,91.4,191.4,91.7,189.9z"/>
	<path class="st0" d="M151.8,154.3c1.4,0.5,2.7,1,4.1,1.5c-0.3,0.8-0.5,1.6-0.8,2.2c-0.5,1-1.6,1.5-2.6,1.1
		c-1.1-0.4-1.7-1.3-1.4-2.5C151.2,155.9,151.5,155.2,151.8,154.3z"/>
	<path class="st0" d="M92.9,214.4c0.8-0.3,1.4-0.6,2.1-0.8c1.3-0.4,2.3,0.2,2.7,1.3c0.4,1.1,0,2.1-1.2,2.7c-0.6,0.3-1.3,0.5-2.1,0.8
		C93.9,217.1,93.5,215.9,92.9,214.4z"/>
	<path class="st0" d="M127.3,153.5c1.4-0.3,2.7-0.5,4-0.7c0.5,1.4,1,2.7,0,3.9c-0.5,0.6-1.6,0.8-2.4,0.5
		C127.4,156.6,127.6,155.1,127.3,153.5z"/>
	<path class="st0" d="M123.4,154.6c0.3,0.9,0.6,1.6,0.8,2.3c0.3,1.1-0.3,2.1-1.3,2.5c-1,0.4-2,0-2.6-1c-0.1-0.2-0.2-0.5-0.3-0.8
		c-0.2-0.5-0.3-1-0.5-1.6C120.8,155.6,122,155.2,123.4,154.6z"/>
	<path class="st0" d="M105.6,165.1c1.2-1,2.2-1.8,3.3-2.8c0.6,0.7,1.1,1.2,1.5,1.8c0.7,1,0.4,2.2-0.5,2.9c-0.9,0.7-1.9,0.6-2.8-0.2
		C106.6,166.4,106.2,165.8,105.6,165.1z"/>
	<path class="st0" d="M172.7,167.3c1,1.1,1.8,2.1,2.8,3.3c-0.7,0.6-1.3,1.2-2,1.6c-0.9,0.6-2.1,0.3-2.8-0.5c-0.7-0.8-0.6-2,0.1-2.8
		C171.4,168.3,172,167.9,172.7,167.3z"/>
	<path class="st0" d="M180,177.5c-0.8,0.4-1.3,0.8-1.9,1.1c-1.2,0.6-2.4,0.2-2.9-0.8c-0.6-1-0.3-2.1,0.7-2.8
		c0.5-0.4,1.2-0.7,1.9-1.1C178.5,175,179.2,176.1,180,177.5z"/>
	<path class="st0" d="M92.6,186c0.5-1.5,1-2.7,1.5-4.1c0.8,0.3,1.6,0.5,2.3,0.9c1,0.5,1.4,1.6,1.1,2.6c-0.4,1.1-1.2,1.6-2.4,1.4
		C94.3,186.7,93.5,186.3,92.6,186z"/>
	<path class="st0" d="M164.1,239.5c-1.3,0.7-2.4,1.4-3.7,2.2c-0.4-0.7-0.9-1.3-1.1-2c-0.5-1.1-0.1-2.2,0.8-2.8
		c1-0.6,2.1-0.4,2.9,0.7C163.3,238,163.6,238.7,164.1,239.5z"/>
	<path class="st0" d="M184.3,188.9c0.3,1.5,0.5,2.8,0.7,4.2c-1.5,0.3-2.8,1-4-0.2c-0.6-0.6-0.8-1.4-0.5-2.2
		C181.1,189,182.8,189.3,184.3,188.9z"/>
	<path class="st0" d="M120.3,243.8c0.3-0.8,0.5-1.4,0.7-1.9c0.5-1.2,1.6-1.8,2.7-1.4c1.2,0.4,1.7,1.5,1.3,2.9
		c-0.2,0.6-0.4,1.2-0.7,1.9C123,244.7,121.7,244.3,120.3,243.8z"/>
	<path class="st0" d="M98.3,225.7c-0.7-1.3-1.4-2.4-2.2-3.7c0.7-0.4,1.3-0.9,2-1.2c1.1-0.5,2.3-0.1,2.8,0.9c0.6,1,0.3,2.1-0.7,2.8
		C99.7,225,99.1,225.3,98.3,225.7z"/>
	<path class="st0" d="M156.7,243.4c-1.4,0.5-2.6,1-4,1.5c-0.3-0.8-0.6-1.5-0.8-2.2c-0.3-1.2,0.3-2.2,1.4-2.6c1-0.4,2.1,0,2.6,1
		C156.2,241.8,156.4,242.5,156.7,243.4z"/>
	<path class="st0" d="M173.3,231.5c-0.7-0.6-1.3-1-1.8-1.6c-0.7-0.8-0.8-2-0.2-2.8c0.7-0.9,1.9-1.1,2.9-0.5c0.6,0.4,1.1,0.9,1.8,1.5
		C175.2,229.3,174.4,230.3,173.3,231.5z"/>
	<path class="st0" d="M103.5,232.3c-1-1.1-1.8-2.1-2.8-3.3c0.7-0.6,1.3-1.2,2-1.6c0.9-0.6,2.2-0.3,2.8,0.5c0.7,0.8,0.6,2-0.1,2.8
		C104.8,231.2,104.2,231.6,103.5,232.3z"/>
	<path class="st0" d="M112.1,160c1.3-0.7,2.4-1.4,3.7-2.2c0.5,0.8,1,1.5,1.3,2.2c0.4,1-0.1,2.2-1,2.6c-0.9,0.5-2.1,0.2-2.7-0.6
		C112.9,161.5,112.6,160.8,112.1,160z"/>
	<path class="st0" d="M170.6,234.4c-1.2,1-2.2,1.8-3.3,2.8c-0.5-0.7-1.1-1.2-1.5-1.9c-0.6-1-0.4-2.2,0.5-2.9c0.8-0.6,2-0.6,2.8,0.2
		C169.6,233.1,170,233.7,170.6,234.4z"/>
	<path class="st0" d="M183.2,185.1c-0.9,0.3-1.5,0.6-2.2,0.8c-1.2,0.3-2.2-0.3-2.6-1.4c-0.4-1,0-2.1,1-2.6c0.7-0.3,1.5-0.5,2.3-0.8
		C182.3,182.5,182.7,183.7,183.2,185.1z"/>
	<path class="st0" d="M180.5,221.2c-0.7,1.3-1.4,2.4-2.1,3.7c-0.7-0.4-1.4-0.7-2-1.2c-1-0.7-1.2-1.9-0.7-2.9c0.5-1,1.7-1.4,2.8-0.9
		C179.1,220.3,179.7,220.8,180.5,221.2z"/>
	<path class="st0" d="M91.8,210.5c-0.3-1.5-0.5-2.7-0.7-4.2c0.9-0.1,1.7-0.4,2.4-0.4c1.2,0,2,0.7,2.1,1.8c0.2,1.1-0.3,2-1.5,2.4
		C93.5,210.3,92.7,210.4,91.8,210.5z"/>
	<path class="st0" d="M148.9,246c-1.4,0.3-2.7,0.5-4.1,0.7c-0.4-1.4-1-2.7,0.1-4c0.6-0.6,1.5-0.8,2.4-0.5
		C148.8,242.9,148.6,244.4,148.9,246z"/>
	<path class="st0" d="M159.5,157.4c1.3,0.8,2.4,1.4,3.7,2.1c-0.4,0.8-0.8,1.5-1.2,2.1c-0.7,0.9-1.8,1.1-2.7,0.6
		c-0.9-0.5-1.3-1.5-1-2.6c0.1-0.2,0.2-0.4,0.3-0.6C158.9,158.5,159.2,158,159.5,157.4z"/>
	<path class="st0" d="M166.6,161.8c1.1,0.9,2.1,1.8,3.3,2.7c-0.5,0.7-1,1.3-1.5,1.8c-0.8,0.8-2,0.8-2.8,0.2
		c-0.8-0.6-1.1-1.8-0.5-2.8C165.4,163,166,162.5,166.6,161.8z"/>
	<path class="st0" d="M100.1,171.3c1-1.1,1.8-2.2,2.8-3.3c0.7,0.6,1.3,1,1.8,1.5c0.8,0.8,0.9,2.1,0.2,2.9c-0.6,0.8-1.9,1-2.8,0.4
		C101.3,172.4,100.7,171.9,100.1,171.3z"/>
	<path class="st0" d="M95.7,178.4c0.8-1.3,1.4-2.5,2.2-3.8c0.8,0.5,1.5,0.8,2.2,1.3c0.8,0.6,1,1.7,0.6,2.6c-0.4,0.9-1.4,1.4-2.4,1.1
		C97.3,179.3,96.6,178.8,95.7,178.4z"/>
	<path class="st0" d="M116.6,242.1c-1.3-0.8-2.5-1.4-3.7-2.2c0.5-0.8,0.8-1.4,1.2-2c0.7-0.9,1.9-1.2,2.9-0.6
		c0.9,0.5,1.3,1.6,0.8,2.7C117.6,240.7,117.1,241.3,116.6,242.1z"/>
	<path class="st0" d="M109.6,237.8c-1.1-0.9-2.1-1.8-3.3-2.7c0.6-0.7,1.1-1.4,1.6-1.9c0.7-0.7,1.9-0.7,2.7-0.1
		c0.8,0.6,1.1,1.8,0.6,2.8c-0.1,0.2-0.2,0.3-0.3,0.4C110.5,236.7,110.1,237.1,109.6,237.8z"/>
	<path class="st0" d="M197.5,272.8c-0.4,1.3-1.5,0.6-2.2,1.2c0,1.8,0,3.8,0,5.6c-0.8,0.3-1.2,0.3-1.2-0.5c0-1.1,0-2.2,0-3.2
		c0-0.7,0-1.3,0-1.8c-0.6-0.9-2,0.1-2.2-1.3C193.7,272.8,195.5,272.8,197.5,272.8z"/>
	<path class="st0" d="M167.9,222.7c0,1.1-0.8,1.8-1.9,1.8c-1,0-1.8-0.9-1.8-1.9c0-1,0.9-1.8,1.9-1.8
		C167.2,220.8,167.9,221.6,167.9,222.7z"/>
	<path class="st0" d="M115.1,229.6c-1.1,0-1.8-0.8-1.8-1.9c0-1,0.9-1.8,1.9-1.8c1,0,1.8,0.9,1.8,1.9
		C117,228.8,116.2,229.6,115.1,229.6z"/>
	<path class="st0" d="M118.6,231.3c0-1.1,0.8-1.8,1.8-1.8c1.1,0,1.9,0.8,1.9,1.8c0,1-0.9,1.9-1.9,1.9
		C119.4,233.2,118.6,232.3,118.6,231.3z"/>
	<path class="st0" d="M176.1,199.3c0,1-0.8,1.8-1.8,1.8c-1,0-1.9-0.8-1.9-1.8c0-1,0.8-1.9,1.8-1.9
		C175.3,197.4,176.1,198.2,176.1,199.3z"/>
	<path class="st0" d="M173.7,186.9c0,1.1-0.7,1.9-1.7,1.9c-1,0-1.9-0.8-1.9-1.8c0-1,0.8-1.9,1.8-1.9
		C172.9,185.1,173.7,185.8,173.7,186.9z"/>
	<path class="st0" d="M102.1,187.9c0-1.1,0.7-1.8,1.8-1.8c1,0,1.9,0.8,1.9,1.8c0,1-0.9,1.9-1.8,1.9
		C103,189.7,102.1,188.9,102.1,187.9z"/>
	<path class="st0" d="M138.6,237.7c-1.1,0-1.8-0.7-1.9-1.8c0-1,0.8-1.9,1.8-1.9c1,0,1.9,0.8,1.9,1.8
		C140.4,236.9,139.6,237.7,138.6,237.7z"/>
	<path class="st0" d="M173.8,207.4c-1.1,0-1.8-0.7-1.8-1.8c0-1,0.8-1.9,1.8-1.8c1,0,1.8,0.9,1.8,1.9
		C175.6,206.6,174.8,207.4,173.8,207.4z"/>
	<path class="st0" d="M108.3,182c0,1.1-0.7,1.9-1.7,1.9c-1,0-1.9-0.8-1.9-1.8c0-1,0.8-1.9,1.8-1.9C107.5,180.2,108.3,181,108.3,182z
		"/>
	<path class="st0" d="M171,181.3c0,1.1-0.8,1.8-1.9,1.7c-1,0-1.8-0.9-1.8-1.9c0-1,1-1.8,1.9-1.8C170.2,179.4,171,180.3,171,181.3z"
		/>
	<path class="st0" d="M102.5,208.3c-1,0-1.8-0.8-1.8-1.9c0-1,0.9-1.8,1.9-1.8c1,0,1.8,0.9,1.8,1.9
		C104.4,207.6,103.5,208.4,102.5,208.3z"/>
	<path class="st0" d="M144.8,237.1c-1,0-1.8-0.9-1.8-1.9c0-1,0.9-1.8,1.9-1.8c1,0,1.8,0.9,1.8,1.9
		C146.6,236.4,145.8,237.1,144.8,237.1z"/>
	<path class="st0" d="M126.1,235.7c-1.1,0-1.8-0.8-1.8-1.9c0-1,0.9-1.8,1.9-1.8c1,0,1.8,0.9,1.8,1.9
		C128,235,127.1,235.7,126.1,235.7z"/>
	<path class="st0" d="M151.8,165.6c0,1-0.8,1.9-1.8,1.8c-1,0-1.9-0.9-1.8-1.9c0-1,0.8-1.8,1.9-1.8
		C151.1,163.8,151.8,164.6,151.8,165.6z"/>
	<path class="st0" d="M129.5,164.3c0-1.1,0.7-1.8,1.8-1.8c1,0,1.9,0.8,1.9,1.8c0,1-0.9,1.9-1.8,1.9
		C130.4,166.1,129.5,165.3,129.5,164.3z"/>
	<path class="st0" d="M143.9,165.9c-1,0-1.9-0.8-1.9-1.8c0-1,0.9-1.9,1.8-1.9c1,0,1.8,0.8,1.8,1.8
		C145.7,165.1,144.9,165.9,143.9,165.9z"/>
	<path class="st0" d="M156.5,232.6c-1,0-1.8-0.8-1.8-1.9c0-1,0.9-1.8,1.9-1.8c1,0,1.8,0.9,1.8,1.9
		C158.4,231.9,157.6,232.7,156.5,232.6z"/>
	<path class="st0" d="M102.4,212.5c0-1.1,0.8-1.8,1.9-1.8c1,0,1.8,0.9,1.8,1.9c0,1-0.9,1.8-1.9,1.8
		C103.2,214.4,102.4,213.6,102.4,212.5z"/>
	<path class="st0" d="M173.6,191.2c1.1,0,1.8,0.7,1.8,1.8c0,1-0.8,1.9-1.8,1.9c-1,0-1.9-0.9-1.9-1.8
		C171.7,192,172.6,191.2,173.6,191.2z"/>
	<path class="st0" d="M167.8,217.4c0-1,0.9-1.8,1.9-1.8c1,0,1.8,0.9,1.8,1.9c0,1-0.9,1.8-1.9,1.8
		C168.5,219.2,167.8,218.4,167.8,217.4z"/>
	<path class="st0" d="M100.1,200.3c0-1.1,0.7-1.8,1.8-1.9c1,0,1.9,0.8,1.9,1.8c0,1-0.8,1.9-1.8,1.9
		C100.9,202.1,100.1,201.3,100.1,200.3z"/>
	<path class="st0" d="M162.8,171.8c0,1-0.8,1.9-1.8,1.9c-1,0-1.9-0.9-1.9-1.9c0-1,0.8-1.8,1.9-1.8
		C162.1,170,162.8,170.7,162.8,171.8z"/>
	<path class="st0" d="M155.7,170c-1,0-1.8-0.8-1.8-1.9c0-1,0.9-1.8,1.9-1.8c1,0,1.8,0.9,1.8,1.9C157.6,169.3,156.8,170.1,155.7,170z
		"/>
	<path class="st0" d="M125.2,164.1c1.1,0,1.9,0.7,1.9,1.7c0,1-0.8,1.9-1.8,1.9c-1,0-1.9-0.8-1.9-1.8
		C123.4,165,124.1,164.2,125.2,164.1z"/>
	<path class="st0" d="M150.9,235.4c-1,0-1.8-0.8-1.8-1.8c0-1,0.8-1.8,1.8-1.8c1,0,1.8,0.8,1.8,1.9
		C152.7,234.6,151.9,235.4,150.9,235.4z"/>
	<path class="st0" d="M104.2,194c0,1-0.8,1.8-1.9,1.7c-1,0-1.8-0.9-1.8-1.9c0-1,0.9-1.8,1.9-1.7C103.5,192.2,104.2,193,104.2,194z"
		/>
	<path class="st0" d="M137.6,161.8c1.1,0,1.9,0.7,1.9,1.8c0,1-0.8,1.9-1.8,1.9c-1,0-1.8-0.8-1.9-1.8
		C135.7,162.6,136.5,161.8,137.6,161.8z"/>
	<path class="st0" d="M174,211.9c-0.1,1-1,1.7-2,1.6c-1-0.1-1.7-1-1.6-2c0.1-1,1.1-1.8,2.1-1.6C173.4,210,174.2,210.9,174,211.9z"/>
	<path class="st0" d="M112.5,223.3c0,1.1-0.7,1.8-1.8,1.8c-1,0-1.9-0.8-1.9-1.8c0-1,0.8-1.9,1.8-1.9
		C111.6,221.5,112.5,222.3,112.5,223.3z"/>
	<path class="st0" d="M108.3,176.9c0-1.1,0.8-1.8,1.8-1.8c1,0,1.9,0.8,1.8,1.8c0,1-0.9,1.8-1.9,1.8
		C109,178.7,108.2,177.9,108.3,176.9z"/>
	<path class="st0" d="M119.6,166.9c1.1,0,1.8,0.7,1.8,1.8c0,1-0.8,1.9-1.8,1.9c-1,0-1.9-0.9-1.9-1.9
		C117.7,167.7,118.5,166.9,119.6,166.9z"/>
	<path class="st0" d="M163.5,227.2c0,1.1-0.8,1.8-1.8,1.8c-1,0-1.8-0.8-1.8-1.8c0-1,0.9-1.8,1.9-1.8
		C162.7,225.3,163.5,226.1,163.5,227.2z"/>
	<path class="st0" d="M107,220.1c-1.1,0-1.8-0.8-1.8-1.8c0-1,0.8-1.8,1.8-1.8c1,0,1.8,0.9,1.8,1.9C108.8,219.3,108,220.1,107,220.1z
		"/>
	<path class="st0" d="M132.3,233.6c1.1,0,1.8,0.8,1.8,1.8c0,1-0.8,1.9-1.8,1.9c-1,0-1.8-0.8-1.8-1.9
		C130.4,234.4,131.2,233.6,132.3,233.6z"/>
	<path class="st0" d="M165.5,178c-1,0-1.8-0.8-1.9-1.8c0-1,0.8-1.8,1.8-1.9c1,0,1.8,0.8,1.9,1.8C167.3,177.2,166.6,178,165.5,178z"
		/>
	<path class="st0" d="M114.4,174.2c-1,0-1.8-0.9-1.7-1.9c0-1,0.9-1.8,1.9-1.8c1,0,1.8,0.9,1.7,1.9
		C116.2,173.5,115.5,174.2,114.4,174.2z"/>
</g>
</svg>