<?xml version="1.0" encoding="UTF-8"?>
<svg id="Layer_1" xmlns="http://www.w3.org/2000/svg" version="1.1" viewBox="0 0 396 56">
  <!-- Generator: Adobe Illustrator 30.2.1, SVG Export Plug-In . SVG Version: 2.1.1 Build 1)  -->
  <path d="M202.9,56h-5.8l-3.3-2.7-8.2-22.7-8,21.7c-.5,1.3-2.2,3.1-2.8,3.7h-6.9c-.5-.7-1.9-2.8-2.2-3.8l-9.7-35.9c4.1-2.8,9-.3,10.4,4.2l5.9,19.7,6.6-19.4c.9-2.7,3.9-4.9,6.5-5s5.7,1.9,6.6,4.6l6.9,19,6.2-19.6c1.3-4,6.4-6.6,10.1-3.6l-9.8,36.2c-.2.9-2.2,3-2.6,3.4Z"/>
  <path d="M28,0l2.8,3.3,19.2,52.7h-7.9c-4.6-3.5-4.3-12.2-10.8-12.2h-12.5c-2.7,0-5.3,2.1-6.3,4.5l-3.5,7.8H0v-2C7.4,37.5,13,20.1,19.7,2.7l3.3-2.7h5ZM32.8,35.2c-2.7-8.3-4.7-14.3-7.7-22.3l-7.7,22.5c6.4-2.3,9.4-2,15.4-.2Z"/>
  <path d="M385,0v50.1c-.2,2.3-.8,4.4-1.9,5.9h-20c-1.2-.6-3.3-1.5-4.8-2.4-11.8-7.3-12.9-25.5-2.6-34.4s13.7-5.4,19.8-.5l.2-7.8c.1-4.5,1.2-8.1,4.3-10.9h5ZM374.9,42.1c1.2-4.6,1.8-12.2,0-16s-9.6-3.2-12.4-1.1-5.1,7.2-4.7,12.1,2.7,8.6,6.1,9.6,9.7.7,11-4.5Z"/>
  <path d="M227,0c2.8,2.5,4.3,5.9,4.4,9.9l.2,9.1c6.7-5,14.6-5.3,20.7,0s4.2,7.3,4.2,10.6l.3,20.8c0,1.7-1,4.4-1.8,5.8h-5c-8-6,5.9-34.7-11.6-32.3s-6.9,3.6-7,7.9l-.2,18.6c0,1.8-.8,4.3-1.4,5.8h-6c-.9-1.5-1.8-3.8-1.8-5.9l-.2-50.1h5Z"/>
  <path d="M338.9,56h-19.8l-5.9-3.3c-9.7-7.9-10.7-22.7-2.6-32s15.9-7.2,22.9-1.5c2.2-3,5-4.9,8.1-3.8v35.5c.1,1.7-1.4,4-2.6,5ZM331.6,26.2c-.8-3.1-6.8-3.6-9.5-2.7-8.1,2.5-9.8,12.6-6,19.6s5.6,4.6,9.3,4c8.4-1.6,7.6-14.9,6.2-20.8Z"/>
  <path d="M290,56h-9.8c-11.3-3.9-18.9-13.9-15.5-25.8s15.4-18.1,26.6-13.6,7.7,6.6,7.7,11c.1,11.3-13,14.9-24.8,13.4,4.8,8,14.8,7.4,22.1,2,1.6-.6,4,3,4.1,4.6s-1.5,4.5-3.1,5.3l-7.2,3.2ZM290,26.6c-.3-.9-2-2.5-3-2.6-6-1.1-11.9,2.1-13.6,8.2,3.7,1.5,18.6.2,16.6-5.5Z"/>
  <path d="M136.8,56h-8.7c-10.4-3.3-17.5-12.4-15.8-23.5s10.6-18.3,21.6-17.3c10.5.9,17.9,9.4,18.5,19.2s-6.1,18.1-15.5,21.6ZM143.7,35.6c0-6.4-5.1-11.5-11.5-11.5s-11.5,5.1-11.5,11.5,5.1,11.5,11.5,11.5,11.5-5.1,11.5-11.5Z"/>
  <path d="M94.1,56h-5c-.5-.3-2.6-2.6-2.6-3.9V15.8c2.9-2.1,6.3.6,8.2,3.3,3.6-3.2,10.4-5.6,14.3-2.4s.6,4.7-.2,5.8c-2,2.8-12.1.2-12.4,8.1l-.7,19.5c0,2-.8,4.4-1.7,5.8Z"/>
  <path d="M64,56h-6c-.9-1.4-1.8-3.9-1.8-5.9V15.5c3.2-1.6,6.4,1,8.2,3.6,3.8-2.6,8.9-5.5,13.8-2.8s1.5,4.2.8,5.6c-2.3,4.3-12.7.5-13,9.2l-.5,19c0,1.9-.8,4.4-1.5,6.1Z"/>
</svg>