<?xml version="1.0" encoding="UTF-8"?><svg id="a" xmlns="http://www.w3.org/2000/svg" viewBox="0 0 64 64"><path d="M0,64V0h64v64H0ZM62.52,1.48H1.48v61.05h61.05V1.48Z"/><polygon points="51.27 43.96 51.25 35.16 48.58 43.96 46.28 43.96 43.71 35.19 43.7 43.96 40.67 43.96 40.67 30.3 44.96 30.29 47.49 38.39 50.03 30.3 54.3 30.3 54.31 43.96 51.27 43.96"/><path d="M38.9,36.96c0,3.92-3.18,7.09-7.09,7.09s-7.09-3.18-7.09-7.09,3.18-7.09,7.09-7.09,7.09,3.18,7.09,7.09ZM35.63,36.96c0-2.11-1.71-3.83-3.83-3.83s-3.83,1.71-3.83,3.83,1.71,3.83,3.83,3.83,3.83-1.71,3.83-3.83Z"/><path d="M51.76,22.2c-.83.31-1.65.39-2.53.44h-3.33s0,4.54,0,4.54l-3.73-.04v-13.58s7.1.01,7.1.01c.88,0,1.68.17,2.48.45,1.27.48,2.18,1.51,2.43,2.85.17.91.16,1.83-.07,2.73-.31,1.23-1.16,2.16-2.37,2.61ZM50.54,17.72c-.11-.44-.44-.69-.81-.88-.44-.18-.89-.25-1.37-.27h-2.46s0,3.07,0,3.07h2.85c.33,0,.66-.08.95-.21.65-.29,1.03-1,.84-1.71Z"/><path d="M34.91,24.82h-5.67s-.88,2.31-.88,2.31h-3.66s5.68-13.53,5.68-13.53h3.41s5.66,13.52,5.66,13.52h-3.64s-.9-2.31-.9-2.31ZM33.8,21.96l-1.73-4.46-1.73,4.47h3.46Z"/><path d="M15.67,24.17c.75.13,1.44.09,2.13-.16.87-.34,1.49-1.02,1.82-1.91h3.5c-.44,2.39-2.13,4.29-4.47,4.97-1.56.44-3.21.41-4.74-.12-2.12-.74-3.72-2.43-4.3-4.6-.96-3.59.75-7.36,4.37-8.57,1.47-.49,3.03-.53,4.53-.14,2.41.64,4.17,2.58,4.61,5.01h-3.5c-.34-.92-.99-1.61-1.89-1.94-.67-.23-1.34-.26-2.04-.14-1.22.23-2.21,1.04-2.66,2.2-.84,2.19.12,4.91,2.64,5.4Z"/><path d="M13.04,38.52c.75,1.89,2.85,2.66,4.65,2.04.91-.31,1.58-1.01,1.92-1.94h3.5c-.45,2.4-2.15,4.31-4.5,4.97-1.55.44-3.19.4-4.72-.13-3.59-1.25-5.26-5.01-4.29-8.59,1.09-3.99,5.32-5.8,9.14-4.66,1.26.4,2.32,1.12,3.13,2.16.62.83,1.04,1.76,1.23,2.78h-3.5c-.39-1.1-1.27-1.86-2.39-2.07-.61-.11-1.2-.09-1.81.06-2.35.62-3.21,3.28-2.37,5.38Z"/><path d="M16.82,50.56l-.04-.3c-.33.36-.81.44-1.28.25-.41-.17-.67-.61-.68-1.09s.24-.94.66-1.12c.46-.2.95-.13,1.32.25v-1.65c.15,0,.28,0,.44,0v3.62s-.42.03-.42.03ZM16.8,49.35c-.02-.48-.38-.76-.8-.74s-.71.37-.7.82c.01.48.35.8.8.78.43-.02.73-.37.71-.85Z"/><path d="M44.72,47.16c.17-.04.31-.04.47,0v2.23c-.01.73-.6,1.26-1.31,1.27s-1.34-.53-1.34-1.27v-2.22c.14-.02.27-.02.46-.01l.02,2.24c0,.5.4.83.84.84s.85-.33.85-.82l.02-2.22Z"/><path d="M37.11,50.54l-.04-.28c-.35.36-.84.44-1.29.25-.41-.17-.67-.6-.67-1.09s.24-.95.68-1.13c.46-.19.95-.1,1.3.26v-1.61c.11-.06.28-.06.44-.03v3.59c-.11.05-.26.05-.41.04ZM37.08,49.35c-.03-.49-.38-.77-.81-.74s-.71.37-.7.82c0,.47.35.8.8.78s.73-.36.71-.85Z"/><path d="M27.96,49.54c.21.42.6.64,1.04.66.4.02.73-.13.98-.45l.39.3c-.49.6-1.3.75-2,.45s-1.09-.98-1.06-1.75c.05-1.04.86-1.79,1.9-1.71.42.03.79.16,1.09.52l-.37.3c-.28-.29-.59-.41-.96-.38-.35.03-.68.2-.9.52-.3.45-.35,1.03-.1,1.54Z"/><path d="M11.74,48.64c.03.11.03.28.02.44h-1.56s0,1.47,0,1.47c-.16.01-.29.01-.46,0v-3.41s2.15,0,2.15,0v.43s-1.68,0-1.68,0v1.07s1.54,0,1.54,0Z"/><path d="M13.96,49.89c.12.07.23.16.34.25-.24.34-.59.45-.98.47-.64.03-1.14-.42-1.2-1.05-.05-.51.17-.99.6-1.22s1.02-.2,1.37.16c.28.28.35.66.32,1.06h-1.83c0,.33.25.55.49.62.35.1.63.04.89-.29ZM13.95,49.21c-.02-.45-.28-.64-.63-.66-.39,0-.73.26-.73.67h1.36Z"/><path d="M34.25,49.88l.33.26c-.24.34-.6.45-.99.47-.64.02-1.14-.42-1.2-1.05-.05-.5.17-.99.6-1.21.45-.23,1.02-.2,1.37.16.28.28.35.67.32,1.06h-1.83c0,.36.28.57.55.64.32.08.6,0,.84-.32ZM34.23,49.21c-.02-.44-.26-.62-.58-.66-.41-.03-.77.25-.77.66h1.36Z"/><path d="M19.63,49.88l.33.26c-.24.34-.6.45-.99.47-.65.02-1.14-.42-1.2-1.06-.05-.5.18-.99.6-1.2.45-.23,1.02-.2,1.37.16.28.28.35.67.32,1.06h-1.83c0,.36.28.57.55.64.32.08.6,0,.84-.32ZM19.6,49.21c-.02-.44-.26-.62-.58-.66-.41-.03-.78.25-.77.67h1.36Z"/><path d="M52.07,49.4c0,.67-.54,1.22-1.22,1.22s-1.22-.54-1.22-1.22.54-1.22,1.22-1.22,1.22.54,1.22,1.22ZM51.61,49.37c-.01-.47-.35-.79-.81-.77-.42.02-.71.37-.7.82,0,.47.35.8.8.78s.72-.37.71-.83Z"/><path d="M23,50.61c-.38-.02-.65-.23-.71-.54-.07-.35.1-.67.45-.81s.72-.13,1.11-.14c.05-.22-.08-.47-.31-.53-.32-.09-.6-.01-.87.22l-.26-.27c.38-.34.89-.42,1.37-.26.32.1.49.39.49.72v1.55s-.37.02-.37.02l-.03-.35c-.17.29-.49.43-.87.4ZM23.09,50.25c.25.02.47-.04.62-.21.12-.14.15-.36.15-.59-.35-.02-1.23-.01-1.14.51.03.17.17.27.38.29Z"/><path d="M46.35,49.16l-.02,1.38h-.43s0-2.28,0-2.28h.42s.04.28.04.28c.2-.24.44-.35.76-.35.43,0,.8.31.8.76v1.59s-.42,0-.42,0v-1.45c-.01-.29-.26-.48-.53-.48-.3,0-.61.21-.61.55Z"/><path d="M53.08,49.17l-.02,1.37h-.43s0-2.28,0-2.28h.43s.02.33.02.33c.15-.27.46-.4.8-.4.41,0,.78.31.78.75v1.6s-.42,0-.42,0l-.02-1.47c0-.27-.24-.46-.49-.47-.32-.01-.63.2-.64.56Z"/><path d="M40.58,50.16v.38c-.22.07-.46.09-.69.03-.24-.06-.37-.28-.37-.52v-1.41s-.5-.02-.5-.02v-.37s.49-.02.49-.02v-.63s.43,0,.43,0v.62s.57.02.57.02c.1,0,.1.35,0,.36l-.56.02v1.19c0,.08.06.29.14.32.14.06.28.04.49,0Z"/><rect x="24.93" y="46.89" width=".44" height="3.66"/><path d="M21.03,50.54h-.44s0-2.25,0-2.25c.12-.02.29-.03.43-.03l.04.29c.23-.26.5-.41.87-.32l-.03.46c-.24-.02-.42-.03-.61.09-.13.08-.25.31-.25.5v1.27Z"/><path d="M31.26,50.49c-.09.08-.28.07-.44.04v-2.24c.09-.04.31-.06.4-.01.07.04.04.25.03.32.2-.3.52-.47.9-.39l-.02.46c-.24-.02-.43-.02-.61.09-.15.09-.25.32-.25.53v1.2Z"/><rect x="38.21" y="48.25" width=".44" height="2.3"/><rect x="48.61" y="48.25" width=".44" height="2.3"/><circle cx="48.83" cy="47.43" r=".32"/><circle cx="38.43" cy="47.43" r=".32"/></svg>