<svg version="1.1" id="Layer_1" xmlns="http://www.w3.org/2000/svg" xmlns:xlink="http://www.w3.org/1999/xlink" x="0px" y="0px"
	 viewBox="0 0 800 400" style="enable-background:new 0 0 800 400;" xml:space="preserve">
<style type="text/css">
	.st0{fill:#202020;}
	.st1{fill-rule:evenodd;clip-rule:evenodd;fill:#202020;}
	.st2{fill:#FFFFFF;}
</style>
<g>
	<circle class="st0" cx="526.5" cy="223.4" r="17.5"/>
	<path class="st0" d="M272.3,124.5h23.1v149h-23.1V124.5z M379.5,227.6c0,23.1-18.9,24.9-24.7,24.9c-14.4,0-16.5-13.5-16.5-21.7
		v-57.6h-23.2v57.5c-0.1,14.3,3.9,26.1,11.8,34c14.7,13.1,36.6,14.3,52.7,2.8v6h23.2V173.2h-23.2V227.6L379.5,227.6z M452.9,139.5
		h-23.2v33.7h-16.2v21.9h16.2v78.4h23.2v-78.4h19v-21.9h-19C452.9,173.2,452.9,139.5,452.9,139.5z M547.2,245
		c-5.3,4.7-12.2,7.4-19.8,7.4c-15.7,0.4-28.7-11.9-29.2-27.5c0-0.6,0-1.2,0-1.7c0-16.9,11.9-28.8,29.2-28.8c7.5,0,14.6,2.5,20,7.2
		l3.7,3.2l16.3-16.3l-4.1-3.7c-9.9-8.8-22.6-13.6-35.8-13.5c-30.2,0-52.1,21.8-52.1,51.7c-0.7,28.3,21.7,51.7,50,52.4
		c0.7,0,1.4,0,2.1,0c13.8,0,26.7-4.9,36.1-13.7l3.9-3.7l-16.5-16.3L547.2,245z M654.5,182c-14.7-13.1-36.6-14.3-52.7-2.8v-54.8
		h-23.2v149h23.2v-54.2c0-23.1,18.9-24.9,24.7-24.9c14.4,0,16.5,13.5,16.5,21.7v57.6h23.2V216C667,203.6,662.8,191.3,654.5,182z
		 M238,237.8c-9.1,9.4-21.7,14.6-34.8,14.6c-26.9,0-46.5-21.1-46.5-50.2c0-29.2,19.6-50.3,46.5-50.3c13,0,25.3,5.1,34.7,14.4
		l3.7,3.7l16.2-16.2l-3.5-3.7c-13.5-13.7-31.9-21.4-51.1-21.3c-39.5,0-69.5,31.5-69.5,73.4c0,41.6,29.9,73.1,69.5,73.1
		c19.6,0,37.7-7.6,51.1-21.4l3.5-3.7l-16-16.4C241.7,234,238,237.8,238,237.8z"/>
</g>
</svg>