<svg version="1.1" id="Layer_1" xmlns="http://www.w3.org/2000/svg" xmlns:xlink="http://www.w3.org/1999/xlink" x="0px" y="0px"
	 viewBox="0 0 800 400" style="enable-background:new 0 0 800 400;" xml:space="preserve">
<style type="text/css">
	.st0{fill:#202020;}
</style>
<g>
	<g>
		<g>
			<path class="st0" d="M199.6,109.3c3.2,0.8,6.3,1.5,9.5,2.2c19.3,4.3,35.1,14.7,46.5,31.1c-15.4-15.1-33.8-23.6-55.4-24
				c-21.9-0.4-40.8,7.4-56.4,22.8C121,164,111,204,134.9,241.3c-1-1-2.1-1.8-3-2.9c-37-43.9-16.3-112.5,42-126.7
				c3.5-0.9,7.1-1.6,10.6-2.4C189.6,109.3,194.6,109.3,199.6,109.3z"/>
		</g>
		<g>
			<path class="st0" d="M95.3,187.8c0.8-3.5,1.6-7,2.5-10.5c4.1-17.4,13.1-31.8,26.9-43.3c0.5-0.4,1.1-0.8,2.1-0.6
				c-1.2,1.4-2.4,2.8-3.6,4.2c-29.8,35-23.5,88.8,13.6,115.3c23.9,17.1,55.1,18.1,80,2.5c2.3-1.4,4.5-3,7.2-4.1
				c-1.4,1.4-2.7,2.8-4.2,4.1c-39,34.4-99,19.6-118.3-29.4c-2.3-5.8-3.3-12.2-4.9-18.3c-0.3-1.3-0.8-2.5-1.2-3.7
				C95.3,198.6,95.3,193.2,95.3,187.8z"/>
		</g>
		<g>
			<path class="st0" d="M246.2,168.2c6.9,7.9,11.1,17.1,13.3,27.1c10,44.5-19.2,85.4-62.4,93.8c-35.4,6.9-69.9-8.6-87.2-38.5
				c-0.5-0.8-0.9-1.7-0.9-3c1.1,1.3,2.3,2.6,3.4,3.9c35.4,42.5,103.8,38.2,132.1-10.1c12.8-21.8,13.7-44.8,3.9-68.1
				C247.7,171.5,247,169.9,246.2,168.2z"/>
		</g>
		<g>
			<path class="st0" d="M247.1,266.6c30.3-33.2,26.2-78,2.1-105.3c-23.9-27-68.4-37.5-106.3-10c13.2-16.8,43.3-28.7,70.7-22.8
				c32.9,7.1,54.2,27.3,61.9,59.9C283.1,220.7,269.2,250.8,247.1,266.6z"/>
		</g>
	</g>
	<g>
		<path class="st0" d="M175.5,222.8c-4.4,4-9.9,6-16.7,6c-8.4,0-15-2.7-19.8-8.1c-4.8-5.4-7.2-12.8-7.2-22.3
			c0-10.2,2.7-18.1,8.2-23.6c4.8-4.8,10.8-7.2,18.2-7.2c9.8,0,17,3.2,21.6,9.7c2.5,3.6,3.9,7.3,4,10.9h-12.2
			c-0.8-2.8-1.8-4.9-3.1-6.3c-2.2-2.5-5.5-3.8-9.9-3.8c-4.4,0-7.9,1.8-10.5,5.4c-2.6,3.6-3.8,8.6-3.8,15.2s1.4,11.5,4.1,14.7
			c2.7,3.3,6.2,4.9,10.3,4.9c4.3,0,7.5-1.4,9.8-4.2c1.2-1.5,2.3-3.8,3.1-6.8h12.1C182.5,213.6,179.8,218.8,175.5,222.8z"/>
		<path class="st0" d="M225.5,204.6v-35.9h12.4v35.9c0,6.2-1,11-2.9,14.5c-3.6,6.3-10.5,9.5-20.6,9.5c-10.1,0-17-3.2-20.6-9.5
			c-1.9-3.5-2.9-8.3-2.9-14.5v-35.9h12.4v35.9c0,4,0.5,7,1.4,8.8c1.5,3.3,4.7,4.9,9.7,4.9c4.9,0,8.2-1.6,9.6-4.9
			C225,211.6,225.5,208.6,225.5,204.6z"/>
	</g>
	<g>
		<g>
			<path class="st0" d="M300.2,164.2h9.8v38.4h23.2v8.4h-33V164.2z"/>
			<path class="st0" d="M370.9,190.5h-22.7v12h25.9v8.4h-35.5v-46.8H373v8.3h-24.8v9.9h22.7V190.5z"/>
			<path class="st0" d="M409,201.3h-17.2l-3.2,9.6h-10.2l16.7-46.8h11l16.6,46.8H412L409,201.3z M406.2,193.3l-5.8-18.4l-6,18.4
				H406.2z"/>
			<path class="st0" d="M447.7,211h-20.2v-46.8h20.2c2.9,0,5.3,0.4,7.2,1c3.3,1.1,5.9,3.1,8,5.9c1.6,2.3,2.7,4.8,3.3,7.6
				c0.6,2.7,0.9,5.3,0.9,7.7c0,6.2-1.2,11.5-3.7,15.8C460,208,454.7,211,447.7,211z M454.9,176.1c-1.5-2.5-4.5-3.8-8.9-3.8h-9v30.5
				h9c4.6,0,7.8-2.3,9.7-6.8c1-2.5,1.5-5.5,1.5-8.9C457.2,182.3,456.4,178.7,454.9,176.1z"/>
			<path class="st0" d="M506.2,190.5h-22.7v12h25.9v8.4h-35.5v-46.8h34.3v8.3h-24.8v9.9h22.7V190.5z"/>
			<path class="st0" d="M535.7,192.6h-10.1V211H516v-46.8h23c3.3,0.1,5.8,0.5,7.6,1.2c1.8,0.7,3.3,1.8,4.5,3.3
				c1,1.2,1.8,2.5,2.4,3.9c0.6,1.4,0.9,3.1,0.9,4.9c0,2.2-0.6,4.4-1.7,6.6c-1.1,2.1-3,3.7-5.6,4.6c2.2,0.9,3.7,2.1,4.6,3.7
				c0.9,1.6,1.3,4,1.3,7.3v3.1c0,2.1,0.1,3.6,0.3,4.3c0.3,1.2,0.8,2.1,1.8,2.7v1.2h-10.8c-0.3-1-0.5-1.9-0.6-2.5
				c-0.3-1.3-0.4-2.7-0.4-4l-0.1-4.3c0-3-0.6-5-1.6-6C540.5,193.1,538.6,192.6,535.7,192.6z M541.6,184.1c1.9-0.9,2.9-2.6,2.9-5.3
				c0-2.8-0.9-4.7-2.8-5.7c-1.1-0.5-2.6-0.8-4.8-0.8h-11.4v12.6h11.1C538.9,184.9,540.5,184.6,541.6,184.1z"/>
			<path class="st0" d="M578.9,204.2c2.3,0,4.2-0.3,5.6-0.8c2.7-1,4.1-2.8,4.1-5.4c0-1.5-0.7-2.7-2-3.6c-1.4-0.8-3.5-1.6-6.4-2.2
				l-5-1.1c-4.9-1.1-8.2-2.3-10.1-3.6c-3.2-2.2-4.7-5.5-4.7-10.1c0-4.2,1.5-7.7,4.6-10.4c3-2.8,7.5-4.2,13.4-4.2
				c4.9,0,9.1,1.3,12.6,3.9c3.5,2.6,5.3,6.4,5.5,11.4h-9.4c-0.2-2.8-1.4-4.8-3.7-6c-1.5-0.8-3.4-1.2-5.7-1.2c-2.5,0-4.5,0.5-6,1.5
				c-1.5,1-2.3,2.4-2.3,4.3c0,1.7,0.7,2.9,2.2,3.7c1,0.6,3,1.2,6.1,1.9l8.1,1.9c3.5,0.8,6.2,2,8,3.4c2.8,2.2,4.2,5.4,4.2,9.6
				c0,4.3-1.6,7.8-4.9,10.7s-7.9,4.2-13.9,4.2c-6.1,0-10.9-1.4-14.4-4.2c-3.5-2.8-5.2-6.6-5.2-11.5h9.3c0.3,2.1,0.9,3.7,1.7,4.8
				C572.3,203.2,575,204.2,578.9,204.2z"/>
			<path class="st0" d="M632.5,211v-20.9h-18.3V211h-9.7v-46.8h9.7V182h18.3v-17.8h9.7V211H632.5z"/>
			<path class="st0" d="M650.5,164.2h9.7V211h-9.7V164.2z"/>
			<path class="st0" d="M688.5,194.1h-9.9V211h-9.7v-46.8h20.4c4.7,0,8.4,1.2,11.2,3.6s4.2,6.1,4.2,11.2c0,5.5-1.4,9.4-4.2,11.7
				S693.7,194.1,688.5,194.1z M693.1,184.4c1.3-1.1,1.9-2.9,1.9-5.3c0-2.4-0.6-4.2-1.9-5.2c-1.3-1-3.1-1.6-5.4-1.6h-9.1v13.8h9.1
				C690,186.1,691.8,185.5,693.1,184.4z"/>
		</g>
		<g>
			<path class="st0" d="M314.1,248.7c-1.4,1.3-3.1,1.9-5.3,1.9c-2.6,0-4.7-0.8-6.2-2.5c-1.5-1.7-2.3-4-2.3-7c0-3.2,0.9-5.7,2.6-7.4
				c1.5-1.5,3.4-2.3,5.7-2.3c3.1,0,5.4,1,6.8,3c0.8,1.1,1.2,2.3,1.3,3.4h-3.8c-0.2-0.9-0.6-1.5-1-2c-0.7-0.8-1.7-1.2-3.1-1.2
				c-1.4,0-2.5,0.6-3.3,1.7c-0.8,1.1-1.2,2.7-1.2,4.8c0,2.1,0.4,3.6,1.3,4.6c0.9,1,1.9,1.5,3.2,1.5c1.3,0,2.4-0.4,3.1-1.3
				c0.4-0.5,0.7-1.2,1-2.1h3.8C316.4,245.9,315.5,247.5,314.1,248.7z"/>
			<path class="st0" d="M351.8,250.6c-2.6,0-4.6-0.7-6-2.1c-1.9-1.8-2.8-4.3-2.8-7.6c0-3.4,0.9-5.9,2.8-7.6c1.4-1.4,3.4-2.1,6-2.1
				c2.6,0,4.6,0.7,6,2.1c1.9,1.7,2.8,4.2,2.8,7.6c0,3.3-0.9,5.8-2.8,7.6C356.4,249.9,354.4,250.6,351.8,250.6z M355.4,245.7
				c0.9-1.1,1.3-2.7,1.3-4.8c0-2.1-0.4-3.7-1.3-4.8c-0.9-1.1-2.1-1.7-3.6-1.7s-2.7,0.6-3.6,1.7c-0.9,1.1-1.4,2.7-1.4,4.8
				s0.5,3.7,1.4,4.8c0.9,1.1,2.1,1.7,3.6,1.7S354.5,246.8,355.4,245.7z"/>
			<path class="st0" d="M402.4,250.1h-3.8l-7.5-13.1v13.1h-3.6v-18.4h4l7.3,12.8v-12.8h3.6V250.1z"/>
			<path class="st0" d="M428.6,231.7h4.1l4,14l4-14h4l-6.3,18.4h-3.6L428.6,231.7z"/>
			<path class="st0" d="M483.8,242.1h-8.9v4.7h10.2v3.3h-13.9v-18.4h13.5v3.3h-9.7v3.9h8.9V242.1z"/>
			<path class="st0" d="M526.9,250.1h-3.8l-7.5-13.1v13.1H512v-18.4h4l7.3,12.8v-12.8h3.6V250.1z"/>
			<path class="st0" d="M567.9,231.7v3.3h-5.5v15.1h-3.9V235H553v-3.3H567.9z"/>
			<path class="st0" d="M593.8,231.7h3.8v18.4h-3.8V231.7z"/>
			<path class="st0" d="M633.4,250.6c-2.6,0-4.6-0.7-6-2.1c-1.9-1.8-2.8-4.3-2.8-7.6c0-3.4,0.9-5.9,2.8-7.6c1.4-1.4,3.4-2.1,6-2.1
				c2.6,0,4.6,0.7,6,2.1c1.9,1.7,2.8,4.2,2.8,7.6c0,3.3-0.9,5.8-2.8,7.6C638,249.9,636,250.6,633.4,250.6z M637,245.7
				c0.9-1.1,1.3-2.7,1.3-4.8c0-2.1-0.4-3.7-1.3-4.8c-0.9-1.1-2.1-1.7-3.6-1.7c-1.5,0-2.7,0.6-3.6,1.7c-0.9,1.1-1.4,2.7-1.4,4.8
				s0.5,3.7,1.4,4.8c0.9,1.1,2.1,1.7,3.6,1.7C634.9,247.4,636.1,246.8,637,245.7z"/>
			<path class="st0" d="M684,250.1h-3.8l-7.5-13.1v13.1h-3.6v-18.4h4l7.3,12.8v-12.8h3.6V250.1z"/>
		</g>
		<g>
			<rect x="299.9" y="221.8" class="st0" width="382.9" height="0.6"/>
		</g>
	</g>
</g>
</svg>