<svg version="1.1" id="Layer_1" xmlns="http://www.w3.org/2000/svg" xmlns:xlink="http://www.w3.org/1999/xlink" x="0px" y="0px"
	 viewBox="0 0 800 400" style="enable-background:new 0 0 800 400;" xml:space="preserve">
<style type="text/css">
	.st0{fill:#202020;}
	.st1{fill-rule:evenodd;clip-rule:evenodd;fill:#202020;}
	.st2{fill:#FFFFFF;}
</style>
<g>
	<path class="st0" d="M82.8,189.8v26h-7.4v-26H60.9v-5.7h36.5v5.7H82.8z"/>
	<path class="st0" d="M100.5,215.8v-31.7h7.4v12.3h23v-12.3h7.4v31.7h-7.4v-13.6h-23v13.6H100.5z"/>
	<path class="st0" d="M144.9,215.8v-31.7h32.4v5.4h-25v7.1h14.6v5.4h-14.6v7.8h25.3v6H144.9z"/>
	<path class="st0" d="M201.4,215.8v-31.7h32v5.5h-24.6v8.3h13.3v5.8h-13.3v12H201.4z"/>
	<path class="st0" d="M236.7,215.8v-31.7h7.4v31.7H236.7z"/>
	<path class="st0" d="M250.5,215.8v-31.7h5l22.3,18.7c0.8,0.6,1.4,1.2,2,1.8c0.6,0.5,1.1,1.1,1.6,1.7c-0.1-1.8-0.2-3-0.2-3.8
		c0-0.7-0.1-1.3-0.1-1.7v-16.6h6.6v31.7h-5l-23.2-19.6c-0.6-0.5-1-0.9-1.5-1.3c-0.4-0.4-0.8-0.8-1.2-1.2c0.1,1,0.2,1.9,0.2,2.8
		c0,0.9,0.1,1.6,0.1,2.3v17.1H250.5z"/>
	<path class="st0" d="M291.4,215.8l17.9-31.7h7.1l18.1,31.7h-8.3l-3.8-6.9h-20.1l-3.7,6.9H291.4z M305.5,203.2h13.9l-6.8-12.9
		L305.5,203.2z"/>
	<path class="st0" d="M338.2,215.8v-31.7h5l22.3,18.7c0.8,0.6,1.4,1.2,2,1.8c0.6,0.5,1.1,1.1,1.6,1.7c-0.1-1.8-0.2-3-0.2-3.8
		c0-0.7-0.1-1.3-0.1-1.7v-16.6h6.6v31.7h-5l-23.2-19.6c-0.6-0.5-1-0.9-1.5-1.3c-0.4-0.4-0.8-0.8-1.2-1.2c0.1,1,0.2,1.9,0.2,2.8
		c0,0.9,0.1,1.6,0.1,2.3v17.1H338.2z"/>
	<path class="st0" d="M408.8,189.8h-19.9v20h19.9v-6.8l7.4,1.5v3.7c0,2.9-0.5,4.9-1.6,5.9c-1.1,1-3.2,1.6-6.2,1.6h-18.9
		c-3.1,0-5.2-0.5-6.2-1.6c-1.1-1-1.6-3-1.6-5.9v-16.7c0-2.9,0.5-4.8,1.6-5.9c1.1-1.1,3.2-1.6,6.2-1.6h18.9c3.1,0,5.1,0.5,6.2,1.6
		c1.1,1.1,1.6,3,1.6,5.9v3l-7.4,1.2V189.8z"/>
	<path class="st0" d="M422.1,215.8v-31.7h7.4v31.7H422.1z"/>
	<path class="st0" d="M433.2,215.8l17.9-31.7h7.1l18.1,31.7H468l-3.8-6.9h-20.1l-3.7,6.9H433.2z M447.3,203.2h13.9l-6.8-12.9
		L447.3,203.2z"/>
	<path class="st0" d="M480,215.8v-31.7h7.4v25.7h23.7v6H480z"/>
	<path class="st0" d="M530.9,215.8v-31.7h27.1c2.5,0,4.3,0.5,5.4,1.5c1.1,1,1.7,2.5,1.7,4.7v3.9c0,1.5-0.5,2.7-1.4,3.6
		c-0.9,0.9-2.3,1.5-4,1.7c1.8,0.2,3.2,0.9,4.2,1.9c1,1.1,1.5,2.4,1.5,4.1v4c0,2.1-0.8,3.7-2.3,4.7c-1.5,1-3.9,1.5-7,1.5H530.9z
		 M555,189.3h-16.8v7.5H555c1.3,0,2.2-0.2,2.7-0.5c0.5-0.3,0.7-0.9,0.7-1.8v-3c0-0.8-0.2-1.4-0.7-1.8
		C557.1,189.5,556.3,189.3,555,189.3z M555,202.1h-16.8v8.1H555c1.4,0,2.3-0.2,2.8-0.6c0.5-0.4,0.7-1.2,0.7-2.2v-2.4
		c0-1.1-0.2-1.8-0.7-2.2C557.3,202.3,556.4,202.1,555,202.1z"/>
	<path class="st0" d="M571,215.8v-31.7H598c2.5,0,4.3,0.5,5.5,1.5c1.1,1,1.7,2.5,1.7,4.7v7.4c0,2.1-0.6,3.7-1.7,4.7
		c-1.1,1-2.9,1.5-5.5,1.5h-4.1l14.6,11.9h-10.6l-12.8-11.9h-7v11.9H571z M594.8,189.7h-16.6v8.8h16.6c1.3,0,2.2-0.2,2.6-0.6
		c0.5-0.4,0.7-1,0.7-2v-3.8c0-0.9-0.2-1.6-0.7-1.9C596.9,189.8,596,189.7,594.8,189.7z"/>
	<path class="st0" d="M610.1,215.8l17.9-31.7h7.1l18.1,31.7H645l-3.8-6.9h-20.1l-3.7,6.9H610.1z M624.3,203.2h13.9l-6.8-12.9
		L624.3,203.2z"/>
	<path class="st0" d="M656.9,215.8v-31.7h5l22.3,18.7c0.8,0.6,1.4,1.2,2,1.8c0.6,0.5,1.1,1.1,1.6,1.7c-0.1-1.8-0.2-3-0.2-3.8
		c0-0.7-0.1-1.3-0.1-1.7v-16.6h6.6v31.7h-5l-23.2-19.6c-0.6-0.5-1-0.9-1.5-1.3c-0.4-0.4-0.8-0.8-1.2-1.2c0.1,1,0.2,1.9,0.2,2.8
		c0,0.9,0.1,1.6,0.1,2.3v17.1H656.9z"/>
	<path class="st0" d="M700.7,215.8v-31.7H721c5.8,0,10.3,1.4,13.4,4.1c3.1,2.7,4.7,6.6,4.7,11.6c0,3-0.6,5.6-1.8,8
		c-1.2,2.4-2.9,4.2-5.2,5.6c-1.4,0.9-3.1,1.5-5.1,1.9c-2,0.4-4.7,0.6-7.9,0.6H700.7z M708,209.9h9.5c5.1,0,8.7-0.8,10.8-2.4
		c2.1-1.6,3.2-4.2,3.2-7.8c0-3.2-0.9-5.7-2.6-7.4c-1.8-1.7-4.4-2.5-7.8-2.5H708V209.9z"/>
</g>
</svg>