<?xml version="1.0" encoding="UTF-8"?><svg id="a" xmlns="http://www.w3.org/2000/svg" viewBox="0 0 654.96 238.2"><path d="M557.01,33.6C495.62,11.93,414.1,0,327.48,0S159.34,11.93,97.95,33.6C34.79,55.89,0,86.26,0,119.1s34.79,63.21,97.95,85.5c61.39,21.67,142.91,33.6,229.53,33.6s168.14-11.93,229.53-33.6c63.17-22.29,97.95-52.66,97.95-85.5s-34.79-63.21-97.95-85.5ZM10.88,119.1c0-2.22.24-4.44.67-6.65,5-10.78,21.72-18.95,40.95-18.95,23.02,0,42.47,11.73,42.48,25.61h0c0,13.89-19.46,25.61-42.48,25.61-19.22,0-35.95-8.18-40.95-18.96-.43-2.22-.67-4.43-.67-6.65ZM109.44,95.47c.18-.38.37-.77.56-1.15.23-.47.44-.94.68-1.4.19-.38.41-.76.61-1.14.25-.46.49-.93.75-1.39.1-.18.21-.36.32-.54.38-.66.76-1.32,1.17-1.98.25-.41.53-.82.8-1.23.27-.42.53-.84.82-1.26.2-.29.41-.58.61-.88.37-.54.74-1.07,1.12-1.6.06-.08.12-.16.18-.24,1.15-1.56,2.36-3.11,3.66-4.65.22-.26.45-.51.67-.76.47-.55.94-1.1,1.43-1.65.28-.31.58-.63.87-.94.45-.48.89-.97,1.35-1.45.25-.26.51-.51.76-.76.52-.53,1.04-1.07,1.58-1.6.42-.41.85-.81,1.28-1.21.39-.37.78-.75,1.18-1.12.56-.52,1.15-1.04,1.73-1.55.28-.25.56-.51.84-.76.75-.66,1.53-1.31,2.31-1.96.13-.11.25-.22.39-.33.8-.66,1.63-1.32,2.46-1.97.12-.09.23-.19.35-.28.86-.67,1.75-1.34,2.64-2.01.1-.07.19-.14.28-.22,7.96-5.89,17.15-11.46,27.51-16.62,16.68-8.32,35.54-15.16,55.94-20.41-7.95,3.72-15.5,7.88-22.56,12.48-17.99,11.73-31.73,25.55-40.73,40.66-18.95,4.98-39.33,12.1-52.36,21.76.05-.11.1-.22.14-.33.21-.5.42-1,.65-1.5ZM506.22,114.52c-.54-9.57-2.78-18.92-6.62-27.91,27.94,8.17,45.87,18.14,50.21,27.91h-43.59ZM445.93,114.52c-.55-14.36-3.68-28.07-8.94-40.68,18.33,2.53,35.35,5.71,50.56,9.51.11.03.22.06.34.09,5.29,9.81,8.46,20.24,9.16,31.09h-51.13ZM332.05,114.52v-47.67c13.06.06,25.94.4,38.52,1,3.47,14.1,5.58,29.97,5.91,46.67h-44.44ZM376.49,123.67c-.33,16.7-2.44,32.57-5.91,46.67-12.59.6-25.46.94-38.52,1v-47.67h44.44ZM218.19,114.52c.62-14.99,4.29-29.21,10.41-42.05,14.7-1.78,30.14-3.15,46.11-4.1-3.2,14.01-5.09,29.59-5.39,46.15h-51.13ZM321.35,10.9c.52,0,1.04,0,1.55,0v46.81c-12.17.06-24.19.35-35.97.88,7.81-25.44,20.28-43.56,34.42-47.68ZM277.09,59.07c-14.88.83-29.33,2.03-43.18,3.57,14.8-24.31,38.86-42.42,67.27-49.44-10.11,10.18-18.46,26.13-24.08,45.86ZM284.38,67.86c12.59-.6,25.46-.94,38.53-1v47.67h-44.44c.33-16.7,2.44-32.57,5.91-46.67ZM332.05,57.71V10.89c.52,0,1.04,0,1.55,0,14.13,4.12,26.61,22.24,34.42,47.68-11.78-.52-23.8-.82-35.97-.88ZM353.79,13.21c28.4,7.02,52.46,25.13,67.27,49.44-13.85-1.55-28.3-2.74-43.18-3.57-5.62-19.74-13.97-35.69-24.08-45.86ZM387.17,16.98c41.22,9.98,74.84,29.99,93.65,55.38-14.83-3.33-31.12-6.13-48.49-8.36-10.37-19.55-26.07-35.87-45.17-47.02ZM222.62,64c-17.36,2.23-33.65,5.03-48.49,8.36,18.81-25.39,52.44-45.39,93.65-55.38-19.09,11.15-34.8,27.47-45.17,47.02ZM167.41,83.35c15.21-3.79,32.23-6.98,50.56-9.51-5.26,12.61-8.38,26.32-8.94,40.68h-51.12c.7-10.84,3.87-21.28,9.16-31.09.11-.03.22-.06.34-.09ZM148.74,114.52h-43.59c4.34-9.77,22.27-19.75,50.21-27.91-3.84,8.99-6.08,18.35-6.62,27.91ZM148.74,123.67c.54,9.57,2.78,18.92,6.62,27.91-27.94-8.17-45.87-18.14-50.21-27.91h43.59ZM157.91,123.67h51.12c.55,14.36,3.68,28.07,8.94,40.68-18.33-2.53-35.35-5.71-50.56-9.51-.11-.03-.22-.06-.34-.09-5.29-9.81-8.46-20.24-9.16-31.09ZM222.62,174.2c10.37,19.55,26.07,35.87,45.17,47.02-41.22-9.98-74.84-29.99-93.65-55.38,14.83,3.33,31.12,6.13,48.48,8.36ZM233.9,175.55c13.85,1.55,28.3,2.74,43.18,3.57,5.62,19.74,13.97,35.69,24.08,45.86-28.4-7.02-52.46-25.13-67.27-49.44ZM228.6,165.73c-6.12-12.85-9.78-27.06-10.41-42.05h51.13c.3,16.55,2.19,32.14,5.39,46.15-15.97-.94-31.42-2.32-46.11-4.1ZM278.47,123.67h44.44v47.67c-13.06-.06-25.94-.4-38.53-1-3.47-14.1-5.58-29.97-5.91-46.67ZM332.05,180.49c12.17-.06,24.19-.35,35.97-.88-7.81,25.44-20.28,43.56-34.42,47.68-.52,0-1.04,0-1.55,0v-46.81ZM377.87,179.12c14.88-.83,29.33-2.03,43.18-3.57-14.8,24.31-38.86,42.42-67.27,49.44,10.11-10.18,18.46-26.13,24.08-45.87ZM380.25,169.82c3.2-14.01,5.09-29.6,5.39-46.15h51.13c-.62,14.99-4.29,29.21-10.41,42.05-14.7,1.78-30.14,3.15-46.11,4.1ZM385.64,114.52c-.3-16.55-2.19-32.14-5.39-46.15,15.97.94,31.42,2.32,46.11,4.1,6.12,12.85,9.78,27.06,10.41,42.05h-51.13ZM546.31,97.31c-13.03-9.66-33.41-16.78-52.36-21.76-9-15.11-22.74-28.92-40.73-40.66-7.06-4.6-14.61-8.77-22.56-12.48,20.4,5.25,39.26,12.09,55.94,20.41,30.69,15.3,51.15,34.15,59.7,54.49ZM108.64,140.89c13.03,9.66,33.41,16.78,52.36,21.76,9,15.1,22.74,28.92,40.73,40.66,7.06,4.6,14.61,8.77,22.56,12.48-20.4-5.25-39.26-12.09-55.94-20.41-30.69-15.31-51.16-34.15-59.7-54.49ZM321.35,227.3c-14.14-4.12-26.61-22.24-34.42-47.68,11.78.52,23.8.82,35.97.88v46.81c-.52,0-1.04,0-1.55,0ZM432.34,174.2c17.36-2.23,33.65-5.03,48.49-8.36-18.81,25.39-52.44,45.39-93.65,55.38,19.09-11.15,34.8-27.47,45.17-47.02ZM487.55,154.85c-15.21,3.79-32.23,6.98-50.56,9.51,5.26-12.61,8.38-26.32,8.94-40.68h51.13c-.7,10.84-3.87,21.28-9.16,31.09-.11.03-.22.06-.34.09ZM506.22,123.67h43.59c-4.34,9.77-22.27,19.75-50.21,27.91,3.84-8.99,6.08-18.35,6.62-27.91ZM453.23,203.3c17.99-11.73,31.73-25.55,40.73-40.66,18.95-4.98,39.33-12.1,52.36-21.76-8.54,20.34-29.01,39.19-59.7,54.49-16.68,8.32-35.54,15.16-55.94,20.41,7.95-3.72,15.5-7.88,22.56-12.48ZM602.47,144.71c-23.03,0-42.48-11.73-42.48-25.61s19.45-25.61,42.48-25.61c19.22,0,35.95,8.18,40.95,18.95.43,2.22.67,4.43.67,6.65s-.24,4.44-.67,6.65c-5,10.78-21.72,18.96-40.95,18.96Z" fill="#202020"/><path d="M29.13,129.13s.07,0,.11,0c.02,0,.03,0,.05,0,5.49,0,9.96-4.5,9.96-10.04v-7.92c0-1.17-.94-2.12-2.1-2.12h-7.86c-1.16,0-2.1.95-2.1,2.12v5.73h-6.07c-.81,0-1.58.48-1.93,1.28-.12.28-.17.59-.17.9.07,5.55,4.6,10.06,10.11,10.06Z" fill="#202020"/><path d="M62.74,128.96h15.61c1.16,0,2.1-.94,2.1-2.11v-15.63c0-.85-.51-1.62-1.3-1.95-.79-.33-1.69-.15-2.29.46l-6.32,6.33-6.32-6.33c-.6-.6-1.51-.78-2.29-.46-.79.33-1.3,1.09-1.3,1.95v15.63c0,1.16.94,2.11,2.1,2.11Z" fill="#202020"/><path d="M40.46,127.82c.38.65,1.07,1.06,1.82,1.06h15.36c.93,0,1.77-.62,2.03-1.56.15-.55.06-1.14-.23-1.64l-3.86-6.71,3.88-6.74c.38-.65.38-1.46,0-2.11-.38-.65-1.07-1.06-1.82-1.06h-15.36c-.75,0-1.45.4-1.82,1.06-.38.65-.38,1.46,0,2.11l3.88,6.74-3.88,6.74c-.38.65-.38,1.46,0,2.11Z" fill="#202020"/><path d="M591.58,109.06h-7.86c-1.16,0-2.1.95-2.1,2.12v5.73h-6.07c-.81,0-1.58.48-1.93,1.28-.12.28-.17.59-.17.9.07,5.55,4.6,10.06,10.11,10.06.04,0,.07,0,.1,0,.02,0,.03,0,.05,0,5.49,0,9.96-4.5,9.96-10.04v-7.92c0-1.17-.94-2.12-2.1-2.12Z" fill="#202020"/><path d="M633.58,109.27c-.79-.33-1.69-.15-2.29.46l-6.32,6.33-6.32-6.33c-.6-.6-1.51-.78-2.29-.46-.79.33-1.3,1.09-1.3,1.95v15.63c0,1.16.94,2.11,2.1,2.11h15.61c1.16,0,2.1-.94,2.1-2.11v-15.63c0-.85-.51-1.62-1.3-1.95Z" fill="#202020"/><path d="M613.9,110.11c-.38-.65-1.07-1.06-1.82-1.06h-15.36c-.75,0-1.45.4-1.82,1.06-.38.65-.38,1.46,0,2.11l3.88,6.74-3.88,6.74c-.38.65-.38,1.46,0,2.11.38.65,1.07,1.06,1.82,1.06h15.36c.93,0,1.77-.62,2.03-1.56.15-.55.06-1.14-.23-1.64l-3.86-6.71,3.88-6.74c.38-.65.38-1.46,0-2.11Z" fill="#202020"/></svg>