<svg version="1.1" xmlns="http://www.w3.org/2000/svg" xmlns:xlink="http://www.w3.org/1999/xlink" x="0px" y="0px"
	 viewBox="0 0 576 153.983" enable-background="new 0 0 576 153.983" xml:space="preserve">
<g id="Layer_1">
</g>
<g id="Logos">
	<g>
		<g>
			<path d="M69.842,21.404L23.047,35.952v17.291c0,59.607,46.795,79.337,46.794,79.337c-0.001,0,46.794-19.737,46.794-79.337V35.952
				L69.842,21.404z M53.85,61.501c-1.775,0.737-2.846,2.111-2.846,4.25c0,1.545,0,28.648,0,44.248
				c-0.493-0.558-0.973-1.123-1.444-1.692V64.562c0-0.152,0.04-0.398,0.061-0.475c0.325-1.23,1.845-2.364,4.23-3.283V61.501z
				 M55.908,52.557c-8.528,2.701-10.107,5.528-9.811,7.41c0.074,0.47,0.289,0.879,0.521,1.203c-0.318,0.47-0.568,0.964-0.744,1.484
				c-0.87-0.812-1.345-1.744-1.345-2.808c0-3.198,4.588-6.191,11.293-7.731C56.179,52.032,56.232,52.454,55.908,52.557z
				 M66.393,41.098l-25.95,7.954v4.188l-1.444,0.433v-5.563l28.712-8.781C67.711,40.144,67.175,40.864,66.393,41.098z
				 M77.45,120.222c-1.748,1.222-3.574,2.372-5.477,3.445c0-16.215,0-55.826,0-58.214c0-3.894-1.996-5.771-4.261-6.263v-0.705
				c0.7-0.022,1.411-0.034,2.131-0.034c2.691,0,5.258,0.158,7.608,0.445V120.222z M85.481,113.632
				c-1.468,1.405-3.007,2.755-4.619,4.041V59.432c1.742,0.34,3.3,0.759,4.619,1.239V113.632z M90.124,108.736
				c-0.626,0.727-1.268,1.443-1.926,2.147V61.961c1.235,0.789,1.926,1.671,1.926,2.601V108.736z M69.842,54.453
				c-0.63,0-1.253,0.007-1.871,0.022c0-2.212,1.79-4.001,4.001-4.001c12.022,0,23.182,4.448,23.182,9.371
				c0,1.078-0.488,2.021-1.381,2.84C92.44,59.075,86.859,54.453,69.842,54.453z M71.972,44.86v-5.563l28.712,8.812v5.563
				L71.972,44.86z M109.789,53.243c0,16.755-4.873,35.365-15.665,50.408l-0.002-37.205c3.227-1.673,4.942-4.429,5.134-7.991
				l5.275-1.58V45.142l-34.69-10.816l-34.69,10.816v11.733l5.275,1.58c0.192,3.563,1.906,6.318,5.133,7.991
				c0,0.012,0,23.83,0,36.562C32.498,83.974,29.894,61.544,29.894,53.243V40.991l39.948-12.436l39.948,12.436V53.243z"/>
		</g>
		<g>
			<g>
				<g>
					<path d="M433.454,45.19h31.351v11.119h-19.15v10.964H463.8v10.424h-18.145v22.315h-12.201V45.19z"/>
					<path d="M467.493,72.601c0-17.142,13.05-28.184,28.493-28.184c7.799,0,16.833,2.78,22.47,12.354l-8.803,6.1
						c-3.165-4.633-8.031-6.872-13.358-6.872c-8.957,0-16.216,6.332-16.216,16.602c0,10.424,7.413,16.601,16.293,16.601
						c5.56,0,10.116-2.239,13.281-6.872l8.803,6.1c-5.637,9.574-14.748,12.354-22.547,12.354
						C480.466,100.785,467.493,89.743,467.493,72.601z"/>
					<path d="M521.596,79.241V45.19h12.201v34.129c0,8.185,5.019,10.038,8.957,10.038c3.938,0,8.958-1.853,8.958-10.038V45.19h12.2
						v34.052c0,14.053-9.498,21.543-21.158,21.543C531.016,100.785,521.596,93.295,521.596,79.241z"/>
				</g>
				<path d="M167.585,78.161h-20.694v21.852h-12.201V45.19h12.201v21.697h20.694V45.19h12.2v54.823h-12.2V78.161z"/>
				<path d="M182.997,79.936c0-13.976,10.038-20.848,19.15-20.848c7.104,0,11.274,3.861,11.892,5.328h0.231V59.86h11.969v40.152
					H214.27v-4.556h-0.231c-0.618,1.467-4.787,5.328-11.892,5.328C193.036,100.785,182.997,93.913,182.997,79.936z M204.618,90.129
					c5.251,0,9.961-3.629,9.961-10.192c0-6.563-4.71-10.192-9.961-10.192c-5.097,0-9.806,3.706-9.806,10.192
					C194.812,86.423,199.522,90.129,204.618,90.129z"/>
				<path d="M230.2,59.86h11.969v10.565c1.312-6.486,5.173-10.94,12.431-10.94c0.927,0,1.853,0.077,2.858,0.386v11.35
					c-0.927-0.154-1.776-0.232-2.78-0.232c-7.953,0-12.509,5.328-12.509,12.895v16.128H230.2V59.86z"/>
				<path d="M348.574,59.86h11.969v10.565c1.312-6.486,5.173-10.94,12.431-10.94c0.927,0,1.853,0.077,2.858,0.386v11.35
					c-0.927-0.154-1.776-0.232-2.78-0.232c-7.953,0-12.509,5.328-12.509,12.895v16.128h-11.969V59.86z"/>
				<path d="M259.636,59.86h12.201l10.192,26.099l10.193-26.099h12.2l-16.833,40.152h-11.119L259.636,59.86z"/>
				<path d="M301.461,79.936c0-13.976,10.038-20.848,19.15-20.848c7.104,0,11.274,3.861,11.892,5.328h0.231V59.86h11.969v40.152
					h-11.969v-4.556h-0.231c-0.618,1.467-4.787,5.328-11.892,5.328C311.499,100.785,301.461,93.913,301.461,79.936z M323.082,90.129
					c5.251,0,9.961-3.629,9.961-10.192c0-6.563-4.71-10.192-9.961-10.192c-5.097,0-9.806,3.706-9.806,10.192
					C313.275,86.423,317.985,90.129,323.082,90.129z"/>
				<path d="M408.039,100.013v-4.556h-0.231c-0.618,1.467-4.787,5.328-11.892,5.328c-9.111,0-19.15-6.872-19.15-20.848
					s10.038-20.848,19.15-20.848c7.104,0,11.274,3.861,11.892,5.328h0.231V45.19h11.969v54.823H408.039z M398.387,90.129
					c5.251,0,9.961-3.629,9.961-10.192c0-6.563-4.71-10.192-9.961-10.192c-5.097,0-9.806,3.706-9.806,10.192
					C388.581,86.423,393.291,90.129,398.387,90.129z"/>
			</g>
		</g>
	</g>
</g>
</svg>