<svg width="220" height="66" viewBox="0 0 220 66" fill="none" xmlns="http://www.w3.org/2000/svg">
<g clip-path="url(#clip0_212_113)">
<path d="M81.5285 40.186C80.8787 39.4523 80.0121 38.9446 79.0544 38.7367C78.0967 38.5288 77.0976 38.6314 76.2021 39.0296C74.5201 39.8356 73.7632 41.7419 73.7632 43.543C73.7632 47.8252 78.7602 49.9417 81.5915 46.6968L83.4558 48.561C81.4864 50.8247 77.9262 51.1681 75.27 50.173C73.9502 49.6384 72.8279 48.7091 72.0564 47.5124C71.2848 46.3156 70.9019 44.9097 70.9598 43.487C70.9598 40.5434 72.4806 37.8032 75.2419 36.7239C78.0032 35.6446 81.5495 36.1352 83.5188 38.3779L81.5285 40.186Z" fill="white"/>
<path d="M85.7055 36.5067H88.3056V38.6092H88.3617C88.8564 37.6811 89.6508 36.948 90.6155 36.5293C91.5802 36.1106 92.6583 36.031 93.6741 36.3034L93.5619 39.1068C90.4502 38.2868 88.3056 39.9548 88.3056 43.3118V50.2641H85.6775L85.7055 36.5067Z" fill="white"/>
<path d="M97.9702 44.3911C97.9702 46.83 100.367 48.4559 102.638 48.4209C104.299 48.4209 105.441 47.5658 106.436 46.3184L108.42 47.8322C106.03 51.2242 100.01 51.7148 97.0731 48.5821C92.9452 43.9846 95.8326 36.1282 102.315 36.1282C107.158 36.1282 109.324 40.0178 109.057 44.363L97.9702 44.3911ZM106.261 42.2885C106.261 36.6818 98.2365 37.1304 97.9702 42.2885H106.261Z" fill="white"/>
<path d="M126.081 50.3481H123.452V48.3577H123.396C121.791 50.7406 118.14 51.2312 115.687 50.1379C114.407 49.5656 113.328 48.6226 112.59 47.4307C111.852 46.2388 111.488 44.8528 111.545 43.4519C111.481 42.0479 111.84 40.6569 112.576 39.4596C113.312 38.2623 114.391 37.314 115.673 36.7378C118.133 35.6586 121.855 36.1211 123.382 38.518H123.438V28.2717H126.067L126.081 50.3481ZM118.897 48.2456C122.513 48.3437 124.251 44.5802 123.102 41.4825C121.897 37.663 115.848 37.663 114.636 41.4825C113.536 44.5802 115.281 48.3577 118.897 48.2456Z" fill="white"/>
<path d="M144.471 38.7844H140.707V45.0919C140.707 46.1011 140.623 47.3556 141.541 47.9934C142.023 48.1981 142.544 48.2924 143.067 48.2694C143.589 48.2463 144.1 48.1065 144.562 47.8602V50.2571C143.052 50.8698 141.366 50.8849 139.845 50.2992C139.347 50.0581 138.925 49.6835 138.627 49.217C138.329 48.7506 138.166 48.2105 138.156 47.657C138.016 46.5427 138.1 40.0249 138.079 38.7704H135.044V36.5067H138.065V32.624H140.693V36.5067H144.457L144.471 38.7844Z" fill="white"/>
<path d="M161.088 50.3482H156.883V48.4209H156.819C155.264 51.3504 150.084 51.4906 148.409 48.7713C147.547 47.3697 147.484 45.6736 147.456 43.9776V36.1562H151.837V43.1016C151.837 44.6854 151.991 46.844 154.114 46.844C156.238 46.844 156.742 44.9868 156.742 43.2207V36.1562H161.123L161.088 50.3482Z" fill="white"/>
<path d="M188 43.2486C188 37.4177 193.936 34.4952 198.968 36.3314C205.345 38.546 205.345 47.9793 198.968 50.1729C193.957 52.0161 188 49.0165 188 43.2486ZM192.38 43.2486C192.38 45.3512 193.698 46.872 195.884 46.8439C200.573 47.0262 200.664 39.6604 195.884 39.6604C195.409 39.6315 194.934 39.7052 194.49 39.8765C194.046 40.0478 193.644 40.3127 193.311 40.6531C192.979 40.9936 192.724 41.4016 192.563 41.8494C192.402 42.2973 192.34 42.7745 192.38 43.2486V43.2486Z" fill="white"/>
<path d="M206.334 36.1563H210.539V38.0836H210.595C212.13 35.1541 217.33 35.0139 219.005 37.7332C219.867 39.1349 219.958 40.8239 219.986 42.5199V50.3483H215.606V43.396C215.606 41.8331 215.451 39.6605 213.328 39.6605C211.204 39.6605 210.637 41.5107 210.7 43.2768V50.3483H206.32L206.334 36.1563Z" fill="white"/>
<path d="M132.886 36.5066H130.258V50.3481H132.886V36.5066Z" fill="white"/>
<path d="M131.561 33.4511C132.618 33.4511 133.475 32.5945 133.475 31.5378C133.475 30.4811 132.618 29.6245 131.561 29.6245C130.505 29.6245 129.648 30.4811 129.648 31.5378C129.648 32.5945 130.505 33.4511 131.561 33.4511Z" fill="white"/>
<path d="M164.171 36.1563H168.376V38.0836H168.432C169.96 35.1541 175.168 35.0139 176.843 37.7332C177.698 39.1349 177.796 40.8239 177.817 42.5199V50.3483H173.457V43.396C173.457 41.8331 173.296 39.6605 171.18 39.6605C169.063 39.6605 168.482 41.5107 168.552 43.2768V50.3483H164.171V36.1563Z" fill="white"/>
<path d="M185.379 36.1562H180.998V50.3412H185.379V36.1562Z" fill="white"/>
<path d="M183.192 34.2219C184.589 34.2219 185.722 33.0892 185.722 31.6919C185.722 30.2946 184.589 29.1619 183.192 29.1619C181.795 29.1619 180.662 30.2946 180.662 31.6919C180.662 33.0892 181.795 34.2219 183.192 34.2219Z" fill="white"/>
<path d="M25.6856 16.8341C30.3342 16.8341 34.1027 13.0657 34.1027 8.41706C34.1027 3.76845 30.3342 0 25.6856 0C21.037 0 17.2686 3.76845 17.2686 8.41706C17.2686 13.0657 21.037 16.8341 25.6856 16.8341Z" fill="white"/>
<path d="M53.9645 0.946117L35.7427 9.19498C35.6657 11.0389 35.0775 12.8251 34.0437 14.354C33.01 15.8829 31.5715 17.0942 29.8889 17.8526C28.2064 18.611 26.3461 18.8866 24.5159 18.6485C22.6858 18.4105 20.9579 17.6682 19.5253 16.5047L1.45071 24.6625C1.14658 24.8002 0.873665 24.9983 0.648579 25.2449C0.423492 25.4914 0.250947 25.7812 0.14145 26.0966C0.0319531 26.412 -0.0122038 26.7463 0.0116685 27.0793C0.0355409 27.4123 0.126943 27.737 0.280308 28.0335L18.6563 62.9773V22.2306H32.8482V32.2876C33.9858 29.8625 35.5691 27.6729 37.5158 25.8329C39.278 24.0876 41.32 22.6497 43.557 21.5788L55.4713 2.61411C55.6174 2.39984 55.6873 2.14266 55.6697 1.8839C55.652 1.62514 55.5479 1.37982 55.374 1.18737C55.2002 0.994906 54.9667 0.866481 54.711 0.822728C54.4554 0.778974 54.1924 0.822431 53.9645 0.946117V0.946117Z" fill="white"/>
<path d="M47.6569 43.2277C47.6569 40.7517 48.639 38.3769 50.3878 36.6242C52.1365 34.8715 54.5091 33.8841 56.985 33.8785C57.9044 33.8764 58.8189 34.0134 59.6973 34.285V21.8311C56.6628 21.0558 53.4981 20.9353 50.4134 21.4776C47.3288 22.0198 44.3949 23.2124 41.8067 24.9761C39.2186 26.7397 37.0354 29.034 35.4024 31.7066C33.7694 34.3791 32.7239 37.3685 32.3355 40.4763C31.947 43.5841 32.2244 46.7389 33.1494 49.7311C34.0743 52.7234 35.6255 55.4845 37.6999 57.831C39.7743 60.1775 42.3243 62.0555 45.1806 63.3404C48.0368 64.6253 51.1338 65.2875 54.2658 65.283C56.0982 65.273 57.9224 65.0376 59.6973 64.5822V52.1704C58.3019 52.5929 56.8269 52.6826 55.3905 52.4325C53.9542 52.1824 52.5964 51.5993 51.4259 50.73C50.2554 49.8607 49.3049 48.7293 48.6504 47.4265C47.9959 46.1236 47.6556 44.6856 47.6569 43.2277V43.2277Z" fill="white"/>
</g>
<defs>
<clipPath id="clip0_212_113">
<rect width="220" height="65.2971" fill="white"/>
</clipPath>
</defs>
</svg>
