<?xml version="1.0" encoding="UTF-8"?><svg id="a" xmlns="http://www.w3.org/2000/svg" viewBox="0 0 56.05 56.07"><path d="M3.44,41.51h0c-.29-.5-.12-1.14.38-1.43l22.88-13.2c.5-.29,1.14-.12,1.43.38h0c.29.5.12,1.14-.38,1.43l-22.88,13.2c-.5.29-1.14.12-1.43-.38Z" fill="#fffdfa"/><path d="M0,27.37H0c0-.58.47-1.05,1.04-1.05l26.04-.09c.58,0,1.05.46,1.05,1.04h0c0,.58-.47,1.05-1.04,1.05l-26.04.09C.47,28.41,0,27.94,0,27.37Z" fill="#fffdfa"/><path d="M26.7,27.66L4.41,14.99c-.5-.29-.68-.92-.39-1.43h0c.29-.5.92-.68,1.43-.39l22.3,12.68c.5.29.68.92.39,1.43h0c-.29.5-.92.68-1.43.39Z" fill="#fffdfa"/><path d="M26.7,26.89L13.95,5.01c-.29-.5-.12-1.14.38-1.43h0c.5-.29,1.14-.12,1.43.38l12.74,21.88c.29.5.12,1.14-.38,1.43h0c-.5.29-1.14.12-1.43-.38Z" fill="#fffdfa"/><path d="M27.08,26.23l-.1-25.18C26.98.47,27.45,0,28.03,0h0c.58,0,1.05.46,1.05,1.04l.1,25.18c0,.58-.46,1.05-1.04,1.05h0c-.58,0-1.05-.46-1.05-1.04Z" fill="#fffdfa"/><path d="M28.13,27.27h0c-.5-.29-.67-.93-.37-1.43l12.79-21.8c.29-.5.93-.67,1.43-.37h0c.5.29.67.93.37,1.43l-12.79,21.8c-.29.5-.93.67-1.43.37Z" fill="#fffdfa"/><path d="M28.13,27.27h0c-.28-.5-.1-1.14.4-1.42l22.23-12.44c.5-.28,1.14-.1,1.42.4h0c.28.5.1,1.14-.4,1.42l-22.23,12.44c-.5.28-1.14.1-1.42-.4Z" fill="#fffdfa"/><path d="M55,28.45l-25.83-.13c-.58,0-1.04-.47-1.04-1.05h0c0-.58.47-1.04,1.05-1.04l25.83.13c.58,0,1.04.47,1.04,1.05h0c0,.58-.47,1.04-1.05,1.04Z" fill="#fffdfa"/><path d="M51.01,42.16l-22.52-13.46c-.5-.3-.66-.94-.36-1.44h0c.3-.5.94-.66,1.44-.36l22.52,13.46c.5.3.66.94.36,1.44h0c-.3.5-.94.66-1.44.36Z" fill="#fffdfa"/><path d="M40.69,51.87l-12.97-23.18c-.28-.5-.1-1.14.4-1.42h0c.5-.28,1.14-.1,1.42.4l12.97,23.18c.28.5.1,1.14-.4,1.42h0c-.5.28-1.14.1-1.42-.4Z" fill="#fffdfa"/><path d="M28.13,27.27h0c.58,0,1.05.47,1.05,1.05v26.7c0,.58-.47,1.05-1.05,1.05h0c-.58,0-1.05-.47-1.05-1.05v-26.7c0-.58.47-1.05,1.05-1.05Z" fill="#fffdfa"/><path d="M13.62,52.09h0c-.5-.29-.67-.93-.38-1.43l13.45-23.01c.29-.5.93-.67,1.43-.38h0c.5.29.67.93.38,1.43l-13.45,23.01c-.29.5-.93.67-1.43.38Z" fill="#fffdfa"/><path d="M.88,35.05h0c-.15-.56.17-1.13.73-1.29l25.25-6.94c.56-.15,1.13.17,1.29.73h0c.15.56-.17,1.13-.73,1.29l-25.25,6.94c-.56.15-1.13-.17-1.29-.73Z" fill="#fffdfa"/><path d="M26.88,28.31L1.75,21.85c-.56-.14-.9-.71-.75-1.27h0c.14-.56.71-.9,1.27-.75l25.13,6.46c.56.14.9.71.75,1.27h0c-.14.56-.71.9-1.27.75Z" fill="#fffdfa"/><path d="M26.67,27.58L8.26,9.66c-.41-.4-.42-1.07-.02-1.48h0c.4-.41,1.07-.42,1.48-.02l18.41,17.92c.41.4.42,1.07.02,1.48h0c-.4.41-1.07.42-1.48.02Z" fill="#fffdfa"/><path d="M26.86,26.83L19.99,2.25c-.16-.56.17-1.13.73-1.29h0c.56-.16,1.13.17,1.29.73l6.87,24.58c.16.56-.17,1.13-.73,1.29h0c-.56.16-1.13-.17-1.29-.73Z" fill="#fffdfa"/><path d="M28.15,27.56h0c-.56-.14-.9-.71-.75-1.27L33.71,1.62c.14-.56.71-.9,1.27-.75h0c.56.14.9.71.75,1.27l-6.31,24.66c-.14.56-.71.9-1.27.75Z" fill="#fffdfa"/><rect x="24.11" y="16.75" width="27.61" height="2.09" rx="1.05" ry="1.05" transform="translate(-1.48 32.02) rotate(-45)" fill="#fffdfa"/><path d="M28.15,27.56h0c-.15-.56.19-1.13.75-1.28l24.87-6.49c.56-.15,1.13.19,1.28.75h0c.15.56-.19,1.13-.75,1.28l-24.87,6.49c-.56.15-1.13-.19-1.28-.75Z" fill="#fffdfa"/><path d="M53.97,35.5l-25.07-6.67c-.56-.15-.89-.72-.74-1.28h0c.15-.56.72-.89,1.28-.74l25.07,6.67c.56.15.89.72.74,1.28h0c-.15.56-.72.89-1.28.74Z" fill="#fffdfa"/><path d="M46.51,47.71l-18.37-18.67c-.41-.41-.4-1.07.01-1.48h0c.41-.41,1.07-.4,1.48.01l18.37,18.67c.41.41.4,1.07-.01,1.48h0c-.41.41-1.07.4-1.48-.01Z" fill="#fffdfa"/><path d="M34.06,54.36l-6.66-25.52c-.15-.56.19-1.13.75-1.28h0c.56-.15,1.13.19,1.28.75l6.66,25.52c.15.56-.19,1.13-.75,1.28h0c-.56.15-1.13-.19-1.28-.75Z" fill="#fffdfa"/><path d="M20.95,55.16h0c-.56-.15-.89-.72-.75-1.28l6.67-25.58c.15-.56.72-.89,1.28-.75h0c.56.15.89.72.75,1.28l-6.67,25.58c-.15.56-.72.89-1.28.75Z" fill="#fffdfa"/><path d="M8.06,47.71h0c-.41-.41-.41-1.07,0-1.48l18.61-18.67c.41-.41,1.07-.41,1.48,0h0c.41.41.41,1.07,0,1.48l-18.61,18.67c-.41.41-1.07.41-1.48,0Z" fill="#fffdfa"/></svg>