<?xml version="1.0" encoding="UTF-8"?><svg id="a" xmlns="http://www.w3.org/2000/svg" viewBox="0 0 315.83 315.83"><circle cx="157.92" cy="157.92" r="157.92" fill="#f3efe8"/><path d="M223.93,161.86c-2.77-6.73-7.56-11.45-13.88-14.7-5.16-2.65-10.25-4.93-16.15-5.39-16.21-1.26-31.01,11.57-38.71,24.84l-3.83-.54c2.65-3.32-.56-6.44-.25-8.98.55-4.4,1.14-8.8.67-13.19,2.69-3.67,4.91-9.19.84-12.94-1.4-1.29-2.62-2.81-2.49-4.87,8.18-.53,21.7-10.97,16.54-18.9-3.9-5.99-12.17-2.82-17.65-.69-1.26.49-2.68.68-3.96.11.84-14.85,3.1-29.26,7.71-43.31.69-2.11,1.98-4.42,1.6-6.6-.33-1.9-3.17-3.4-4.87-4.3-8.26-4.34-17.09-5.75-26.38-6.18-11.44-.53-22.72,1.76-32.16,8.18-4.71,3.2-.49,6.04.51,15.05,1.22,11.05,1.27,21.93.34,33-7.78,1.15-14.72,3.64-20.49,8.53-4.48,3.79-6.38,9.8-3.34,15.06,2.74,4.75,8.08,6.42,13.66,5.93-3.02,2.27-10.06,7.56-5.52,10.64-1.12,1.92-2.41,4.13-2.53,6.6-.07,1.37,1.34,2.4,2.44,2.8-.73,10.74,2.25,15.46,1.32,27.44-.54,6.94-2.31,13.53-5.97,19.46l-3.35.04c-2.76,1.17-4.05,3.78-4.88,6.72-17.71-7.32-37.38-6.31-53.84,2.24.33.79.67,1.58,1.01,2.37,15.69-8.4,34.29-9.52,52.34-2.05,2.07,8.64,8.07,15.26,15.91,19-.64,3.53-.98,6.92-.19,10.29.76,3.26,3.81,5.32,7.07,4.56,5.11-1.2,9.14-4.65,11.61-9.25,3.01,1.03,6.16.93,8.84-.42,5.41,6.24,8.17,2.39,8.51,13.01l-3.75-3.06c1,4.76,2.43,9.07.52,13.59l-2.62-3.56c-.35,4.36-1.41,7.46-3.7,10.72,1.61-.44,2.58-1.62,3.73-3-.1,12.23-4.62,23.57-11.58,33.24.93.36,1.87.71,2.8,1.05,1.97-2.75,3.76-5.64,5.32-8.74,3.71,2.76,7.95,1.61,9.4,3.29.31.36-1.02,1.28-1.55,1.37l-4.99.8c1.39,2.24,6.59.87,7.15,3.94-2.31,2.47-5.24,1.65-8.95.91l.52.79c2.18.69,4.38,1.32,6.59,1.92l1.54-.14c.39.28.79.56,1.18.84,2.13.53,4.27,1.02,6.43,1.45-1.77-1.43-3.6-2.78-5.35-4.13.77-1.82.14-3.53-.78-4.94.29-.87.92-2.47.83-3.29-.49-4.14-8.7-2.2-10.68-5.1l3.33-9.39c6.77,4.69,14.77,5.99,22.66,4.21,2.3,3.83,6.2,5.3,10.08,3.99l3.24,2.29-2.02,7.98c-.76,3.01,1.1,5.96,3.66,7.44,4.47,2.59,11.08,3.22,13.09-1.62,1.47-3.53,2.64-7.04,3.85-10.69,3.05.16,6.03-.12,8.91-1.14,4.77-1.69,7.13-6.43,6.08-11.24,5.36-2.57,6.69-8.47,3.66-13.4,3.68-3.83,3.94-9.31.15-13.18-1.73-1.76-4.2-2.66-6.64-3.48l-.61-2.45c-.36-1.46-.45-3.21.58-4.45,16.01,1.66,29.83-9.06,38.48-21.65,10.55-15.36,16.34-36.8,8.96-54.74ZM177.33,148.26c8.23-4.66,17.72-5.33,26.3-1.25-22.7-.49-39.41,21.81-45.32,41.17-4.22,14.17-4.28,30.28,5.62,42.5-13.66-6.63-17.26-21.66-15.68-35.39,2.15-18.62,12.46-37.62,29.08-47.03ZM173.74,243.14c-.09,1.88-.54,4.03-1.16,6.28-3.67-.06-6.6.45-9.69,1.89l-1.33-6.21c-.4-1.86.97-4.24,2.24-5.56,2.53,3.04,5.59,4.25,9.94,3.61ZM166.55,235.23l7.2,2.42-.99,3.69c-2.48.37-5.08-.31-6.68-2.14-.62-.71-.01-2.81.47-3.97ZM159.28,242.18c-3.42-2.86-8.1-2.87-11.98-.66-5.05,2.88-8.47,7.91-9.89,13.96-4.28-.18-5.63,3.89-7.36,6.58-5.51,3.18-12.7.75-17.32-3.29,2.14-3.45,2.49-7.01,1.39-11.13l2.45-1.25c.79-2.58.19-5.35-.83-8.04,3.36.25,6.93-1.85,7.19-5.57.27-3.74-.77-7.43-2.03-10.99,1.94-3.91,2.41-11.87-1.5-13.78-4.37-2.13-9.85,2.92-13.17,6.61l-2.81-7.66c-1.94-5.28-3.22-16.33,3.96-17.77,9.84,2.99,18.01,8.45,25.35,15.35,3.74,3.51,8.06,5.82,13.41,5.97,1.57,10.34,7.95,18.62,17.48,23.16,1.31,3.95-2.64,4.06-4.33,8.52ZM149.1,159.79c.53,1.48.68,3.79-.2,5.9-1.32.05-3.18-.65-4.12-1.28l4.32-4.62ZM147.07,159.31l-3.38,4.28-2.64-3.56,6.02-.71ZM139.69,156.14c-.51,0,.23-1.25.72-1.38.79-.2,1.62.34,1.53,1.41l-2.26-.03ZM146.81,153.96c0-.26,1.11-.28,1.37-.27.9.03-.21,3.78-1.31,3.61l-.06-3.34ZM91.35,58.22c.22-.84,1.25-1.9,2.15-2.39,15.93-8.79,36.81-8.79,53.29-1.84,2.03.85,3.75,2.11,5.32,3.81-5.07,11.93-7.49,24.27-8.98,37.16-11.04-7.57-36.4-7.9-47.73-.91-.17-12.41.12-23.71-4.05-35.83ZM142.47,113.62c-18.02-1.21-30.04-11.57-47.83-11.16l.62-7.1c9.9-5.34,25.33-5.47,36.39-3.25,4.01.93,7.83,2.12,11.36,4.16-.73,6.05-.92,11.33-.55,17.34ZM69.38,121.94c-1.02-7.8,8.08-12.7,14.52-14.87,22.19-7.5,34.06,6.24,55.9,8.46,5.23.53,18.72.46,20.59-5.87-4.63,2.97-9.72,4.52-15.27,3.75l-.12-3.42c5.1-.12,16.36-7.1,19.53-1.62.79,1.36.87,3.4.08,4.83-4.31,7.89-12.89,11.54-21.63,9.72l-18.75-3.91c-11.53-2.4-23.14-1.51-34.31,2.09-2.24.72-4.08,1.8-5.53,3.46h2.4s-4.47,5.5-4.47,5.5c-5.5.59-12.19-2.41-12.94-8.13ZM78.73,188.57c4.61-18.66-2.88-30.4.57-39.23.49-1.25,1.2-2.33,1.82-3.69-2.43,1.02-1.71,2.21-4.94,3.4-.11-6.18,6-8.48,6.15-10.72l-5.03,1.43c1.88-5.16,5.1-3.75,7.59-8.6,1.6-3.11,4.22-6.37,7.08-8.57,11.14-3.19,22.45-3.17,33.66-.9l21.09,4.27,1.47,3.53c-2.44,1.08-4.56,2.38-5.67,4.86,1.61-.87,3.11-1.78,4.78-2.49,2.34-1,4.7.93,4.95,3.33.22,2.16-.51,4.23-1.62,5.84-.44-.4-1.72-1.35-1.39-1.67l1.68-1.62c-1.29-1.07-3.31-.28-4.52.82l-6.7,6.03-.89-4.53c-1.03,1.59-1.9,4.8.01,6.06,1.4.93,3.99-.78,5.01-1.79l4.45-4.38c1.35,4.36,1.44,8.08.98,12.3-3.86-.82-6.92-.14-10.38,1.41l-.2-7.48c-2.06,4.51-1.65,9.54.21,13.98,2.49,5.94,7.94,8.93,14.91,9.03-5.02,9.07-7.54,18.31-8.55,28.4-4.4-4.19-8.54-7-13.47-9.3l-11.77-4.53c-9.38-3.61-15.85-7.71-19.63-17.54l4.66.2c-3.68-3.99-11.13-3.12-13.57,2.08l6.71-2.12c4.73,12.5,13.15,16.5,24.93,20.66,8.21,2.9,15.57,7.06,22.05,12.98l.44,7.89c-4.48-.7-9.02-2.79-11.74-6.55-1.69-2.33.08-5.59-.81-8.08-1.07,2.06-.94,4.46-.88,7.02-9.91-8.54-18.2-11.85-30.06-16.28-7.12-2.66-15.48-10.14-13.98-18.64.83-4.73,5.02-7.54,9.72-7.44,6.01.12,11.53,3.48,13.04,9.52,1.47-5.79-5.41-10.9-11.34-11.58-2.58-9.02-1.99-12.2,1.25-20.45-5.49,5.76-4.57,14.01-1.79,20.4-3.65-.19-7.5.82-9.7,3.16-5.77,6.14-3.5,13.15.3,19.48,3.02,5.03,4.69,10.95,10.46,14.01-2.96,10.65,1.55,15.72,4.35,24.82l-3.83.17-4.7.33c-2.95-3.58-6.83-6.76-11.3-8.12-3.77-1.15-7.12.27-8.47,4.27-2.63-2.69-4.37-5.24-5.98-8.8,4.39-4.8,7.04-10.25,8.6-16.56ZM64.9,207.36c.05-1.6,2.78-6.35,5.02-6.56.15-.01.28.3.18.42l-.47.59c-3.42,4.25,2.42,10.71,6.2,13.61.44,3.33,1.06,5.98,2.02,9.27-5.29-2.86-13.12-11.31-12.94-17.33ZM97.19,228.5c-1.86,5.64-6.4,9.48-11.66,11.27-2.09.71-4.37-.55-4.9-2.63-.76-2.99-.59-6.02-.1-9.15l2.28,1.5c-1.56-5.42-4.94-7.33-4.46-14.31.07-.97.61-2.22,1.17-2.72,4.34-3.91,17.67,6.59,17.58,12.63-3.02-2.25-6.33-3.99-9.95-3.57,3.8,1.64,7.38,2.45,10.33,5.56-3.37.2-5.97,1.19-8.21,3.1,2.99-.9,5.28-1.99,7.92-1.69ZM103.03,231.22l-.35-.77c-.05-.1-.06-.44-.14-.36l-.76.7c-.9.83-2.79,1.36-3.47.28.99-3.76.64-7.23-.99-10.78l-.35-.77c-.4-.87,3.02-1.48,6.03,3.51-.16-1.37-.49-2.77-.87-4.24,3.38.47,4.31,3.63,4.39,6.79.07,2.66-1.62,5.42-3.49,5.64ZM107.19,230.73l1.55-4.36,5.27,1.74c-.59-2.84-7.1-2.25-5.53-4.32.24-.31.76-.81,1.14-1.01l4.66-2.52c-2.1-.03-3.69.47-5.92,1.66l-2.16-3.41c1.42-2.75,11.72-12.71,13.28-6.67.73,2.83.47,5.9-.5,8.58l-1.55,4.27,1.9-1.17c1.29,3.22,2.69,12.62-2.59,12.35-3.84-.2-6.85-2.31-9.54-5.13ZM110.44,271.07l1.18-9.86c4.81,4.45,11.49,5.87,18,4.27.09,3.52.46,6.49,1.5,10.11-6.06,1.7-16.17.4-20.68-4.52ZM146.67,281.73c-4.33-1.54-5.95-5.76-6.88-10.17-1.62,2.93-.31,5.75.9,8.71-2.7.34-4.68-1.51-5.95-3.7-2.96-5.11-4.05-16.17,2.03-18.89-.05,3.16-.05,5.87,1.73,8.25-.36-8.47,4-21.31,13.34-23.08,3.01-.57,5.7.62,6.99,3.38,1.83,3.95.86,7.77,2.05,14.24.39,2.1.17,4.8-1.62,6.11-2.16,1.58-4.95.37-6.45-1.6-3.23-4.25-3.21-9.37-2.45-14.87-4.24,3.82-2.52,11.3-.35,15.7-1.05,2.55-4.14,3.49-6.95,4.64,2.84,1.28,5.09-.52,7.67-2.25l-4.07,13.54ZM148.56,297.65c-1.55-.99-2.38-2.8-2.17-4.34,2.79,3.73,7.16,4.82,11.57,4.49-2.84,2.46-6.63,1.61-9.4-.15ZM158.18,296.3c-4,1.5-10.34-.56-11.23-4.98,1.53-7.57,4.28-14.73,6.29-22.15.85-.1,2.2.19,2.72.63.51.44.76,2.15.57,2.83-2.86,1.56-4.1,4.94-2.68,8.03,1.54,2.91,3.74,4.75,7.54,6.09-.94,3.3-1.91,6.29-3.21,9.55ZM171.43,284.33c-5.38,1.57-11.32.61-14.93-3.88-.71-.88-.99-2.75-.78-3.78.18-.89,1.71-2.27,2.74-2.26,5.62,3.05,11.73,4.3,18.43,2.17,1,3.83-1.91,6.71-5.45,7.74ZM177.84,273.34c-5.34,2.9-11.78,2.33-17.09-.26-1.15-.56-2.2-2.26-2.11-3.31,2.38-1.15,3.95-2.65,4.63-5.2,5.85,1.91,12.05,1.63,17.58-1.39,2.42,3.55,1.07,7.94-3.02,10.17ZM177.38,251.67l-2.02-1.3c-.49-.32-.21-2.3.38-2.32,3.04-.11,6.13,2.13,7.11,5.02,1.09,3.22-.53,6.31-3.41,7.91-4.69,2.62-10.12,3-15.58,1.32-.53-2.72-.98-5.12-1.2-7.72,1.18-1.56,4.25-2.98,6.32-2.97l8.4.06ZM204.57,224.59c-5.02,4.9-10.66,8.64-17.77,10.36-14.63,3.54-24.46-3.89-28.18-17.48-2.54-9.27-1.98-18.48.68-27.62,3.67-12.6,10.32-23.96,20.37-32.45,5.46-4.62,11.74-7.96,18.72-8.84,9.47-1.2,17.72,3.54,21.91,11.9,3.6,7.17,4.92,14.89,4.07,23.06-1.61,15.54-8.61,30.18-19.79,41.07Z"/><path d="M54.65,243.66l-6.52-3.7.72-6.59c-1.29,1.74-1.63,3.11-2.41,5.04-1.33-1.67-1.75-3.4-1.9-5.45-1.17.93-1.58,2.91-.99,4.57,2.42,6.8,10.17,6.15,13.44,11.61,4.12,6.87,1.88,14.56-2.35,19.51,1.02.83,2.05,1.65,3.09,2.46.13-.24.27-.47.4-.71,4.58-8.61,5.79-21.46-3.48-26.73Z"/><path d="M95.45,254.17l-.92-3.95-.46,3.49c-.09.72.54,2.07,1.19,2.21,3.39.76,4.96-5.06,5.36-7.39.63.48,1.52,1.12,2.11,1.19,2.94.34,3.51-7.99.91-10.4.29,3.47,1.71,6.42-1.03,9.44-.83-.95-1.5-2.05-2.4-3.64-.42,2.98-.95,5.79-2.5,8.51-.39.68-2.1,1.2-2.25.55Z"/><path d="M85.55,288.36c-.5.39-1.06.76-1.72,1.06l.19-1.81.52-4.91c-1.09,1.28-1.87,2.59-2.71,3.79-1.13,1.62-2.37,3.06-4.65,4.03l-.34-2.99-4.42,4.69c1.05-.54,2.15-1.36,3.21-2.17l1.86,1.21c1.65-.64,3.51-2.22,4.54-3.5l1.27,2.31c.5.91,1.88.16,3.27-1.21,1.91-1.89,3.86-4.95,3.63-6.58-1.61,2.07-2.54,4.42-4.66,6.08Z"/><path d="M102.16,259.71c-1.43,2.81-2.88,5.67-4.9,7.51-.34.31-1.86.74-2.02.37l-.53-1.22-3.36,3.02,2.71-1.26c3.74,3.89,8.59-6.05,8.1-8.4Z"/><path d="M27.95,210.07l6.25-1.39c-3.1.26-9.31.44-9.73,3.86,2.64.38,4.65.58,7.04.21l-5.9-.86c.67-.92,1.56-1.65,2.34-1.82Z"/><path d="M115.26,131.96c-2.81-.79-6.11-.58-7.81,1.88,9.34-4,15.33,8.19,22.04,12.46l.47,5.04-1.14-.64,1.15,3.06c-6.32-3.9-13.2-6-20.68-5.11-2.05.24-3.99.94-5.16,2.56l3.64-.65c3.24-.58,14.65.37,15.62,3.19.08.24-.36.88-.59.77l-1.13-.53c-.42-.2-1.42-.52-1.66-.19-.24.33-.43,1.6-1.06,1.53-3.62-.37-10.12-2.94-14.56-1.29,7.55,1.92,15.1,2.97,22.17,5.4.62.21,1.01.34,1.32.41.31.07.57-1.01.67-1.33l.85-2.85,1.83.34c.35.07.55-1.2.5-1.58l-1.07-7.96c.9-.14,3.04-.62,3.53-1.46,1.35-2.34.97-5.17-.32-7.07.02,1.95.47,4.02-.58,5.57-.58.85-2.93.41-3.62-.25l-6.51-6.18c-2.32-2.2-4.8-4.27-7.9-5.14Z"/><path d="M118.83,126.14c3.83,1.59,6.36,4.83,9.68,7.37-2.28-5.43-7.3-9.12-12.61-10.15-4.29-.84-9.37.34-11.1,4.83,3.98-3.49,9.05-4.12,14.04-2.04Z"/><path d="M143.96,178.33c1.45.38,4.29-1.75,3.77-3.5-.34-1.11-2.82-.3-3.62.38-.72.62-1.45,2.59-.15,3.12Z"/><path d="M140.76,178.83c-.29-3.46,1.67-5.57,4.88-7.07-1.82-.13-3.75.47-4.83,2.01-.93,1.33-1.8,3.42-.06,5.06Z"/><path d="M126.31,162.49c-4.26,1.03-7.43,1.58-11.42,1.97,2.94,1.36,9.32.12,11.42-1.97Z"/><path d="M120.37,159.49c2.38.82,4.82,1.51,7.09,1.47-2.5-1.3-4.7-1.65-7.09-1.47Z"/><path d="M141.51,119.77c5.41.05,10.75.21,15.24-2.35-7.51,1.53-14.12,2.21-21.04.42l-17.23-4.47c7.26,3.7,15.01,5.43,23.03,6.39Z"/><path d="M108.77,110.82c-11.58-4.46-25.73-1.94-34.91,6.58,10.45-7.23,22.3-9.28,34.91-6.58Z"/><path d="M193.13,153.03c-19.07,6.57-31.44,28.77-33.43,48.2-.75,7.34.37,14.48,3.79,20.78,4.81,8.85,14.22,12.84,24.03,10.01,5.85-1.69,10.57-4.78,14.92-8.85,9.16-8.57,15.04-19.69,18.19-31.86,2.32-8.94,2.33-18.13-1.23-26.57-4.46-10.56-15.5-15.42-26.28-11.71ZM172.83,171.89c9.58,2.55,20.09,4.77,22.87,15.53,3.82,14.83-7.3,30.36-22.1,33.96-1.36-9.87-4.34-12.87-11.95-18.53.94-11.35,4.89-21.64,11.18-30.97ZM163.74,218.03c-1.46-3.88-2.12-7.32-2.08-11.67,3.11,1.83,4.99,3.92,7.32,7.3-1.44,2.05-3.13,3.18-5.24,4.37ZM171.27,227.75c-3.61-1.46-5.43-5.63-7.08-8.86,2.27-.39,3.39-1.15,5.71-2.88,1.34,2.84.02,8.24,4.15,7.7,12.64-1.67,24.67-15.72,25.17-28.76.55-16.16-9.88-22.67-24.59-25.24,6.95-9.41,20.48-19.38,32.22-14.9,4.56,4.55,6.94,10.46,7.28,17.12.81,16.17-4.79,32.29-15.53,44.42-6.17,6.97-18.53,14.96-27.32,11.4ZM207.15,216.04c-7.17,9.13-18.43,17.32-30.55,14.52,28.6-2.29,48.1-47.56,36.06-71.98,6.78,5.55,8.83,17.17,7.81,25.54-1.43,11.75-6.03,22.65-13.31,31.92Z"/><path d="M171.81,245.12c-3.52-.72-5.85-1.79-8.81-3.31,1.8,3.21,5.91,4.5,8.81,3.31Z"/><path d="M205.83,187.77c.44.24,1.58-.65,1.89-1.22,4.33-8.05,3.43-22.36-3.52-26.24-1.43-.8-3.29-.95-4.28.02-3.53,3.46,2.13,6.8,3.91,15.88.8,4.07-.12,10.39,2.01,11.56ZM199.9,161.22c.4-.44,1.82-.83,2.44-.69,8.1,1.89,9.22,19.82,3.74,26.74-1.19-.57-.91-7.81-1.35-10.8-1.08-7.39-6.59-13.32-4.83-15.25Z"/><path d="M205.07,192.34c1,2.3.42,5.63-1.93,5.94-1.5-2.1.63-4.25,1.69-6.13-2.55.69-2.94,3.89-2.83,6.27.57.11,1.7.21,2.46.25,1.77-1.78,2.79-4.49.61-6.33Z"/></svg>