<svg id="Layer_1" data-name="Layer 1" xmlns="http://www.w3.org/2000/svg" viewBox="0 0 800 400">
  <defs>
    <style>
      .cls-1 {
        fill: #202020;
        stroke-width: 0px;
      }
    </style>
  </defs>
  <path class="cls-1" d="M137.1042,218.0999c1.731-4.8487,2.0777-10.3896,2.0777-15.324,0-4.329-.2598-8.485-.2598-12.2074v-16.0167c0-13.1595,0-15.5838.1731-18.3543.1731-3.0303.8658-4.502,3.2033-4.935,1.0389-.173,1.5586-.2593,2.5106-.2593,1.0388,0,1.5586-.1736,1.5586-.7796s-.6059-.779-1.8178-.779c-3.377,0-8.831.2598-10.9087.2598-2.2513,0-7.7054-.2598-12.2942-.2598-1.2981,0-1.9046.173-1.9046.779s.5197.7796,1.4723.7796c1.2119,0,2.6836.0862,3.3764.2593,2.8567.6065,3.5494,1.9915,3.7225,4.935.1731,2.7704.1731,5.1948.1731,18.3543v24.8478c0,16.9688.0868,25.6262-6.4929,32.2928-1.7316,1.7316-3.0303,2.6836-4.1559,3.2902-1.4718.779-1.9047,1.1251-1.9047,1.558s.3467.6928.6928.6928c.4329,0,1.1256-.1731,1.7316-.5197,1.8179-.8658,3.2034-1.558,4.329-2.2507,8.3113-5.108,12.8996-11.0818,14.718-16.3628Z"/>
  <path class="cls-1" d="M148.2734,160.6995c1.1251,0,2.4238.0868,3.0297.2599,2.4244.6928,3.1171,1.4717,3.2901,3.9823.0863,2.3375.0863,4.4152.0863,15.5838v12.9864c0,6.7528,0,12.5535-.3461,15.6706-.2598,2.1639-.6928,3.5494-2.2507,3.8955-.6928.1731-1.5586.2599-2.6842.2599-.952,0-1.2119.4329-1.2119.779,0,.5197.5197.7796,1.4717.7796,1.5586,0,3.4632-.0868,5.281-.173,1.8184,0,3.4632-.0868,4.329-.0868,2.2508,0,5.108.0868,8.8311.173,3.7225.1731,8.3113.2599,14.0253.2599,1.3434,0,2.2081-.0001,2.8014-.1982,3.1433-.0652,5.92-.2347,6.5493-.2347,2.4244,0,5.9738.2599,8.485.2599.779,0,1.2119-.173,1.2119-.7796,0-.4329-.173-.779-1.1257-.779h-1.1257c-2.3375,0-3.0297-.779-3.0297-2.0777,0-.8658.3461-2.6842,1.1251-4.502l4.0691-9.9561c.1736-.4329.2599-.5197.6928-.5197h17.9208c.3472,0,.6065.0868.7801.5197l5.887,14.8911c.3461.8658-.1736,1.558-.6933,1.6448-.779.0868-.9515.3461-.9515.779,0,.5197.8658.5197,2.2502.6065,5.183.14,9.799.1667,12.7948.1718.0632.0008.1278.0012.1939.0012.0928,0,.1853-.0003.2778-.0006.5124.0006.9709.0006,1.3659.0006.9709,0,1.6612-.0201,2.1503-.0703,2.2419-.077,3.9743-.1896,4.43-.1896,1.3855,0,4.9355.2599,9.8699.2599,1.0394,0,1.7316-.173,1.7316-.7796,0-.4329-.4329-.779-1.2987-.779-1.2119,0-2.6842-.0868-3.9829-.5191-1.4712-.5197-2.4238-2.2513-2.5963-7.9652l-.8658-30.042h.2593c1.4723,1.2987,9.5238,10.216,17.8346,18.1812,7.9647,7.7048,17.4885,16.7957,22.2504,21.211.779.779,1.8184,1.5585,3.1171,1.5585.6054,0,1.2119-.6928,1.2119-2.3375l.8658-46.4054c.0868-4.1554.6922-5.4541,2.7699-6.06.9526-.2599,1.5591-.2599,2.3381-.2599.8658,0,1.2987-.3461,1.2987-.779,0-.6059-.6933-.6928-1.7316-.6928-3.7225,0-6.5803.1731-7.4461.1731-1.6448,0-5.7134-.1731-9.6963-.1731-1.1251,0-1.9052.0868-1.9052.6928,0,.4329.2604.779,1.213.779,1.0383,0,2.8567,0,3.9818.4329,1.8184.6928,2.5106,1.9914,2.5974,6.4935l.779,32.7257h-.3461c-1.1251-1.0388-11.2543-11.4279-16.4491-16.5359-11.0818-10.8225-22.5097-22.5102-23.4623-23.4623-1.2987-1.2987-2.3381-2.4244-3.2896-2.4244-.7801,0-1.2987,1.0388-1.2987,2.5106l-.6933,43.635c-.0868,6.4067-.3461,8.3976-2.337,8.9173-.3376.0842-.712.15-1.0988.2007-.2551-.0327-.5224-.0708-.8064-.1145-1.3855-.2593-3.55-1.2119-6.4941-7.8784-4.8487-11.168-17.5753-40.9508-19.3937-45.0194-.779-1.6454-1.1251-2.3381-2.2502-2.3381-.7796,0-1.3855.8658-2.2513,2.9441l-19.9128,45.972c-1.2272,2.9316-2.2941,4.9495-4.3824,5.9288.4166-1.8688.9187-6.1632.9187-7.6604,0-.779-.0868-1.7316-.6928-1.7316-.5197,0-.6928.3467-.8658,1.1257-.5191,3.0303-1.3849,4.5883-3.2902,5.4541-1.9909.8658-5.1942.9526-7.1857.9526-7.7916,0-10.1292-1.1257-10.3022-6.1468-.0868-2.1645,0-8.3981,0-10.9087v-5.887c0-.4329.0862-.7796.4329-.7796,1.9046,0,10.5621.173,11.947.3467,2.8573.2593,3.8099,1.3849,4.2428,2.8567.1731.9526.1731,1.9047.2593,2.6842,0,.3461.1736.6059.6928.6059.6928,0,.779-1.0388.779-1.6454,0-.5191.1736-3.4626.3467-4.9344.4329-3.7231.6059-4.935.6059-5.3679s-.2599-.7796-.6059-.7796c-.3467,0-.606.4329-1.2125.9526-.779.6928-1.8178.9526-3.6357,1.1257-1.7316.173-11.6015.173-13.3331.173-.4329,0-.5191-.3461-.5191-.779v-18.1812c0-.4329.173-.6928.5191-.6928,1.5586,0,10.6489.173,11.9476.3461,3.8093.3467,4.4152,1.3855,5.0212,2.6842.4329.8658.5197,2.1645.5197,2.6836,0,.6059.0868.9526.6059.9526.606,0,.7796-.8658.8658-1.2125.1731-.8652.3467-4.0686.4329-4.8481.1731-3.3764.606-4.2422.606-4.7613,0-.3467-.0862-.6928-.5191-.6928-.3467,0-.7796.2599-1.2125.3461-.6059.0868-1.8178.3467-3.2033.4329-1.4718.0868-18.3537,0-20.7781,0-2.1645,0-7.0126-.1731-10.995-.1731-1.1257,0-1.7316.1731-1.7316.6928,0,.5191.5191.779,1.2987.779ZM203.077,191.6941l7.3587-18.3543c.0868-.2599.1736-.6928.4329-.6928.1736,0,.2598.4329.3467.6928l7.1862,18.4405c.0857.2598,0,.4329-.3472.4329h-14.7175c-.2598,0-.4329-.1731-.2598-.5191Z"/>
  <path class="cls-1" d="M306.7126,214.8965c3.895,0,7.5318-.2599,8.224-.2599,1.3855,0,4.9355.2599,9.8699.2599,1.0394,0,1.7316-.173,1.7316-.7796,0-.4329-.4329-.779-1.2987-.779-1.2119,0-2.6842-.0868-3.9829-.5191-1.4712-.5197-2.4238-2.2513-2.5963-7.9652l-.8658-30.042h.2593c1.4723,1.2987,9.5238,10.216,17.8346,18.1812,7.9647,7.7048,17.4885,16.7957,22.2504,21.211.779.779,1.8184,1.5585,3.1171,1.5585.6054,0,1.2119-.6928,1.2119-2.3375l.8658-46.4054c.0868-4.1554.6922-5.4541,2.7699-6.06.9526-.2599,1.5591-.2599,2.3381-.2599.8658,0,1.2987-.3461,1.2987-.779,0-.6059-.6933-.6928-1.7316-.6928-3.7225,0-6.5803.1731-7.4461.1731-1.6448,0-5.7134-.1731-9.6963-.1731-1.1251,0-1.9052.0868-1.9052.6928,0,.4329.2604.779,1.213.779,1.0383,0,2.8567,0,3.9818.4329,1.8184.6928,2.5106,1.9914,2.5974,6.4935l.779,32.7257h-.3461c-1.1251-1.0388-11.2543-11.4279-16.4491-16.5359-11.0818-10.8225-22.5097-22.5102-23.4623-23.4623-1.2987-1.2987-2.3381-2.4244-3.2896-2.4244-.7801,0-1.2987,1.0388-1.2987,2.5106l-.6933,43.635c-.0868,6.4067-.3461,8.3976-2.337,8.9173-1.0394.2593-2.4249.3461-3.4632.3461-.6933,0-1.2119.3461-1.2119.779,0,.6928.6922.7796,1.7316.7796Z"/>
  <path class="cls-1" d="M374.2439,160.6995c1.1251,0,2.4238.0868,3.0303.2599,2.4238.6928,3.116,1.4717,3.2896,3.9823.0868,2.3375.0868,4.4152.0868,15.5838v12.9864c0,6.7528,0,12.5535-.3461,15.6706-.2604,2.1639-.6933,3.5494-2.2513,3.8955-.6933.1731-1.558.2599-2.6842.2599-.9526,0-1.2119.4329-1.2119.779,0,.5197.5197.7796,1.4723.7796,1.558,0,3.4621-.0868,5.2805-.173,1.8184,0,3.4632-.0868,4.329-.0868,2.2513,0,5.108.0868,8.8305.173,3.7236.1731,8.3119.2599,14.0253.2599,2.8578,0,3.55,0,4.0697-1.9046.4329-1.4718,1.0383-6.4935,1.0383-8.1383,0-.779-.0857-1.7316-.6922-1.7316-.5197,0-.6922.3467-.8658,1.1257-.5197,3.0303-1.3855,4.5883-3.2896,5.4541-1.992.8658-5.1948.9526-7.1857.9526-7.7922,0-10.1303-1.1257-10.3028-6.1468-.0868-2.1645,0-8.3981,0-10.9087v-5.887c0-.4329.0868-.7796.4329-.7796,1.9041,0,10.5621.173,11.9476.3467,2.8567.2593,3.8093,1.3849,4.2422,2.8567.1725.9526.1725,1.9047.2593,2.6842,0,.3461.1736.6059.6933.6059.6922,0,.779-1.0388.779-1.6454,0-.5191.1725-3.4626.3461-4.9344.4329-3.7231.6054-4.935.6054-5.3679s-.2593-.7796-.6054-.7796-.6065.4329-1.2119.9526c-.779.6928-1.8184.9526-3.6368,1.1257-1.7316.173-11.6015.173-13.332.173-.4329,0-.5197-.3461-.5197-.779v-18.1812c0-.4329.1725-.6928.5197-.6928,1.558,0,10.6489.173,11.9476.3461,3.8093.3467,4.4147,1.3855,5.0212,2.6842.4329.8658.5197,2.1645.5197,2.6836,0,.6059.0857.9526.6054.9526.6065,0,.779-.8658.8658-1.2125.1736-.8652.3461-4.0686.4329-4.8481.1736-3.3764.6065-4.2422.6065-4.7613,0-.3467-.0868-.6928-.5197-.6928-.3461,0-.779.2599-1.2119.3461-.6065.0868-1.8184.3467-3.2039.4329-1.4712.0868-18.3543,0-20.7781,0-2.1645,0-7.0132-.1731-10.995-.1731-1.1262,0-1.7316.1731-1.7316.6928,0,.5191.5197.779,1.2987.779Z"/>
  <path class="cls-1" d="M438.8305,151.0032c1.2119,0,2.6831.0862,3.3764.2593,2.8567.6065,3.55,1.9915,3.7225,4.935.1736,2.7704.1736,5.1948.1736,18.3543v15.2377c0,7.9647,0,14.8043-.4329,18.4405-.3461,2.5106-.779,4.4152-2.5106,4.7619-.7801.173-1.8184.3461-3.1171.3461-1.0394,0-1.3855.2599-1.3855.6928,0,.6059.6065.8658,1.7316.8658,1.7316,0,3.9829-.173,5.9738-.173,2.0777-.0868,3.9829-.0868,4.9344-.0868,2.1645,0,5.1948.2599,8.4855.5197,3.2896.2593,6.8396.5191,9.9556.5191,16.0173,0,25.0214-6.1468,29.0032-10.216,4.8487-4.9349,9.437-13.2463,9.437-24.155,0-10.3022-4.0686-17.4885-8.3976-21.99-9.437-9.8699-23.8952-9.8699-34.7177-9.8699-5.1948,0-10.6489.2598-13.3331.2598-2.4238,0-7.8779-.2598-12.4662-.2598-1.2987,0-1.9052.173-1.9052.779s.5197.7796,1.4723.7796ZM456.9244,173.1668c0-6.8396,0-14.3719.0868-17.3154,0-.9526.2593-1.3855,1.0394-1.7316.6922-.3461,3.8961-.6059,5.6266-.6059,6.7539,0,16.6227,1.0388,24.5885,8.6574,3.7225,3.55,8.3108,10.6489,8.3108,21.6444,0,8.9173-1.7316,16.7957-7.2725,21.5571-5.1937,4.502-11.0818,6.2336-19.9123,6.2336-6.8396,0-10.216-1.8178-11.3411-3.4632-.6933-.952-.8658-4.4152-.9526-6.5797-.0868-1.6448-.1736-8.3113-.1736-17.4885v-10.9082Z"/>
  <path class="cls-1" d="M511.1237,167.0194c.5197,0,.8658-.1731,1.3855-.6922,3.8961-3.9829,9.5227-13.2463,9.5227-18.5273,0-1.2987-.3461-1.9046-2.5106-2.5112-1.6448-.5191-5.4541-1.6448-7.1857-1.6448-.4329,0-.9526.4329-.9526.6928,0,.4329.0868.6928.9526,1.5586.779.779,2.0777,3.1165,2.0777,5.9738,0,5.3673-1.8173,10.4753-3.3764,13.5056-.3461.6928-.4329.9526-.4329,1.1257,0,.3461.2604.5191.5197.5191Z"/>
  <path class="cls-1" d="M517.8754,213.1649c-.6922.0862-1.9041.173-2.6831.173-.6933,0-1.0394.173-1.0394.6928,0,.6928.5197.8658,1.6448.8658,4.5026,0,9.2634-.2599,10.216-.2599,2.6842,0,6.4067.2599,9.1777.2599.9515,0,1.4712-.173,1.4712-.8658,0-.5197-.2593-.6928-1.2987-.6928h-1.2987c-2.6831,0-3.4632-1.1257-3.4632-2.6836,0-1.0388.4329-3.1171,1.2987-5.2816l4.6751-11.8608c.1736-.5191.3472-.6928.7801-.6928h19.3058c.4329,0,.6933.1736.8658.6065l6.9264,17.8346c.4329,1.0388-.1736,1.8178-.779,1.9909-.8658.0868-1.2119.2598-1.2119.7796,0,.6059,1.0383.6059,2.5974.6928,6.9253.173,13.2452.173,16.3623.173.0814,0,.1602-.0002.2386-.0004.0082,0,.0158.0004.0241.0004,3.0292,0,7.8779-.2599,9.3502-.2599,1.1251,0,7.445.2599,11.8608.2599.9526,0,1.558-.2599,1.558-.7796,0-.3461-.3461-.779-.9526-.779-.9515,0-2.5974-.0868-3.7225-.2599-2.337-.3461-2.6842-1.7316-2.9435-3.8955-.3461-3.1171-.4329-8.831-.4329-15.6706v-1.0388c0-.4329.2593-.6059.6065-.6059l6.8396.173c.5186,0,.9515.0868,1.3844.5197.9526,1.1251,4.1565,6.06,7.1857,10.0424,4.2422,5.7145,7.1,9.1771,10.3896,10.8225,1.9909,1.0388,4.0697,1.4718,8.3119,1.4718h7.2713c.9526,0,1.4723-.173,1.4723-.7796,0-.3461-.3461-.779-.9526-.779-.6054,0-1.0383,0-1.8173-.173-1.213-.2599-3.8961-.6059-8.1383-4.8481-4.5894-4.5889-9.9567-11.2554-16.7095-19.5667,7.445-5.9732,10.5621-10.8219,10.5621-16.276,0-4.935-3.2028-8.658-5.3673-10.1297-4.0697-2.6836-9.6106-3.1165-14.4582-3.1165-2.3381,0-9.2645.1731-11.8619.1731-1.558,0-6.4067-.1731-10.3885-.1731-1.1262,0-1.7316.1731-1.7316.6928,0,.5191.5197.779,1.2987.779,1.1251,0,2.4238.0868,3.0303.2599,2.4238.6928,3.116,1.4717,3.2896,3.9823.0868,2.3375.0868,4.4152.0868,15.5838v12.9864c0,6.7528,0,12.5535-.3461,15.6706-.2604,2.1639-.6933,3.5494-2.2513,3.8955-.3752.0937-.8013.1618-1.2912.2049-.6926-.0516-1.4333-.1432-2.1742-.2911-1.8184-.4329-4.329-1.6454-7.6186-9.437-5.5409-13.1595-19.3937-47.7904-21.4714-52.5517-.8658-1.9914-1.3844-2.7704-2.1645-2.7704-.8658,0-1.3844.952-2.4238,3.4626l-21.7307,53.6774c-1.7316,4.329-3.3764,7.2725-7.3593,7.7922ZM596.4028,164.3357c0-.6059.1736-.8658.6922-1.0388.7801-.1731,2.5974-.2599,4.5026-.2599,4.5015,0,11.6015,2.6842,11.6015,13.0732,0,6.06-2.5974,9.2634-4.9355,10.9087-1.2987.952-2.337,1.2119-5.3673,1.2119-1.9052,0-4.1554-.173-5.8013-.6928-.5186-.2598-.6922-.5191-.6922-1.2987v-21.9037ZM538.7402,187.8848l7.9658-21.2115c.0857-.3461.2593-.779.5186-.779.2604,0,.3472.4329.4329.779l7.7922,21.2978c.0868.2599,0,.5197-.4329.5197h-15.9294c-.3472,0-.4329-.2598-.3472-.6059Z"/>
  <path class="cls-1" d="M683.5014,200.9575c-.6065,0-.779.3467-.9526,1.4718-.2593,1.3855-1.2987,3.4632-2.5974,4.935-3.0303,3.3764-6.7528,3.8961-13.5056,3.8961-10.216,0-23.7227-8.3113-23.7227-25.7998,0-7.1857,1.3855-14.2851,7.0132-19.1333,3.4632-2.9441,7.7054-4.156,14.3714-4.156,7.0132,0,12.1212,1.8184,14.7186,4.329,1.9041,1.9046,2.8567,4.502,2.9435,6.8396,0,.952.1725,1.558.779,1.558.6922,0,.9526-.779,1.0394-1.8178.0857-1.4717.0857-5.5409.2593-7.9652.1736-2.5968.3461-3.4626.3461-4.0691,0-.4323-.2593-.779-1.1251-.8652-2.2513-.2598-4.7619-.7796-7.6186-1.2125-3.4632-.4329-6.321-.779-11.0818-.779-11.3422,0-18.6147,2.9435-24.1556,7.7916-7.2725,6.4935-8.9173,15.1509-8.9173,20.1727,0,7.0989,1.992,15.4102,9.5238,21.7307,6.9264,5.8002,15.7569,7.9647,26.1465,7.9647,4.9344,0,10.7346-.4329,13.7649-1.6448,1.2987-.5197,1.6448-.8658,1.992-2.1645.779-2.5106,1.6448-8.9173,1.6448-9.7831,0-.6059-.3461-1.2987-.8658-1.2987Z"/>
  <path class="cls-1" d="M228.0195,237.8191c3.0555,0,3.3666,1.9679,3.4837,2.7087l.1209.7545h4.5943l-.072-.909c-.3773-4.7596-4.3881-6.4554-8.0159-6.4554-7.0766,0-9.598,5.8598-9.598,11.3437,0,1.5413.218,4.4911,1.678,6.93,1.5656,2.6153,4.1797,3.9977,7.5598,3.9977,2.001,0,3.8944-.5131,5.3314-1.4447,1.7363-1.1257,2.7694-2.8127,2.9874-4.8784l.0983-.9309h-4.6903l-.1231.6956c-.0658.3718-.1881,1.0626-.7519,1.673-.6083.625-1.4689.9288-2.6303.9288-1.7711,0-3.0165-.6803-3.8073-2.0796-.6654-1.1775-1.0027-2.8327-1.0027-4.9197,0-1.4123.1639-3.4264.9445-5.0008.8052-1.624,2.0786-2.4134,3.8932-2.4134Z"/>
  <path class="cls-1" d="M267.3731,240.0521c0-1.9966-.9512-3.741-2.6043-4.7824-1.6767-1.0745-3.9578-1.0745-5.0541-1.0745h-7.991v21.6897h4.4277v-9.0323h2.6489c1.4755,0,2.3258.1734,2.7571.5623.4003.3609.6272,1.0654.7833,2.4314l.0576.4575c.1968,1.5697.4664,3.7197.8944,5.0048l.1919.5763h4.7597l-.3922-1.1207c-.7326-2.0935-.9253-3.7312-1.1921-5.9978l-.0125-.1065c-.2051-1.8443-.7306-3.0078-1.7918-3.7588.2853-.1901.5729-.4215.8579-.7066,1.07-1.07,1.6594-2.5412,1.6594-4.1424ZM261.8466,242.4789l-.0121.007c-.2659.1574-.9843.3256-2.2032.3256h-3.535v-4.6046h3.535c1.8891,0,3.1472.4081,3.1472,2.3998,0,1.2105-.6517,1.7125-.9319,1.8721Z"/>
  <polygon class="cls-1" points="298.0155 238.2352 298.0155 234.1952 283.7787 234.1952 283.7787 255.8849 298.2364 255.8849 298.2364 251.7615 288.2346 251.7615 288.2346 246.7962 297.5442 246.7962 297.5442 242.7844 288.2346 242.7844 288.2346 238.2352 298.0155 238.2352"/>
  <path class="cls-1" d="M321.5259,234.1952h-6.6336v21.6897h6.4668c3.0599,0,5.7029-.0001,7.903-1.8243.6907-.554,1.6764-1.5632,2.4633-3.2307.7772-1.647,1.1713-3.5391,1.1713-5.6236,0-3.2621-.9223-6.067-2.6664-8.1105-2.4687-2.9006-5.9262-2.9006-8.7043-2.9006ZM325.9525,250.9875c-1.1576.8682-3.0496.9409-4.7322.9409h-1.8722v-13.7485h2.4821c2.4883,0,3.7168.384,4.6958,1.4685.404.4455,1.7218,2.1709,1.7218,5.6683,0,2.621-.7722,4.5289-2.2954,5.6707Z"/>
  <rect class="cls-1" x="348.7486" y="234.1952" width="4.4559" height="21.6897"/>
  <polygon class="cls-1" points="379.5799 255.8849 379.5799 238.2352 386.2854 238.2352 386.2854 234.1952 368.4467 234.1952 368.4467 238.2352 375.1521 238.2352 375.1521 255.8849 379.5799 255.8849"/>
  <path class="cls-1" d="M431.8489,256.3009c1.737,0,4.971-.4012,7.1124-3.0851,1.8211-2.2604,1.8211-4.7747,1.8211-5.8484v-13.1723h-4.3725v13.117c0,2.3919-.5419,4.8371-4.5609,4.8371-1.771,0-3.0804-.5461-3.8919-1.6229-.2387-.3339-.7231-1.028-.7231-3.1037v-13.2275h-4.4559v13.0336c0,2.9996.5245,4.3762,1.315,5.5247,2.2344,3.2018,6.1683,3.5474,7.7559,3.5474Z"/>
  <polygon class="cls-1" points="463.4134 234.1952 458.2407 234.1952 458.2407 255.8849 462.4476 255.8849 462.4476 241.1051 471.2963 255.8849 476.1628 255.8849 476.1628 234.1952 471.9291 234.1952 471.9291 248.5144 463.4134 234.1952"/>
  <rect class="cls-1" x="493.4545" y="234.1952" width="4.4559" height="21.6897"/>
  <path class="cls-1" d="M524.3024,233.6688c-2.0791,0-5.0322.513-7.295,2.9573-1.8331,1.9722-2.8019,4.9293-2.8019,8.5521,0,3.2232.7152,5.8229,2.1259,7.7268,1.6966,2.29,4.3041,3.4512,7.75,3.4512,3.5552,0,6.2413-1.2426,7.9839-3.6934,1.3823-1.944,2.1129-4.6471,2.1129-7.8172,0-3.5394-.8934-6.3241-2.6554-8.277-1.7118-1.8971-4.2086-2.8999-7.2204-2.8999ZM527.9492,250.7921c-.852,1.0113-2.1257,1.5241-3.7855,1.5241-1.6975,0-2.9679-.5095-3.7763-1.5142l-.0006-.0007c-1.0528-1.3056-1.5866-3.2532-1.5866-5.7888,0-2.2114.389-3.9534,1.1563-5.1778.9083-1.4495,2.3391-2.1541,4.3741-2.1541,1.8714,0,3.1947.6244,4.0456,1.9089.7825,1.1812,1.1793,2.9405,1.1793,5.2291,0,1.4975-.2088,4.2637-1.6062,5.9736Z"/>
  <polygon class="cls-1" points="564.2991 248.5144 555.7834 234.1952 550.6108 234.1952 550.6108 255.8849 554.8176 255.8849 554.8176 241.1051 563.6663 255.8849 568.5329 255.8849 568.5329 234.1952 564.2991 234.1952 564.2991 248.5144"/>
</svg>