<?xml version="1.0" encoding="UTF-8"?><svg id="a" xmlns="http://www.w3.org/2000/svg" viewBox="0 0 69.59 22.83"><path d="M68.09.26c-.92-.38-1.95-.18-2.64.52l-7.11,7.13-7.11-7.13c-.69-.7-1.72-.9-2.64-.52-.92.38-1.5,1.26-1.5,2.24v17.69c0,1.32,1.08,2.42,2.42,2.42h17.67c1.32,0,2.42-1.08,2.42-2.42V2.5c0-.99-.58-1.86-1.5-2.24Z" fill="#221f32"/><path d="M20.56,0h-8.9c-1.34,0-2.42,1.1-2.42,2.45v6.43H2.42c-.96,0-1.84.58-2.22,1.48-.14.31-.2.65-.2,1.03.09,6.3,5.25,11.41,11.48,11.41v.02h.18c6.25,0,11.32-5.13,11.32-11.41V2.45C22.98,1.1,21.88,0,20.56,0Z" fill="#221f32"/><path d="M41.47,11.26l4.37-7.6c.43-.76.43-1.7,0-2.45-.45-.74-1.23-1.21-2.11-1.21h-17.37c-.87,0-1.68.47-2.11,1.21-.43.76-.43,1.68,0,2.45l4.37,7.6-4.37,7.6c-.43.76-.45,1.7,0,2.45s1.23,1.21,2.11,1.21h17.37c1.1,0,2.06-.74,2.35-1.8.16-.6.07-1.3-.27-1.88l-4.35-7.58Z" fill="#221f32"/></svg>