<?xml version="1.0" encoding="UTF-8"?><svg id="a" xmlns="http://www.w3.org/2000/svg" viewBox="0 0 1219.53 201.44"><path d="M1137.79,121.44c-16.6,0-30.07,13.47-30.07,30.07s13.47,30.07,30.07,30.07,30.07-13.47,30.07-30.07-13.47-30.07-30.07-30.07ZM1137.79,179.36c-15.38,0-27.86-12.47-27.86-27.86s12.47-27.86,27.86-27.86,27.86,12.47,27.86,27.86-12.47,27.86-27.86,27.86Z"/><path d="M1136.69,125.74c-.98.03-1.95.14-2.95.29-14.06,2.23-23.66,15.44-21.43,29.52,1.97,12.45,12.57,21.41,24.74,21.74l-.36-51.55h0ZM1130.94,168.57l-.22.03-2.09.33-.31.05v-.31l-.45-26.61-2.67.41.45,2.76.03.26-.26.03-1.97.31-.26.05-.03-.27-.81-5.05-.05-.26.27-.05,7.55-1.2.29-.05v.31s.51,29.02.51,29.02v.24h0Z"/><path d="M1154.44,164.61l-.5-29.02v-.31l-.31.05-7.55,1.2-.26.03.03.26.81,5.07.03.26.26-.03,1.95-.31.26-.03-.03-.26-.43-2.74,2.67-.43.45,26.62v.31l.31-.05,2.09-.33.22-.03v-.24h0v-.02ZM1142.55,137.35l-.05-.36-.33.15-3.53,1.7.34,2.12,1.44-.5,4.06,25.68.03.26.26-.03,2.04-.33.26-.03-.03-.26-4.49-28.39h0v-.02Z"/><path id="b" d="M1129.74,191.75c-.5.17-1.06.31-1.49.38-.65.1-.87-.17-.94-.69l-.33-2.02c-.09-.51.03-.84.69-.94.43-.07,1.01-.1,1.54-.1v-1.18c-.6-.03-1.13,0-1.73.09-1.47.24-2.02,1.06-1.85,2.14l.39,2.45c.17,1.06.94,1.7,2.43,1.46.58-.09,1.11-.24,1.68-.45l-.36-1.13h-.03ZM1136.16,192.02l1.58-.26-1.73-1.78c.55-.34.74-.87.62-1.61l-.12-.72c-.17-1.1-.79-1.58-2.23-1.35l-2.43.39.93,5.88,1.32-.21-.29-1.82.77-.12,1.58,1.63h0v-.03h.02ZM1133.61,189.36l-.27-1.73,1.05-.17c.53-.09.74.07.81.51l.07.46c.07.45-.03.67-.6.75l-1.05.17h0ZM1143.89,190.79l-.19-1.16-2.36.38-.21-1.28,2.19-.34-.19-1.16-2.19.34-.17-1.08,2.36-.38-.19-1.16-3.7.58.93,5.88,3.7-.58h.02v-.02ZM1150.69,188.15l-.45-2.83c-.12-.79-.79-1.44-2.23-1.22l-2.28.36.93,5.88,2.28-.36c1.44-.22,1.87-1.06,1.75-1.83h0ZM1147.8,188.97l-.57-3.53.79-.12c.67-.1.86.12.93.58l.33,2.09c.07.46-.05.74-.7.84l-.79.12h.02v.02ZM1152.81,183.35l.93,5.88,1.32-.21-.93-5.88-1.32.21ZM1158.38,183.68l.74,4.69,1.32-.21-.74-4.69,1.58-.26-.19-1.16-4.47.7.19,1.16,1.58-.26h0v.02ZM1133.11,195.07l-1.32.21.63,4.04c.07.48-.1.79-.77.89s-.93-.14-1.01-.6l-.63-4.04-1.32.21.65,4.16c.14.89.84,1.71,2.5,1.46,1.66-.26,2.07-1.25,1.92-2.14l-.67-4.16h0l.02-.02ZM1139.54,194.04l.63,4.04-2.57-3.73-1.63.26.93,5.88,1.27-.21-.62-3.85,2.54,3.56,1.63-.26-.93-5.88-1.27.21h.02v-.02ZM1143.75,193.37l.93,5.88,1.32-.21-.93-5.88-1.32.21ZM1152.71,193.72c-.14-.89-.91-1.7-2.55-1.44-1.66.26-2.12,1.27-1.99,2.16l.39,2.45c.14.89.91,1.7,2.55,1.44,1.66-.26,2.12-1.27,1.99-2.16l-.39-2.45ZM1150.91,197.14c-.67.1-.99-.14-1.06-.58l-.36-2.23c-.07-.46.17-.79.84-.89s.99.14,1.06.58l.36,2.23c.07.46-.17.79-.84.89ZM1158.76,190.99l.63,4.04-2.57-3.73-1.63.26.93,5.88,1.27-.21-.62-3.85,2.54,3.56,1.63-.26-.93-5.88-1.27.21h.02v-.02Z"/><path d="M1062.22,34.59c.5-1.39.6-2.99.6-4.41,0-1.24-.07-2.44-.07-3.51v-4.6c0-3.78,0-4.48.05-5.28.05-.87.25-1.29.92-1.42.3-.05.45-.07.72-.07.3,0,.45-.05.45-.22s-.17-.22-.52-.22c-.97,0-2.54.07-3.14.07-.65,0-2.21-.07-3.53-.07-.37,0-.55.05-.55.22s.15.22.42.22c.35,0,.77.02.97.07.82.17,1.02.57,1.07,1.42.05.8.05,1.49.05,5.28v7.14c0,4.88.02,7.37-1.87,9.28-.5.5-.87.77-1.19.95-.42.22-.55.32-.55.45s.1.2.2.2c.12,0,.32-.05.5-.15.52-.25.92-.45,1.24-.65,2.39-1.47,3.71-3.19,4.23-4.7h0Z"/><path d="M1065.43,18.08c.32,0,.7.02.87.07.7.2.9.42.95,1.14.02.67.02,1.27.02,4.48v3.73c0,1.94,0,3.61-.1,4.5-.07.62-.2,1.02-.65,1.12-.2.05-.45.07-.77.07-.27,0-.35.12-.35.22,0,.15.15.22.42.22.45,0,1-.02,1.52-.05.52,0,1-.02,1.24-.02.65,0,1.47.02,2.54.05,1.07.05,2.39.07,4.03.07.39,0,.63,0,.81-.06.9-.02,1.7-.07,1.88-.07.7,0,1.72.07,2.44.07.22,0,.35-.05.35-.22,0-.12-.05-.22-.32-.22h-.32c-.67,0-.87-.22-.87-.6,0-.25.1-.77.32-1.29l1.17-2.86c.05-.12.07-.15.2-.15h5.15c.1,0,.17.02.22.15l1.69,4.28c.1.25-.05.45-.2.47-.22.02-.27.1-.27.22,0,.15.25.15.65.17,1.49.04,2.82.05,3.68.05.02,0,.04,0,.06,0,.03,0,.05,0,.08,0,.15,0,.28,0,.39,0,.28,0,.48,0,.62-.02.64-.02,1.14-.05,1.27-.05.4,0,1.42.07,2.84.07.3,0,.5-.05.5-.22,0-.12-.12-.22-.37-.22-.35,0-.77-.02-1.14-.15-.42-.15-.7-.65-.75-2.29l-.25-8.64h.07c.42.37,2.74,2.94,5.13,5.23,2.29,2.21,5.03,4.83,6.4,6.1.22.22.52.45.9.45.17,0,.35-.2.35-.67l.25-13.34c.02-1.19.2-1.57.8-1.74.27-.07.45-.07.67-.07.25,0,.37-.1.37-.22,0-.17-.2-.2-.5-.2-1.07,0-1.89.05-2.14.05-.47,0-1.64-.05-2.79-.05-.32,0-.55.02-.55.2,0,.12.07.22.35.22.3,0,.82,0,1.14.12.52.2.72.57.75,1.87l.22,9.41h-.1c-.32-.3-3.24-3.29-4.73-4.75-3.19-3.11-6.47-6.47-6.74-6.74-.37-.37-.67-.7-.95-.7-.22,0-.37.3-.37.72l-.2,12.54c-.02,1.84-.1,2.41-.67,2.56-.1.02-.2.04-.32.06-.07,0-.15-.02-.23-.03-.4-.07-1.02-.35-1.87-2.26-1.39-3.21-5.05-11.77-5.57-12.94-.22-.47-.32-.67-.65-.67-.22,0-.4.25-.65.85l-5.72,13.21c-.35.84-.66,1.42-1.26,1.7.12-.54.26-1.77.26-2.2,0-.22-.02-.5-.2-.5-.15,0-.2.1-.25.32-.15.87-.4,1.32-.95,1.57-.57.25-1.49.27-2.07.27-2.24,0-2.91-.32-2.96-1.77-.02-.62,0-2.41,0-3.14v-1.69c0-.12.02-.22.12-.22.55,0,3.04.05,3.43.1.82.07,1.1.4,1.22.82.05.27.05.55.07.77,0,.1.05.17.2.17.2,0,.22-.3.22-.47,0-.15.05-1,.1-1.42.12-1.07.17-1.42.17-1.54s-.07-.22-.17-.22-.17.12-.35.27c-.22.2-.52.27-1.05.32-.5.05-3.33.05-3.83.05-.12,0-.15-.1-.15-.22v-5.23c0-.12.05-.2.15-.2.45,0,3.06.05,3.43.1,1.1.1,1.27.4,1.44.77.12.25.15.62.15.77,0,.17.02.27.17.27.17,0,.22-.25.25-.35.05-.25.1-1.17.12-1.39.05-.97.17-1.22.17-1.37,0-.1-.02-.2-.15-.2-.1,0-.22.07-.35.1-.17.02-.52.1-.92.12-.42.02-5.28,0-5.97,0-.62,0-2.02-.05-3.16-.05-.32,0-.5.05-.5.2s.15.22.37.22h0ZM1081.18,26.99l2.12-5.28c.02-.07.05-.2.12-.2.05,0,.07.12.1.2l2.07,5.3c.02.07,0,.12-.1.12h-4.23c-.07,0-.12-.05-.07-.15h0Z"/><path d="M1110.97,33.66c1.12,0,2.17-.07,2.36-.07.4,0,1.42.07,2.84.07.3,0,.5-.05.5-.22,0-.12-.12-.22-.37-.22-.35,0-.77-.02-1.14-.15-.42-.15-.7-.65-.75-2.29l-.25-8.64h.07c.42.37,2.74,2.94,5.13,5.23,2.29,2.21,5.03,4.83,6.4,6.1.22.22.52.45.9.45.17,0,.35-.2.35-.67l.25-13.34c.02-1.19.2-1.57.8-1.74.27-.07.45-.07.67-.07.25,0,.37-.1.37-.22,0-.17-.2-.2-.5-.2-1.07,0-1.89.05-2.14.05-.47,0-1.64-.05-2.79-.05-.32,0-.55.02-.55.2,0,.12.07.22.35.22.3,0,.82,0,1.14.12.52.2.72.57.75,1.87l.22,9.41h-.1c-.32-.3-3.24-3.29-4.73-4.75-3.19-3.11-6.47-6.47-6.74-6.74-.37-.37-.67-.7-.95-.7-.22,0-.37.3-.37.72l-.2,12.54c-.02,1.84-.1,2.41-.67,2.56-.3.07-.7.1-1,.1-.2,0-.35.1-.35.22,0,.2.2.22.5.22h0Z"/><path d="M1130.39,18.08c.32,0,.7.02.87.07.7.2.9.42.95,1.14.02.67.02,1.27.02,4.48v3.73c0,1.94,0,3.61-.1,4.5-.07.62-.2,1.02-.65,1.12-.2.05-.45.07-.77.07-.27,0-.35.12-.35.22,0,.15.15.22.42.22.45,0,1-.02,1.52-.05.52,0,1-.02,1.24-.02.65,0,1.47.02,2.54.05,1.07.05,2.39.07,4.03.07.82,0,1.02,0,1.17-.55.12-.42.3-1.87.3-2.34,0-.22-.02-.5-.2-.5-.15,0-.2.1-.25.32-.15.87-.4,1.32-.95,1.57-.57.25-1.49.27-2.07.27-2.24,0-2.91-.32-2.96-1.77-.02-.62,0-2.41,0-3.14v-1.69c0-.12.02-.22.12-.22.55,0,3.04.05,3.43.1.82.07,1.1.4,1.22.82.05.27.05.55.07.77,0,.1.05.17.2.17.2,0,.22-.3.22-.47,0-.15.05-1,.1-1.42.12-1.07.17-1.42.17-1.54s-.07-.22-.17-.22-.17.12-.35.27c-.22.2-.52.27-1.05.32-.5.05-3.33.05-3.83.05-.12,0-.15-.1-.15-.22v-5.23c0-.12.05-.2.15-.2.45,0,3.06.05,3.43.1,1.1.1,1.27.4,1.44.77.12.25.15.62.15.77,0,.17.02.27.17.27.17,0,.22-.25.25-.35.05-.25.1-1.17.12-1.39.05-.97.17-1.22.17-1.37,0-.1-.02-.2-.15-.2-.1,0-.22.07-.35.1-.17.02-.52.1-.92.12-.42.02-5.28,0-5.97,0-.62,0-2.02-.05-3.16-.05-.32,0-.5.05-.5.2s.15.22.37.22h0Z"/><path d="M1148.95,15.3c.35,0,.77.02.97.07.82.17,1.02.57,1.07,1.42.05.8.05,1.49.05,5.28v4.38c0,2.29,0,4.26-.12,5.3-.1.72-.22,1.27-.72,1.37-.22.05-.52.1-.9.1-.3,0-.4.07-.4.2,0,.17.17.25.5.25.5,0,1.14-.05,1.72-.05.6-.02,1.14-.02,1.42-.02.62,0,1.49.07,2.44.15.95.07,1.97.15,2.86.15,4.6,0,7.19-1.77,8.34-2.94,1.39-1.42,2.71-3.81,2.71-6.94,0-2.96-1.17-5.03-2.41-6.32-2.71-2.84-6.87-2.84-9.98-2.84-1.49,0-3.06.07-3.83.07-.7,0-2.26-.07-3.58-.07-.37,0-.55.05-.55.22s.15.22.42.22h0ZM1154.15,21.67c0-1.97,0-4.13.02-4.98,0-.27.07-.4.3-.5.2-.1,1.12-.17,1.62-.17,1.94,0,4.78.3,7.07,2.49,1.07,1.02,2.39,3.06,2.39,6.22,0,2.56-.5,4.83-2.09,6.2-1.49,1.29-3.19,1.79-5.72,1.79-1.97,0-2.94-.52-3.26-1-.2-.27-.25-1.27-.27-1.89-.02-.47-.05-2.39-.05-5.03v-3.14h0Z"/><path d="M1169.73,19.9c.15,0,.25-.05.4-.2,1.12-1.14,2.74-3.81,2.74-5.33,0-.37-.1-.55-.72-.72-.47-.15-1.57-.47-2.07-.47-.12,0-.27.12-.27.2,0,.12.02.2.27.45.22.22.6.9.6,1.72,0,1.54-.52,3.01-.97,3.88-.1.2-.12.27-.12.32,0,.1.07.15.15.15h0Z"/><path d="M1171.67,33.17c-.2.02-.55.05-.77.05-.2,0-.3.05-.3.2,0,.2.15.25.47.25,1.29,0,2.66-.07,2.94-.07.77,0,1.84.07,2.64.07.27,0,.42-.05.42-.25,0-.15-.07-.2-.37-.2h-.37c-.77,0-1-.32-1-.77,0-.3.12-.9.37-1.52l1.34-3.41c.05-.15.1-.2.22-.2h5.55c.12,0,.2.05.25.17l1.99,5.13c.12.3-.05.52-.22.57-.25.02-.35.07-.35.22,0,.17.3.17.75.2,1.99.05,3.81.05,4.7.05.02,0,.05,0,.07,0,0,0,0,0,0,0,.87,0,2.26-.07,2.69-.07.32,0,2.14.07,3.41.07.27,0,.45-.07.45-.22,0-.1-.1-.22-.27-.22-.27,0-.75-.02-1.07-.07-.67-.1-.77-.5-.85-1.12-.1-.9-.12-2.54-.12-4.5v-.3c0-.12.07-.17.17-.17l1.97.05c.15,0,.27.02.4.15.27.32,1.19,1.74,2.07,2.89,1.22,1.64,2.04,2.64,2.99,3.11.57.3,1.17.42,2.39.42h2.09c.27,0,.42-.05.42-.22,0-.1-.1-.22-.27-.22s-.3,0-.52-.05c-.35-.07-1.12-.17-2.34-1.39-1.32-1.32-2.86-3.24-4.8-5.62,2.14-1.72,3.04-3.11,3.04-4.68,0-1.42-.92-2.49-1.54-2.91-1.17-.77-2.76-.9-4.16-.9-.67,0-2.66.05-3.41.05-.45,0-1.84-.05-2.99-.05-.32,0-.5.05-.5.2s.15.22.37.22c.32,0,.7.02.87.07.7.2.9.42.95,1.14.02.67.02,1.27.02,4.48v3.73c0,1.94,0,3.61-.1,4.5-.07.62-.2,1.02-.65,1.12-.11.03-.23.05-.37.06-.2-.01-.41-.04-.62-.08-.52-.12-1.24-.47-2.19-2.71-1.59-3.78-5.57-13.74-6.17-15.11-.25-.57-.4-.8-.62-.8-.25,0-.4.27-.7,1l-6.25,15.43c-.5,1.24-.97,2.09-2.12,2.24h0ZM1194.25,19.13c0-.17.05-.25.2-.3.22-.05.75-.07,1.29-.07,1.29,0,3.33.77,3.33,3.76,0,1.74-.75,2.66-1.42,3.14-.37.27-.67.35-1.54.35-.55,0-1.19-.05-1.67-.2-.15-.07-.2-.15-.2-.37v-6.3h0ZM1177.67,25.9l2.29-6.1c.02-.1.07-.22.15-.22s.1.12.12.22l2.24,6.12c.02.07,0,.15-.12.15h-4.58c-.1,0-.12-.07-.1-.17h0Z"/><path d="M1219.29,29.66c-.17,0-.22.1-.27.42-.07.4-.37,1-.75,1.42-.87.97-1.94,1.12-3.88,1.12-2.94,0-6.82-2.39-6.82-7.42,0-2.07.4-4.11,2.02-5.5,1-.85,2.21-1.19,4.13-1.19,2.02,0,3.48.52,4.23,1.24.55.55.82,1.29.85,1.97,0,.27.05.45.22.45.2,0,.27-.22.3-.52.02-.42.02-1.59.07-2.29.05-.75.1-1,.1-1.17,0-.12-.07-.22-.32-.25-.65-.07-1.37-.22-2.19-.35-1-.12-1.82-.22-3.19-.22-3.26,0-5.35.85-6.94,2.24-2.09,1.87-2.56,4.36-2.56,5.8,0,2.04.57,4.43,2.74,6.25,1.99,1.67,4.53,2.29,7.52,2.29,1.42,0,3.09-.12,3.96-.47.37-.15.47-.25.57-.62.22-.72.47-2.56.47-2.81,0-.17-.1-.37-.25-.37h0Z"/><path d="M1088.35,40.25c.88,0,.97.57,1,.78l.03.22h1.32l-.02-.26c-.11-1.37-1.26-1.86-2.3-1.86-2.03,0-2.76,1.68-2.76,3.26,0,.44.06,1.29.48,1.99.45.75,1.2,1.15,2.17,1.15.58,0,1.12-.15,1.53-.42.5-.32.8-.81.86-1.4l.03-.27h-1.35l-.04.2c-.02.11-.05.31-.22.48-.17.18-.42.27-.76.27-.51,0-.87-.2-1.09-.6-.19-.34-.29-.81-.29-1.41,0-.41.05-.98.27-1.44.23-.47.6-.69,1.12-.69h0Z"/><path d="M1099.67,40.9c0-.57-.27-1.08-.75-1.37-.48-.31-1.14-.31-1.45-.31h-2.3v6.23h1.27v-2.6h.76c.42,0,.67.05.79.16.12.1.18.31.23.7l.02.13c.06.45.13,1.07.26,1.44l.06.17h1.37l-.11-.32c-.21-.6-.27-1.07-.34-1.72v-.03c-.06-.53-.21-.86-.52-1.08.08-.05.16-.12.25-.2.31-.31.48-.73.48-1.19h0ZM1098.08,41.59h0c-.08.05-.28.1-.63.1h-1.02v-1.32h1.02c.54,0,.9.12.9.69,0,.35-.19.49-.27.54h0Z"/><polygon points="1108.47 40.37 1108.47 39.21 1104.38 39.21 1104.38 45.45 1108.54 45.45 1108.54 44.26 1105.66 44.26 1105.66 42.83 1108.34 42.83 1108.34 41.68 1105.66 41.68 1105.66 40.37 1108.47 40.37"/><path d="M1115.23,39.21h-1.91v6.23h1.86c.88,0,1.64,0,2.27-.52.2-.16.48-.45.71-.93.22-.47.34-1.02.34-1.62,0-.94-.27-1.74-.77-2.33-.71-.83-1.7-.83-2.5-.83h0ZM1116.51,44.04c-.33.25-.88.27-1.36.27h-.54v-3.95h.71c.72,0,1.07.11,1.35.42.12.13.49.62.49,1.63,0,.75-.22,1.3-.66,1.63h0Z"/><rect x="1123.06" y="39.21" width="1.28" height="6.23"/><polygon points="1131.92 45.45 1131.92 40.37 1133.85 40.37 1133.85 39.21 1128.72 39.21 1128.72 40.37 1130.65 40.37 1130.65 45.45 1131.92 45.45"/><path d="M1146.95,45.57c.5,0,1.43-.12,2.04-.89.52-.65.52-1.37.52-1.68v-3.79h-1.26v3.77c0,.69-.16,1.39-1.31,1.39-.51,0-.89-.16-1.12-.47-.07-.1-.21-.3-.21-.89v-3.8h-1.28v3.75c0,.86.15,1.26.38,1.59.64.92,1.77,1.02,2.23,1.02h0Z"/><polygon points="1156.02 39.21 1154.53 39.21 1154.53 45.45 1155.74 45.45 1155.74 41.2 1158.29 45.45 1159.68 45.45 1159.68 39.21 1158.47 39.21 1158.47 43.33 1156.02 39.21"/><rect x="1164.65" y="39.21" width="1.28" height="6.23"/><path d="M1173.52,39.06c-.6,0-1.45.15-2.1.85-.53.57-.81,1.42-.81,2.46,0,.93.21,1.67.61,2.22.49.66,1.24.99,2.23.99s1.79-.36,2.3-1.06c.4-.56.61-1.34.61-2.25,0-1.02-.26-1.82-.76-2.38-.49-.55-1.21-.83-2.08-.83h0ZM1174.57,43.98c-.24.29-.61.44-1.09.44s-.85-.15-1.09-.44h0c-.3-.38-.46-.94-.46-1.66,0-.64.11-1.14.33-1.49.26-.42.67-.62,1.26-.62.54,0,.92.18,1.16.55.22.34.34.85.34,1.5,0,.43-.06,1.23-.46,1.72h0Z"/><polygon points="1185.02 43.33 1182.57 39.21 1181.08 39.21 1181.08 45.45 1182.29 45.45 1182.29 41.2 1184.84 45.45 1186.24 45.45 1186.24 39.21 1185.02 39.21 1185.02 43.33"/><path d="M47.13,2.58v11.3h-.08c-1.68-2.4-5.08-3.57-8.36-3.57-6.64,0-11.97,4.24-11.97,11.64s5.33,11.63,11.97,11.63c3.23,0,6.72-1.26,8.36-3.57h.08v2.81h4.2V2.58h-4.2ZM39.23,30.05c-5.67,0-8.07-3.95-8.07-8.11,0-5.04,3.19-8.11,8.07-8.11s8.15,3.07,8.15,8.11c0,4.16-2.44,8.11-8.15,8.11ZM22.01,28.16v-11.85c0-5.12-5.63-6.26-10.12-6.26-6.59,0-10.37,2.14-10.92,7.65h3.95c.13-3.4,3.19-4.37,6.8-4.37,3.4,0,6.34.59,6.34,3.61,0,1.97-1.47,2.39-3.82,2.65l-4.79.5c-7.06.76-9.45,2.81-9.45,6.85,0,2.86,1.64,6.64,8.95,6.64,3.57,0,7.69-1.3,9.37-3.57.29,2.48,1.68,3.06,3.78,3.06.49,0,1.04-.02,1.59-.06v-2.98c-1.14-.07-1.67-.65-1.67-1.88h0ZM18.06,24.13c0,3.65-3.99,6.17-8.74,6.17-3.07,0-5.13-1.43-5.13-3.49,0-2.31,1.72-3.19,5-3.61l4.75-.59c2.35-.29,3.49-.59,4.12-1.3v2.81h0Z"/><path d="M82.24,7.2h4.2V2.58h-4.2v4.62h0ZM82.24,32.82h4.2V10.81h-4.2v22.01h0ZM113.4,28.16v-11.85c0-5.12-5.63-6.26-10.12-6.26-6.59,0-10.37,2.14-10.92,7.65h3.95c.13-3.4,3.19-4.37,6.8-4.37,3.4,0,6.34.59,6.34,3.61,0,1.97-1.47,2.39-3.82,2.65l-4.79.5c-7.06.76-9.45,2.81-9.45,6.85,0,2.86,1.64,6.64,8.95,6.64,3.57,0,7.69-1.3,9.37-3.57.3,2.48,1.68,3.06,3.78,3.06.49,0,1.04-.02,1.59-.06v-2.98c-1.15-.07-1.67-.65-1.67-1.88h0ZM109.46,24.13c0,3.65-3.99,6.17-8.74,6.17-3.07,0-5.12-1.43-5.12-3.49,0-2.31,1.72-3.19,5-3.61l4.75-.59c2.35-.29,3.49-.59,4.12-1.3v2.81h0ZM73.26,13.34l-6.36,14.87-7.56-17.39h-4.83l10,22.01h4.62l9.91-22.01h-1.92c-1.72,0-3.2,1.04-3.86,2.52h0Z"/><path d="M19.99,47.59c-1.72,0-2.48-1.13-2.48-2.63s.76-2.63,2.48-2.63c1.25,0,1.97.55,2.13,1.46h1.42c-.28-1.74-1.77-2.59-3.65-2.59-2.54,0-3.81,1.72-3.81,3.8,0,1.82,1.03,3.71,3.82,3.71,1.82,0,3.1-.71,3.66-2.82h-1.42c-.29,1.17-.95,1.69-2.16,1.69h0ZM26.35,42.73h-.03v-1.29h-1.34v7.03h1.34v-3.57c0-1.53.93-2.31,2.25-2.31.36,0,.62.06.95.14v-1.45c-.26-.07-.43-.08-.76-.08-.89,0-1.78.41-2.42,1.53h0ZM34.35,41.2c-2.74,0-4.08,1.73-4.08,3.76s1.34,3.76,4.08,3.76c1.38,0,2.95-.68,3.62-2.37h-1.42c-.46.99-1.5,1.25-2.27,1.25-1.19,0-2.48-.78-2.59-2.23h6.47v-.18c0-2.91-1.96-3.98-3.81-3.98h0ZM31.73,44.31c.2-1.26,1.31-1.99,2.55-1.99s2.25.71,2.45,1.99h-5,0ZM45.87,42.42h-.03c-.54-.77-1.62-1.14-2.67-1.14-2.12,0-3.82,1.35-3.82,3.72s1.7,3.71,3.82,3.71c1.03,0,2.15-.4,2.67-1.14h.03v.9h1.34v-9.66h-1.34v3.61h0ZM43.35,47.59c-1.81,0-2.58-1.26-2.58-2.59,0-1.61,1.02-2.59,2.58-2.59s2.6.98,2.6,2.59c0,1.33-.78,2.59-2.6,2.59h0ZM48.99,40.29h1.34v-1.48h-1.34v1.48ZM48.99,48.47h1.34v-7.03h-1.34v7.03ZM54.03,39.28h-1.34v2.16h-1.45v1.05h1.45v4.56c0,1.02.54,1.66,1.85,1.66.55,0,1.05-.01,1.5-.09v-1.13c-.31.06-.62.1-.93.1-.68,0-1.09-.2-1.09-.76v-4.33h2.01v-1.05h-2.01v-2.16h0ZM67.54,45.5c0,1.38-1.09,2.09-2.31,2.09-1.43,0-2.08-.59-2.08-1.62v-4.52h-1.34v4.79c0,1.76,1.26,2.48,2.95,2.48,1.01,0,2.12-.32,2.75-1.3h.03v1.06h1.34v-7.03h-1.34v4.05ZM74.77,41.2c-1.01,0-2.12.32-2.75,1.3h-.03v-1.06h-1.34v7.03h1.34v-4.05c0-1.38,1.09-2.09,2.31-2.09,1.44,0,2.08.59,2.08,1.62v4.52h1.34v-4.79c0-1.76-1.26-2.48-2.95-2.48h0ZM79.5,48.47h1.34v-7.03h-1.34v7.03ZM79.5,40.29h1.34v-1.48h-1.34v1.48ZM86.38,41.2c-2.74,0-4.08,1.73-4.08,3.76s1.34,3.76,4.08,3.76,4.08-1.73,4.08-3.76-1.34-3.76-4.08-3.76ZM86.38,47.59c-1.95,0-2.66-1.36-2.66-2.63s.71-2.63,2.66-2.63,2.66,1.35,2.66,2.63-.71,2.63-2.66,2.63ZM96.04,41.2c-1.01,0-2.12.32-2.75,1.3h-.03v-1.06h-1.34v7.03h1.34v-4.05c0-1.38,1.09-2.09,2.31-2.09,1.44,0,2.08.59,2.08,1.62v4.52h1.34v-4.79c0-1.76-1.26-2.48-2.95-2.48h0Z"/><path d="M73.33,132.33h8.25c.77,5.62,1.54,11.23,2.4,17.54,2.43-6.29,4.6-11.91,6.77-17.54,4.18,0,13.96.07,13.96.07l-.82,2.92s-8.22,24.71-12.31,37.03h-14.37c-.83-3.26-1.65-6.44-2.58-10.06l-5.47,10.09h-14.23c-.51-3.67-1.01-7.28-1.65-11.91l-2.06,11.94h-14.46l-9.41-14.33-2.6,14.32h-14.4v-.31l7.03-39.76h11.62l11.83,18.44c1.12-6.55,2.13-12.5,3.15-18.44h19.87c.74,5.6,1.48,11.2,2.32,17.56l7.16-17.56h0Z"/><path d="M10.35,175.24h3.17l4.5,6.54h.03v-6.54h2.33v9.4h-3.05l-4.62-6.69h-.03v6.69h-2.33v-9.4h0Z"/><path d="M21.98,179.94c-.01-.7.14-1.4.43-2.05.28-.6.68-1.13,1.19-1.56.53-.44,1.15-.78,1.81-.99,1.49-.46,3.09-.46,4.58,0,.66.21,1.28.55,1.81.99.51.43.91.96,1.19,1.56.57,1.3.57,2.79,0,4.09-.28.6-.68,1.13-1.19,1.56-.53.44-1.15.78-1.81.99-1.49.46-3.09.46-4.58,0-.66-.21-1.28-.55-1.81-.99-.51-.43-.91-.96-1.19-1.56-.29-.64-.44-1.34-.43-2.05ZM24.4,179.94c0,.42.07.83.23,1.22.15.36.38.69.67.96.3.28.65.49,1.04.63.88.3,1.83.3,2.71,0,.39-.14.74-.35,1.04-.63.29-.27.51-.59.67-.96.31-.78.31-1.65,0-2.42-.15-.37-.38-.69-.67-.96-.3-.28-.65-.49-1.04-.63-.88-.3-1.83-.3-2.71,0-.38.14-.74.35-1.04.63-.29.27-.52.6-.67.96-.16.38-.24.79-.23,1.21Z"/><path d="M34.99,175.24h4.1c.51,0,1.03.04,1.53.14.45.08.88.24,1.27.46.36.21.66.51.87.88.23.42.34.9.32,1.37.02.62-.19,1.22-.58,1.69-.44.49-1.05.81-1.71.88l2.69,3.97h-2.8l-2.21-3.76h-1.15v3.76h-2.33v-9.4h0ZM37.32,179.13h1.38c.21,0,.43,0,.67-.02.22,0,.43-.05.64-.12.18-.06.34-.17.47-.31.13-.17.2-.38.19-.6.01-.2-.05-.4-.16-.57-.11-.14-.25-.25-.42-.33-.19-.08-.38-.13-.58-.15-.21-.03-.43-.04-.64-.04h-1.53v2.14h0Z"/><path d="M46.46,177.07h-3.02v-1.83h8.38v1.83h-3.02v7.57h-2.33v-7.57h0Z"/><path d="M53,175.24h2.33v3.51h4.53v-3.51h2.33v9.4h-2.33v-4.06h-4.53v4.06h-2.33v-9.4h0Z"/><path d="M63.24,175.24h2.54l1.69,6.03h.03l2.21-6.03h2.17l2.2,6.19h.03l1.78-6.19h2.36l-3.1,9.4h-2.08l-2.33-6.51h-.03l-2.33,6.51h-2l-3.14-9.4h0Z"/><path d="M79.4,175.24h7.19v1.91h-4.86v1.75h4.59v1.91h-4.59v1.91h5.13v1.91h-7.46v-9.4h0Z"/><path d="M93.97,177.54c-.21-.22-.48-.39-.77-.47-.3-.1-.61-.15-.92-.15-.18,0-.35.02-.52.05-.18.03-.35.09-.51.17-.15.07-.28.17-.39.3-.1.13-.15.29-.15.45,0,.27.13.52.36.65.28.17.59.3.9.39.36.11.76.21,1.17.32.41.1.8.25,1.17.45.36.19.67.46.9.78.26.39.38.85.36,1.31.01.48-.1.95-.33,1.37-.22.39-.52.72-.89.97-.4.27-.84.46-1.3.57-.51.13-1.04.19-1.56.19-.65,0-1.29-.09-1.91-.28-.6-.19-1.16-.5-1.65-.9l1.66-1.62c.25.29.56.51.9.66.54.23,1.13.29,1.71.17.18-.04.36-.1.52-.18.15-.07.27-.18.37-.31.1-.13.15-.28.14-.44,0-.27-.13-.53-.37-.67-.29-.18-.6-.32-.92-.42-.37-.11-.77-.23-1.2-.35-.42-.11-.82-.27-1.2-.46-.36-.19-.67-.45-.92-.77-.26-.37-.39-.81-.37-1.26-.01-.47.11-.92.34-1.33.22-.38.53-.71.9-.96.39-.27.83-.46,1.29-.58.49-.13,1-.19,1.51-.19.59,0,1.17.07,1.74.23.55.15,1.06.4,1.51.76l-1.6,1.56h0Z"/><path d="M99.37,177.07h-3.02v-1.83h8.38v1.83h-3.02v7.57h-2.33v-7.57h0Z"/><path d="M10.5,187.65h3.48v.58h-2.73v1.43h2.54v.58h-2.54v1.97h-.75v-4.56h0Z"/><path d="M14.98,187.65h3.57v.58h-2.82v1.36h2.63v.58h-2.63v1.46h2.96v.58h-3.71v-4.56h0Z"/><path d="M19.63,187.65h1.93c.35,0,.69.03,1.03.11.27.06.52.16.77.29.2.11.38.25.54.42.14.15.25.31.34.49.08.16.14.33.18.5.03.15.05.31.05.46,0,.29-.07.58-.2.85-.14.28-.33.53-.58.73-.28.23-.6.4-.95.51-.42.14-.86.2-1.31.19h-1.81v-4.56h0ZM20.38,191.63h.95c.3,0,.61-.03.9-.11.27-.06.52-.17.75-.32.21-.14.38-.32.51-.53.13-.23.19-.48.19-.74,0-.17-.03-.35-.09-.51-.06-.21-.18-.4-.32-.56-.19-.19-.41-.35-.66-.45-.35-.13-.72-.2-1.09-.18h-1.13v3.4h0Z"/><path d="M25.55,187.65h3.57v.58h-2.82v1.36h2.63v.58h-2.63v1.46h2.96v.58h-3.71v-4.56h0Z"/><path d="M30.32,187.65h1.95c.3,0,.59.03.88.12.2.06.38.17.54.3.13.11.22.25.28.41.05.14.08.29.08.44,0,.15-.03.29-.09.42-.07.14-.16.26-.27.37-.13.12-.27.21-.43.28-.18.08-.37.12-.57.14l1.57,2.08h-.94l-1.41-2.01h-.84v2.01h-.75v-4.56s0,0,0,0ZM31.07,189.66h.98c.15,0,.29,0,.43-.03.13-.02.26-.05.38-.11.11-.05.2-.13.27-.22.14-.23.14-.52,0-.75-.07-.1-.16-.17-.27-.22-.12-.05-.25-.09-.38-.11-.14-.02-.29-.03-.43-.03h-.98v1.47h0Z"/><path d="M36.83,187.65h.68l2.37,4.56h-.88l-.55-1.13h-2.63l-.55,1.13h-.88l2.44-4.56h0ZM38.18,190.54l-1.03-2.09h-.02l-1.05,2.09h2.09Z"/><path d="M40.6,187.65h.75v3.98h2.54v.58h-3.29v-4.56h0Z"/><path d="M50.68,188.64c-.17-.17-.37-.31-.59-.39-.24-.09-.49-.14-.74-.14-.29,0-.58.05-.85.14-.24.09-.46.22-.65.4-.36.34-.57.82-.57,1.31,0,.48.2.93.55,1.25.19.17.41.3.65.39.28.1.57.15.87.14.29,0,.57-.05.84-.16.23-.1.44-.26.61-.45l.63.39c-.07.07-.14.14-.22.2-.13.1-.27.19-.41.26-.2.1-.41.18-.62.23-.27.07-.56.1-.84.1-.4,0-.81-.06-1.18-.21-.33-.12-.63-.31-.9-.54-.24-.21-.43-.47-.57-.76-.13-.27-.19-.56-.2-.85,0-.34.07-.67.21-.98.14-.3.34-.56.59-.77.27-.23.58-.4.91-.51.38-.12.77-.18,1.17-.18.37,0,.73.06,1.07.17.33.1.63.29.86.53l-.63.39h0Z"/><path d="M52.33,187.65h1.95c.3,0,.59.03.88.12.2.06.38.17.54.3.13.11.22.25.28.41.05.14.08.29.08.44,0,.15-.03.29-.09.42-.07.14-.16.26-.27.37-.13.12-.27.21-.43.28-.18.08-.37.12-.57.14l1.57,2.08h-.94l-1.41-2.01h-.84v2.01h-.75v-4.56s0,0,0,0ZM53.08,189.66h.98c.15,0,.29,0,.43-.03.13-.02.26-.05.38-.11.11-.05.2-.13.27-.22.14-.23.14-.52,0-.75-.07-.1-.16-.17-.27-.22-.12-.05-.25-.09-.38-.11-.14-.02-.29-.03-.43-.03h-.98v1.47s0,0,0,0Z"/><path d="M57.1,187.65h3.57v.58h-2.82v1.36h2.63v.58h-2.63v1.46h2.96v.58h-3.71v-4.56h0Z"/><path d="M61.75,187.65h1.93c.35,0,.69.03,1.03.11.27.06.52.16.77.29.2.11.38.25.54.42.14.15.25.31.34.49.08.16.14.33.18.5.03.15.05.31.05.46,0,.29-.07.58-.2.85-.14.28-.33.53-.58.73-.28.23-.6.4-.95.51-.42.14-.86.2-1.31.19h-1.8v-4.56h0ZM62.5,191.63h.95c.3,0,.61-.03.9-.11.27-.06.52-.17.75-.32.21-.14.38-.32.51-.53.13-.23.19-.48.19-.74,0-.17-.03-.35-.09-.51-.06-.21-.18-.4-.32-.56-.19-.19-.41-.35-.66-.45-.35-.13-.72-.2-1.09-.18h-1.13v3.4h0Z"/><path d="M67.67,187.65h.75v4.56h-.75v-4.56Z"/><path d="M70.99,188.23h-1.78v-.58h4.31v.58h-1.78v3.98h-.75v-3.98h0Z"/><path d="M77.14,187.65v2.8c0,.15.02.3.07.44.05.16.13.3.23.42.12.14.27.24.43.32.42.16.89.16,1.31,0,.16-.07.31-.18.43-.32.11-.12.19-.27.23-.42.05-.14.07-.29.07-.44v-2.8h.75v2.89c0,.25-.05.5-.16.72-.11.22-.26.41-.45.56-.2.16-.43.29-.68.37-.55.17-1.14.17-1.69,0-.25-.08-.48-.2-.68-.37-.19-.15-.34-.35-.45-.56-.11-.23-.17-.47-.16-.72v-2.89h.75Z"/><path d="M82,187.65h.98l3.05,3.75h.02v-3.75h.75v4.56h-.95l-3.08-3.75h-.02v3.75h-.75v-4.56Z"/><path d="M88.22,187.65h.75v4.56h-.75v-4.56Z"/><path d="M92.93,192.33c-.4,0-.79-.06-1.16-.18-.33-.11-.64-.28-.91-.51-.25-.21-.45-.47-.59-.76-.29-.6-.29-1.3,0-1.89.14-.29.35-.55.59-.76.27-.22.58-.4.91-.51.76-.24,1.57-.24,2.33,0,.33.11.64.28.91.51.25.21.45.47.59.76.29.6.29,1.3,0,1.89-.14.29-.35.55-.59.76-.27.22-.58.4-.91.51-.38.13-.77.19-1.16.18h0ZM92.93,191.75c.29,0,.58-.04.86-.14.24-.09.46-.22.66-.39.71-.63.77-1.72.14-2.43-.04-.05-.09-.09-.14-.14-.19-.17-.42-.3-.66-.39-.56-.19-1.16-.19-1.72,0-.24.09-.46.22-.66.39-.71.63-.77,1.72-.14,2.43.04.05.09.09.14.14.19.17.42.3.66.39.28.1.57.15.86.14h0Z"/><path d="M96.89,187.65h.98l3.05,3.75h.02v-3.75h.75v4.56h-.95l-3.08-3.75h-.02v3.75h-.75v-4.56h0Z"/><path d="M244.96,38.32h-1.86l-1.06-.86-2.63-7.27-2.56,6.95c-.16.42-.7.99-.9,1.19h-2.21c-.16-.22-.61-.9-.7-1.22l-3.11-11.5c1.31-.9,2.88-.1,3.33,1.35l1.89,6.31,2.11-6.21c.29-.86,1.25-1.57,2.08-1.6s1.83.61,2.11,1.47l2.21,6.09,1.99-6.28c.42-1.28,2.05-2.11,3.23-1.15l-3.14,11.59c-.06.29-.7.96-.83,1.09l.03.06Z"/><path d="M188.94,20.38l.9,1.06,6.15,16.88h-2.53c-1.47-1.12-1.38-3.91-3.46-3.91h-4c-.86,0-1.7.67-2.02,1.44l-1.12,2.5h-2.88v-.64c2.37-5.32,4.16-10.89,6.31-16.46l1.06-.86h1.6ZM190.48,31.66c-.86-2.66-1.51-4.58-2.47-7.14l-2.47,7.21c2.05-.74,3.01-.64,4.93-.06Z"/><path d="M303.28,20.38v16.05c-.06.74-.26,1.41-.61,1.89h-6.41c-.38-.19-1.06-.48-1.54-.77-3.78-2.34-4.13-8.17-.83-11.02s4.39-1.73,6.34-.16l.06-2.5c.03-1.44.38-2.59,1.38-3.49,0,0,1.6,0,1.6,0ZM300.05,33.87c.38-1.47.58-3.91,0-5.12s-3.07-1.02-3.97-.35-1.63,2.31-1.51,3.88.86,2.75,1.95,3.07,3.11.22,3.52-1.44v-.03Z"/><path d="M252.68,20.38c.9.8,1.38,1.89,1.41,3.17l.06,2.91c2.15-1.6,4.68-1.7,6.63,0,1.95,1.7,1.35,2.34,1.35,3.4l.1,6.66c0,.54-.32,1.41-.58,1.86h-1.6c-2.56-1.92,1.89-11.11-3.72-10.35s-2.21,1.15-2.24,2.53l-.06,5.96c0,.58-.26,1.38-.45,1.86h-1.92c-.29-.48-.58-1.22-.58-1.89l-.06-16.05h1.6l.06-.06Z"/><path d="M288.52,38.32h-6.34l-1.89-1.06c-3.11-2.53-3.43-7.27-.83-10.25s5.09-2.31,7.33-.48c.7-.96,1.6-1.57,2.59-1.22v11.37c.03.54-.45,1.28-.83,1.6l-.03.03ZM286.18,28.77c-.26-.99-2.18-1.15-3.04-.86-2.59.8-3.14,4.04-1.92,6.28s1.79,1.47,2.98,1.28c2.69-.51,2.43-4.77,1.99-6.66v-.03Z"/><path d="M272.86,38.32h-3.14c-3.62-1.25-6.05-4.45-4.96-8.26s4.93-5.8,8.52-4.36,2.47,2.11,2.47,3.52c.03,3.62-4.16,4.77-7.94,4.29,1.54,2.56,4.74,2.37,7.08.64.51-.19,1.28.96,1.31,1.47s-.48,1.44-.99,1.7l-2.31,1.02-.03-.03ZM272.86,28.9c-.1-.29-.64-.8-.96-.83-1.92-.35-3.81.67-4.36,2.63,1.19.48,5.96.06,5.32-1.76v-.03Z"/><path d="M223.79,38.32h-2.79c-3.33-1.06-5.6-3.97-5.06-7.53s3.4-5.86,6.92-5.54c3.36.29,5.73,3.01,5.93,6.15.19,3.14-1.95,5.8-4.96,6.92h-.03ZM226,31.78c0-2.05-1.63-3.68-3.68-3.68s-3.68,1.63-3.68,3.68,1.63,3.68,3.68,3.68,3.68-1.63,3.68-3.68Z"/><path d="M210.11,38.32h-1.6c-.16-.1-.83-.83-.83-1.25v-11.63c.93-.67,2.02.19,2.63,1.06,1.15-1.02,3.33-1.79,4.58-.77s.19,1.51-.06,1.86c-.64.9-3.88.06-3.97,2.59l-.22,6.25c0,.64-.26,1.41-.54,1.86l.03.03Z"/><path d="M200.47,38.32h-1.92c-.29-.45-.58-1.25-.58-1.89v-11.08c1.02-.51,2.05.32,2.63,1.15,1.22-.83,2.85-1.76,4.42-.9s.48,1.35.26,1.79c-.74,1.38-4.07.16-4.16,2.95l-.16,6.09c0,.61-.26,1.41-.48,1.95v-.06Z"/><path d="M211.6,158.17c0-1.87.31-3.56.94-5.08.63-1.51,1.5-2.81,2.62-3.87s2.45-1.88,3.99-2.46c1.54-.57,3.22-.86,5.04-.86s3.51.29,5.04.86c1.54.57,2.87,1.39,3.99,2.46s1.99,2.36,2.62,3.87.94,3.21.94,5.08-.31,3.56-.94,5.08c-.63,1.52-1.5,2.81-2.62,3.87-1.12,1.07-2.45,1.88-3.99,2.46-1.54.57-3.22.86-5.04.86s-3.51-.29-5.04-.86c-1.54-.57-2.87-1.39-3.99-2.46-1.12-1.07-1.99-2.36-2.62-3.87-.62-1.51-.94-3.21-.94-5.08ZM216.94,158.17c0,1.1.17,2.1.51,3.02.34.91.83,1.7,1.47,2.37.64.67,1.4,1.19,2.29,1.57s1.88.56,2.98.56,2.09-.19,2.98-.56c.89-.37,1.65-.89,2.29-1.57.64-.67,1.12-1.46,1.47-2.37.34-.91.51-1.92.51-3.02s-.17-2.08-.51-3c-.34-.92-.83-1.72-1.47-2.39-.64-.67-1.4-1.19-2.29-1.57-.89-.37-1.88-.56-2.98-.56s-2.09.19-2.98.56c-.89.37-1.65.9-2.29,1.57s-1.13,1.47-1.47,2.39c-.34.92-.51,1.92-.51,3Z"/><path d="M238.01,153.81h4.75v2.17h.07c.16-.31.37-.61.66-.92s.63-.58,1.02-.82c.4-.24.85-.44,1.35-.59.5-.16,1.05-.23,1.65-.23,1.25,0,2.26.19,3.03.58.77.39,1.37.92,1.8,1.6.43.68.72,1.48.87,2.4s.23,1.92.23,3v8.83h-4.94v-7.85c0-.46-.02-.94-.05-1.44-.03-.49-.13-.95-.3-1.37s-.42-.76-.76-1.02-.83-.4-1.47-.4-1.15.12-1.55.35c-.4.23-.7.54-.91.92-.21.39-.35.82-.41,1.3-.07.48-.1.99-.1,1.52v7.98h-4.94v-16.01h0Z"/><path d="M270.44,167.07c-.79,1.01-1.79,1.79-3,2.34s-2.46.82-3.76.82-2.39-.2-3.48-.59-2.03-.96-2.84-1.7c-.8-.73-1.43-1.62-1.89-2.65-.46-1.03-.69-2.19-.69-3.46s.23-2.43.69-3.46c.46-1.03,1.09-1.92,1.89-2.65.8-.73,1.75-1.3,2.84-1.7s2.25-.59,3.48-.59c1.14,0,2.18.2,3.12.59s1.73.96,2.37,1.7,1.15,1.62,1.5,2.65c.35,1.03.53,2.19.53,3.46v1.55h-11.47c.2.95.63,1.7,1.29,2.26.66.56,1.47.84,2.44.84.81,0,1.5-.18,2.06-.55.56-.36,1.05-.83,1.47-1.4l3.46,2.54h0ZM266.26,160.01c.02-.83-.26-1.55-.82-2.14-.57-.59-1.31-.89-2.21-.89-.55,0-1.03.09-1.45.26-.42.18-.78.4-1.07.68s-.53.59-.69.96-.26.74-.28,1.14h6.53Z"/><path d="M280.53,146.5h4.25l10.15,23.34h-5.8l-2.01-4.94h-9.06l-1.95,4.94h-5.67l10.09-23.34h0ZM282.51,153.29l-2.84,7.25h5.7s-2.87-7.25-2.87-7.25Z"/><path d="M292.89,165.09l11.83-14.04h-11.41v-4.55h17.63v4.55l-11.6,14.04h12v4.75h-18.46v-4.75h0Z"/><path d="M207.29,159.95c-.06,0-.13,0-.19.01v.11c.06-.04.12-.08.19-.12Z"/><path d="M198.68,160.86l-.02.02c-.24.03-.48.07-.72.11-.13.01-.26.03-.39.05l-.28.86c-.87,2.65-1.46,4.56-1.97,6.49,2.12-1.65,4.37-3.31,6.51-4.8,1.75-1.2,3.37-2.29,4.28-2.86.33-.22.57-.38,1.01-.66v-.11c-2.28.1-4.63.34-7.35.74-.28.06-.63.13-1.07.16h0Z"/><path d="M204.23,147.88c-1.11,1.54-2.6,3.98-3.6,6.01-.94,1.9-1.57,3.26-2.36,5.28,3.33-.51,6.08-.72,8.84-.95v-11.67h-1.94c-.05.08-.11.17-.19.29,0,0-.75,1.04-.75,1.04Z"/><path d="M192.37,174.86c-1.51,1.38-2.12,2-3.45,3.45,2.69-.91,5.72-1.83,8.39-2.45,2.73-.67,4.61-1.04,5.31-1.04.55,0,.87.24.87.67s-.33.69-1.09.86l-1.53.33c-1.86.42-4.94,1.23-7.23,2-2.14.66-4.94,1.65-6.97,2.48l-1.29.55s-.02.01-.04.02h21.76v-18.09c-3.67,2.46-7.32,5.15-10.98,8.13-2.62,2.11-1.77,1.23-3.76,3.08h0Z"/><path d="M183.98,162.44l-.94.96c-1.01,1.04-2.14,2.25-3.26,3.48,3.67,1.34,7.54,2.91,10.73,4.38.22-1.18.59-2.68,1.07-4.41.33-1.17.83-2.8,1.29-4.07.15-.49.24-.78.5-1.41l-1.57.16c-4,.42-4.87.54-7.82.91h0Z"/><path d="M186.05,160.41l1.84-.26c2.16-.26,3.93-.4,5.35-.53l.83-.08c1.29-2.99,2.82-5.94,4.57-8.85-3.41,1.79-7.98,5.32-12.59,9.72h0Z"/><path d="M181.27,162.77c-1.31.24-2.56.45-3.72.62-.22.03-.41.07-.55.08-.35.08-.66.11-.9.13-1.51.22-2.88.42-4.13.66.66.21.94.3,1.37.45,1.01.3,2.75.88,4.7,1.55.92-1.01,1.94-2.09,3.28-3.48h-.07,0Z"/><path d="M185.18,177.32c1.44-1.61,1.79-2.05,3.45-3.48-.91-.39-1.86-.75-2.75-1.14-2.79-1.23-5.57-2.35-8.3-3.36-.98,1.1-1.86,2.11-2.49,2.89l-2.27,2.78c-.37.46-.64.71-.9.84v5.87h10.62c-.01-.07-.02-.14-.02-.22,0-.88.77-2.13,2.67-4.19h0Z"/><path d="M171.92,167.39v5.87l3.93-4.53c-1.31-.47-2.62-.91-3.93-1.33Z"/><path d="M179.04,161.41l3.27-.51,1.01-.13.5-.45c2.36-2.34,2.88-2.83,4.63-4.32,4.56-3.87,9.35-7.1,13.87-9.46h-30.41v15.96c1.87-.35,3.66-.63,5.7-.9.37-.05.85-.11,1.42-.19h0Z"/><path d="M218.61,176.32c-.16-.19-.35-.34-.58-.45s-.5-.16-.8-.16-.58.06-.84.18c-.26.12-.48.28-.67.49-.19.21-.34.46-.45.75s-.16.6-.16.94.05.66.16.95c.11.29.25.53.44.74.19.21.4.37.66.49s.52.18.81.18c.33,0,.62-.07.88-.21.26-.14.47-.33.63-.58l1.34,1c-.31.43-.7.75-1.18.96s-.96.31-1.46.31c-.57,0-1.1-.09-1.58-.27-.48-.18-.9-.43-1.25-.77-.35-.33-.62-.74-.82-1.21-.2-.48-.29-1-.29-1.59s.1-1.11.29-1.59.47-.88.82-1.21c.35-.33.77-.59,1.25-.77.48-.18,1.01-.27,1.58-.27.21,0,.42.02.65.06s.44.1.66.18.42.19.62.33.38.31.54.5l-1.24,1.01h0Z"/><path d="M222.96,174.42h2.83c.37,0,.72.04,1.06.11.33.07.62.19.88.36.25.17.45.4.6.68s.22.64.22,1.07c0,.52-.13.96-.4,1.31-.27.36-.66.59-1.18.69l1.86,3.08h-1.93l-1.53-2.92h-.79v2.92h-1.61v-7.3h0ZM224.57,177.44h.95c.14,0,.3,0,.46-.02s.31-.04.44-.09c.13-.05.24-.13.32-.24s.13-.27.13-.47c0-.19-.04-.33-.11-.44-.08-.11-.17-.19-.29-.25-.12-.06-.25-.1-.4-.12s-.3-.03-.44-.03h-1.05v1.66h0Z"/><path d="M231.77,174.42h4.96v1.48h-3.35v1.36h3.17v1.48h-3.17v1.48h3.54v1.49h-5.15v-7.3h0Z"/><path d="M240.27,174.42h2.41c.59,0,1.14.07,1.67.2s.99.34,1.38.63c.39.29.7.67.94,1.14.23.47.35,1.04.35,1.7,0,.59-.11,1.11-.33,1.56s-.52.83-.9,1.14c-.38.31-.81.54-1.31.7s-1.01.24-1.56.24h-2.63v-7.3h0ZM241.88,180.24h.83c.37,0,.72-.04,1.04-.11.32-.08.6-.2.83-.38.23-.18.42-.41.55-.69s.2-.63.2-1.05c0-.36-.07-.67-.2-.94s-.31-.48-.54-.66-.49-.3-.8-.39c-.31-.09-.63-.13-.97-.13h-.95v4.33h0Z"/><path d="M250.15,174.42h1.61v7.3h-1.61v-7.3Z"/><path d="M256.7,175.84h-2.08v-1.42h5.78v1.42h-2.08v5.88h-1.61v-5.88Z"/><path d="M274.54,178.9c0,.43-.07.83-.2,1.2s-.32.68-.58.95-.58.48-.97.63-.83.23-1.33.23-.96-.08-1.34-.23-.71-.36-.97-.63c-.26-.27-.45-.58-.58-.95s-.2-.76-.2-1.2v-4.49h1.61v4.43c0,.23.04.44.11.63.07.19.17.36.3.5.13.14.29.25.47.33.18.08.38.12.59.12s.41-.04.59-.12c.18-.08.33-.19.47-.33.13-.14.23-.31.3-.5s.11-.4.11-.63v-4.43h1.61v4.49h.01Z"/><path d="M278.09,174.42h2.19l3.11,5.08h.02v-5.08h1.61v7.3h-2.1l-3.19-5.2h-.02v5.2h-1.61v-7.3Z"/><path d="M288.54,174.42h1.61v7.3h-1.61v-7.3Z"/><path d="M293.29,178.07c0-.59.1-1.11.29-1.59s.47-.88.82-1.21c.35-.33.77-.59,1.25-.77.48-.18,1.01-.27,1.58-.27s1.1.09,1.58.27c.48.18.9.43,1.25.77s.62.74.82,1.21c.2.48.29,1,.29,1.59s-.1,1.11-.29,1.59c-.2.48-.47.88-.82,1.21-.35.33-.77.59-1.25.77-.48.18-1.01.27-1.58.27s-1.1-.09-1.58-.27-.9-.43-1.25-.77-.62-.74-.82-1.21c-.2-.48-.29-1-.29-1.59ZM294.96,178.07c0,.35.05.66.16.95.11.29.26.53.46.74s.44.37.72.49.59.18.94.18.66-.06.94-.18c.28-.12.52-.28.72-.49s.35-.46.46-.74.16-.6.16-.95-.05-.65-.16-.94c-.11-.29-.26-.54-.46-.75s-.44-.37-.72-.49-.59-.18-.94-.18-.66.06-.94.18c-.28.12-.52.28-.72.49s-.35.46-.46.75-.16.6-.16.94Z"/><path d="M304.33,174.42h2.19l3.11,5.08h.02v-5.08h1.61v7.3h-2.1l-3.19-5.2h-.02v5.2h-1.61v-7.3Z"/><path d="M902.59,34.47c-.44-.49-1.02-.84-1.67-.98-.65-.14-1.32-.07-1.92.2-1.13.54-1.64,1.83-1.64,3.04,0,2.89,3.37,4.31,5.28,2.13l1.26,1.26c-1.33,1.53-3.73,1.76-5.52,1.09-.89-.36-1.65-.99-2.17-1.79-.52-.81-.78-1.75-.74-2.71,0-1.98,1.03-3.83,2.89-4.56s4.25-.4,5.58,1.11l-1.34,1.22Z"/><path d="M905.41,31.99h1.75v1.42h.04c.33-.63.87-1.12,1.52-1.4s1.38-.34,2.06-.15l-.08,1.89c-2.1-.55-3.54.57-3.54,2.83v4.69h-1.77l.02-9.27Z"/><path d="M913.67,37.3c0,1.64,1.62,2.74,3.15,2.72,1.12,0,1.89-.58,2.56-1.42l1.34,1.02c-1.61,2.29-5.67,2.62-7.65.51-2.78-3.1-.84-8.39,3.53-8.39,3.26,0,4.72,2.62,4.54,5.55l-7.47.02ZM919.26,35.88c0-3.78-5.41-3.48-5.59,0h5.59Z"/><path d="M932.62,41.32h-1.77v-1.34h-.04c-1.08,1.61-3.54,1.94-5.2,1.2-.86-.39-1.59-1.02-2.09-1.82-.5-.8-.74-1.74-.7-2.68-.04-.95.2-1.88.69-2.69s1.22-1.45,2.09-1.83c1.66-.73,4.17-.42,5.2,1.2h.04v-6.91h1.77v14.88ZM927.78,39.9c2.44.07,3.61-2.47,2.83-4.56-.81-2.57-4.89-2.57-5.71,0-.74,2.09.43,4.63,2.87,4.56Z"/><path d="M945.01,33.52h-2.54v4.25c0,.68-.06,1.53.56,1.96.32.14.68.2,1.03.19.35-.02.7-.11,1.01-.28v1.62c-1.02.41-2.15.42-3.18.03-.34-.16-.62-.41-.82-.73-.2-.31-.31-.68-.32-1.05-.09-.75-.04-5.14-.05-5.99h-2.05v-1.53h2.04v-2.62h1.77v2.62h2.54v1.54Z"/><path d="M956.21,41.32h-2.83v-1.3h-.04c-1.05,1.97-4.54,2.07-5.67.24-.58-.94-.62-2.09-.64-3.23v-5.27h2.95v4.68c0,1.07.1,2.52,1.53,2.52s1.77-1.25,1.77-2.44v-4.76h2.95l-.02,9.57Z"/><path d="M974.35,36.53c0-3.93,4-5.9,7.39-4.66,4.3,1.49,4.3,7.85,0,9.33-3.38,1.24-7.39-.78-7.39-4.67ZM977.3,36.53c0,1.42.89,2.44,2.36,2.42,3.16.12,3.22-4.84,0-4.84-.32-.02-.64.03-.94.15s-.57.29-.79.52c-.22.23-.4.5-.5.81-.11.3-.15.62-.12.94h0Z"/><path d="M986.71,31.75h2.83v1.3h.04c1.03-1.97,4.54-2.07,5.67-.24.58.94.64,2.08.66,3.23v5.28h-2.95v-4.69c0-1.05-.1-2.52-1.54-2.52s-1.81,1.25-1.77,2.44v4.77h-2.95v-9.57Z"/><path d="M937.21,31.99h-1.77v9.33h1.77v-9.33Z"/><path d="M936.31,29.93c.71,0,1.29-.58,1.29-1.29s-.58-1.29-1.29-1.29-1.29.58-1.29,1.29.58,1.29,1.29,1.29Z"/><path d="M958.29,31.75h2.83v1.3h.04c1.03-1.97,4.54-2.07,5.67-.24.58.94.64,2.08.66,3.23v5.28h-2.94v-4.69c0-1.05-.11-2.52-1.53-2.52s-1.82,1.25-1.77,2.44v4.77h-2.95v-9.57Z"/><path d="M972.58,31.75h-2.95v9.56h2.95v-9.56Z"/><path d="M971.11,30.45c.94,0,1.71-.76,1.71-1.71s-.76-1.71-1.71-1.71-1.71.76-1.71,1.71.76,1.71,1.71,1.71Z"/><path d="M864.95,18.73c3.13,0,5.67-2.54,5.67-5.67s-2.54-5.67-5.67-5.67-5.67,2.54-5.67,5.67,2.54,5.67,5.67,5.67Z"/><path d="M884.01,8.02l-12.28,5.56c-.05,1.24-.45,2.45-1.15,3.48-.7,1.03-1.67,1.85-2.8,2.36-1.13.51-2.39.7-3.62.54-1.23-.16-2.4-.66-3.36-1.44l-12.18,5.5c-.2.09-.39.23-.54.39-.15.17-.27.36-.34.57-.07.21-.1.44-.09.66.02.22.08.44.18.64l12.39,23.55v-27.46h9.57v6.78c.77-1.63,1.83-3.11,3.15-4.35,1.19-1.18,2.56-2.15,4.07-2.87l8.03-12.78c.1-.14.15-.32.13-.49-.01-.17-.08-.34-.2-.47-.12-.13-.27-.22-.45-.25-.17-.03-.35,0-.5.08h0Z"/><path d="M879.76,36.52c0-1.67.66-3.27,1.84-4.45,1.18-1.18,2.78-1.85,4.45-1.85.62,0,1.24.09,1.83.27v-8.39c-2.05-.52-4.18-.6-6.26-.24-2.08.37-4.06,1.17-5.8,2.36-1.74,1.19-3.22,2.73-4.32,4.54-1.1,1.8-1.81,3.82-2.07,5.91-.26,2.09-.07,4.22.55,6.24.62,2.02,1.67,3.88,3.07,5.46,1.4,1.58,3.12,2.85,5.04,3.71,1.93.87,4.01,1.31,6.12,1.31,1.24,0,2.46-.17,3.66-.47v-8.37c-.94.28-1.93.35-2.9.18-.97-.17-1.88-.56-2.67-1.15-.79-.59-1.43-1.35-1.87-2.23-.44-.88-.67-1.85-.67-2.83h0Z"/><path d="M866.84,162.43c1.27,1.09,3.41,2.26,5.02,1.93.67-.16,1.11-.68,1.09-1.37-.05-1.68-1.77-3.44-3.09-4.4l-7.55-10.43c4.7,1.63,9.68,5.03,13.38,8.33,1.39,1.24,2.63,2.55,3.72,4.05,2.19,3,3.27,6.4,1.86,9.99-.12.31-.22.65-.25,1,.17.11.48.11.7.03,2.78-1.08,4.53-3.82,4.36-6.81-.23-3.96-3.03-7.59-5.64-10.4-1.72-1.85-3.63-3.45-5.79-4.79-4.57-2.84-9.72-4.62-15.09-5.23l-1.52-2.11c-.41-.57-1.97-3.11-2.8-2.65-.21.38.54,1.7.77,2.1l1.48,2.55c-2.39-.06-4.67.29-6.88,1.09-3.15,1.13-5.59,3.33-6.13,6.75-.23,1.45-.18,2.89.16,4.31.1.41.56,1.91,1.08,1.76.37-.11.35-1.58.33-1.98-.13-3.05.84-5.7,3.52-7.32,2.76-1.65,6.57-1.84,9.74-1.45l5.74,9.98c-.89.39-.74,1.58-.4,2.3l-9.54.42c-.48.02-1.96.24-1.87.91.09.67,1.79.92,2.36.94l11.23.49h0ZM910.73,139.56v1.05c2.07.19,2.31,2.01,2.31,3.77v11.56c0,1.4-.15,3.19-.88,4.37-1.66,2.71-5.28,3.25-8.05,2.39-1.83-.57-3.15-2.02-3.53-3.88-.17-.82-.24-1.59-.24-2.45v-11.99c0-.7.06-1.34.18-1.99.19-1.02.93-1.64,2-1.77v-1.05s-9.48,0-9.48,0v1.05c2.06.19,2.24,1.86,2.24,3.59v12.75c0,.82.11,1.55.27,2.32.67,3.26,3.27,5.31,6.45,5.97,2.22.46,4.49.48,6.71.01,3.06-.65,5.92-2.71,6.6-5.91.19-.88.29-1.73.29-2.64v-12.33c.01-1.75.21-3.45,2.25-3.75l.02-1.06h-7.14ZM949.98,143.94c.81-.4,1.24-1.17,1.21-2-.02-.83-.51-1.55-1.3-1.9-.96-.43-2.07-.32-2.93.31-.64.48-.92,1.24-.8,2.06.1.68.59,1.32,1.32,1.62.8.32,1.7.31,2.5-.09h0ZM927.58,153.73c0-.81.19-1.55.5-2.23.68-1.53,2.31-2.37,3.93-2.01,1.23.27,2.13,1.21,2.34,2.44.09.55.13,1.08.17,1.64v7.01c-.01,1.55-.16,3.04-.32,4.62h7.23v-1.02s-.69-.21-.69-.21c-.63-.19-1.09-.68-1.27-1.32-.16-.6-.25-1.22-.25-1.86v-8.26c-.01-1.02-.2-1.97-.58-2.89-.4-.98-1.07-1.74-2.01-2.26-1.93-1.07-4.28-1.19-6.32-.3-1.26.55-2.21,1.47-2.98,2.61v-3.01l-6.7.22v1.08c.95.03,1.66.49,1.94,1.37.19.61.3,1.25.3,1.94v9.38c0,.64-.08,1.22-.21,1.81-.22,1-.98,1.57-2.04,1.66v1.05h9.21v-1.02c-.94-.18-1.68-.45-1.98-1.43-.17-.54-.27-1.11-.27-1.71v-7.31s0,0,0,0ZM975.58,156.07c0-5.37-4.36-9.72-9.74-9.72s-9.74,4.35-9.74,9.72,4.36,9.72,9.74,9.72,9.74-4.35,9.74-9.72h0ZM985.36,153.8c0-.81.18-1.54.47-2.23.66-1.56,2.3-2.44,3.94-2.09,1.25.26,2.16,1.22,2.36,2.47.09.56.13,1.09.16,1.67v6.98c-.01,1.56-.17,3.05-.32,4.59h7.23s0-1.02,0-1.02l-.62-.18c-.65-.19-1.15-.66-1.33-1.32-.16-.6-.26-1.21-.26-1.86v-8.29c-.02-1.02-.2-1.95-.57-2.87-.41-1.01-1.11-1.79-2.09-2.32-1.95-1.05-4.3-1.14-6.33-.23-1.22.55-2.14,1.45-2.9,2.56v-3s-6.72.22-6.72.22v1.09c1,0,1.69.51,1.96,1.39.18.6.29,1.24.29,1.91v9.38c0,.63-.08,1.2-.2,1.79-.21,1.02-1.01,1.61-2.05,1.69v1.05s9.22,0,9.22,0v-1.02s-.57-.13-.57-.13c-.69-.16-1.21-.63-1.41-1.32-.15-.53-.26-1.09-.26-1.68v-7.24s0,0,0,0ZM944.28,165.19h9.17v-1.02c-.9-.14-1.62-.42-1.88-1.37-.19-.7-.3-1.38-.3-2.14v-13.99s-7,.22-7,.22v1.08c1.64.11,2.28,1.28,2.28,2.74v10.25c0,1.61-.43,3.11-2.29,3.19l.02,1.04h0ZM887.7,169.41c-.32.01-.57.28-.73.53-.9,1.39-1.99,2.53-3.37,3.47-3.18,2.16-6.92,3.24-10.78,3.14-2.08-.05-4.04-.44-6.01-1.09-7.1-2.34-13.42-6.77-17.79-12.86-.31-.16-.74-.1-1.07.04-1.12.5-2.13,1.36-2.71,2.47-.55,1.03.85,2.98,1.55,3.74,2.04,2.23,4.38,4.17,6.92,5.83,5.61,3.68,12.11,5.56,18.82,5.56,2.49,0,4.9-.38,7.17-1.38,2.31-1.01,4.32-2.53,5.79-4.57.51-.71,2.59-4.08,2.21-4.87h0ZM903.55,179.29c1.12-.87,1.57-2.37.99-3.68-1.08-2.46-6.11-2.47-6.03-4.56.06-1.59,2.47-1.91,3.93-1.23.65.3.98.93,1,1.62.16.09.5.09.63-.05v-2.25c-1.9-.93-4.86-1.1-6.58.29-.69.56-1.04,1.35-1.05,2.2,0,.82.38,1.57,1.03,2.13,1.27,1.1,2.91,1.34,4.52,2.39.73.48.95,1.33.47,2.07-.81,1.21-2.94,1.25-4.22.6-.72-.37-1.13-1.02-1.14-1.84-.22-.05-.47-.05-.65.04v2.29c2.06,1.1,5.22,1.41,7.09-.03h0ZM998.82,180.07c.11,0,.12-.42.02-.46l-.32-.12c-.47-.31-.88-.75-1.2-1.25l-2.2-3.38c.89-.77,2.18-2.42,3.35-2.5l.03-.47h-3.6c-.02.17-.05.36.01.4.24.16.47.05.62.28.19.29-.24.82-.47,1.04l-1.08,1.03c-.31.3-.74.44-1.15.4v-6.53s-3.06.09-3.06.09c-.04.11-.08.4,0,.44l.31.14c.37.17.62.63.62,1.11v8.22c0,.58-.35,1-.88,1.08-.12.02-.13.48,0,.48h3.96c.12,0,.11-.46,0-.48-.52-.1-.9-.49-.91-1.04l-.03-2.66.61-.03,2.15,3.57c.25.42.65.63,1.17.63h2.06s0,0,0,0ZM968.15,179.57c1.15-.5,1.74-1.53,1.8-2.72.09-1.9-1.32-2.76-2.94-2.96,1.34-.53,2.29-1.26,2.22-2.8-.09-2.02-1.97-2.48-3.68-2.48h-6.1c-.05.14-.03.39.05.47.74.11.91.8.91,1.46v7.9c0,.46-.25.96-.63,1.09-.18.06-.3.1-.36.18-.05.06.02.37.1.37h6.39c.81,0,1.53-.2,2.25-.51h0ZM926.39,169.02c-.49-.44-1.23-.41-1.68,0-.33.3-.37.77-.19,1.13.17.36.58.55,1.02.55.44,0,.87-.19,1.04-.54.18-.36.16-.84-.18-1.15h0ZM910.98,178.92c0,.46.01.68.17.93s.54.37.83.35l1.9-.12c.13,0,.12-.46,0-.48-.85-.13-.94-.86-.94-1.66v-3.79c-.01-.5-.18-1.04-.48-1.42-1.15-1.45-5.15-1.23-6.18-.11-.27.29-.27.74.02.98.21.17.64.2.91-.05.85-.79,2.09-1.1,3.14-.54.33.18.52.54.5.88-.07,1.12-2.46,1-4.22,2.12-.67.43-1.08,1.09-1.09,1.83,0,.74.32,1.43.96,1.88,1.48,1.01,3.5.59,4.48-.79h0ZM931.91,178.6c-.06-1.33-.07-2.62,0-3.91.04-.73.48-1.36,1.13-1.59.47-.16.94-.09,1.33.18.35.24.52.66.59,1.13l.03,2c.02,1.23-.03,2.4-.15,3.67h3.2c.3-1.04-.95.15-.96-2.07l-.02-3.87c0-.59-.22-1.28-.66-1.68-1.38-1.24-3.54-.94-4.6.59l-.05-1.27-2.93.1c-.42.99.95-.14.95,2.07v4c0,.79-.1,1.47-.92,1.63-.14.03-.16.49,0,.49h3.96c.1-.09.1-.42-.01-.48-.49-.06-.87-.43-.9-1h0ZM939.57,182.84c1.84.89,4.76,1.06,6.25-.3.71-.65,1.12-1.57,1.13-2.56l.04-6.55c0-.58.37-.99.92-1.04.03-.14.04-.35.01-.51l-2.96-.09v1.37c-.85-1.42-2.63-1.84-4.05-1.07-2.08,1.13-2.37,4.13-1.5,6.07.59,1.31,1.84,2.04,3.26,1.91.95-.09,1.69-.55,2.26-1.36.07,1.24.07,2.86-1.15,3.53-.71.39-1.56.41-2.31.15-.72-.26-1.16-.88-1.24-1.64-.18-.09-.41-.09-.67-.05v2.14s0,0,0,0ZM954.91,179.22c.7-.72.88-1.78.41-2.64-.89-1.6-4.56-1.68-4.48-2.97.05-.91,1.75-1.12,2.81-.6.48.23.7.66.73,1.21l.64-.02v-1.95c-1.66-.71-4.25-.86-5.59.43-.5.49-.69,1.12-.59,1.84.33,2.28,4.88,2.04,4.7,3.73-.12,1.1-2.03,1.29-3.17.73-.59-.29-.9-.81-.92-1.47h-.64v2.08c1.68.82,4.67,1.12,6.11-.37h0ZM976.25,178.92c.02.31.02.69.24.98.14.18.52.3.76.29l1.94-.11c.1-.09.1-.43,0-.48-.91-.09-.95-1.02-.96-1.78l-.02-3.75c0-.46-.18-.98-.45-1.33-1.15-1.47-5.11-1.25-6.18-.15-.26.27-.3.71-.03.96s.72.21,1.01-.05c.84-.78,2.09-1.04,3.1-.48.32.18.5.54.48.85-.07,1.14-2.42,1-4.2,2.12-.66.41-1.08,1.06-1.11,1.77-.03.76.28,1.47.94,1.93,1.43.99,3.49.67,4.48-.77h0ZM982.99,178.48v-3.74c0-.73.46-1.39,1.1-1.62.49-.18.98-.11,1.38.17.35.24.51.67.58,1.15l.03,1.97c.02,1.24-.03,2.41-.14,3.67h3.17c.1-.09.1-.42,0-.48-.88-.17-.92-.92-.93-1.74l-.02-3.72c0-.6-.23-1.3-.69-1.71-1.4-1.22-3.6-.89-4.59.68v-1.32s-2.98.09-2.98.09c-.07.1-.06.41.02.5.79.03.95.85.95,1.47v4.15c0,.74-.12,1.47-.94,1.6-.11.04-.11.39,0,.48h3.93c.66-.76-.85-.17-.85-1.6h0ZM922.96,172.35v-.46s-3.18.01-3.18.01c-.33.82.62.13.74,1.16-.05.45-.13.92-.29,1.35l-1.39,3.82-1.31-4.16c-.24-.75-.37-1.47-.56-2.28l-2.88.09c-.06.1-.11.39-.02.45.07.05.2.1.31.17.41.27.68.75.84,1.24l1.77,5.56c.31.97,1.36.79,2.2.76l2.24-5.72c.28-.72.7-1.85,1.53-1.99h0ZM923.72,180.09h3.88c.15,0,.13-.47,0-.49-.78-.13-.88-.81-.88-1.59v-6.21s-3.13.1-3.13.1c0,.21.02.37.04.5.57.04.95.46.95,1.03v5.09c0,.47-.27.92-.69,1.03-.14.04-.27.1-.32.17s.05.37.14.37h0Z"/><path d="M866.84,162.43l-11.23-.49c-.57-.02-2.27-.28-2.36-.94-.09-.67,1.39-.88,1.87-.91l9.54-.42c-.34-.71-.49-1.9.4-2.3l-5.74-9.98c-3.18-.39-6.98-.21-9.74,1.45-2.68,1.62-3.66,4.27-3.52,7.32.02.4.04,1.87-.33,1.98-.52.16-.98-1.35-1.08-1.76-.34-1.42-.39-2.87-.16-4.31.54-3.41,2.98-5.62,6.13-6.75,2.21-.79,4.49-1.15,6.88-1.09l-1.48-2.55c-.23-.4-.99-1.72-.77-2.1.82-.46,2.38,2.08,2.8,2.65l1.52,2.11c5.37.61,10.52,2.39,15.09,5.23,2.16,1.34,4.07,2.94,5.79,4.79,2.61,2.81,5.4,6.44,5.64,10.4.18,2.99-1.57,5.73-4.36,6.81-.21.08-.53.08-.7-.03.03-.36.12-.69.25-1,1.42-3.6.33-7-1.86-9.99-1.09-1.5-2.33-2.81-3.72-4.05-3.71-3.3-8.68-6.71-13.38-8.33l7.55,10.43c1.32.95,3.04,2.71,3.09,4.4.02.69-.42,1.21-1.09,1.37-1.62.33-3.75-.83-5.02-1.93h0ZM870.64,162.07c.11-.32,0-.7-.17-.97-.59-.99-1.55-1.72-2.67-2.01-.32-.08-.72-.05-.95.15-.28.25-.24.68-.07,1.02.96,1.92,3.53,2.82,3.86,1.81h0Z"/><path d="M910.73,139.56h7.14l-.02,1.06c-2.04.31-2.24,2.01-2.24,3.75v12.33c0,.91-.11,1.76-.3,2.64-.68,3.2-3.53,5.26-6.6,5.91-2.21.47-4.49.45-6.71-.01-3.18-.66-5.78-2.71-6.45-5.97-.16-.78-.27-1.51-.27-2.32v-12.75c0-1.73-.18-3.4-2.24-3.59v-1.05s9.48,0,9.48,0v1.05c-1.08.13-1.82.75-2.01,1.77-.12.65-.18,1.29-.18,1.99v11.99c0,.86.08,1.63.24,2.45.38,1.86,1.7,3.31,3.53,3.88,2.77.86,6.39.32,8.05-2.39.73-1.19.88-2.97.88-4.37v-11.56c0-1.76-.24-3.58-2.31-3.77v-1.05s0,0,0,0Z"/><path d="M985.36,153.8v7.24c0,.58.11,1.15.26,1.68.2.69.72,1.16,1.41,1.32l.57.13v1.02s-9.21,0-9.21,0v-1.05c1.04-.08,1.84-.67,2.05-1.69.12-.58.2-1.16.2-1.79v-9.38c0-.67-.11-1.3-.29-1.91-.27-.88-.96-1.39-1.95-1.39v-1.09s6.71-.22,6.71-.22v3c.77-1.11,1.69-2.01,2.91-2.56,2.03-.91,4.38-.82,6.33.23.98.53,1.68,1.3,2.09,2.32.37.91.56,1.85.56,2.87v8.29c.01.65.11,1.26.27,1.86.18.67.68,1.14,1.33,1.32l.62.18v1.02s-7.23,0-7.23,0c.15-1.55.3-3.03.31-4.59v-6.98c-.02-.58-.06-1.11-.15-1.67-.2-1.25-1.11-2.21-2.36-2.47-1.64-.35-3.29.53-3.94,2.09-.29.69-.47,1.42-.47,2.23h0Z"/><path d="M927.58,153.73v7.31c0,.6.1,1.17.26,1.71.3.99,1.03,1.25,1.98,1.43v1.01h-9.2v-1.05c1.04-.08,1.81-.66,2.03-1.66.13-.59.21-1.18.21-1.81v-9.38c0-.68-.11-1.32-.3-1.94-.27-.88-.99-1.35-1.94-1.37v-1.08s6.71-.22,6.71-.22v3.01c.77-1.14,1.73-2.06,2.98-2.61,2.03-.88,4.39-.77,6.32.3.94.52,1.61,1.28,2.01,2.26.38.92.57,1.87.57,2.89v8.26c.01.64.1,1.26.26,1.86.17.64.64,1.13,1.27,1.32l.7.21v1.01h-7.25c.17-1.57.31-3.06.31-4.62v-7.01c-.03-.57-.07-1.09-.16-1.64-.2-1.23-1.1-2.17-2.34-2.44-1.62-.35-3.25.49-3.93,2.01-.3.68-.5,1.42-.5,2.23h0Z"/><path d="M887.7,169.41c.38.78-1.7,4.16-2.21,4.87-1.47,2.05-3.48,3.56-5.79,4.57-2.28,1-4.68,1.38-7.17,1.38-6.71,0-13.21-1.88-18.82-5.56-2.53-1.66-4.88-3.6-6.92-5.83-.7-.77-2.09-2.71-1.55-3.74.59-1.11,1.59-1.97,2.71-2.47.33-.15.76-.2,1.07-.04,4.37,6.09,10.69,10.53,17.79,12.86,1.97.65,3.93,1.04,6.01,1.09,3.86.1,7.6-.98,10.78-3.14,1.38-.94,2.47-2.07,3.37-3.47.16-.25.41-.52.73-.53h0Z"/><path d="M944.28,165.19l-.02-1.04c1.86-.08,2.3-1.58,2.3-3.19v-10.25c0-1.46-.65-2.63-2.28-2.74v-1.08s6.98-.22,6.98-.22v13.99c0,.76.11,1.44.3,2.14.26.95.98,1.23,1.88,1.37v1.02h-9.17Z"/><path d="M998.82,180.07h-2.06c-.52,0-.92-.2-1.17-.62l-2.15-3.57-.61.03.03,2.66c0,.55.39.94.91,1.04.12.02.13.48,0,.48h-3.96c-.12,0-.11-.46,0-.48.54-.08.89-.5.89-1.08v-8.22c0-.47-.25-.93-.62-1.11l-.31-.14c-.09-.04-.05-.34,0-.44l3.05-.09v6.53c.4.04.84-.1,1.15-.4l1.08-1.03c.23-.22.65-.75.47-1.04-.15-.23-.38-.13-.62-.28-.06-.04-.03-.23-.01-.4h3.6s-.03.47-.03.47c-1.17.08-2.46,1.73-3.35,2.5l2.2,3.38c.32.49.73.93,1.2,1.25l.32.12c.09.03.08.46-.02.46h0Z"/><path d="M903.55,179.29c-1.87,1.45-5.03,1.13-7.08.03v-2.29c.16-.09.42-.09.64-.04.01.82.42,1.47,1.14,1.84,1.28.65,3.41.61,4.22-.6.49-.73.26-1.59-.47-2.07-1.6-1.05-3.25-1.29-4.52-2.39-.65-.57-1.03-1.32-1.03-2.13,0-.85.36-1.64,1.05-2.2,1.71-1.39,4.68-1.22,6.58-.29v2.25c-.12.14-.47.15-.63.05-.03-.69-.35-1.32-1-1.62-1.47-.68-3.87-.36-3.93,1.23-.08,2.09,4.95,2.1,6.03,4.56.57,1.31.13,2.81-.99,3.68h0Z"/><path d="M982.99,178.48c0,1.43,1.51.84.85,1.6h-3.93c-.11-.09-.11-.43,0-.48.83-.13.95-.86.94-1.6v-4.15c0-.62-.17-1.44-.95-1.47-.09-.09-.09-.4-.02-.5l2.97-.09v1.32c1-1.56,3.21-1.9,4.6-.68.46.4.69,1.11.69,1.71l.02,3.72c0,.81.05,1.57.93,1.74.11.05.1.39,0,.48h-3.17c.11-1.27.16-2.44.14-3.68l-.03-1.97c-.07-.48-.23-.91-.58-1.15-.41-.28-.89-.35-1.38-.17-.64.24-1.09.89-1.09,1.62v3.74s0,0,0,0Z"/><path d="M931.91,178.6c.03.57.41.94.9,1,.11.07.11.39.01.49h-3.96c-.17,0-.15-.47,0-.49.82-.16.91-.84.91-1.63v-4c0-2.21-1.37-1.08-.95-2.07l2.93-.1.05,1.27c1.05-1.53,3.22-1.83,4.6-.59.44.4.66,1.09.66,1.68l.02,3.87c.01,2.22,1.27,1.03.96,2.07h-3.2c.11-1.28.17-2.44.15-3.67l-.03-2c-.06-.47-.24-.9-.59-1.13-.39-.27-.86-.34-1.33-.18-.65.22-1.09.86-1.13,1.59-.07,1.29-.06,2.58,0,3.91h0Z"/><path d="M954.91,179.22c-1.44,1.49-4.43,1.18-6.11.37v-2.08h.64c.02.66.33,1.18.92,1.47,1.14.56,3.05.37,3.17-.73.18-1.68-4.37-1.45-4.7-3.73-.1-.71.09-1.35.59-1.84,1.34-1.29,3.93-1.15,5.58-.43v1.95s-.62.02-.62.02c-.03-.56-.25-.98-.73-1.21-1.07-.52-2.76-.32-2.81.6-.07,1.29,3.59,1.37,4.48,2.97.47.86.29,1.92-.41,2.64h0Z"/><path d="M922.96,172.35c-.83.14-1.25,1.27-1.53,1.99l-2.24,5.72c-.84.02-1.89.21-2.2-.76l-1.77-5.56c-.16-.49-.43-.97-.84-1.24-.11-.07-.24-.12-.31-.17-.08-.06-.04-.35.02-.45l2.88-.09c.19.81.32,1.53.56,2.28l1.31,4.16,1.39-3.82c.16-.44.24-.9.29-1.35-.12-1.04-1.07-.34-.74-1.16h3.19s0,.45,0,.45h0Z"/><path d="M923.72,180.09c-.1,0-.19-.3-.14-.37s.17-.13.32-.17c.42-.11.69-.55.69-1.03v-5.09c0-.57-.39-.99-.95-1.03-.03-.13-.04-.29-.04-.5l3.12-.1v6.21c0,.78.11,1.46.88,1.59.13.02.14.48,0,.48h-3.88s0,0,0,0Z"/><path d="M949.98,143.94c-.81.4-1.7.41-2.5.09-.73-.3-1.21-.94-1.32-1.62-.12-.81.16-1.58.8-2.06.85-.64,1.97-.74,2.93-.31.8.36,1.28,1.07,1.3,1.9.02.83-.4,1.6-1.21,2h0Z"/><path d="M926.39,169.02c.34.31.36.79.18,1.15-.17.35-.6.54-1.04.54s-.84-.19-1.02-.55c-.17-.37-.13-.83.19-1.13.46-.42,1.2-.45,1.68,0h0Z"/><path d="M870.64,162.07c-.33,1.01-2.9.11-3.86-1.81-.17-.34-.21-.77.07-1.02.23-.2.64-.23.95-.15,1.12.29,2.08,1.02,2.67,2.01.16.27.27.65.17.97h0Z"/><path d="M965.85,146.35c-5.38,0-9.74,4.35-9.74,9.72s4.36,9.72,9.74,9.72,9.74-4.35,9.74-9.72-4.36-9.72-9.74-9.72ZM970.11,158.77c-.36,2.34-1.56,4.65-4.3,4.66h0c-4.55.02-4.76-6.39-4.23-9.84.04-.23.07-.45.11-.65.45-2.21,1.66-4.21,4.15-4.29,4.58-.14,4.75,6.49,4.31,9.8-.01.1-.03.22-.04.31Z"/><path d="M967,173.89c1.34-.53,2.28-1.26,2.22-2.8-.09-2.02-1.97-2.48-3.68-2.48h-6.1c-.05.14-.03.39.05.47.74.11.91.8.91,1.46v7.9c0,.46-.25.96-.63,1.09-.18.06-.3.1-.36.18-.05.06.02.37.1.37h6.39c.81,0,1.53-.2,2.25-.51h0c1.15-.5,1.74-1.53,1.8-2.72.09-1.9-1.32-2.76-2.94-2.96ZM962.68,170.38c0-.28.14-.53.37-.65.03-.02.07-.02.1-.03.05-.02.1-.04.16-.05.36-.03.72-.05,1.07-.05.36,0,.71.03,1.05.09.89.16,1.43.87,1.41,1.75-.01.57-.13,1.13-.56,1.53-.28.26-.65.45-1.05.54-.01,0-.03,0-.04,0-.12.02-.25.04-.37.04h0l-2.14.02h0v-3.21ZM967.47,177.06c-.15,1.07-.94,1.84-2.07,1.96-.7.07-1.41.05-2.13.02-.36-.05-.6-.31-.6-.69v-3.79s2.56,0,2.56,0c.45,0,.92.15,1.32.33.62.35.91.95.94,1.69,0,.16,0,.32-.02.48Z"/><path d="M947.91,171.89l-2.96-.09v1.37c-.85-1.42-2.63-1.84-4.05-1.07-2.08,1.13-2.37,4.13-1.5,6.07.59,1.31,1.84,2.04,3.26,1.91.95-.09,1.69-.55,2.26-1.36.07,1.24.06,2.86-1.15,3.53-.71.39-1.56.41-2.31.15-.72-.25-1.16-.88-1.24-1.64-.18-.09-.41-.09-.67-.05v2.14s0,0,0,0c1.84.89,4.76,1.06,6.25-.3.71-.65,1.12-1.57,1.13-2.56l.04-6.55c0-.58.37-.99.92-1.04.03-.14.03-.35.01-.51ZM944.11,178.43c-.33.26-.7.4-1.12.38-.14,0-.28-.03-.43-.08-.4-.12-.81-.49-1.01-1-.45-1.15-.45-2.45,0-3.6.28-.72.96-1.16,1.66-1.12.23.01.47.08.7.2.54.3.86.9.91,1.52h0c.09,1.14.21,2.96-.7,3.69Z"/><path d="M979.18,179.6c-.91-.09-.96-1.02-.96-1.78l-.02-3.75c0-.46-.18-.98-.45-1.33-1.15-1.47-5.11-1.25-6.18-.15-.26.27-.31.7-.03.96.28.26.72.21,1.01-.05.84-.78,2.09-1.04,3.1-.48.32.18.5.54.48.85-.07,1.14-2.42,1-4.2,2.12-.66.41-1.08,1.06-1.11,1.77-.03.76.28,1.47.94,1.93,1.43.99,3.49.67,4.48-.77h0c.02.31.02.7.24.98.14.18.52.3.76.29l1.94-.11c.1-.09.1-.43,0-.48ZM976.09,177.42c-.03.48-.22.89-.53,1.18-.31.29-.73.46-1.22.45h0c-.62,0-1.1-.35-1.29-.85-.2-.53-.05-1.1.4-1.49,0,0,0,0,0,0,0,0,0,0,0,0,.77-.69,1.91-.84,2.67-1.45,0,.76,0,1.46-.03,2.15Z"/><path d="M913.87,179.6c-.85-.13-.94-.86-.94-1.66v-3.79c-.01-.5-.18-1.05-.48-1.42-1.15-1.45-5.15-1.23-6.18-.11-.27.29-.27.74.02.98.21.17.64.2.91-.05.85-.79,2.09-1.1,3.14-.54.33.18.52.54.5.88-.07,1.12-2.46,1-4.22,2.12-.67.43-1.08,1.09-1.09,1.83,0,.74.32,1.44.96,1.88,1.48,1.01,3.5.59,4.48-.79,0,.46.02.69.17.93s.54.37.83.35l1.9-.12c.13,0,.12-.46,0-.48ZM910.79,177.5c-.07.91-.78,1.55-1.7,1.55h0c-.63,0-1.12-.33-1.31-.82-.22-.56-.05-1.13.41-1.53.77-.67,1.91-.84,2.66-1.42h0s0,0,0,0c-.01.79,0,1.51-.05,2.23Z"/><path d="M627.52,14.67l-15.15,4.71v5.6c0,19.3,15.15,25.69,15.15,25.69s15.15-6.39,15.15-25.69v-5.6l-15.15-4.71ZM622.34,27.66c-.57.24-.92.68-.92,1.38v14.33c-.16-.18-.32-.36-.47-.55v-14.17s.01-.13.02-.15c.11-.4.6-.77,1.37-1.06v.23h0ZM623.01,24.76c-2.76.87-3.27,1.79-3.18,2.4.02.15.09.28.17.39-.1.15-.18.31-.24.48-.28-.26-.44-.56-.44-.91,0-1.04,1.49-2,3.66-2.5.12-.03.13.11.03.14ZM626.41,21.05l-8.4,2.58v1.36l-.47.14v-1.8l9.3-2.84c0,.26-.17.5-.43.57ZM629.99,46.67c-.57.4-1.16.77-1.77,1.12v-18.85c0-1.26-.65-1.87-1.38-2.03v-.23c.23,0,.46-.01.69-.01.87,0,1.7.05,2.46.14v19.86h0ZM632.59,44.54c-.48.45-.97.89-1.5,1.31v-18.86c.56.11,1.07.25,1.5.4v17.15ZM634.09,42.95c-.2.24-.41.47-.62.7v-15.84c.4.26.62.54.62.84v14.3ZM627.52,25.37c-.2,0-.41,0-.61,0,0-.72.58-1.3,1.3-1.3,3.89,0,7.51,1.44,7.51,3.03,0,.35-.16.65-.45.92-.43-1.17-2.24-2.67-7.75-2.67ZM628.21,22.27v-1.8l9.3,2.85v1.8l-9.3-2.85ZM640.46,24.98c0,5.43-1.58,11.45-5.07,16.32v-12.05c1.04-.54,1.6-1.43,1.66-2.59l1.71-.51v-3.8l-11.23-3.5-11.23,3.5v3.8l1.71.51c.06,1.15.62,2.05,1.66,2.59v11.84c-4.23-6.16-5.07-13.43-5.07-16.11v-3.97l12.94-4.03,12.94,4.03v3.97h0ZM745.26,22.37h10.15v3.6h-6.2v3.55h5.88v3.38h-5.88v7.23h-3.95v-17.75ZM756.29,31.25c0-5.55,4.23-9.13,9.23-9.13,2.53,0,5.45.9,7.28,4l-2.85,1.98c-1.02-1.5-2.6-2.23-4.33-2.23-2.9,0-5.25,2.05-5.25,5.38s2.4,5.38,5.28,5.38c1.8,0,3.28-.73,4.3-2.23l2.85,1.98c-1.83,3.1-4.78,4-7.3,4-5,0-9.2-3.58-9.2-9.13ZM773.81,33.4v-11.03h3.95v11.05c0,2.65,1.63,3.25,2.9,3.25s2.9-.6,2.9-3.25v-11.05h3.95v11.03c0,4.55-3.08,6.98-6.85,6.98-3.8,0-6.85-2.43-6.85-6.98ZM659.17,33.05h-6.7v7.08h-3.95v-17.75h3.95v7.03h6.7v-7.03h3.95v17.75h-3.95v-7.08ZM664.16,33.63c0-4.53,3.25-6.75,6.2-6.75,2.3,0,3.65,1.25,3.85,1.73h.07v-1.48h3.88v13h-3.88v-1.48h-.07c-.2.48-1.55,1.73-3.85,1.73-2.95,0-6.2-2.22-6.2-6.75ZM671.16,36.93c1.7,0,3.23-1.18,3.23-3.3s-1.53-3.3-3.23-3.3-3.18,1.2-3.18,3.3,1.53,3.3,3.18,3.3ZM679.45,27.12h3.88v3.42c.42-2.1,1.68-3.54,4.03-3.54.3,0,.6.02.93.12v3.68c-.3-.05-.58-.08-.9-.08-2.58,0-4.05,1.73-4.05,4.18v5.22h-3.88v-13ZM717.78,27.12h3.88v3.42c.42-2.1,1.68-3.54,4.03-3.54.3,0,.6.02.93.12v3.68c-.3-.05-.58-.08-.9-.08-2.58,0-4.05,1.73-4.05,4.18v5.22h-3.88v-13ZM688.98,27.12h3.95l3.3,8.45,3.3-8.45h3.95l-5.45,13h-3.6l-5.45-13ZM702.52,33.63c0-4.53,3.25-6.75,6.2-6.75,2.3,0,3.65,1.25,3.85,1.73h.07v-1.48h3.88v13h-3.88v-1.48h-.07c-.2.48-1.55,1.73-3.85,1.73-2.95,0-6.2-2.22-6.2-6.75ZM709.52,36.93c1.7,0,3.23-1.18,3.23-3.3s-1.53-3.3-3.23-3.3-3.18,1.2-3.18,3.3c0,2.1,1.52,3.3,3.18,3.3ZM737.03,40.13v-1.48h-.07c-.2.48-1.55,1.73-3.85,1.73-2.95,0-6.2-2.23-6.2-6.75s3.25-6.75,6.2-6.75c2.3,0,3.65,1.25,3.85,1.73h.07v-6.23h3.88v17.75h-3.88ZM733.91,36.93c1.7,0,3.23-1.18,3.23-3.3s-1.53-3.3-3.23-3.3-3.18,1.2-3.18,3.3,1.53,3.3,3.18,3.3Z"/><path d="M637.74,146.17l.34.34c1.25,1.08,2.8,2,4.62,2s2.05-.34,2.22-1.31-.86-1.08-1.54-1.2l-1.54-.29c-2.97-.57-5.3-2.34-4.73-5.76.8-5.13,5.93-8.04,10.67-8.04s4.62.63,6.56,1.88l-3.02,5.53c-1.2-.91-2.62-1.65-4.34-1.65s-1.71.29-1.88,1.14c-.11.8.86.91,1.43,1.08l1.71.4c3.19.74,5.36,2.51,4.79,6.22-.8,5.19-5.93,7.7-10.61,7.7s-5.76-.74-7.99-2l3.37-6.1-.06.06Z"/><path d="M656.45,132.25h14.55l-.91,5.93h-6.62l-.34,2.05h6.05l-.91,5.65h-6.05l-.34,2.11h6.84l-.91,5.93h-14.77l3.42-21.68h0Z"/><path d="M673.34,132.25h9.53c4.91,0,8.67,2.05,7.81,7.53-.51,3.25-2,4.68-5.08,5.65v.17c.34.34.74.68,1.08,1.31l3.59,7.02h-9.07l-2.34-6.96h-.17l-1.08,6.96h-7.7s3.42-21.68,3.42-21.68ZM679.5,141.89h.57c1.31,0,2.62-.23,2.85-1.83.29-1.65-.86-1.88-2.22-1.88h-.63l-.57,3.65v.06Z"/><path d="M714.98,132.25l-11.81,21.68h-6.67l-4.96-21.68h8.21l1.31,9.87c.17,1.08.23,2.11,0,3.19h.17c.17-1.08.57-2.17,1.03-3.19l4.45-9.87h8.27Z"/><path d="M715.66,132.25h7.87l-3.42,21.68h-7.87l3.42-21.68Z"/><path d="M740.7,141.09c-1.08-1.2-2.51-2.17-4.28-2.17s-4.56,1.88-4.96,4.22c-.4,2.4,1.37,4.22,3.71,4.22s3.37-.8,4.85-2l-1.54,8.1c-1.37.63-4.34.86-5.76.86-6.16,0-10.27-4.79-9.24-10.95,1.03-6.33,6.79-11.35,13.12-11.35s3.59.34,5.13.91l-1.08,8.27.06-.11Z"/><path d="M743.61,132.25h14.55l-.91,5.93h-6.62l-.34,2.05h6.05l-.91,5.65h-6.05l-.34,2.11h6.84l-.91,5.93h-14.77l3.42-21.68h0Z"/><polygon points="642.65 183.47 645.16 175.88 647.67 183.47 655.66 183.58 649.21 188.26 651.55 195.91 645.1 191.23 638.6 195.79 641.05 188.2 634.66 183.47 642.65 183.47" fill-rule="evenodd"/><polygon points="667.86 183.47 670.43 175.88 672.88 183.47 680.87 183.58 674.42 188.26 676.82 195.91 670.31 191.23 663.81 195.79 666.27 188.2 659.88 183.47 667.86 183.47" fill-rule="evenodd"/><polygon points="692.39 183.47 694.96 175.88 697.47 183.47 705.4 183.58 698.95 188.26 701.35 195.91 694.9 191.23 688.4 195.79 690.85 188.2 684.4 183.47 692.39 183.47" fill-rule="evenodd"/><polygon points="716.23 183.47 718.8 175.88 721.25 183.47 729.24 183.58 722.79 188.26 725.19 195.91 718.69 191.23 712.18 195.79 714.64 188.2 708.25 183.47 716.23 183.47" fill-rule="evenodd"/><polygon points="741.45 183.47 744.01 175.88 746.52 183.47 754.45 183.58 748 188.26 750.4 195.91 743.95 191.23 737.45 195.79 739.91 188.2 733.46 183.47 741.45 183.47" fill-rule="evenodd"/><path d="M643.51,164.3c-.57-.68-1.31-1.25-2.28-1.25s-2.45,1.08-2.62,2.4c-.23,1.37.74,2.4,2,2.4s1.83-.46,2.57-1.14l-.8,4.62c-.74.34-2.34.51-3.08.51-3.31,0-5.48-2.74-4.96-6.27.51-3.59,3.59-6.5,7.02-6.5s1.88.17,2.74.51c0,0-.57,4.73-.57,4.73Z"/><path d="M645.33,159.28h5.08c2.62,0,4.62,1.2,4.16,4.34-.29,1.88-1.08,2.68-2.74,3.25v.11c.17.17.4.4.57.74l1.94,4.05h-4.85l-1.25-3.99h-.06l-.57,3.99h-4.11l1.83-12.38v-.11ZM648.64,164.76h.29c.68,0,1.43-.11,1.54-1.03.11-.97-.46-1.08-1.2-1.08h-.34s-.29,2.11-.29,2.11Z"/><path d="M656.51,159.28h7.81l-.51,3.37h-3.54l-.17,1.2h3.25l-.46,3.25h-3.25l-.17,1.2h3.65l-.51,3.37h-7.93s1.83-12.38,1.83-12.38Z"/><path d="M665.81,159.28h4.28c3.88,0,6.62,1.83,5.93,6.39-.57,3.71-3.31,6.05-6.73,6.05h-5.3l1.83-12.38v-.06ZM668.77,167.96h.29c1.43,0,2.57-.68,2.8-2.34.29-1.77-.57-2.51-2.11-2.51h-.29l-.68,4.79v.06Z"/><path d="M678.13,159.28h4.22l-1.83,12.38h-4.22s1.83-12.38,1.83-12.38Z"/><path d="M683.09,159.28h8.84l-.57,4.05-2.28-.11-1.25,8.5h-4.22l1.25-8.5-2.34.11s.57-4.05.57-4.05Z"/><path d="M709.33,159.28l-1.08,7.36c-.51,3.59-2.91,5.25-6.16,5.25s-5.13-1.65-4.56-5.25l1.08-7.36h4.22l-1.03,6.9c-.11.97-.23,1.83.86,1.83s1.25-.86,1.43-1.83l1.03-6.9h4.22Z"/><path d="M710.76,159.28h4.05l2.74,6.9h.11c0-1.03,0-2.11.11-3.14l.57-3.71h4.05l-1.83,12.38h-4.05l-2.74-6.5h-.11c0,.86,0,1.65-.11,2.51l-.57,4.05h-4.05l1.83-12.38v-.11Z"/><path d="M723.88,159.28h4.22l-1.83,12.38h-4.22s1.83-12.38,1.83-12.38Z"/><path d="M741.1,165.5c-.57,3.99-3.82,6.39-7.36,6.39s-6.05-2.4-5.48-6.39c.57-3.88,3.82-6.45,7.36-6.45s6.05,2.51,5.48,6.45ZM732.55,165.56c-.23,1.43.51,2.4,1.83,2.4s2.28-.97,2.51-2.4c.17-1.31-.46-2.4-1.83-2.4s-2.34,1.08-2.51,2.4Z"/><path d="M743.1,159.28h4.05l2.74,6.9h.11c0-1.03,0-2.11.11-3.14l.57-3.71h4.05l-1.83,12.38h-4.05l-2.74-6.5h-.11c0,.86,0,1.65-.11,2.51l-.57,4.05h-4.05l1.83-12.38v-.11Z"/><path d="M762.55,138.41c-1.71,0-3.08-1.37-3.08-3.08s1.37-3.08,3.08-3.08,3.08,1.37,3.08,3.08-1.37,3.08-3.08,3.08ZM762.55,132.76c-1.43,0-2.57,1.14-2.57,2.57s1.14,2.57,2.57,2.57,2.57-1.14,2.57-2.57-1.14-2.57-2.57-2.57ZM761.18,133.73h1.43c.8,0,1.08.51,1.08.86,0,.51-.4.91-.97.97h0c.29.11.51.4.74.86l.4.63h-.63l-.29-.51c-.4-.74-.57-.86-.97-.86h-.34v1.37h-.51v-3.31h.06ZM762.49,135.16c.4,0,.68-.17.68-.51s-.23-.51-.57-.51h-.86v.97h.74v.06Z"/><path d="M419.06,177.7c-.11,0-.17-.06-.2-.19-.17-.68-.7-1.12-1.53-1.12-.93,0-1.75.68-1.75,1.86s.79,1.86,1.75,1.86c.81,0,1.34-.39,1.53-1.04.04-.14.11-.19.24-.19h1.69c.09,0,.21.05.21.16,0,1.42-1.31,2.85-3.67,2.85-2.17,0-3.87-1.52-3.87-3.65s1.7-3.65,3.87-3.65,3.67,1.38,3.67,2.91c0,.09-.07.19-.2.19h-1.73,0Z"/><path d="M422.97,174.86c0-.07.07-.14.14-.14h3.54c1.75,0,2.98,1.04,2.98,2.61,0,1-.54,1.72-1.37,2.12v.02s.15.21.28.41l1.06,1.64c.06.09.08.13.08.18s-.04.08-.12.08h-2.17c-.06,0-.13-.02-.17-.08l-1.19-1.86h-.96v1.8c0,.07-.07.14-.14.14h-1.84c-.07,0-.14-.07-.14-.14v-6.78h0ZM425.09,176.51v1.66h1.37c.67,0,1.05-.37,1.05-.84s-.38-.82-1.05-.82h-1.37Z"/><path d="M433.76,179.05v.94h3.87c.07,0,.17.09.17.16v1.46c0,.07-.09.16-.17.16h-5.85c-.07,0-.14-.07-.14-.14v-6.78c0-.07.07-.14.14-.14h5.8c.07,0,.17.09.17.16v1.46c0,.07-.09.16-.17.16h-3.82v.87h3.47c.07,0,.17.09.17.16v1.34c0,.07-.09.16-.17.16h-3.47s0,0,0,0Z"/><path d="M439.9,181.79c-.07,0-.14-.07-.14-.14v-6.78c0-.07.07-.14.14-.14h3.07c2.32,0,3.98,1.38,3.98,3.53s-1.39,3.53-3.95,3.53h-3.09ZM441.88,176.51v3.49h1.1c1.24,0,1.84-.67,1.84-1.74s-.76-1.74-1.85-1.74h-1.09Z"/><path d="M451.04,181.65c0,.07-.07.14-.14.14h-1.84c-.07,0-.14-.07-.14-.14v-6.78c0-.07.07-.14.14-.14h1.84c.07,0,.14.07.14.14v6.78Z"/><path d="M452.97,176.51c-.07,0-.16-.09-.16-.16v-1.46c0-.07.09-.16.16-.16h6.8c.07,0,.17.09.17.16v1.46c0,.07-.09.16-.17.16h-2.34v5.13c0,.07-.07.14-.14.14h-1.84c-.07,0-.14-.07-.14-.14v-5.13h-2.34Z"/><path d="M470.51,174.86c0-.07.07-.14.14-.14h1.84c.07,0,.14.07.14.14v3.47c0,2.28-1.4,3.57-3.73,3.57s-3.73-1.28-3.73-3.57v-3.47c0-.07.07-.14.14-.14h1.84c.07,0,.14.07.14.14v3.44c0,1.21.61,1.83,1.6,1.83s1.6-.61,1.6-1.83v-3.44h0,0Z"/><path d="M477.74,178.78c-.33-.33-.71-.8-.71-.8h-.05v3.66c0,.07-.07.14-.14.14h-1.84c-.07,0-.14-.07-.14-.14v-6.78c0-.07.07-.14.14-.14h1.59l3.03,3.06c.34.34.65.73.65.73h.04v-3.65c0-.07.07-.14.14-.14h1.84c.07,0,.14.07.14.14v6.78c0,.07-.07.14-.14.14h-1.59l-2.96-3h0Z"/><path d="M486.84,181.65c0,.07-.07.14-.14.14h-1.84c-.07,0-.14-.07-.14-.14v-6.78c0-.07.07-.14.14-.14h1.84c.07,0,.14.07.14.14v6.78Z"/><path d="M496.76,178.25c0,2.28-1.83,3.65-3.98,3.65s-3.97-1.37-3.97-3.65,1.83-3.65,3.97-3.65,3.98,1.37,3.98,3.65ZM490.93,178.25c0,1.15.86,1.86,1.85,1.86s1.85-.71,1.85-1.86-.86-1.86-1.85-1.86-1.85.72-1.85,1.86Z"/><path d="M501.61,178.78c-.33-.33-.71-.8-.71-.8h-.05v3.66c0,.07-.07.14-.14.14h-1.84c-.07,0-.14-.07-.14-.14v-6.78c0-.07.07-.14.14-.14h1.59l3.03,3.06c.34.34.65.73.65.73h.04v-3.65c0-.07.07-.14.14-.14h1.84c.07,0,.14.07.14.14v6.78c0,.07-.07.14-.14.14h-1.59l-2.96-3h0Z"/><path d="M520.64,157.24v-4.77c0-4.01-3.07-6.29-6.33-6.29h-1.89c-1.78.01-2.7,1.61-2.7,2.83v1.25h0s0,18.79,0,18.79c0,.26.26.53.56.53h2.15c.26,0,.52-.26.52-.53v-5.57h1.37c.48,0,1-.08,1.48-.19l1.7,5.76c.07.26.26.53.56.53h2.07c.26,0,.52-.26.52-.53l-2.18-7.01c1.3-1.06,2.18-2.69,2.18-4.81h0ZM517.42,156.63c0,2.65-1.7,3.94-3.26,3.94h-1.22v-10.7c0-.43.35-.78.78-.78h.44c1.55,0,3.26,1.29,3.26,3.9v3.64h0Z"/><path d="M456.26,157.19v-4.77c0-4.01-3.07-6.29-6.33-6.29h-1.89c-1.79.01-2.7,1.61-2.7,2.83v1.25h0s0,18.79,0,18.79c0,.26.26.53.56.53h2.15c.26,0,.52-.26.52-.53v-5.57h1.37c.48,0,1-.08,1.48-.19l1.7,5.76c.07.26.26.53.56.53h2.07c.26,0,.52-.26.52-.53l-2.18-7.01c1.3-1.06,2.18-2.69,2.18-4.81h0ZM453.03,156.59c0,2.65-1.7,3.94-3.26,3.94h-1.22v-10.7c0-.43.35-.78.78-.78h.44c1.55,0,3.26,1.29,3.26,3.9v3.64h0Z"/><path d="M399.65,166.62h4.63c.22,0,.44.23.44.49v1.97c0,.23-.22.45-.44.45h-7.29c-.3,0-.56-.26-.56-.53v-22.34c0-.26.26-.53.56-.53h7.29c.22,0,.44.23.44.45v1.97c0,.27-.22.49-.44.49h-4.63v8.1h2.74c.22,0,.44.23.44.45v1.97c0,.26-.22.49-.44.49h-2.74v6.55h0Z"/><path d="M429.71,169.01c0,.26-.26.53-.52.53h-2.15c-.3,0-.56-.26-.56-.53v-22.34c0-.26.26-.53.56-.53h2.15c.26,0,.52.27.52.53v22.34Z"/><path d="M436.78,166.62h4.63c.22,0,.44.23.44.49v1.97c0,.23-.22.45-.44.45h-7.29c-.3,0-.56-.26-.56-.53v-22.34c0-.26.26-.53.56-.53h7.29c.22,0,.44.23.44.45v1.97c0,.27-.22.49-.44.49h-4.63v8.1h2.74c.22,0,.44.23.44.45v1.97c0,.26-.22.49-.44.49h-2.74v6.55h0Z"/><path d="M501.17,166.66h4.63c.22,0,.44.23.44.49v1.97c0,.23-.22.45-.44.45h-7.29c-.3,0-.56-.26-.56-.53v-22.34c0-.26.26-.53.56-.53h7.29c.22,0,.44.23.44.45v1.97c0,.27-.22.49-.44.49h-4.63v8.1h2.74c.22,0,.44.23.44.45v1.97c0,.26-.22.49-.44.49h-2.74v6.55h0Z"/><path d="M526.97,169.05c0,.26-.26.53-.52.53h-2.15c-.3,0-.56-.26-.56-.53v-22.34c0-.26.26-.53.56-.53h2.15c.26,0,.52.27.52.53v22.34Z"/><path d="M533.86,163.33c0,2.54.78,3.52,2.37,3.52,1.48,0,2.33-.72,2.44-3.18,0-.26.26-.53.56-.53h2.15c.26,0,.52.27.52.53-.15,3.52-2.18,6.1-5.66,6.1-3.78,0-5.59-2.65-5.59-6.17v-11.51c0-3.52,1.81-6.17,5.59-6.17,3.48,0,5.52,2.58,5.66,6.1,0,.26-.26.53-.52.53h-2.15c-.3,0-.56-.26-.56-.53-.11-2.46-.96-3.18-2.44-3.18-1.59,0-2.37.98-2.37,3.52v10.98h0Z"/><path d="M372.78,146.13h-1.89c-1.78.01-2.7,1.61-2.7,2.83v1.25h0v18.79c0,.26.26.53.56.53h2.15c.26,0,.52-.26.52-.53v-5.57h1.37c3.26,0,6.33-2.27,6.33-6.25v-4.77c0-4.01-3.07-6.29-6.33-6.29ZM375.89,156.59c0,2.65-1.7,3.94-3.26,3.94h-1.22v-10.7c0-.43.35-.78.78-.78h.44c1.55,0,3.26,1.29,3.26,3.9v3.64h0Z"/><path d="M393.32,157.19v-4.77c0-4.01-3.07-6.29-6.33-6.29h-1.89c-1.79.01-2.7,1.61-2.7,2.83v1.25h0s0,18.79,0,18.79c0,.26.26.53.56.53h2.15c.26,0,.52-.26.52-.53v-5.57h1.37c.48,0,1-.08,1.48-.19l1.7,5.76c.07.26.26.53.56.53h2.07c.26,0,.52-.26.52-.53l-2.18-7.01c1.3-1.06,2.18-2.69,2.18-4.81h0ZM390.1,156.59c0,2.65-1.7,3.94-3.26,3.94h-1.22v-10.7c0-.43.35-.78.78-.78h.44c1.55,0,3.26,1.29,3.26,3.9v3.64h0Z"/><path d="M471.18,145.91c-3.81,0-5.63,2.65-5.63,6.17v16.89c0,.27.26.53.56.53h2.15c.26,0,.52-.27.52-.53v-6.6h4.81v6.6c0,.27.26.53.52.53h2.15c.3,0,.56-.27.56-.53v-16.89c0-3.52-1.81-6.17-5.63-6.17h0ZM468.78,159.45v-7.1c0-2.54.78-3.52,2.41-3.52s2.41.99,2.41,3.52v7.1h-4.81Z"/><path d="M549.9,145.91c-3.81,0-5.63,2.65-5.63,6.17v16.89c0,.27.26.53.56.53h2.15c.26,0,.52-.27.52-.53v-6.6h4.81v6.6c0,.27.26.53.52.53h2.15c.3,0,.56-.27.56-.53v-16.89c0-3.52-1.81-6.17-5.63-6.17h0,0ZM547.5,159.45v-7.1c0-2.54.78-3.52,2.41-3.52s2.41.99,2.41,3.52v7.1h-4.81Z"/><path d="M422.09,146.13h-2.15c-.19,0-.33.11-.44.27l-4.07,11.13-4.07-11.13c-.11-.15-.26-.27-.44-.27h-2.15c-.3,0-.56.27-.56.53v22.34c0,.27.26.53.56.53h2.15c.29,0,.52-.23.52-.52v-13.68l2.57,6.85c.1.27.36.45.65.45h1.56c.29,0,.55-.18.65-.45l2.57-6.85v13.67c0,.29.24.53.53.53h2.13c.3,0,.56-.27.56-.53v-22.34c0-.27-.26-.53-.56-.53h0Z"/><path d="M494.04,146h-2.15c-.19,0-.33.11-.44.27l-4.07,11.13-4.07-11.13c-.11-.15-.26-.27-.44-.27h-2.15c-.3,0-.56.27-.56.53v22.34c0,.27.26.53.56.53h2.15c.29,0,.52-.23.52-.52v-13.68l2.57,6.85c.1.27.36.45.65.45h1.56c.29,0,.55-.18.65-.45l2.57-6.85v13.67c0,.29.24.53.53.53h2.13c.3,0,.56-.27.56-.53v-22.34c0-.27-.26-.53-.56-.53Z"/><path d="M429.86,64V0h64v64h-64ZM492.38,1.48h-61.05v61.05h61.05V1.48Z"/><polygon points="481.13 43.96 481.11 35.16 478.44 43.96 476.14 43.96 473.57 35.19 473.56 43.96 470.53 43.96 470.53 30.3 474.82 30.29 477.35 38.39 479.89 30.3 484.16 30.3 484.16 43.96 481.13 43.96"/><path d="M468.76,36.96c0,3.92-3.18,7.09-7.09,7.09s-7.09-3.18-7.09-7.09,3.18-7.09,7.09-7.09,7.09,3.18,7.09,7.09ZM465.49,36.96c0-2.11-1.71-3.83-3.83-3.83s-3.83,1.71-3.83,3.83,1.71,3.83,3.83,3.83,3.83-1.71,3.83-3.83Z"/><path d="M481.62,22.2c-.83.31-1.65.39-2.53.44h-3.33s0,4.54,0,4.54l-3.73-.04v-13.58s7.1.01,7.1.01c.88,0,1.68.17,2.48.45,1.27.48,2.18,1.51,2.43,2.85.17.91.16,1.83-.07,2.73-.31,1.23-1.16,2.16-2.37,2.61ZM480.4,17.72c-.11-.44-.44-.69-.81-.88-.44-.18-.89-.25-1.37-.27h-2.46s0,3.07,0,3.07h2.85c.33,0,.66-.08.95-.21.65-.29,1.03-1,.84-1.71Z"/><path d="M464.76,24.82h-5.67s-.88,2.31-.88,2.31h-3.66s5.68-13.53,5.68-13.53h3.41s5.66,13.52,5.66,13.52h-3.64s-.9-2.31-.9-2.31ZM463.66,21.96l-1.73-4.46-1.73,4.47h3.46Z"/><path d="M445.52,24.17c.75.13,1.44.09,2.13-.16.87-.34,1.49-1.02,1.82-1.91h3.5c-.44,2.39-2.13,4.29-4.47,4.97-1.56.44-3.21.41-4.74-.12-2.12-.74-3.72-2.43-4.3-4.6-.96-3.59.75-7.36,4.37-8.57,1.47-.49,3.03-.53,4.53-.14,2.41.64,4.17,2.58,4.61,5.01h-3.5c-.34-.92-.99-1.61-1.89-1.94-.67-.23-1.34-.26-2.04-.14-1.22.23-2.21,1.04-2.66,2.2-.84,2.19.12,4.91,2.64,5.4Z"/><path d="M442.9,38.52c.75,1.89,2.85,2.66,4.65,2.04.91-.31,1.58-1.01,1.92-1.94h3.5c-.45,2.4-2.15,4.31-4.5,4.97-1.55.44-3.19.4-4.72-.13-3.59-1.25-5.26-5.01-4.29-8.59,1.09-3.99,5.32-5.8,9.14-4.66,1.26.4,2.32,1.12,3.13,2.16.62.83,1.04,1.76,1.23,2.78h-3.5c-.39-1.1-1.27-1.86-2.39-2.07-.61-.11-1.2-.09-1.81.06-2.35.62-3.21,3.28-2.37,5.38Z"/><path d="M446.68,50.56l-.04-.3c-.33.36-.81.44-1.28.25-.41-.17-.67-.61-.68-1.09s.24-.94.66-1.12c.46-.2.95-.13,1.32.25v-1.65c.15,0,.28,0,.44,0v3.62s-.42.03-.42.03ZM446.66,49.35c-.02-.48-.38-.76-.8-.74s-.71.37-.7.82c.01.48.35.8.8.78.43-.02.73-.37.71-.85Z"/><path d="M474.57,47.16c.17-.04.31-.04.47,0v2.23c-.01.73-.6,1.26-1.31,1.27s-1.34-.53-1.34-1.27v-2.22c.14-.02.27-.02.46-.01l.02,2.24c0,.5.4.83.84.84s.85-.33.85-.82l.02-2.22Z"/><path d="M466.96,50.54l-.04-.28c-.35.36-.84.44-1.29.25-.41-.17-.67-.6-.67-1.09s.24-.95.68-1.13c.46-.19.95-.1,1.3.26v-1.61c.11-.06.28-.06.44-.03v3.59c-.11.05-.26.05-.41.04ZM466.94,49.35c-.03-.49-.38-.77-.81-.74s-.71.37-.7.82c0,.47.35.8.8.78s.73-.36.71-.85Z"/><path d="M457.82,49.54c.21.42.6.64,1.04.66.4.02.73-.13.98-.45l.39.3c-.49.6-1.3.75-2,.45s-1.09-.98-1.06-1.75c.05-1.04.86-1.79,1.9-1.71.42.03.79.16,1.09.52l-.37.3c-.28-.29-.59-.41-.96-.38-.35.03-.68.2-.9.52-.3.45-.35,1.03-.1,1.54Z"/><path d="M441.6,48.64c.03.11.03.28.02.44h-1.56s0,1.47,0,1.47c-.16.01-.29.01-.46,0v-3.41s2.15,0,2.15,0v.43s-1.68,0-1.68,0v1.07s1.54,0,1.54,0Z"/><path d="M443.82,49.89c.12.07.23.16.34.25-.24.34-.59.45-.98.47-.64.03-1.14-.42-1.2-1.05-.05-.51.17-.99.6-1.22s1.02-.2,1.37.16c.28.28.35.66.32,1.06h-1.83c0,.33.25.55.49.62.35.1.63.04.89-.29ZM443.81,49.21c-.02-.45-.28-.64-.63-.66-.39,0-.73.26-.73.67h1.36Z"/><path d="M464.11,49.88l.33.26c-.24.34-.6.45-.99.47-.64.02-1.14-.42-1.2-1.05-.05-.5.17-.99.6-1.21.45-.23,1.02-.2,1.37.16.28.28.35.67.32,1.06h-1.83c0,.36.28.57.55.64.32.08.6,0,.84-.32ZM464.08,49.21c-.02-.44-.26-.62-.58-.66-.41-.03-.77.25-.77.66h1.36Z"/><path d="M449.49,49.88l.33.26c-.24.34-.6.45-.99.47-.65.02-1.14-.42-1.2-1.06-.05-.5.18-.99.6-1.2.45-.23,1.02-.2,1.37.16.28.28.35.67.32,1.06h-1.83c0,.36.28.57.55.64.32.08.6,0,.84-.32ZM449.46,49.21c-.02-.44-.26-.62-.58-.66-.41-.03-.78.25-.77.67h1.36Z"/><path d="M481.93,49.4c0,.67-.54,1.22-1.22,1.22s-1.22-.54-1.22-1.22.54-1.22,1.22-1.22,1.22.54,1.22,1.22ZM481.47,49.37c-.01-.47-.35-.79-.81-.77-.42.02-.71.37-.7.82,0,.47.35.8.8.78s.72-.37.71-.83Z"/><path d="M452.86,50.61c-.38-.02-.65-.23-.71-.54-.07-.35.1-.67.45-.81s.72-.13,1.11-.14c.05-.22-.08-.47-.31-.53-.32-.09-.6-.01-.87.22l-.26-.27c.38-.34.89-.42,1.37-.26.32.1.49.39.49.72v1.55s-.37.02-.37.02l-.03-.35c-.17.29-.49.43-.87.4ZM452.95,50.25c.25.02.47-.04.62-.21.12-.14.15-.36.15-.59-.35-.02-1.23-.01-1.14.51.03.17.17.27.38.29Z"/><path d="M476.21,49.16l-.02,1.38h-.43s0-2.28,0-2.28h.42s.04.28.04.28c.2-.24.44-.35.76-.35.43,0,.8.31.8.76v1.59s-.42,0-.42,0v-1.45c-.01-.29-.26-.48-.53-.48-.3,0-.61.21-.61.55Z"/><path d="M482.94,49.17l-.02,1.37h-.43s0-2.28,0-2.28h.43s.02.33.02.33c.15-.27.46-.4.8-.4.41,0,.78.31.78.75v1.6s-.42,0-.42,0l-.02-1.47c0-.27-.24-.46-.49-.47-.32-.01-.63.2-.64.56Z"/><path d="M470.44,50.16v.38c-.22.07-.46.09-.69.03-.24-.06-.37-.28-.37-.52v-1.41s-.5-.02-.5-.02v-.37s.49-.02.49-.02v-.63s.43,0,.43,0v.62s.57.02.57.02c.1,0,.1.35,0,.36l-.56.02v1.19c0,.08.06.29.14.32.14.06.28.04.49,0Z"/><rect x="454.79" y="46.89" width=".44" height="3.66"/><path d="M450.89,50.54h-.44s0-2.25,0-2.25c.12-.02.29-.03.43-.03l.04.29c.23-.26.5-.41.87-.32l-.03.46c-.24-.02-.42-.03-.61.09-.13.08-.25.31-.25.5v1.27Z"/><path d="M461.11,50.49c-.09.08-.28.07-.44.04v-2.24c.09-.04.31-.06.4-.01.07.04.04.25.03.32.2-.3.52-.47.9-.39l-.02.46c-.24-.02-.43-.02-.61.09-.15.09-.25.32-.25.53v1.2Z"/><rect x="468.07" y="48.25" width=".44" height="2.3"/><rect x="478.47" y="48.25" width=".44" height="2.3"/><circle cx="478.69" cy="47.43" r=".32"/><circle cx="468.29" cy="47.43" r=".32"/></svg>