<svg id="Layer_1" data-name="Layer 1" xmlns="http://www.w3.org/2000/svg" viewBox="0 0 800 400">
  <defs>
    <style>
      .cls-1 {
        fill: #202020;
        stroke-width: 0px;
      }
    </style>
  </defs>
  <path class="cls-1" d="M456.7143,92.2835h29.6378c2.7591,20.162,5.5183,40.324,8.6188,62.9817,8.7119-22.5684,16.5119-42.7751,24.3119-62.9817,15.002,0,50.1285.2425,50.1285.2425l-2.9312,10.4897s-29.5203,88.7067-44.2142,132.9642h-51.6048c-2.9944-11.7022-5.9146-23.1128-9.2477-36.1388l-19.6324,36.2442h-51.0817c-1.829-13.174-3.6295-26.1419-5.9384-42.773l-7.4125,42.8657h-51.9263l-33.8001-51.4653-9.3288,51.4204h-51.7048v-1.0991l25.2472-142.7505h41.7124l42.4879,66.2022c4.0169-23.5349,7.6595-44.8686,11.3003-66.2022h71.3502c2.6527,20.1098,5.3074,40.221,8.32,63.035l25.7078-63.035Z"/>
  <path class="cls-1" d="M230.5886,246.3557h11.3855l16.1653,23.4649h.1075v-23.4649h8.3777v33.7664h-10.9569l-16.5954-24.035h-.1058v24.0368h-8.3781v-33.7681Z"/>
  <path class="cls-1" d="M272.3167,263.2389c-.0363-2.531.4864-5.0388,1.5309-7.3445.9942-2.159,2.4519-4.0724,4.2694-5.6041,1.9171-1.5917,4.1236-2.7981,6.4982-3.5529,5.3534-1.6533,11.0809-1.6533,16.4343,0,2.3745.7551,4.581,1.9615,6.4982,3.5529,1.8175,1.5317,3.2752,3.4451,4.2694,5.6041,2.0407,4.6838,2.0407,10.0056,0,14.6894-.9941,2.1591-2.4518,4.0725-4.2694,5.6041-1.9169,1.592-4.1234,2.7984-6.4982,3.5529-5.3534,1.6527-11.0808,1.6527-16.4343,0-2.3749-.7543-4.5815-1.9607-6.4982-3.5529-1.8176-1.5317-3.2753-3.4451-4.2694-5.6041-1.0445-2.3058-1.5672-4.8138-1.5309-7.3449ZM281.0173,263.2389c-.0186,1.4958.2646,2.98.8326,4.3639.5419,1.3026,1.3568,2.4739,2.3899,3.4348,1.0804.9969,2.3492,1.7676,3.7319,2.2669,3.15,1.081,6.5704,1.081,9.7204,0,1.3825-.4996,2.6513-1.2703,3.7319-2.2669,1.0324-.9615,1.8474-2.1326,2.3902-3.4348,1.1097-2.7951,1.1097-5.9086,0-8.7037-.5388-1.3111-1.3541-2.4905-2.3902-3.4578-1.0812-.9958-2.3498-1.7664-3.7319-2.2669-3.15-1.0806-6.5703-1.0806-9.7204,0-1.3822.5003-2.6508,1.2709-3.7319,2.2669-1.0368.9667-1.8521,2.1463-2.3899,3.4578-.5634,1.3768-.8465,2.8522-.8326,4.3398Z"/>
  <path class="cls-1" d="M319.0394,246.3557h14.7155c1.8467-.0078,3.6899.1599,5.5049.5008,1.6071.2865,3.1517.8514,4.5644,1.6693,1.2915.7642,2.3643,1.8482,3.115,3.1476.817,1.5134,1.2156,3.2173,1.1548,4.9361.0592,2.2131-.6851,4.3728-2.0952,6.0795-1.5841,1.7704-3.7622,2.8988-6.1221,3.1717l9.6668,14.2601h-10.0422l-7.9484-13.4986h-4.1354v13.4986h-8.3781v-33.765ZM327.4174,260.33h4.943c.752,0,1.5485-.0239,2.3896-.0718.7772-.0354,1.5455-.18,2.2824-.4293.652-.2197,1.2353-.6061,1.692-1.1208.4808-.608.7199-1.3724.6712-2.146.0383-.7305-.1697-1.4527-.5908-2.0509-.3955-.5091-.9126-.9107-1.5037-1.1678-.6674-.2858-1.3735-.471-2.0952-.5496-.7663-.094-1.5375-.1417-2.3095-.1429h-5.4788v7.6791Z"/>
  <path class="cls-1" d="M360.232,252.9373h-10.8483v-6.5817h30.0747v6.5817h-10.8483v27.1847h-8.3781v-27.1847Z"/>
  <path class="cls-1" d="M383.7004,246.3557h8.3781v12.5911h16.2728v-12.5911h8.3777v33.7664h-8.3777v-14.5936h-16.2728v14.5936h-8.378v-33.7664Z"/>
  <path class="cls-1" d="M420.488,246.3557h9.1296l6.0692,21.6523h.1072l7.9484-21.6524h7.7869l7.8951,22.2253h.1072l6.3911-22.2253h8.4839l-11.1169,33.7664h-7.4637l-8.3781-23.3694h-.1072l-8.3781,23.3694h-7.1965l-11.278-33.7664Z"/>
  <path class="cls-1" d="M478.4893,246.3557h25.8324v6.8678h-17.4547v6.2956h16.4868v6.8678h-16.4868v6.8695h18.4213v6.8675h-26.799v-33.7681Z"/>
  <path class="cls-1" d="M530.7975,254.6066c-.75-.8061-1.7063-1.3916-2.7653-1.693-1.0667-.35-2.1806-.5354-3.3032-.5496-.6312.0025-1.2607.0665-1.8795.191-.6309.1228-1.2443.323-1.8263.5959-.5415.246-1.0192.6131-1.3962,1.073-.3635.4609-.5535,1.0348-.5369,1.6215-.0334.9565.4617,1.8539,1.2887,2.3356,1.0143.6081,2.1075,1.0736,3.2489,1.3832,1.307.3817,2.7124.7634,4.2162,1.1452,1.4659.3671,2.8816.9115,4.2158,1.6212,1.2826.6791,2.3936,1.6413,3.2489,2.8137.9229,1.3957,1.3748,3.0503,1.2894,4.7214.0397,1.7121-.3677,3.405-1.1819,4.9117-.7807,1.3924-1.8742,2.5843-3.1943,3.4818-1.4219.9575-3.004,1.6521-4.6713,2.0509-1.8362.4527-3.7213.6768-5.6124.6674-2.3293.021-4.6479-.3168-6.8743-1.0016-2.1589-.6924-4.1646-1.7934-5.9078-3.2431l5.9614-5.8181c.8804,1.0337,1.9942,1.8429,3.2493,2.3607,1.9283.8321,4.0665,1.0486,6.1225.62.6531-.1277,1.2856-.3443,1.8798-.6437.5237-.2608.9822-.6357,1.342-1.0971.3427-.4521.5226-1.0067.5104-1.5738.0205-.9796-.4803-1.8965-1.3155-2.4088-1.0241-.6551-2.1364-1.1608-3.3032-1.502-1.3249-.4122-2.757-.8255-4.2962-1.2399-1.4902-.3938-2.9314-.9537-4.2965-1.6693-1.2897-.6699-2.417-1.614-3.3029-2.766-.9316-1.3214-1.3947-2.9163-1.3155-4.5311-.0369-1.6699.3807-3.3185,1.208-4.7695.8075-1.3687,1.908-2.5417,3.2225-3.4348,1.4169-.9551,2.9889-1.6571,4.6459-2.0746,1.7705-.463,3.5934-.6953,5.4235-.6914,2.1033-.0056,4.1981.2669,6.2299.8106,1.975.5259,3.8211,1.4512,5.4245,2.7186l-5.7484,5.5839Z"/>
  <path class="cls-1" d="M550.185,252.9373h-10.8487v-6.5817h30.0751v6.5817h-10.8487v27.1847h-8.3777v-27.1847Z"/>
  <path class="cls-1" d="M231.1055,290.9257h12.4857v2.0815h-9.7921v5.1339h9.1182v2.0815h-9.1182v7.0766h-2.6935v-16.3735Z"/>
  <path class="cls-1" d="M247.2097,290.9257h12.8219v2.0815h-10.1288v4.8808h9.4274v2.0811h-9.4274v5.2497h10.6337v2.0804h-13.3269v-16.3735Z"/>
  <path class="cls-1" d="M263.9036,290.9257h6.9296c1.2411-.018,2.4798.1141,3.6893.3933.9599.2249,1.885.5788,2.7499,1.0521.7226.3975,1.3763.909,1.9358,1.5147.4848.5277.8954,1.1189,1.2204,1.7576.2888.5723.5056,1.1783.6454,1.8039.1246.5465.1904,1.1047.1965,1.6652-.0014,1.0536-.2412,2.0933-.7014,3.0411-.4935,1.0117-1.202,1.9034-2.076,2.6128-1.0142.8165-2.1697,1.4399-3.409,1.839-1.5179.4872-3.1055.7216-4.6994.6938h-6.481v-16.3735ZM266.5968,305.2174h3.3949c1.0916.006,2.1799-.1221,3.2403-.3813.952-.2253,1.8582-.6124,2.6791-1.1445.7464-.4876,1.3705-1.1406,1.8239-1.9083.4617-.8131.6944-1.7361.6732-2.6709-.0164-.6243-.1204-1.2433-.3091-1.8386-.2318-.7464-.6301-1.4304-1.1647-2.0004-.6665-.6984-1.4746-1.2465-2.37-1.6075-1.2511-.4821-2.5867-.7062-3.9266-.6588h-4.041v12.2102Z"/>
  <path class="cls-1" d="M285.1421,290.9257h12.8219v2.0815h-10.1284v4.8808h9.4274v2.0811h-9.4274v5.2497h10.6333v2.0804h-13.3269v-16.3735Z"/>
  <path class="cls-1" d="M302.2846,290.9257h6.9863c1.0638-.0299,2.1253.1146,3.1425.4276.7172.2256,1.3807.5956,1.9496,1.0871.4516.4014.7942.9106.9961,1.48.1801.5091.2749,1.0445.2806,1.5845.0002.5235-.1147,1.0406-.3366,1.5147-.234.4981-.5627.9459-.9679,1.3183-.4552.4158-.9769.7525-1.5432.9961-.6452.2792-1.3329.4472-2.0341.497l5.6392,7.4682h-3.3661l-5.0491-7.2157h-3.002v7.2157h-2.6935l-.0017-16.3735ZM304.9782,298.1411h3.535c.5209.0003,1.0413-.0341,1.5577-.103.4744-.0584.9374-.1871,1.3739-.3819.3886-.1739.7231-.4495.9683-.7976.4864-.8363.4864-1.8693,0-2.7056-.2452-.3481-.5797-.6237-.9683-.7979-.4365-.1948-.8995-.3235-1.3739-.3819-.5164-.0689-1.0367-.1034-1.5577-.103h-3.535v5.271Z"/>
  <path class="cls-1" d="M325.6557,290.9257h2.4414l8.501,16.3735h-3.1425l-1.9922-4.0475h-9.4552l-1.964,4.0475h-3.1425l8.7538-16.3735ZM330.4816,301.3094l-3.7034-7.5159h-.056l-3.7597,7.5159h7.519Z"/>
  <path class="cls-1" d="M339.1787,290.9257h2.6932v14.2917h9.1186v2.0818h-11.8118v-16.3735Z"/>
  <path class="cls-1" d="M375.3721,294.4639c-.593-.6222-1.3232-1.0973-2.1323-1.3873-.8516-.3225-1.7548-.4872-2.6654-.486-1.0381-.0146-2.07.1618-3.0442.5204-.861.3187-1.6518.8018-2.3284,1.4223-1.3102,1.2173-2.0483,2.9293-2.0341,4.7176-.0107,1.7063.703,3.337,1.9637,4.4868.6776.6111,1.4691,1.0825,2.3291,1.3873.9994.3535,2.054.5259,3.114.509,1.0303.0219,2.0536-.1752,3.002-.5784.8406-.3704,1.5881-.9234,2.1883-1.6188l2.2728,1.411c-.2456.2597-.508.503-.7855.7282-.4588.3708-.9576.689-1.4872.9487-.7132.3523-1.4605.6312-2.2302.8322-.9849.2531-1.9992.3736-3.0161.3583-1.4507.0213-2.8926-.2296-4.2508-.7395-1.1845-.4463-2.2778-1.1048-3.2263-1.943-.8562-.7576-1.5484-1.6823-2.0341-2.7172-.4558-.9577-.6954-2.0039-.7017-3.0645-.0118-1.2097.2471-2.4067.7577-3.5035.5004-1.0654,1.2225-2.0116,2.1182-2.7753.963-.8095,2.0728-1.4261,3.2688-1.8163,1.3578-.4448,2.7795-.6634,4.2083-.6471,1.311,0,2.6135.2109,3.8576.6244,1.1802.3651,2.2475,1.0258,3.1005,1.9193l-2.2446,1.4113Z"/>
  <path class="cls-1" d="M381.2916,290.9257h6.9866c1.0638-.0299,2.1253.1146,3.1425.4276.7172.2255,1.3807.5955,1.9496,1.0871.4516.4014.7942.9106.9961,1.48.1803.5091.2751,1.0444.2806,1.5845.0002.5234-.1146,1.0405-.3363,1.5147-.2341.4981-.563.9459-.9683,1.3183-.4552.4157-.9767.7524-1.5429.9961-.6453.2791-1.3331.4472-2.0344.497l5.6388,7.4682h-3.3661l-5.0491-7.2157h-3.004v7.2157h-2.6935l.0003-16.3735ZM383.9851,298.1411h3.5351c.5209.0003,1.0413-.0341,1.5577-.103.4744-.0584.9374-.1871,1.3739-.3819.3886-.1739.7232-.4494.9683-.7976.4864-.8363.4864-1.8693,0-2.7056-.2451-.3482-.5796-.6239-.9683-.7979-.4365-.1948-.8995-.3235-1.3739-.3819-.5163-.0689-1.0367-.1034-1.5577-.103h-3.5354l.0003,5.271Z"/>
  <path class="cls-1" d="M398.4341,290.9257h12.8226v2.0815h-10.1291v4.8808h9.4274v2.0811h-9.4274v5.2497h10.6333v2.0804h-13.3269v-16.3735Z"/>
  <path class="cls-1" d="M415.128,290.9257h6.9296c1.2412-.018,2.4801.1141,3.6896.3933.9592.225,1.8836.5789,2.7478,1.0521.7226.3974,1.3763.9089,1.9358,1.5147.4848.5277.8955,1.119,1.2207,1.7576.2887.5724.5055,1.1783.6454,1.8039.1244.5465.1903,1.1047.1965,1.6652-.0015,1.0537-.2414,2.0933-.7017,3.0411-.4933,1.0118-1.2018,1.9036-2.076,2.6128-1.0141.8166-2.1696,1.4399-3.409,1.839-1.5179.4873-3.1055.7216-4.6994.6938h-6.4793v-16.3735ZM417.8216,305.2174h3.3959c1.0917.006,2.1799-.1221,3.2404-.3813.952-.2253,1.8582-.6124,2.6791-1.1445.7465-.4876,1.3707-1.1406,1.8242-1.9083.4617-.8131.6944-1.7361.6732-2.6709-.0165-.6243-.1206-1.2432-.3091-1.8386-.232-.7463-.6302-1.4303-1.1647-2.0004-.6665-.6985-1.4745-1.2465-2.37-1.6075-1.2515-.4823-2.5876-.7064-3.928-.6588h-4.041v12.2102Z"/>
  <path class="cls-1" d="M436.3668,290.9257h2.6932v16.3735h-2.6932v-16.3735Z"/>
  <path class="cls-1" d="M448.3177,293.0072h-6.3962v-2.0815h15.4877v2.0815h-6.3972v14.292h-2.6942v-14.292Z"/>
  <path class="cls-1" d="M470.3994,290.9257v10.0367c.0044.5376.0893,1.0716.2518,1.5841.174.5572.4605,1.0728.8419,1.5147.4249.4866.9518.8735,1.5432,1.1335,1.5166.5857,3.1969.5857,4.7135,0,.5914-.2598,1.1184-.6469,1.5432-1.1335.3815-.4418.6679-.9574.8415-1.5147.163-.5124.2481-1.0464.2525-1.5841v-10.0367h2.6939v10.3836c.0124.9017-.1896,1.7935-.5894,2.6018-.3946.7811-.9491,1.4705-1.6274,2.0234-.724.5882-1.5519,1.0354-2.4407,1.3186-1.9731.6161-4.0872.6161-6.0603,0-.8889-.2829-1.7169-.7302-2.4407-1.3186-.6785-.5528-1.233-1.2422-1.6274-2.0234-.3998-.8083-.6019-1.7001-.5894-2.6018v-10.3836h2.6938Z"/>
  <path class="cls-1" d="M487.8219,290.9257h3.535l10.9421,13.4594h.0563v-13.4594h2.6932v16.3735h-3.4234l-11.0544-13.4598h-.0563v13.4598h-2.6932l.0007-16.3735Z"/>
  <path class="cls-1" d="M510.1547,290.9257h2.6935v16.3735h-2.6935v-16.3735Z"/>
  <path class="cls-1" d="M527.0729,307.7152c-1.4205.0152-2.8335-.2075-4.1804-.6588-1.1936-.3954-2.3024-1.0113-3.2689-1.8156-.8924-.7518-1.6185-1.681-2.1323-2.7286-1.029-2.1502-1.029-4.6507,0-6.8008.514-1.0476,1.2401-1.9769,2.1323-2.7289.9665-.8042,2.0753-1.4201,3.2689-1.8156,2.7178-.8784,5.6431-.8784,8.3609,0,1.1933.3958,2.3019,1.0117,3.2685,1.8156.892.7523,1.6182,1.6815,2.1327,2.7289,1.029,2.1502,1.029,4.6507,0,6.8008-.5142,1.0474-1.2405,1.9765-2.1327,2.7286-.9665.8041-2.0752,1.4199-3.2685,1.8156-1.347.4513-2.7599.6739-4.1804.6588ZM527.0729,305.634c1.0516.0153,2.0972-.1609,3.0858-.52.8656-.3168,1.6648-.7914,2.3573-1.3997,2.5419-2.2724,2.7604-6.1753.488-8.7172-.1534-.1716-.3163-.3345-.488-.488-.6925-.6082-1.4918-1.0826-2.3573-1.3993-1.9988-.6938-4.1731-.6938-6.1719,0-.8655.3165-1.6647.791-2.3569,1.3993-2.5419,2.2724-2.7604,6.1753-.488,8.7172.1534.1716.3163.3345.488.488.6922.6084,1.4914,1.083,2.3569,1.3997.9886.3592,2.0344.5354,3.0861.52Z"/>
  <path class="cls-1" d="M541.2966,290.9257h3.535l10.9421,13.4594h.0563v-13.4594h2.6935v16.3735h-3.4228l-11.0541-13.4598h-.0567v13.4598h-2.6935v-16.3735Z"/>
</svg>