<svg id="a" xmlns="http://www.w3.org/2000/svg" viewBox="0 0 415.79 112.63"><path d="M121.28,39.81c0-5.41.91-10.32,2.72-14.71,1.82-4.39,4.35-8.14,7.6-11.23,3.25-3.09,7.1-5.46,11.56-7.12,4.46-1.66,9.33-2.48,14.62-2.48s10.16.83,14.62,2.48c4.46,1.66,8.31,4.03,11.56,7.12,3.25,3.09,5.78,6.83,7.6,11.23,1.82,4.4,2.72,9.3,2.72,14.71s-.91,10.32-2.72,14.71c-1.82,4.4-4.35,8.14-7.6,11.23-3.25,3.09-7.1,5.46-11.56,7.12-4.46,1.66-9.33,2.48-14.62,2.48s-10.16-.83-14.62-2.48c-4.46-1.66-8.31-4.03-11.56-7.12-3.25-3.09-5.78-6.83-7.6-11.23-1.81-4.39-2.72-9.3-2.72-14.71ZM136.76,39.81c0,3.19.49,6.1,1.48,8.74.99,2.64,2.4,4.94,4.25,6.88,1.85,1.94,4.06,3.46,6.64,4.54,2.58,1.08,5.46,1.63,8.65,1.63s6.07-.54,8.65-1.63c2.58-1.08,4.79-2.59,6.64-4.54,1.85-1.94,3.26-4.23,4.25-6.88.99-2.64,1.48-5.56,1.48-8.74s-.49-6.02-1.48-8.69c-.99-2.67-2.4-4.98-4.25-6.93-1.85-1.94-4.06-3.45-6.64-4.54-2.58-1.08-5.46-1.62-8.65-1.62s-6.07.54-8.65,1.62c-2.58,1.08-4.79,2.6-6.64,4.54-1.85,1.94-3.27,4.25-4.25,6.93-.99,2.67-1.48,5.57-1.48,8.69Z" fill="#fff"/><path d="M197.81,27.19h13.76v6.3h.19c.45-.89,1.08-1.78,1.91-2.67.83-.89,1.82-1.69,2.96-2.39,1.15-.7,2.45-1.27,3.92-1.72,1.46-.45,3.05-.67,4.78-.67,3.63,0,6.56.56,8.79,1.67,2.23,1.12,3.96,2.66,5.21,4.63,1.24,1.97,2.09,4.3,2.53,6.97s.67,5.57.67,8.69v25.6h-14.33v-22.74c0-1.34-.05-2.72-.14-4.16-.09-1.43-.38-2.75-.86-3.96-.48-1.21-1.21-2.2-2.2-2.96s-2.4-1.15-4.25-1.15-3.34.34-4.49,1c-1.15.67-2.02,1.56-2.63,2.67-.61,1.12-1,2.37-1.2,3.77-.19,1.4-.28,2.87-.28,4.4v23.12h-14.33V27.19Z" fill="#fff"/><path d="M291.82,65.6c-2.29,2.93-5.19,5.19-8.69,6.78-3.5,1.59-7.14,2.39-10.89,2.39s-6.93-.57-10.08-1.72c-3.15-1.15-5.89-2.78-8.22-4.92-2.33-2.13-4.15-4.7-5.49-7.69-1.34-2.99-2.01-6.34-2.01-10.03s.67-7.04,2.01-10.03c1.34-2.99,3.17-5.56,5.49-7.69,2.33-2.13,5.07-3.77,8.22-4.92,3.15-1.15,6.51-1.72,10.08-1.72,3.31,0,6.32.57,9.03,1.72,2.71,1.15,5,2.79,6.88,4.92,1.88,2.13,3.33,4.7,4.35,7.69,1.02,2.99,1.53,6.34,1.53,10.03v4.49h-33.25c.57,2.74,1.82,4.92,3.73,6.54,1.91,1.62,4.27,2.44,7.07,2.44,2.35,0,4.35-.52,5.97-1.58,1.62-1.05,3.04-2.4,4.25-4.06l10.03,7.36ZM279.69,45.16c.06-2.42-.74-4.49-2.39-6.21-1.66-1.72-3.79-2.58-6.4-2.58-1.59,0-2.99.25-4.2.76-1.21.51-2.25,1.16-3.11,1.96-.86.8-1.53,1.72-2.01,2.77s-.75,2.15-.81,3.3h18.92Z" fill="#fff"/><path d="M321.05,5.99h12.33l29.43,67.64h-16.82l-5.83-14.33h-26.27l-5.64,14.33h-16.43l29.24-67.64ZM326.78,25.67l-8.22,21.02h16.53l-8.31-21.02Z" fill="#fff"/><path d="M356.88,59.87l34.3-40.7h-33.06V5.99h51.11v13.18l-33.63,40.7h34.77v13.76h-53.5v-13.76Z" fill="#fff"/><path d="M108.77,44.97c-.18,0-.37.02-.55.03v.32c.17-.11.35-.23.55-.35Z" fill="#fff"/><path d="M83.82,47.6l-.06.05c-.7.09-1.4.19-2.09.33-.38.04-.76.09-1.14.14l-.82,2.5c-2.53,7.69-4.24,13.21-5.7,18.81,6.14-4.77,12.66-9.59,18.87-13.9,5.07-3.47,9.76-6.63,12.41-8.29.95-.65,1.66-1.09,2.94-1.92v-.32c-6.61.29-13.41.98-21.31,2.15-.82.18-1.83.37-3.09.46Z" fill="#fff"/><path d="M99.9,9.98c-3.22,4.45-7.54,11.54-10.44,17.42-2.73,5.51-4.56,9.46-6.84,15.29,9.65-1.49,17.62-2.1,25.61-2.74V6.14h-5.63c-.14.23-.32.5-.54.83l-2.16,3.01Z" fill="#fff"/><path d="M65.52,88.19c-4.37,3.99-6.14,5.79-10.01,10.01,7.79-2.64,16.59-5.29,24.31-7.09,7.92-1.95,13.36-3.01,15.39-3.01,1.58,0,2.53.69,2.53,1.94s-.95,1.99-3.16,2.5l-4.43.97c-5.39,1.21-14.31,3.57-20.96,5.8-6.2,1.9-14.31,4.77-20.2,7.18l-3.73,1.58s-.07.03-.11.05h63.08v-52.42c-10.64,7.12-21.23,14.93-31.81,23.55-7.6,6.12-5.13,3.57-10.89,8.94Z" fill="#fff"/><path d="M41.21,52.19l-2.72,2.78c-2.92,3.01-6.21,6.53-9.44,10.1,10.65,3.89,21.85,8.44,31.09,12.7.63-3.43,1.71-7.78,3.1-12.79.95-3.38,2.4-8.11,3.73-11.81.44-1.43.7-2.27,1.46-4.08l-4.56.47c-11.59,1.21-14.12,1.57-22.67,2.64Z" fill="#fff"/><path d="M47.22,46.31l5.32-.74c6.27-.74,11.4-1.16,15.51-1.53l2.41-.23c3.73-8.66,8.17-17.23,13.24-25.66-9.88,5.19-23.12,15.43-36.48,28.17Z" fill="#fff"/><path d="M33.36,53.16c-3.81.69-7.41,1.29-10.77,1.81-.63.09-1.2.19-1.58.23-1.01.23-1.9.32-2.6.37-4.37.65-8.36,1.21-11.97,1.9,1.9.6,2.72.88,3.98,1.3,2.92.88,7.98,2.55,13.62,4.49,2.66-2.92,5.63-6.07,9.5-10.1h-.19Z" fill="#fff"/><path d="M44.69,95.33c4.17-4.68,5.19-5.93,10-10.1-2.65-1.12-5.38-2.18-7.98-3.29-8.1-3.57-16.15-6.81-24.06-9.73-2.84,3.2-5.38,6.11-7.22,8.39l-6.59,8.06c-1.08,1.33-1.85,2.06-2.6,2.44v17.02h30.78c-.04-.2-.07-.42-.07-.65,0-2.55,2.22-6.16,7.73-12.14Z" fill="#fff"/><path d="M6.25,66.54v17l11.4-13.14c-3.79-1.36-7.59-2.64-11.4-3.86Z" fill="#fff"/><path d="M26.9,49.22l9.49-1.48,2.92-.37,1.45-1.3c6.84-6.77,8.36-8.2,13.42-12.51,13.23-11.21,27.1-20.57,40.2-27.42H6.25v46.25c5.41-1.01,10.61-1.83,16.52-2.61,1.08-.14,2.47-.32,4.12-.56Z" fill="#fff"/><path d="M141.58,92.41c-.46-.56-1.02-.99-1.69-1.29-.67-.3-1.44-.45-2.32-.45s-1.69.17-2.44.51c-.75.34-1.4.81-1.94,1.42-.55.61-.98,1.33-1.29,2.17-.31.84-.46,1.74-.46,2.72s.15,1.91.46,2.74c.31.83.73,1.54,1.27,2.15.54.61,1.17,1.08,1.9,1.42.73.34,1.51.51,2.35.51.96,0,1.8-.2,2.54-.6.74-.4,1.35-.96,1.82-1.68l3.89,2.9c-.9,1.25-2.03,2.18-3.41,2.78s-2.79.9-4.24.9c-1.66,0-3.18-.26-4.58-.78-1.4-.52-2.6-1.26-3.62-2.23-1.02-.97-1.81-2.14-2.38-3.51-.57-1.38-.85-2.91-.85-4.6s.28-3.23.85-4.61c.57-1.38,1.36-2.55,2.38-3.51,1.02-.97,2.22-1.71,3.62-2.23,1.39-.52,2.92-.78,4.58-.78.6,0,1.22.06,1.87.17s1.28.28,1.91.52c.63.24,1.23.56,1.81.96.58.4,1.09.89,1.56,1.46l-3.59,2.93Z" fill="#fff"/><path d="M154.2,86.91h8.19c1.08,0,2.1.11,3.06.31.97.21,1.81.56,2.54,1.05.73.49,1.31,1.15,1.73,1.97s.64,1.86.64,3.09c0,1.5-.39,2.77-1.16,3.81-.78,1.05-1.92,1.71-3.41,1.99l5.38,8.94h-5.59l-4.43-8.46h-2.3v8.46h-4.66v-21.17ZM158.86,95.67h2.75c.42,0,.86-.02,1.33-.05s.89-.12,1.27-.27c.38-.15.69-.38.94-.7.25-.32.37-.77.37-1.35,0-.54-.11-.97-.33-1.28-.22-.32-.5-.56-.84-.73-.34-.17-.73-.28-1.17-.34-.44-.06-.87-.09-1.28-.09h-3.05v4.81Z" fill="#fff"/><path d="M179.73,86.91h14.38v4.3h-9.72v3.95h9.18v4.3h-9.18v4.3h10.26v4.31h-14.92v-21.17Z" fill="#fff"/><path d="M204.37,86.91h6.99c1.7,0,3.3.19,4.83.57,1.53.38,2.86.99,3.99,1.84,1.14.85,2.04,1.95,2.71,3.3.67,1.36,1,3,1,4.93,0,1.71-.32,3.22-.97,4.53-.65,1.31-1.52,2.4-2.62,3.29-1.1.89-2.36,1.56-3.8,2.02s-2.94.69-4.52.69h-7.62v-21.17ZM209.04,103.77h2.42c1.08,0,2.08-.11,3-.33.93-.22,1.73-.58,2.41-1.09.68-.51,1.21-1.18,1.6-2.01.39-.83.59-1.84.59-3.03,0-1.03-.2-1.94-.59-2.71-.39-.77-.91-1.4-1.57-1.9s-1.43-.87-2.32-1.12c-.89-.25-1.82-.37-2.8-.37h-2.75v12.56Z" fill="#fff"/><path d="M232.99,86.91h4.66v21.17h-4.66v-21.17Z" fill="#fff"/><path d="M251.97,91.03h-6.04v-4.13h16.74v4.13h-6.04v17.04h-4.66v-17.04Z" fill="#fff"/><path d="M303.7,99.91c0,1.25-.19,2.41-.57,3.47-.38,1.06-.94,1.97-1.69,2.75-.75.78-1.68,1.39-2.8,1.82s-2.4.66-3.86.66-2.77-.22-3.89-.66-2.05-1.05-2.8-1.82c-.75-.78-1.31-1.69-1.69-2.75-.38-1.06-.57-2.21-.57-3.47v-13.01h4.66v12.83c0,.66.11,1.27.31,1.82.21.56.5,1.04.88,1.45.38.41.83.73,1.36.96.53.23,1.1.34,1.72.34s1.19-.11,1.7-.34c.52-.23.97-.55,1.35-.96.38-.41.67-.89.88-1.45.21-.56.31-1.17.31-1.82v-12.83h4.66v13.01Z" fill="#fff"/><path d="M313.98,86.91h6.34l9,14.71h.06v-14.71h4.66v21.17h-6.1l-9.24-15.07h-.06v15.07h-4.66v-21.17Z" fill="#fff"/><path d="M344.27,86.91h4.66v21.17h-4.66v-21.17Z" fill="#fff"/><path d="M358.02,97.49c0-1.7.28-3.23.85-4.61.57-1.38,1.36-2.55,2.38-3.51,1.02-.97,2.22-1.71,3.62-2.23,1.39-.52,2.92-.78,4.58-.78s3.18.26,4.57.78c1.4.52,2.6,1.26,3.62,2.23,1.02.97,1.81,2.14,2.38,3.51.57,1.38.85,2.91.85,4.61s-.28,3.23-.85,4.6c-.57,1.38-1.36,2.55-2.38,3.51-1.02.97-2.22,1.71-3.62,2.23-1.4.52-2.92.78-4.57.78s-3.18-.26-4.58-.78c-1.4-.52-2.6-1.26-3.62-2.23-1.02-.97-1.81-2.14-2.38-3.51-.57-1.38-.85-2.91-.85-4.6ZM362.87,97.49c0,1,.15,1.91.46,2.74.31.83.75,1.54,1.33,2.15.58.61,1.27,1.08,2.08,1.42.81.34,1.71.51,2.71.51s1.9-.17,2.71-.51c.81-.34,1.5-.81,2.08-1.42.58-.61,1.02-1.32,1.33-2.15.31-.83.46-1.74.46-2.74s-.15-1.89-.46-2.72c-.31-.84-.75-1.56-1.33-2.17-.58-.61-1.27-1.08-2.08-1.42-.81-.34-1.71-.51-2.71-.51s-1.9.17-2.71.51c-.81.34-1.5.81-2.08,1.42-.58.61-1.02,1.33-1.33,2.17-.31.84-.46,1.74-.46,2.72Z" fill="#fff"/><path d="M390.02,86.91h6.34l9,14.71h.06v-14.71h4.66v21.17h-6.1l-9.24-15.07h-.06v15.07h-4.66v-21.17Z" fill="#fff"/></svg>