<?xml version="1.0" encoding="UTF-8"?><svg id="Layer_2" xmlns="http://www.w3.org/2000/svg" viewBox="0 0 255.002 49"><defs><style>.cls-1{fill:#222742;}.cls-1,.cls-2{stroke-width:0px;}.cls-2{fill:#d61e38;}</style></defs><g id="Layer_1-2"><path class="cls-1" d="m69.252,43.276c-.145,0-.225-.08-.273-.257-.225-.93-.948-1.523-2.087-1.523-1.268,0-2.376.93-2.376,2.533,0,1.571,1.076,2.534,2.376,2.534,1.108,0,1.83-.53,2.087-1.411.048-.193.144-.257.321-.257h2.296c.129,0,.288.063.288.224,0,1.939-1.782,3.88-4.993,3.88-2.954,0-5.266-2.069-5.266-4.97,0-2.853,2.312-4.97,5.266-4.97,3.051,0,4.993,1.877,4.993,3.96,0,.128-.096.257-.273.257h-2.36Z"/><path class="cls-1" d="m74.565,39.413c0-.097.096-.193.193-.193h4.817c2.376,0,4.062,1.411,4.062,3.558,0,1.364-.739,2.341-1.863,2.887v.032s.209.288.386.561l1.445,2.228c.08.128.112.176.112.239s-.048.112-.16.112h-2.954c-.08,0-.177-.033-.225-.112l-1.621-2.533h-1.3v2.453c0,.097-.097.193-.193.193h-2.505c-.097,0-.193-.096-.193-.193v-9.233Zm2.89,2.244v2.26h1.863c.915,0,1.429-.497,1.429-1.139,0-.657-.513-1.121-1.429-1.121h-1.863Z"/><path class="cls-1" d="m89.253,45.12v1.282h5.266c.097,0,.225.128.225.224v1.989c0,.096-.129.224-.225.224h-7.964c-.096,0-.193-.096-.193-.193v-9.234c0-.097.097-.193.193-.193h7.9c.097,0,.225.128.225.224v1.989c0,.096-.129.224-.225.224h-5.202v1.187h4.721c.096,0,.225.128.225.224v1.828c0,.096-.129.224-.225.224h-4.721v-.002Z"/><path class="cls-1" d="m97.617,48.839c-.097,0-.193-.096-.193-.193v-9.234c0-.097.096-.193.193-.193h4.175c3.163,0,5.411,1.875,5.411,4.809,0,2.885-1.895,4.809-5.379,4.809h-4.207Zm2.698-7.182v4.745h1.493c1.686,0,2.505-.914,2.505-2.373,0-1.507-1.028-2.373-2.521-2.373h-1.477Z"/><path class="cls-1" d="m112.77,48.646c0,.097-.096.193-.193.193h-2.505c-.096,0-.193-.096-.193-.193v-9.234c0-.097.097-.193.193-.193h2.505c.097,0,.193.096.193.193v9.234Z"/><path class="cls-1" d="m115.402,41.657c-.096,0-.224-.128-.224-.224v-1.989c0-.096.128-.224.224-.224h9.249c.096,0,.225.128.225.224v1.989c0,.096-.129.224-.225.224h-3.179v6.989c0,.097-.097.193-.193.193h-2.505c-.097,0-.193-.096-.193-.193v-6.989h-3.179Z"/><path class="cls-1" d="m139.275,39.413c0-.097.096-.193.193-.193h2.505c.096,0,.193.096.193.193v4.729c0,3.11-1.912,4.858-5.074,4.858s-5.073-1.748-5.073-4.858v-4.729c0-.097.096-.193.193-.193h2.505c.096,0,.193.096.193.193v4.681c0,1.652.835,2.485,2.183,2.485,1.381,0,2.184-.834,2.184-2.485v-4.681h-.002Z"/><path class="cls-1" d="m149.114,44.751c-.449-.449-.963-1.09-.963-1.09h-.065v4.986c0,.097-.096.193-.192.193h-2.505c-.097,0-.193-.096-.193-.193v-9.234c0-.097.096-.193.193-.193h2.167l4.127,4.168c.465.464.882.995.882.995h.048v-4.97c0-.097.097-.193.193-.193h2.505c.097,0,.193.096.193.193v9.234c0,.097-.096.193-.193.193h-2.168l-4.029-4.088h0Z"/><path class="cls-1" d="m161.506,48.646c0,.097-.096.193-.193.193h-2.505c-.096,0-.193-.096-.193-.193v-9.234c0-.097.097-.193.193-.193h2.505c.097,0,.193.096.193.193v9.234Z"/><path class="cls-1" d="m175.009,44.03c0,3.11-2.489,4.97-5.412,4.97s-5.41-1.861-5.41-4.97,2.489-4.97,5.41-4.97,5.412,1.861,5.412,4.97Zm-7.932,0c0,1.571,1.172,2.534,2.521,2.534s2.521-.963,2.521-2.534c0-1.555-1.173-2.533-2.521-2.533s-2.521.979-2.521,2.533Z"/><path class="cls-1" d="m181.605,44.751c-.449-.449-.963-1.09-.963-1.09h-.065v4.986c0,.097-.097.193-.193.193h-2.505c-.096,0-.192-.096-.192-.193v-9.234c0-.097.096-.193.192-.193h2.168l4.126,4.168c.466.464.883.995.883.995h.048v-4.97c0-.097.096-.193.192-.193h2.505c.097,0,.193.096.193.193v9.234c0,.097-.096.193-.193.193h-2.167l-4.029-4.088Z"/><path class="cls-2" d="m207.513,15.421v-6.495c0-5.463-4.181-8.557-8.617-8.557h-2.57c-2.429.014-3.674,2.191-3.674,3.853v1.708l-.005-.002v25.574c0,.36.354.721.757.721h2.922c.354,0,.706-.36.706-.721v-7.578h1.864c.655,0,1.361-.103,2.015-.257l2.318,7.835c.102.36.353.721.757.721h2.821c.353,0,.706-.36.706-.721l-2.974-9.535c1.764-1.443,2.974-3.659,2.974-6.546h0Zm-4.384-.825c0,3.607-2.318,5.36-4.434,5.36h-1.663V5.396c0-.584.474-1.058,1.06-1.058h.603c2.116,0,4.434,1.753,4.434,5.31v4.948h0Z"/><path class="cls-2" d="m119.876,15.362v-6.495c0-5.463-4.182-8.557-8.617-8.557h-2.57c-2.43.014-3.674,2.191-3.674,3.853,0,1.002,0,1.708,0,1.708l-.004-.002v25.574c0,.36.353.721.756.721h2.923c.353,0,.705-.36.705-.721v-7.578h1.865c.654,0,1.36-.103,2.015-.257l2.317,7.835c.102.36.354.721.757.721h2.821c.353,0,.706-.36.706-.721l-2.974-9.535c1.765-1.443,2.974-3.659,2.974-6.546h0Zm-4.385-.825c0,3.607-2.318,5.36-4.434,5.36h-1.663V5.337c0-.584.474-1.058,1.06-1.058h.603c2.116,0,4.434,1.753,4.434,5.31v4.949Z"/><path class="cls-2" d="m42.831,28.195h6.299c.303,0,.605.31.605.67v2.68c0,.31-.302.619-.605.619h-9.926c-.403,0-.757-.36-.757-.721V1.032c0-.36.353-.722.757-.722h9.926c.303,0,.605.31.605.619v2.679c0,.362-.302.67-.605.67h-6.299v11.031h3.729c.302,0,.605.308.605.619v2.68c0,.36-.303.669-.605.669h-3.729v8.917Z"/><path class="cls-2" d="m83.746,31.443c0,.36-.353.721-.706.721h-2.922c-.403,0-.757-.36-.757-.721V1.032c0-.36.353-.722.757-.722h2.922c.353,0,.706.362.706.722v30.411Z"/><path class="cls-2" d="m93.37,28.195h6.299c.303,0,.605.31.605.67v2.68c0,.31-.302.619-.605.619h-9.926c-.403,0-.757-.36-.757-.721V1.032c0-.36.353-.722.757-.722h9.926c.303,0,.605.31.605.619v2.679c0,.362-.302.67-.605.67h-6.299v11.031h3.729c.302,0,.605.308.605.619v2.68c0,.36-.303.669-.605.669h-3.729v8.917Z"/><path class="cls-2" d="m181.008,28.254h6.299c.303,0,.605.31.605.67v2.68c0,.31-.302.619-.605.619h-9.926c-.404,0-.757-.36-.757-.721V1.092c0-.36.353-.722.757-.722h9.926c.303,0,.605.31.605.619v2.679c0,.362-.302.67-.605.67h-6.299v11.031h3.729c.302,0,.605.308.605.618v2.68c0,.36-.303.67-.605.67h-3.729v8.917h0Z"/><path class="cls-2" d="m216.13,31.503c0,.36-.354.721-.706.721h-2.922c-.404,0-.757-.36-.757-.721V1.092c0-.36.353-.722.757-.722h2.922c.353,0,.706.362.706.722v30.411Z"/><path class="cls-2" d="m225.501,23.719c0,3.453,1.059,4.793,3.226,4.793,2.016,0,3.175-.979,3.326-4.33,0-.36.352-.722.756-.722h2.923c.352,0,.705.362.705.722-.201,4.794-2.973,8.299-7.71,8.299-5.139,0-7.609-3.609-7.609-8.402v-15.669C221.118,3.618,223.588.009,228.727.009c4.737,0,7.509,3.505,7.71,8.299,0,.36-.353.721-.705.721h-2.923c-.403,0-.756-.36-.756-.721-.151-3.35-1.311-4.33-3.326-4.33-2.167,0-3.226,1.34-3.226,4.794v14.948Z"/><path class="cls-2" d="m6.249.31h-2.573C1.247.324.003,2.501.003,4.163c0,1.002,0,1.708,0,1.708h-.002v25.572c0,.36.353.721.756.721h2.922c.353,0,.706-.36.706-.721v-7.578h1.865c4.435,0,8.617-3.093,8.617-8.504v-6.495C14.866,3.404,10.684.31,6.249.31Zm4.233,14.227c0,3.607-2.318,5.36-4.434,5.36h-1.663V5.337c0-.584.474-1.058,1.06-1.058h.604c2.116,0,4.434,1.753,4.434,5.31v4.949Z"/><path class="cls-2" d="m34.214,15.362v-6.495C34.214,3.404,30.032.31,25.597.31h-2.57c-2.43.014-3.674,2.191-3.674,3.853,0,1.002,0,1.708,0,1.708l-.004-.002v25.574c0,.36.353.721.757.721h2.922c.353,0,.706-.36.706-.721v-7.578h1.865c.655,0,1.36-.103,2.015-.257l2.318,7.835c.102.36.353.721.757.721h2.821c.353,0,.705-.36.705-.721l-2.973-9.535c1.764-1.443,2.973-3.659,2.973-6.546h0Zm-4.385-.825c0,3.607-2.318,5.36-4.434,5.36h-1.663V5.337c0-.584.474-1.058,1.06-1.058h.604c2.116,0,4.434,1.753,4.434,5.31v4.949Z"/><path class="cls-2" d="m140.192,0c-5.191,0-7.66,3.608-7.66,8.402v22.99c0,.361.353.722.756.722h2.923c.353,0,.706-.361.706-.722v-8.982h6.551v8.982c0,.361.353.722.707.722h2.922c.403,0,.757-.361.757-.722V8.402c0-4.794-2.469-8.402-7.661-8.402h0Zm-3.276,18.432v-9.67c0-3.453,1.058-4.794,3.276-4.794s3.275,1.341,3.275,4.794v9.67h-6.551Z"/><path class="cls-2" d="m247.34,0c-5.191,0-7.66,3.608-7.66,8.402v22.99c0,.361.353.722.756.722h2.923c.353,0,.706-.361.706-.722v-8.982h6.551v8.982c0,.361.353.722.707.722h2.922c.403,0,.757-.361.757-.722V8.402c0-4.794-2.47-8.402-7.661-8.402h-.001Zm-3.276,18.432v-9.67c0-3.453,1.058-4.794,3.276-4.794s3.275,1.341,3.275,4.794v9.67h-6.551Z"/><path class="cls-2" d="m73.367.31h-2.922c-.252,0-.453.155-.605.362l-5.543,15.153L58.753.672c-.151-.206-.352-.362-.605-.362h-2.922c-.403,0-.757.362-.757.722v30.411c0,.361.352.721.757.721h2.922c.388,0,.706-.317.706-.705V12.836l3.493,9.33c.139.371.494.617.89.617h2.118c.397,0,.751-.246.89-.617l3.494-9.33v18.607c0,.397.325.721.722.721h2.905c.403,0,.757-.361.757-.721V1.032c0-.361-.353-.722-.757-.722Z"/><path class="cls-2" d="m171.308.13h-2.922c-.252,0-.453.155-.605.362l-5.543,15.153-5.544-15.154c-.151-.206-.352-.362-.604-.362h-2.923c-.403,0-.756.362-.756.722v30.412c0,.361.352.721.756.721h2.923c.388,0,.705-.317.705-.704V12.656l3.494,9.33c.138.371.493.617.89.617h2.117c.397,0,.752-.246.89-.617l3.495-9.33v18.607c0,.397.324.721.722.721h2.905c.403,0,.756-.361.756-.721V.852c0-.361-.353-.722-.756-.722Z"/></g></svg>