<?xml version="1.0" encoding="UTF-8"?><svg id="a" xmlns="http://www.w3.org/2000/svg" viewBox="0 0 225 125"><path d="M15.46,8.78v3c0,2.09-1.69,3.8-3.77,3.8,0,0-.01,0-.02,0-.01,0-.03,0-.04,0-2.09,0-3.8-1.71-3.83-3.81,0-.12.02-.23.06-.34.13-.3.42-.48.73-.48h2.3v-2.17c0-.44.36-.8.79-.8h2.97c.44,0,.79.36.79.8ZM23.11,8.37c-.14-.25-.41-.4-.69-.4h-5.81c-.28,0-.55.15-.69.4-.14.25-.14.55,0,.8l1.47,2.55-1.47,2.55c-.14.25-.14.55,0,.8s.41.4.69.4h5.81c.35,0,.67-.23.77-.59.06-.21.02-.43-.09-.62l-1.46-2.54,1.47-2.55c.14-.25.14-.55,0-.8ZM30.56,8.05c-.3-.12-.64-.06-.87.17l-2.39,2.39-2.39-2.39c-.23-.23-.57-.3-.87-.17-.3.12-.49.41-.49.74v5.92c0,.44.36.8.8.8h5.91c.44,0,.8-.36.8-.8v-5.92c0-.32-.19-.61-.49-.74Z" fill="#202020"/><path d="M11.63,15.64c-2.12,0-3.87-1.74-3.89-3.87,0-.13.02-.26.07-.37.14-.32.45-.52.79-.52h2.23v-2.1c0-.48.39-.87.86-.87h2.97c.48,0,.86.39.86.87v3c0,2.13-1.72,3.87-3.84,3.87h-.02s-.04,0-.04,0ZM8.6,11.01c-.29,0-.55.17-.67.44-.04.09-.06.2-.06.31.03,2.06,1.71,3.74,3.76,3.74h.04s.02,0,.02,0c2.04,0,3.7-1.67,3.7-3.73v-3c0-.4-.33-.73-.73-.73h-2.97c-.4,0-.73.33-.73.73v2.24h-2.37ZM30.26,15.57h-5.91c-.48,0-.86-.39-.86-.87v-5.92c0-.35.21-.67.53-.8.32-.13.69-.06.94.19l2.34,2.35,2.34-2.35c.25-.25.62-.32.94-.19h0c.32.13.53.45.53.8v5.92c0,.48-.39.87-.86.87ZM24.35,8.06c-.09,0-.19.02-.28.06-.27.11-.45.38-.45.67v5.92c0,.4.33.73.73.73h5.91c.4,0,.73-.33.73-.73v-5.92c0-.3-.18-.56-.45-.67h0c-.27-.11-.58-.05-.79.16l-2.44,2.44-2.44-2.44c-.14-.14-.33-.21-.51-.21ZM22.42,15.54h-5.81c-.31,0-.6-.17-.75-.43-.15-.27-.15-.6,0-.87l1.45-2.52-1.45-2.52c-.15-.27-.15-.6,0-.87.15-.27.44-.43.75-.43h5.81c.31,0,.6.17.75.43.15.27.15.6,0,.87l-1.45,2.52,1.44,2.5c.12.21.15.45.09.67-.1.38-.45.64-.84.64ZM16.61,8.04c-.26,0-.5.14-.63.37-.13.23-.13.51,0,.73l1.49,2.59-1.49,2.59c-.13.23-.13.51,0,.73.13.23.37.37.63.37h5.81c.33,0,.62-.22.7-.54.05-.18.02-.39-.08-.57l-1.48-2.57,1.49-2.59c.13-.23.13-.51,0-.73h0c-.13-.23-.37-.37-.63-.37h-5.81Z" fill="#202020"/><path d="M201.49,7.77c-4.97,0-9.15,3.86-9.48,8.86-.13,1.92-.05,3.85-.04,5.8.03,4.96,3.87,9.16,8.86,9.47,2.12.13,4.29.12,6.41,0,4.99-.28,8.85-4.46,8.9-9.42.02-1.94.09-3.87-.04-5.84-.32-5.01-4.51-8.87-9.48-8.87h-5.13ZM208.2,15.09c.61.06,1.18.63,1.2,1.23l.18,6.45c.02.65-.47,1.15-1.07,1.2-.6.05-1.21-.41-1.23-1.07l-.12-4.06-6.63,6.14c-.49.45-1.18.47-1.66,0-.4-.4-.48-1.16,0-1.61l6.71-6.23-3.96-.41c-.66-.07-1.11-.63-1.05-1.26.06-.6.59-1.11,1.25-1.04l6.38.66Z"/><path d="M10.33,117.4v.38h-1.89v-3.19h.43v2.81h1.46Z"/><path d="M12.06,114.6c.21,0,.39.04.54.13.15.08.27.2.36.35.08.15.13.32.13.52s-.04.37-.13.52c-.08.15-.2.27-.36.35-.15.08-.33.13-.54.13h-.74v1.19h-.43v-3.19h1.17ZM12.64,115.6c0-.2-.05-.35-.16-.46-.11-.11-.26-.16-.46-.16h-.7v1.25h.7c.13,0,.24-.02.34-.07.09-.05.16-.12.21-.21.05-.09.07-.21.07-.34Z"/><path d="M14.98,116.67h-1.47v-.38h1.47v.38Z"/><path d="M15.99,115.48h-.42v-.02c0-.12.02-.24.07-.35.04-.11.11-.21.19-.3.09-.09.19-.16.32-.21s.27-.08.44-.08c.2,0,.38.04.53.11.15.08.27.18.35.31.08.13.12.28.12.45,0,.13-.02.25-.07.36-.05.11-.11.22-.2.32-.08.1-.17.21-.27.33l-.85.97v.03h1.45v.37h-2.06v-.27l1.2-1.37c.06-.07.11-.14.17-.21.06-.07.1-.15.14-.23.04-.08.06-.17.06-.27,0-.11-.02-.2-.08-.28-.05-.08-.12-.14-.2-.19s-.18-.07-.29-.07c-.12,0-.23.03-.32.08-.09.05-.16.12-.2.21s-.07.18-.07.28h0v.02Z"/><path d="M20.42,115.26h-.43s-.04-.1-.08-.16c-.04-.06-.11-.1-.18-.14-.08-.04-.18-.06-.3-.06-.09,0-.17.02-.25.05-.08.03-.15.08-.21.15-.06.07-.12.16-.16.26-.05.1-.08.23-.11.37-.02.14-.04.3-.04.48h.02c.03-.07.08-.15.15-.22s.16-.13.27-.18.24-.07.4-.07c.17,0,.33.04.48.12.15.08.28.19.38.34s.15.34.15.56c0,.23-.05.43-.14.6-.1.17-.23.29-.39.38s-.35.13-.56.13c-.12,0-.23-.01-.34-.04s-.22-.08-.32-.15c-.1-.07-.19-.17-.26-.29-.07-.12-.13-.26-.17-.44s-.06-.38-.06-.62.02-.47.06-.66c.04-.19.09-.36.16-.5.07-.14.16-.26.25-.35.1-.09.21-.16.33-.2.12-.05.26-.07.4-.07.15,0,.28.02.4.06.12.04.22.1.3.17s.15.15.2.23c.05.08.07.17.08.26ZM18.71,116.77c0,.15.03.28.09.39.06.11.15.19.25.24.1.06.21.08.34.08s.24-.03.34-.08c.1-.05.18-.13.24-.23.06-.11.09-.24.09-.4s-.03-.28-.1-.39-.15-.18-.25-.23c-.1-.05-.21-.07-.33-.07-.13,0-.25.03-.35.09-.1.06-.18.14-.24.24-.06.1-.09.22-.09.35Z"/><path d="M22.34,117.79h-.43v-2.73h-.02c-.08.06-.16.12-.25.18-.08.06-.16.12-.25.18-.08.06-.16.12-.25.18v-.43c.13-.1.25-.19.38-.28s.25-.19.38-.28h.43v3.19Z"/><path d="M23.96,116.33v-.37h.33c.11,0,.21-.02.3-.07.09-.05.16-.11.21-.19.05-.08.07-.18.07-.28,0-.15-.05-.28-.16-.38-.11-.1-.25-.14-.42-.14-.09,0-.16.01-.23.04s-.13.06-.18.1c-.05.04-.09.09-.12.14-.03.05-.05.11-.05.17h-.41c0-.1.03-.2.07-.3.04-.1.11-.18.19-.26.08-.08.19-.14.31-.18.12-.04.26-.07.42-.07.2,0,.38.03.53.1.15.07.27.17.35.29s.13.26.13.42c0,.15-.03.28-.09.39-.06.11-.14.19-.24.26s-.18.1-.26.12v.02c.09,0,.19.04.3.1.11.06.2.14.28.25.08.11.12.25.12.42,0,.14-.02.27-.08.38-.06.12-.13.22-.24.3s-.22.15-.36.2c-.14.05-.29.07-.46.07-.21,0-.4-.04-.55-.11-.16-.07-.28-.17-.36-.29s-.13-.26-.14-.41h.4c.01.08.04.16.1.23.06.07.13.12.23.16.1.04.21.06.33.06.14,0,.26-.03.37-.08s.18-.12.24-.21c.06-.09.08-.19.08-.3,0-.12-.03-.22-.09-.3-.06-.09-.13-.15-.23-.2-.1-.05-.21-.07-.34-.07h-.35Z"/><path d="M27.25,114.6h.64v2.16h.41v.37h-.41v.65h-.41v-.65h-1.55v-.38c.2-.36.41-.72.64-1.08s.46-.72.68-1.08ZM26.35,116.76h1.12v-1.79h-.02c-.19.28-.37.57-.56.87-.19.3-.37.6-.54.9v.02Z"/><path d="M89.02,115.03c-.13-.08-.27-.12-.43-.12s-.31.04-.44.12c-.13.08-.23.19-.3.35-.08.15-.11.35-.11.58v.47c0,.23.04.43.11.58.07.16.18.27.3.35.13.08.27.11.44.11s.31-.04.43-.11c.13-.08.23-.19.31-.35.08-.16.11-.35.11-.58v-.47c0-.24-.04-.43-.11-.58-.08-.15-.18-.27-.31-.35Z" fill="#202020"/><path d="M94.34,111.97h-27.94c-2.23,0-4.04,1.81-4.04,4.04s1.81,4.04,4.04,4.04h27.94c2.23,0,4.04-1.81,4.04-4.04s-1.81-4.04-4.04-4.04ZM68.23,116.77c0,.15-.03.3-.08.43-.05.13-.13.25-.23.34-.1.1-.22.17-.37.23-.15.05-.32.08-.51.08-.21,0-.39-.03-.55-.1-.16-.07-.3-.16-.41-.29-.11-.12-.19-.28-.25-.46-.06-.18-.09-.38-.09-.61v-.44c0-.29.05-.55.15-.76.1-.21.25-.38.44-.5.19-.12.42-.18.69-.18.16,0,.31.02.44.07.13.04.25.11.35.19.1.08.18.18.25.3.06.11.11.24.13.38h-.43c-.02-.09-.05-.17-.1-.23-.04-.07-.1-.13-.16-.17-.06-.05-.14-.09-.22-.11-.08-.03-.17-.04-.27-.04-.26,0-.47.09-.62.28s-.22.44-.22.77v.44c0,.22.03.42.1.58s.17.28.29.37c.13.08.28.13.46.13.17,0,.31-.03.43-.09.11-.06.2-.14.26-.24.06-.1.09-.22.09-.35v-.3h-.81v-.37h1.22v.66ZM70.91,114.97h-1.5v1h1.42v.37h-1.42v1.06h1.5v.38h-1.93v-3.19h1.93v.38ZM72.74,117.79h-.43v-2.81h-.96v-.38h2.35v.38h-.96v2.81ZM75.52,116.85c0,.32-.08.57-.25.74-.17.17-.4.26-.7.26-.14,0-.26-.02-.37-.06-.11-.04-.21-.1-.28-.17s-.14-.16-.18-.26c-.04-.1-.06-.21-.06-.33h.42c0,.08.03.16.07.22.04.06.1.11.17.15.07.04.15.06.24.06.17,0,.3-.05.39-.15s.13-.24.13-.43v-2.29h.43v2.26ZM78.62,117.79h-.52l-.78-1.25h-.02l-.79,1.25h-.48l1.04-1.61-1.02-1.58h.52l.79,1.25h.02l.78-1.25h.49l-1.05,1.61,1.03,1.58ZM82.1,117.79h-.39v-2.32h-.02l-.88,2.04h-.35l-.88-2.04h-.02v2.32h-.39v-3.19h.42l1.04,2.44h.01l1.04-2.44h.42v3.19ZM83.49,117.73c-.07.06-.15.09-.24.09s-.17-.03-.24-.09-.1-.14-.1-.24c0-.1.03-.18.1-.24.07-.06.14-.09.24-.09.1,0,.18.03.24.1.07.06.1.15.1.24s-.03.17-.1.24ZM86.69,115.52h0s-.43,0-.43,0c-.01-.12-.05-.23-.12-.32s-.15-.17-.26-.22c-.11-.05-.23-.08-.36-.08-.17,0-.32.04-.45.13s-.22.21-.29.36-.1.35-.1.57v.45c0,.22.03.41.1.57.07.16.16.27.28.36.12.08.28.12.45.12.14,0,.26-.02.36-.07.11-.05.19-.12.26-.2.07-.09.11-.19.12-.3h.43c-.02.19-.08.36-.18.5-.11.14-.24.25-.41.33-.17.08-.36.12-.58.12-.27,0-.5-.06-.69-.17-.19-.11-.33-.27-.43-.48-.1-.21-.15-.47-.15-.77v-.46c0-.3.05-.56.15-.77.1-.21.24-.38.43-.49.19-.11.42-.17.68-.17.16,0,.31.02.45.07.14.05.26.12.36.21.1.09.19.19.25.31.06.12.1.25.11.4h0ZM89.87,116.42c0,.3-.05.56-.16.77-.11.21-.26.38-.45.49-.19.11-.42.17-.68.17s-.49-.06-.68-.17c-.19-.11-.34-.27-.45-.49-.1-.21-.16-.47-.16-.77v-.46c0-.3.05-.56.16-.77.11-.21.25-.38.45-.49.19-.11.42-.17.68-.17s.49.06.68.17c.19.11.34.27.45.49.11.21.16.47.16.77v.46ZM93.57,117.79h-.39v-2.32h-.02l-.88,2.04h-.35l-.88-2.04h-.02v2.32h-.39v-3.19h.42l1.04,2.44h.01l1.04-2.44h.42v3.19Z" fill="#202020"/><path d="M124.86,117.94c-.33,0-.62-.07-.88-.22-.25-.14-.45-.34-.59-.59-.14-.25-.21-.53-.21-.85v-.24c0-.22.04-.43.12-.63s.2-.36.35-.51.33-.26.53-.34c.2-.08.43-.12.67-.12s.47.04.68.12c.21.08.38.2.53.34.15.15.27.32.35.51.08.19.12.4.12.62v.24c0,.32-.07.6-.21.85-.14.25-.34.45-.59.59-.25.14-.55.22-.88.22ZM123.47,116.29c0,.26.06.5.17.7.12.21.28.37.49.48.21.12.45.18.73.18s.52-.06.73-.18c.21-.12.37-.28.49-.48.12-.21.17-.44.17-.7v-.25c0-.18-.03-.35-.1-.51-.07-.16-.16-.3-.29-.42-.12-.12-.27-.21-.44-.28-.17-.07-.36-.1-.57-.1s-.4.03-.57.1c-.17.07-.32.16-.44.28-.12.12-.22.26-.28.42s-.1.33-.1.51v.25ZM124.11,116.31v-.23c0-.17.03-.31.09-.42.06-.12.15-.2.27-.26.11-.06.25-.09.4-.09s.28.03.38.09.18.13.24.22c.05.09.08.18.08.27h-.3s-.02-.08-.05-.13c-.03-.05-.07-.09-.12-.12-.06-.04-.13-.05-.23-.05-.15,0-.27.04-.35.13s-.12.21-.12.38v.22c0,.17.04.29.12.37.08.08.2.12.34.12s.23-.03.3-.08c.06-.05.1-.11.11-.18h.3c0,.09-.03.18-.08.26-.05.08-.13.15-.23.21s-.24.08-.4.08-.29-.03-.4-.09c-.12-.06-.2-.15-.27-.26-.06-.12-.09-.26-.09-.43Z"/><path d="M127.67,117.79h-.39v-3.19h.42l1.04,2.44h.01l1.04-2.44h.42v3.19h-.39v-2.32h-.02l-.88,2.04h-.35l-.88-2.04h-.02v2.32Z"/><path d="M131.51,117.79h-.39v-3.19h.42l1.04,2.44h.01l1.04-2.44h.42v3.19h-.39v-2.32h-.02l-.88,2.04h-.35l-.88-2.04h-.02v2.32Z"/><path d="M137.2,114.6l-1.05,1.61,1.03,1.58h-.52l-.78-1.25h-.02l-.79,1.25h-.48l1.04-1.61-1.02-1.58h.52l.79,1.25h.02l.78-1.25h.49Z"/><path d="M140.04,114.6l-1.05,1.61,1.03,1.58h-.52l-.78-1.25h-.02l-.79,1.25h-.48l1.04-1.61-1.02-1.58h.52l.79,1.25h.02l.78-1.25h.49Z"/><path d="M141.43,117.79l-1.14-3.19h.49l.87,2.69h.02l.87-2.69h.49l-1.14,3.19h-.45Z"/><path d="M144,117.79h-.43v-3.19h.43v3.19Z"/><path d="M183.06,115.8h-.53l-.16.76h.52l-.06.33h-.52l-.18.9h-.34l.18-.9h-.73l-.19.9h-.34l.18-.9h-.5l.07-.33h.5l.16-.76h-.5l.06-.32h.5l.18-.88h.34l-.18.88h.73l.18-.88h.33l-.18.88h.53l-.07.32ZM181.46,115.79l-.16.78h.74l.16-.78h-.74Z"/><path d="M185.98,115.8h-.53l-.16.76h.52l-.06.33h-.52l-.18.9h-.34l.18-.9h-.73l-.19.9h-.34l.18-.9h-.5l.07-.33h.5l.16-.76h-.5l.06-.32h.5l.18-.88h.34l-.18.88h.73l.18-.88h.33l-.18.88h.53l-.07.32ZM184.38,115.79l-.16.78h.74l.16-.78h-.74Z"/><path d="M17.46,24.39c1.75,0,3.21.29,4.38.86s2.06,1.37,2.65,2.41.89,2.24.89,3.62c0,1.1-.21,2.05-.64,2.83s-.91,1.41-1.46,1.88-1.02.79-1.4.97l3.93,7.44h-6.75l-3.21-6.67h-1.54v6.67h-6.02v-20h9.17ZM14.31,33.62h2.21c.67,0,1.26-.19,1.77-.58s.75-.98.75-1.79-.26-1.43-.78-1.84-1.1-.61-1.74-.61h-2.21v4.82Z"/><path d="M42.82,39.66v4.73h-14.25v-20h14.25v4.73h-8.17v3.15h7.63v4.28h-7.63v3.11h8.17Z"/><path d="M50.86,44.39h-6.08l6.06-20h7.79l6.01,20h-6.56l-.86-3.78h-5.46l-.89,3.78ZM54.68,29.48h-.31l-1.61,6.81h3.47l-1.55-6.81Z"/><path d="M67.05,24.39h8.69c2.17,0,3.93.41,5.27,1.23s2.34,1.97,2.97,3.45.94,3.21.94,5.19-.32,3.78-.97,5.3-1.64,2.71-3,3.55-3.09,1.27-5.22,1.27h-8.69v-20ZM73.2,29.12v10.53h1.41c.73,0,1.35-.11,1.87-.32s.93-.54,1.24-.97.54-.98.69-1.63.22-1.42.22-2.29c0-1.16-.13-2.14-.4-2.93s-.69-1.39-1.27-1.79-1.37-.6-2.34-.6h-1.41Z"/><path d="M97.92,44.39h-6.15v-6.02l-6.71-13.97h6.67l3.12,7.87h.22l3.15-7.87h6.42l-6.71,13.78v6.21Z"/><path d="M122.58,44.39h-6.15v-15.07h-5.08v-4.92h16.32v4.92h-5.08v15.07Z"/><path d="M148.09,35.41c0,1.87-.36,3.5-1.08,4.9s-1.79,2.49-3.19,3.26-3.12,1.16-5.16,1.16-3.75-.39-5.16-1.16-2.47-1.86-3.2-3.26c-.73-1.4-1.09-3.03-1.09-4.9v-1.96c0-1.89.36-3.54,1.09-4.95.73-1.41,1.79-2.5,3.2-3.27s3.12-1.16,5.16-1.16,3.76.39,5.16,1.17,2.46,1.87,3.19,3.27,1.08,3.04,1.08,4.93v1.96ZM141.8,33.36c0-.96-.13-1.76-.38-2.42s-.61-1.15-1.08-1.49-1.02-.51-1.68-.51-1.22.17-1.68.51-.83.83-1.08,1.49-.38,1.46-.38,2.42v2.08c0,.96.13,1.77.38,2.42s.62,1.15,1.08,1.49,1.03.5,1.68.5,1.21-.17,1.68-.5.82-.83,1.08-1.49.38-1.47.38-2.42v-2.08Z"/><path d="M25.56,58.09h-5.93c-.03-.29-.11-.58-.24-.85s-.31-.52-.55-.74-.52-.39-.86-.52-.73-.19-1.17-.19c-1.03,0-1.8.37-2.32,1.11s-.78,1.8-.78,3.19v2.11c0,.74.09,1.45.26,2.12s.49,1.22.96,1.65,1.15.64,2.05.64c.64,0,1.18-.12,1.6-.37s.73-.55.94-.92.31-.75.31-1.13v-.23h-2.49v-4.07h8.25v3.75c0,.98-.16,1.94-.48,2.88s-.82,1.79-1.52,2.54-1.6,1.35-2.72,1.8-2.47.67-4.06.67c-1.68,0-3.11-.25-4.3-.75s-2.15-1.19-2.89-2.06-1.28-1.86-1.62-2.98-.51-2.29-.51-3.51v-2.21c0-1.75.35-3.31,1.06-4.69s1.76-2.46,3.15-3.26,3.11-1.19,5.16-1.19c1.49,0,2.79.21,3.89.62s2,.97,2.72,1.67,1.24,1.47,1.59,2.33.52,1.72.52,2.6Z"/><path d="M38.01,51.19c1.75,0,3.21.29,4.38.86s2.06,1.37,2.65,2.41.89,2.24.89,3.62c0,1.1-.21,2.05-.64,2.83s-.91,1.41-1.46,1.88c-.55.47-1.02.79-1.4.97l3.93,7.44h-6.75l-3.21-6.67h-1.54v6.67h-6.02v-20h9.17ZM34.86,60.42h2.21c.67,0,1.26-.19,1.77-.58s.75-.98.75-1.79-.26-1.43-.78-1.84-1.1-.61-1.74-.61h-2.21v4.82Z"/><path d="M67.18,62.21c0,1.87-.36,3.5-1.08,4.9s-1.78,2.49-3.19,3.26-3.12,1.16-5.16,1.16-3.75-.39-5.16-1.16-2.47-1.86-3.2-3.26-1.09-3.03-1.09-4.9v-1.96c0-1.89.36-3.54,1.09-4.95s1.79-2.5,3.2-3.27,3.12-1.16,5.16-1.16,3.76.39,5.16,1.17,2.46,1.87,3.19,3.27,1.08,3.04,1.08,4.93v1.96ZM60.88,60.16c0-.96-.13-1.76-.38-2.42s-.61-1.15-1.08-1.49-1.02-.51-1.68-.51-1.22.17-1.68.51-.83.83-1.08,1.49-.38,1.46-.38,2.42v2.08c0,.96.13,1.77.38,2.42s.62,1.16,1.08,1.49,1.03.5,1.68.5,1.21-.17,1.68-.5.82-.83,1.08-1.49.38-1.47.38-2.42v-2.08Z"/><path d="M78.82,71.19h-5.79l-4.92-20h6.34l1.89,12.13h.28l2.87-12.13h4.73l2.87,12.13h.29l1.85-12.13h6.34l-4.91,20h-5.79l-2.92-11h-.22l-2.93,11Z"/><path d="M114.97,71.19h-6.15v-6.02l-6.71-13.98h6.67l3.12,7.87h.22l3.15-7.87h6.42l-6.71,13.78v6.21Z"/><path d="M140.83,62.21c0,1.87-.36,3.5-1.08,4.9s-1.79,2.49-3.19,3.26-3.12,1.16-5.16,1.16-3.75-.39-5.16-1.16-2.47-1.86-3.2-3.26c-.73-1.4-1.09-3.03-1.09-4.9v-1.96c0-1.89.36-3.54,1.09-4.95.73-1.41,1.79-2.5,3.2-3.27s3.12-1.16,5.16-1.16,3.76.39,5.16,1.17,2.46,1.87,3.19,3.27,1.08,3.04,1.08,4.93v1.96ZM134.53,60.16c0-.96-.13-1.76-.38-2.42s-.61-1.15-1.08-1.49-1.02-.51-1.68-.51-1.22.17-1.68.51-.83.83-1.08,1.49-.38,1.46-.38,2.42v2.08c0,.96.13,1.77.38,2.42s.62,1.16,1.08,1.49,1.03.5,1.68.5,1.21-.17,1.68-.5.82-.83,1.08-1.49.38-1.47.38-2.42v-2.08Z"/><path d="M152.74,66.49c.77,0,1.41-.24,1.93-.73.51-.48.77-1.27.77-2.35v-12.22h6.15v13.08c0,1.46-.36,2.74-1.07,3.83s-1.73,1.93-3.05,2.53-2.9.89-4.72.89-3.4-.3-4.72-.89c-1.32-.6-2.34-1.44-3.05-2.53s-1.07-2.37-1.07-3.83v-13.08h6.15v12.22c0,1.1.26,1.89.77,2.37.51.47,1.16.71,1.93.71Z"/><path d="M174.64,51.19c1.75,0,3.21.29,4.38.86s2.06,1.37,2.65,2.41.89,2.24.89,3.62c0,1.1-.21,2.05-.64,2.83-.42.78-.91,1.41-1.46,1.88-.55.47-1.02.79-1.4.97l3.93,7.44h-6.75l-3.21-6.67h-1.54v6.67h-6.02v-20h9.17ZM171.49,60.42h2.21c.67,0,1.26-.19,1.77-.58.5-.39.75-.98.75-1.79s-.26-1.43-.78-1.84-1.1-.61-1.74-.61h-2.21v4.82Z"/><path d="M13.77,87.07v1.86c0,.96.11,1.76.34,2.42s.56,1.15,1,1.49c.43.34.96.5,1.57.5s1.11-.15,1.52-.45.72-.7.92-1.21.31-1.08.31-1.71h5.82v.89c0,1.5-.37,2.82-1.11,3.93s-1.76,1.98-3.05,2.6-2.79.92-4.47.92c-1.97,0-3.64-.39-5-1.17s-2.4-1.88-3.1-3.29-1.05-3.07-1.05-4.97v-1.8c0-1.91.35-3.57,1.05-4.98s1.74-2.5,3.1-3.27,3.03-1.17,5-1.17c1.26,0,2.42.17,3.47.52s1.97.85,2.73,1.5,1.36,1.44,1.79,2.36.64,1.95.64,3.09v.86h-5.82c0-.63-.1-1.21-.31-1.71s-.51-.91-.92-1.2-.92-.44-1.52-.44-1.14.17-1.57.5c-.43.34-.77.83-1,1.49s-.34,1.46-.34,2.43Z"/><path d="M37.65,77.99c1.75,0,3.21.29,4.38.86,1.17.57,2.06,1.37,2.65,2.41s.89,2.24.89,3.62c0,1.1-.21,2.05-.64,2.83s-.91,1.41-1.46,1.88-1.02.79-1.4.97l3.93,7.44h-6.75l-3.21-6.67h-1.54v6.67h-6.02v-20h9.17ZM34.5,87.22h2.21c.67,0,1.26-.19,1.77-.58.5-.38.75-.98.75-1.79s-.26-1.43-.78-1.84c-.52-.4-1.1-.61-1.74-.61h-2.21v4.82Z"/><path d="M63,93.26v4.73h-14.25v-20h14.25v4.73h-8.17v3.15h7.63v4.28h-7.63v3.11h8.17Z"/><path d="M66.66,77.99h8.69c2.17,0,3.93.41,5.27,1.23s2.34,1.97,2.97,3.45c.63,1.48.94,3.21.94,5.19s-.32,3.78-.97,5.3-1.64,2.71-3,3.55c-1.35.85-3.09,1.27-5.22,1.27h-8.69v-20ZM72.82,82.72v10.53h1.41c.73,0,1.35-.11,1.87-.32s.93-.54,1.24-.97.54-.98.69-1.63.22-1.42.22-2.29c0-1.16-.13-2.14-.4-2.93s-.69-1.39-1.27-1.79-1.37-.6-2.34-.6h-1.41Z"/><path d="M93.85,97.99h-6.15v-20h6.15v20Z"/><path d="M107.61,97.99h-6.15v-15.07h-5.08v-4.92h16.32v4.92h-5.08v15.07Z"/><path d="M130.31,93.29c.77,0,1.41-.24,1.93-.73.51-.48.77-1.27.77-2.35v-12.22h6.15v13.08c0,1.46-.36,2.74-1.07,3.83-.71,1.09-1.73,1.93-3.05,2.53s-2.9.89-4.72.89-3.4-.3-4.72-.89c-1.32-.6-2.34-1.44-3.05-2.53-.71-1.09-1.07-2.37-1.07-3.83v-13.08h6.15v12.22c0,1.1.26,1.89.77,2.37.51.47,1.16.71,1.93.71Z"/><path d="M148.68,97.99h-5.64v-20h4.61l6.81,9.67h.23v-9.67h5.64v20h-4.57l-6.86-9.84h-.23v9.84Z"/><path d="M170.6,97.99h-6.15v-20h6.15v20Z"/><path d="M192.76,89.01c0,1.87-.36,3.5-1.08,4.9-.72,1.4-1.79,2.49-3.19,3.26s-3.12,1.16-5.16,1.16-3.75-.39-5.16-1.16-2.47-1.86-3.2-3.26c-.73-1.4-1.09-3.03-1.09-4.9v-1.96c0-1.89.36-3.54,1.09-4.95.73-1.41,1.79-2.5,3.2-3.27s3.12-1.16,5.16-1.16,3.76.39,5.16,1.17,2.46,1.87,3.19,3.27,1.08,3.04,1.08,4.93v1.96ZM186.46,86.96c0-.96-.13-1.76-.38-2.42s-.61-1.15-1.08-1.49c-.46-.34-1.02-.51-1.68-.51s-1.22.17-1.68.51c-.47.34-.83.83-1.08,1.49s-.38,1.46-.38,2.42v2.08c0,.96.13,1.76.38,2.42.25.66.62,1.15,1.08,1.49s1.03.5,1.68.5,1.21-.17,1.68-.5.82-.83,1.08-1.49c.25-.66.38-1.47.38-2.42v-2.08Z"/><path d="M201.68,97.99h-5.64v-20h4.61l6.81,9.67h.23v-9.67h5.64v20h-4.57l-6.86-9.84h-.23v9.84Z"/></svg>