<?xml version="1.0" encoding="UTF-8"?>
<svg id="Layer_1" xmlns="http://www.w3.org/2000/svg" version="1.1" viewBox="0 0 244.7 129.3">
  <!-- Generator: Adobe Illustrator 30.2.1, SVG Export Plug-In . SVG Version: 2.1.1 Build 1)  -->
  <defs>
    <style>
      .st0 {
        fill-rule: evenodd;
      }
    </style>
  </defs>
  <g>
    <path d="M15,33.9l.6.6c2.2,1.9,4.9,3.5,8.1,3.5s3.6-.6,3.9-2.3c.3-1.7-1.5-1.9-2.7-2.1l-2.7-.5c-5.2-1-9.3-4.1-8.3-10.1,1.4-9,10.4-14.1,18.7-14.1s8.1,1.1,11.5,3.3l-5.3,9.7c-2.1-1.6-4.6-2.9-7.6-2.9s-3,.5-3.3,2c-.2,1.4,1.5,1.6,2.5,1.9l3,.7c5.6,1.3,9.4,4.4,8.4,10.9-1.4,9.1-10.4,13.5-18.6,13.5s-10.1-1.3-14-3.5l5.9-10.7Z"/>
    <path d="M47.8,9.5h25.5l-1.6,10.4h-11.6l-.6,3.6h10.6l-1.6,9.9h-10.6l-.6,3.7h12l-1.6,10.4h-25.9l6-38Z"/>
    <path d="M77.4,9.5h16.7c8.6,0,15.2,3.6,13.7,13.2-.9,5.7-3.5,8.2-8.9,9.9v.3c.6.6,1.3,1.2,1.9,2.3l6.3,12.3h-15.9l-4.1-12.2h-.3l-1.9,12.2h-13.5l6-38ZM88.2,26.4h1c2.3,0,4.6-.4,5-3.2.5-2.9-1.5-3.3-3.9-3.3h-1.1l-1,6.4Z"/>
    <path d="M150.4,9.5l-20.7,38h-11.7l-8.7-38h14.4l2.3,17.3c.3,1.9.4,3.7,0,5.6h.3c.3-1.9,1-3.8,1.8-5.6l7.8-17.3h14.4Z"/>
    <path d="M151.6,9.5h13.8l-6,38h-13.8l6-38Z"/>
    <path d="M195.5,25c-1.9-2.1-4.4-3.8-7.5-3.8s-8,3.3-8.7,7.4c-.7,4.2,2.4,7.4,6.5,7.4s5.9-1.4,8.5-3.5l-2.7,14.2c-2.4,1.1-7.6,1.5-10.1,1.5-10.8,0-18-8.4-16.2-19.2,1.8-11.1,11.9-19.9,23-19.9s6.3.6,9,1.6l-1.9,14.5Z"/>
    <path d="M200.6,9.5h25.5l-1.6,10.4h-11.6l-.6,3.6h10.6l-1.6,9.9h-10.6l-.6,3.7h12l-1.6,10.4h-25.9l6-38Z"/>
  </g>
  <g>
    <polygon class="st0" points="23.6 99.3 28 86 32.4 99.3 46.4 99.5 35.1 107.7 39.2 121.1 27.9 112.9 16.5 120.9 20.8 107.6 9.6 99.3 23.6 99.3"/>
    <polygon class="st0" points="67.8 99.3 72.3 86 76.6 99.3 90.6 99.5 79.3 107.7 83.5 121.1 72.1 112.9 60.7 120.9 65 107.6 53.8 99.3 67.8 99.3"/>
    <polygon class="st0" points="110.8 99.3 115.3 86 119.7 99.3 133.6 99.5 122.3 107.7 126.5 121.1 115.2 112.9 103.8 120.9 108.1 107.6 96.8 99.3 110.8 99.3"/>
    <polygon class="st0" points="152.6 99.3 157.1 86 161.4 99.3 175.4 99.5 164.1 107.7 168.3 121.1 156.9 112.9 145.5 120.9 149.8 107.6 138.6 99.3 152.6 99.3"/>
    <polygon class="st0" points="196.8 99.3 201.3 86 205.7 99.3 219.6 99.5 208.3 107.7 212.5 121.1 201.2 112.9 189.8 120.9 194.1 107.6 182.8 99.3 196.8 99.3"/>
  </g>
  <g>
    <path d="M25.1,65.7c-1-1.2-2.3-2.2-4-2.2s-4.3,1.9-4.6,4.2c-.4,2.4,1.3,4.2,3.5,4.2s3.2-.8,4.5-2l-1.4,8.1c-1.3.6-4.1.9-5.4.9-5.8,0-9.6-4.8-8.7-11,.9-6.3,6.3-11.4,12.3-11.4s3.3.3,4.8.9l-1,8.3Z"/>
    <path d="M28.3,56.9h8.9c4.6,0,8.1,2.1,7.3,7.6-.5,3.3-1.9,4.7-4.8,5.7v.2c.3.3.7.7,1,1.3l3.4,7.1h-8.5l-2.2-7h-.1l-1,7h-7.2l3.2-21.7ZM34.1,66.5h.5c1.2,0,2.5-.2,2.7-1.8.2-1.7-.8-1.9-2.1-1.9h-.6l-.5,3.7Z"/>
    <path d="M47.9,56.9h13.7l-.9,5.9h-6.2l-.3,2.1h5.7l-.8,5.7h-5.7l-.3,2.1h6.4l-.9,5.9h-13.9l3.2-21.7Z"/>
    <path d="M64.2,56.9h7.5c6.8,0,11.6,3.2,10.4,11.2-1,6.5-5.8,10.6-11.8,10.6h-9.3l3.2-21.7ZM69.4,72.1h.5c2.5,0,4.5-1.2,4.9-4.1.5-3.1-1-4.4-3.7-4.4h-.5l-1.2,8.4Z"/>
    <path d="M85.8,56.9h7.4l-3.2,21.7h-7.4l3.2-21.7Z"/>
    <path d="M94.5,56.9h15.5l-1,7.1-4-.2-2.2,14.9h-7.4l2.2-14.9-4.1.2,1-7.1Z"/>
    <path d="M140.5,56.9l-1.9,12.9c-.9,6.3-5.1,9.2-10.8,9.2s-9-2.9-8-9.2l1.9-12.9h7.4l-1.8,12.1c-.2,1.7-.4,3.2,1.5,3.2s2.2-1.5,2.5-3.2l1.8-12.1h7.4Z"/>
    <path d="M143,56.9h7.1l4.8,12.1h.2c0-1.8,0-3.7.2-5.5l1-6.5h7.1l-3.2,21.7h-7.1l-4.8-11.4h-.2c0,1.5,0,2.9-.2,4.4l-1,7.1h-7.1l3.2-21.7Z"/>
    <path d="M166,56.9h7.4l-3.2,21.7h-7.4l3.2-21.7Z"/>
    <path d="M196.2,67.8c-1,7-6.7,11.2-12.9,11.2s-10.6-4.2-9.6-11.2c1-6.8,6.7-11.3,12.9-11.3s10.6,4.4,9.6,11.3ZM181.2,67.9c-.4,2.5.9,4.2,3.2,4.2s4-1.7,4.4-4.2c.3-2.3-.8-4.2-3.2-4.2s-4.1,1.9-4.4,4.2Z"/>
    <path d="M199.7,56.9h7.1l4.8,12.1h.2c0-1.8,0-3.7.2-5.5l1-6.5h7.1l-3.2,21.7h-7.1l-4.8-11.4h-.2c0,1.5,0,2.9-.2,4.4l-1,7.1h-7.1l3.2-21.7Z"/>
  </g>
  <path d="M233.8,20.3c-3,0-5.4-2.4-5.4-5.4s2.4-5.4,5.4-5.4,5.4,2.4,5.4,5.4-2.4,5.4-5.4,5.4ZM233.8,10.4c-2.5,0-4.5,2-4.5,4.5s2,4.5,4.5,4.5,4.5-2,4.5-4.5-2-4.5-4.5-4.5ZM231.4,12.1h2.5c1.4,0,1.9.9,1.9,1.5,0,.9-.7,1.6-1.7,1.7h0c.5.2.9.7,1.3,1.5l.7,1.1h-1.1l-.5-.9c-.7-1.3-1-1.5-1.7-1.5h-.6v2.4h-.9v-5.8ZM233.7,14.6c.7,0,1.2-.3,1.2-.9s-.4-.9-1-.9h-1.5v1.7h1.3Z"/>
</svg>