<svg id="a" xmlns="http://www.w3.org/2000/svg" viewBox="0 0 2160 605"><path d="M326.88,314.86c17.46,14.99,46.7,30.97,68.85,26.43,9.23-2.16,15.22-9.3,14.93-18.81-.69-23.07-24.26-47.21-42.4-60.26l-103.48-143.01c64.47,22.28,132.67,69.01,183.48,114.22,19.1,17,36.05,35.02,51.03,55.55,29.99,41.08,44.89,87.69,25.47,137.02-1.69,4.28-3.01,8.85-3.37,13.73,2.34,1.53,6.62,1.55,9.54.41,38.13-14.85,62.16-52.44,59.73-93.38-3.22-54.23-41.56-104.07-77.32-142.54-23.6-25.39-49.76-47.3-79.4-65.68-62.7-38.88-133.29-63.37-206.93-71.67l-20.81-28.89c-5.65-7.84-27.01-42.69-38.32-36.32-2.94,5.15,7.44,23.27,10.61,28.76l20.24,34.95c-32.78-.88-64.08,4.04-94.35,14.9-43.16,15.48-76.65,45.67-84.05,92.48-3.13,19.82-2.46,39.65,2.17,59.11,1.34,5.64,7.64,26.25,14.78,24.09,5.13-1.56,4.82-21.6,4.58-27.13-1.85-41.79,11.53-78.13,48.28-100.34,37.85-22.65,90.02-25.21,133.56-19.83l78.75,136.87c-12.2,5.4-10.15,21.69-5.5,31.47l-130.76,5.79c-6.52.29-26.82,3.26-25.61,12.42,1.21,9.14,24.53,12.58,32.37,12.92l153.91,6.76ZM928.55,1.26l-.03,14.37c28.44,2.63,31.69,27.51,31.69,51.67v158.44c-.01,19.26-2.08,43.71-12.04,59.96-22.74,37.1-72.39,44.58-110.37,32.77-25.08-7.79-43.16-27.75-48.37-53.2-2.3-11.25-3.32-21.76-3.32-33.55V67.31c-.01-9.63.81-18.39,2.52-27.34,2.66-13.94,12.81-22.48,27.47-24.25l.11-14.45h-130.05s.12,14.41.12,14.41c28.17,2.64,30.54,25.54,30.55,49.22l.1,174.82c0,11.18,1.45,21.2,3.64,31.86,9.18,44.67,44.88,72.81,88.48,81.85,30.42,6.31,61.58,6.64,91.95.16,42.02-8.96,81.12-37.21,90.42-81.05,2.55-12.02,3.97-23.66,3.98-36.18l.13-169.03c.02-23.94,2.73-47.29,30.71-51.48l.23-14.58h-97.9ZM1466.61,61.28c11.14-5.46,16.94-15.98,16.61-27.36-.34-11.38-6.93-21.23-17.89-26.11-13.14-5.85-28.44-4.44-40.11,4.28-8.84,6.61-12.68,17.04-10.99,28.21,1.41,9.33,8.05,18.16,18.05,22.21,10.97,4.45,23.26,4.2,34.34-1.22ZM1159.58,195.46c.01-11.17,2.67-21.28,6.84-30.62,9.34-20.94,31.69-32.47,53.89-27.62,16.9,3.69,29.26,16.55,32.02,33.45,1.24,7.6,1.79,14.78,2.33,22.55l-.15,96.12c-.03,21.31-2.02,41.74-4.29,63.34h99.17s.17-13.92.17-13.92l-9.63-2.88c-8.6-2.57-15.01-9.3-17.37-18.09-2.22-8.27-3.41-16.69-3.42-25.5l-.17-113.23c-.02-14.03-2.6-27.01-7.8-39.61-5.52-13.4-14.68-23.8-27.56-30.95-26.47-14.68-58.7-16.26-86.59-4.16-17.27,7.49-30.32,20.13-40.92,35.74v-41.24s-91.89,3-91.89,3l-.11,14.84c13.08.39,22.89,6.72,26.65,18.85,2.61,8.41,4.15,17.18,4.15,26.53v128.62c.01,8.72-1.14,16.79-2.89,24.87-2.95,13.69-13.47,21.59-27.93,22.73l.15,14.39h126.12s.04-13.92.04-13.92c-12.99-2.46-23.01-6.13-27.16-19.64-2.29-7.45-3.74-15.27-3.74-23.44l.11-100.22ZM1817.65,227.64c0-73.63-59.76-133.31-133.47-133.31s-133.47,59.69-133.47,133.31,59.76,133.31,133.47,133.31,133.47-59.69,133.47-133.31ZM1951.66,196.45c0-11.14,2.45-21.17,6.43-30.63,8.99-21.39,31.51-33.41,54.06-28.67,17.17,3.61,29.67,16.73,32.39,33.92,1.22,7.72,1.78,14.99,2.24,22.94l-.16,95.72c-.03,21.42-2.14,41.77-4.21,62.95l99.15-.04.02-13.97-8.53-2.44c-8.92-2.55-15.77-9-18.28-18.13-2.24-8.17-3.5-16.56-3.51-25.45l-.19-113.63c-.02-13.94-2.59-26.77-7.67-39.3-5.64-13.91-15.25-24.58-28.65-31.78-26.69-14.33-58.95-15.62-86.72-3.14-16.72,7.52-29.32,19.86-39.72,35.1l-.12-41.08-92.08,3,.15,14.99c13.51.09,23.03,7.03,26.71,19.11,2.53,8.29,4.01,16.98,4.01,26.17v128.54c.01,8.57-1.14,16.51-2.77,24.51-2.86,13.97-13.79,22.11-28.16,23.14l.06,14.38,126.32-.03-.02-13.96-7.84-1.8c-9.46-2.17-16.65-8.65-19.38-18.14-2.11-7.33-3.62-15.01-3.61-23.03l.06-99.28ZM1388.5,352.68h125.68s.02-14,.02-14c-12.36-1.97-22.27-5.8-25.84-18.78-2.62-9.54-4.06-18.93-4.07-29.32l-.05-191.75-95.88,3.01.14,14.8c22.36,1.51,31.14,17.56,31.15,37.57l.08,140.46c.01,22.07-5.99,42.64-31.48,43.7l.24,14.3ZM612.74,410.56c-4.36.15-7.76,3.78-10,7.25-12.31,19.09-27.32,34.68-46.21,47.52-43.53,29.61-94.87,44.45-147.75,43.11-28.55-.72-55.43-6.08-82.42-14.96-97.38-32.05-183.95-92.84-243.88-176.37-4.26-2.18-10.1-1.43-14.62.58-15.41,6.84-29.15,18.63-37.2,33.81-7.52,14.18,11.6,40.81,21.2,51.3,27.98,30.58,60.11,57.12,94.84,79.89,76.89,50.4,166.04,76.18,258.01,76.2,34.15,0,67.12-5.27,98.34-18.92,31.69-13.86,59.22-34.62,79.42-62.71,6.96-9.68,35.48-55.98,30.26-66.7ZM830.05,545.97c15.35-11.88,21.46-32.48,13.58-50.41-14.79-33.66-83.75-33.91-82.63-62.5.85-21.81,33.83-26.17,53.94-16.82,8.93,4.15,13.38,12.78,13.73,22.27,2.14,1.28,6.9,1.23,8.57-.73v-30.82c-26.06-12.75-66.66-15.08-90.15,3.93-9.45,7.65-14.3,18.52-14.33,30.13-.02,11.21,5.19,21.51,14.14,29.26,17.42,15.1,39.95,18.41,61.92,32.76,10.03,6.55,13.09,18.3,6.4,28.33-11.09,16.62-40.29,17.19-57.87,8.23-9.89-5.04-15.43-13.97-15.63-25.2-3-.67-6.51-.65-8.91.58l.19,31.45c28.09,15.03,71.4,19.39,97.05-.45ZM2136.31,556.6c1.47,0,1.59-5.8.33-6.26l-4.44-1.61c-6.42-4.27-12.05-10.34-16.45-17.09l-30.23-46.4c12.21-10.51,29.93-33.22,45.95-34.26l.4-6.46-49.35.06c-.22,2.21-.68,4.88.14,5.42,3.24,2.13,6.51.75,8.5,3.9,2.54,4-3.24,11.26-6.38,14.27l-14.82,14.18c-4.24,4.06-10.21,6-15.72,5.42l-.04-89.56-41.88,1.27c-.58,1.45-1.1,5.53.09,6.07l4.24,1.95c5.11,2.35,8.46,8.67,8.46,15.15l.04,112.64c0,7.98-4.83,13.73-12.17,14.87-1.65.25-1.75,6.59-.12,6.6h54.25c1.66-.01,1.51-6.29-.1-6.59-7.11-1.33-12.35-6.71-12.42-14.23l-.36-36.51,8.3-.35,29.51,48.99c3.49,5.79,8.91,8.64,16.06,8.62l28.21-.07ZM1715.78,549.83c15.83-6.81,23.85-20.98,24.61-37.35,1.21-26.02-18.04-37.78-40.32-40.58,18.33-7.32,31.33-17.24,30.39-38.39-1.23-27.75-26.97-34.04-50.39-34l-83.69.14c-.62,1.84-.45,5.27.62,6.33,10.21,1.51,12.44,10.9,12.43,20.06l-.13,108.28c0,6.31-3.35,13.12-8.53,14.98-2.44.88-4.11,1.38-4.91,2.45-.67.89.29,5.04,1.43,5.04l87.62-.12c11.14-.01,20.96-2.59,30.86-6.84ZM1143.21,405.14c-6.65-6.05-16.84-5.58-23.08.11-4.47,4.08-5.05,10.49-2.66,15.5,2.35,4.93,8,7.57,13.93,7.58,6.05,0,11.87-2.66,14.26-7.45,2.48-4.96,2.19-11.52-2.45-15.74ZM931.97,540.84c.08,6.26.18,9.29,2.32,12.7s7.44,5.04,11.43,4.79l26.04-1.61c1.74-.11,1.63-6.26-.13-6.53-11.61-1.81-12.82-11.78-12.86-22.8l-.16-51.96c-.02-6.83-2.32-14.32-6.42-19.52-15.71-19.89-70.56-16.89-84.77-1.56-3.65,3.93-3.68,10.11.33,13.38,2.88,2.36,8.83,2.72,12.43-.63,11.7-10.88,28.7-15.1,43.08-7.34,4.58,2.47,7.1,7.39,6.79,12.09-1.01,15.36-33.78,13.69-57.81,29-9.19,5.85-14.84,14.89-14.95,25.11-.11,10.11,4.32,19.67,13.21,25.72,20.31,13.81,48.03,8.12,61.47-10.84ZM1218.95,536.48c-.85-18.23-.98-35.93,0-53.67.55-9.96,6.58-18.71,15.52-21.75,6.44-2.19,12.83-1.19,18.2,2.47,4.79,3.27,7.16,9.04,8.04,15.55l.47,27.36c.29,16.9-.43,32.87-2,50.37h43.93c4.17-14.29-13.04,2.1-13.22-28.36l-.31-53.03c-.05-8.04-3.06-17.55-9.11-22.99-18.9-17-48.6-12.87-63.04,8.12l-.63-17.4-40.22,1.32c-5.72,13.57,13.08-1.93,13.07,28.42v54.9c-.02,10.78-1.32,20.11-12.56,22.3-1.88.37-2.18,6.68.12,6.68l54.23.07c1.39-1.29,1.36-5.76-.14-6.66-6.71-.81-11.98-5.86-12.34-13.69ZM1323.94,594.59c25.25,12.19,65.28,14.53,85.64-4.09,9.69-8.86,15.35-21.51,15.43-35.05l.5-89.78c.04-7.93,5.03-13.62,12.68-14.29.43-1.97.48-4.79.14-6.93l-40.64-1.28-.17,18.72c-11.49-19.45-35.85-25.21-55.34-14.63-28.48,15.46-32.55,56.68-20.53,83.26,8.14,17.99,25.28,27.99,44.68,26.13,12.98-1.24,23.21-7.52,31-18.58.99,17,.9,39.26-15.73,48.37-9.74,5.34-21.33,5.66-31.67,1.99-9.87-3.5-15.95-12-17-22.54-2.41-1.19-5.62-1.2-9.12-.65l.12,29.37ZM1534.3,544.95c9.55-9.89,12.13-24.41,5.62-36.18-12.18-21.99-62.46-23.04-61.44-40.74.72-12.54,23.95-15.36,38.58-8.22,6.61,3.22,9.6,9.01,10.01,16.63l8.71-.25-.19-26.77c-22.51-9.8-58.13-11.81-76.44,5.94-6.87,6.66-9.47,15.42-8.06,25.2,4.49,31.24,66.96,27.98,64.44,51.07-1.65,15.12-27.85,17.7-43.5,9.98-8.08-3.98-12.33-11.12-12.64-20.15h-8.82s0,28.52,0,28.52c23,11.21,64.02,15.39,83.74-5.03ZM1826.77,540.92c.32,4.28.21,9.52,3.31,13.45,1.94,2.45,7.09,4.16,10.42,3.97l26.61-1.48c1.4-1.26,1.39-5.87-.1-6.64-12.53-1.23-13.09-14.02-13.14-24.44l-.22-51.35c-.03-6.32-2.42-13.49-6.14-18.25-15.73-20.22-70.04-17.16-84.74-2.1-3.58,3.67-4.14,9.7-.45,13.14s9.9,2.86,13.78-.72c11.53-10.65,28.61-14.31,42.49-6.6,4.42,2.46,6.87,7.43,6.62,11.71-.93,15.58-33.14,13.77-57.59,29.06-9.07,5.67-14.79,14.47-15.17,24.33-.39,10.39,3.9,20.22,12.83,26.44,19.6,13.64,47.84,9.15,61.48-10.53ZM1919.27,534.89l.07-51.34c.01-10.03,6.19-19,14.99-22.27,6.7-2.49,13.37-1.52,18.96,2.37,4.78,3.32,6.98,9.18,7.92,15.74l.39,27.05c.24,16.96-.43,32.99-1.9,50.35l43.41.04c1.32-1.24,1.33-5.85-.12-6.6-12.07-2.29-12.63-12.68-12.69-23.84l-.27-50.96c-.04-8.25-3.22-17.88-9.52-23.4-19.14-16.76-49.39-12.15-62.92,9.26l-.2-18.11-40.69,1.26c-.99,1.38-.87,5.64.31,6.86,10.77.41,13.03,11.72,13.03,20.19v56.91c0,10.16-1.59,20.17-12.95,21.91-1.51.61-1.52,5.36-.02,6.53h53.82c9.11-10.41-11.64-2.31-11.62-21.93ZM1096.2,450.8l.11-6.33-43.73.15c-4.58,11.26,8.55,1.75,10.15,15.94-.64,6.23-1.75,12.55-3.94,18.57l-19.03,52.4-18.01-57.04c-3.25-10.3-5.02-20.16-7.68-31.31l-39.44,1.23c-.87,1.35-1.44,5.34-.34,6.16.91.69,2.77,1.31,4.22,2.27,5.57,3.66,9.37,10.27,11.5,16.96l24.31,76.23c4.26,13.34,18.69,10.79,30.17,10.47l30.74-78.41c3.89-9.91,9.59-25.35,20.97-27.3ZM1106.59,556.86l53.13-.1c2,0,1.83-6.34.02-6.64-10.68-1.75-12.08-11.12-12.08-21.77l-.04-85.19-42.82,1.33c.06,2.94.23,5.14.61,6.91,7.75.54,13.08,6.29,13.08,14.14l-.03,69.8c0,6.51-3.71,12.57-9.47,14.07-1.97.51-3.71,1.33-4.34,2.35s.62,5.1,1.95,5.1Z" fill="transparent"/><path d="M326.88,314.86l-153.91-6.76c-7.84-.34-31.17-3.78-32.37-12.92-1.21-9.15,19.09-12.13,25.61-12.42l130.76-5.79c-4.65-9.78-6.7-26.06,5.5-31.47l-78.75-136.87c-43.53-5.38-95.7-2.82-133.56,19.83-36.76,22.22-50.13,58.55-48.28,100.34.24,5.53.55,25.57-4.58,27.13-7.14,2.17-13.44-18.45-14.78-24.09-4.63-19.46-5.3-39.29-2.17-59.11,7.4-46.81,40.9-77,84.05-92.48,30.27-10.86,61.57-15.78,94.35-14.9l-20.24-34.95c-3.18-5.48-13.55-23.6-10.61-28.76,11.31-6.37,32.67,28.47,38.32,36.32l20.81,28.89c73.64,8.3,144.23,32.79,206.93,71.67,29.64,18.38,55.8,40.29,79.4,65.68,35.76,38.47,74.1,88.31,77.32,142.54,2.43,40.94-21.59,78.52-59.73,93.38-2.92,1.14-7.2,1.12-9.54-.41.36-4.88,1.68-9.45,3.37-13.73,19.43-49.33,4.52-95.94-25.47-137.02-14.99-20.53-31.93-38.55-51.03-55.55-50.81-45.21-119.01-91.94-183.48-114.22l103.48,143.01c18.15,13.05,41.71,37.19,42.4,60.26.28,9.51-5.71,16.65-14.93,18.81-22.16,4.55-51.39-11.44-68.85-26.43ZM378.98,309.85c1.45-4.4-.08-9.62-2.3-13.33-8.1-13.55-21.23-23.64-36.58-27.55-4.33-1.1-9.86-.71-13.04,2.09-3.86,3.39-3.34,9.35-1.01,13.97,13.23,26.26,48.38,38.7,52.94,24.82Z"/><path d="M928.55,1.26h97.9s-.23,14.57-.23,14.57c-27.98,4.19-30.69,27.53-30.71,51.48l-.13,169.03c0,12.52-1.43,24.16-3.98,36.18-9.3,43.85-48.39,72.09-90.42,81.05-30.36,6.47-61.53,6.14-91.95-.16-43.61-9.04-79.3-37.17-88.48-81.85-2.19-10.66-3.64-20.68-3.64-31.86l-.1-174.82c-.01-23.68-2.39-46.58-30.55-49.22l-.12-14.4h130.05s-.11,14.44-.11,14.44c-14.66,1.77-24.81,10.32-27.47,24.25-1.71,8.96-2.53,17.71-2.53,27.34v164.41c.01,11.79,1.03,22.3,3.33,33.55,5.21,25.45,23.29,45.41,48.37,53.2,37.99,11.81,87.63,4.33,110.37-32.77,9.97-16.26,12.03-40.7,12.03-59.96V67.3c.01-24.16-3.23-49.04-31.67-51.67l.03-14.37Z"/><path d="M1951.66,196.45l-.06,99.28c0,8.01,1.51,15.7,3.61,23.03,2.73,9.49,9.92,15.97,19.38,18.14l7.84,1.8.02,13.96-126.32.03-.06-14.38c14.37-1.03,25.3-9.17,28.16-23.14,1.64-7.99,2.79-15.94,2.79-24.51v-128.54c-.01-9.19-1.5-17.88-4.02-26.17-3.68-12.08-13.2-19.02-26.71-19.11l-.15-14.99,92.08-3,.12,41.08c10.4-15.24,22.99-27.58,39.72-35.1,27.77-12.49,60.03-11.19,86.72,3.14,13.4,7.2,23,17.87,28.65,31.78,5.08,12.53,7.65,25.36,7.67,39.3l.19,113.63c.01,8.89,1.27,17.27,3.51,25.45,2.51,9.13,9.36,15.58,18.28,18.13l8.53,2.44-.02,13.97-99.15.04c2.07-21.19,4.18-41.54,4.21-62.95l.16-95.72c-.47-7.95-1.03-15.22-2.24-22.94-2.71-17.19-15.22-30.31-32.39-33.92-22.55-4.74-45.07,7.28-54.06,28.67-3.98,9.46-6.42,19.49-6.43,30.63Z"/><path d="M1159.58,195.46l-.11,100.22c0,8.17,1.45,15.98,3.74,23.44,4.15,13.51,14.16,17.18,27.16,19.64l-.04,13.91h-126.12s-.15-14.39-.15-14.39c14.46-1.14,24.98-9.04,27.93-22.73,1.74-8.09,2.9-16.15,2.9-24.87v-128.62c-.02-9.35-1.55-18.12-4.16-26.53-3.77-12.13-13.57-18.46-26.65-18.85l.11-14.84,91.88-3v41.24c10.61-15.61,23.66-28.25,40.92-35.74,27.89-12.1,60.12-10.52,86.59,4.16,12.88,7.14,22.04,17.55,27.56,30.95,5.19,12.6,7.77,25.59,7.8,39.61l.17,113.23c.01,8.81,1.21,17.23,3.42,25.5,2.36,8.79,8.77,15.52,17.37,18.09l9.63,2.88-.17,13.91h-99.17c2.27-21.59,4.25-42.01,4.29-63.33l.15-96.12c-.54-7.78-1.09-14.96-2.33-22.55-2.76-16.9-15.12-29.76-32.02-33.45-22.2-4.85-44.55,6.68-53.89,27.62-4.16,9.33-6.82,19.45-6.84,30.62Z"/><path d="M612.74,410.56c5.22,10.72-23.3,57.02-30.26,66.7-20.2,28.09-47.74,48.84-79.42,62.71-31.22,13.66-64.19,18.93-98.34,18.92-91.97-.02-181.12-25.81-258.01-76.2-34.74-22.77-66.86-49.31-94.84-79.89-9.6-10.49-28.72-37.12-21.2-51.3,8.05-15.18,21.79-26.97,37.2-33.81,4.52-2.01,10.36-2.75,14.62-.58,59.92,83.53,146.5,144.32,243.88,176.37,26.99,8.88,53.88,14.24,82.42,14.96,52.88,1.34,104.22-13.5,147.75-43.11,18.89-12.85,33.9-28.43,46.21-47.52,2.24-3.48,5.64-7.11,10-7.25Z"/><path d="M1817.65,227.64c0,73.63-59.76,133.31-133.47,133.31s-133.47-59.69-133.47-133.31,59.76-133.31,133.47-133.31,133.47,59.69,133.47,133.31ZM1683.65,328.53c37.56-.13,54-31.8,58.96-63.91,6.74-43.65,6.25-140.56-58.47-138.58-34.11,1.04-50.69,28.47-56.87,58.78-8.96,43.95-10.13,143.94,56.38,143.72Z"/><path d="M1388.5,352.68l-.24-14.3c25.48-1.06,31.49-21.63,31.48-43.7l-.08-140.46c-.01-20.01-8.79-36.06-31.15-37.57l-.14-14.8,95.88-3.01.05,191.75c0,10.39,1.45,19.78,4.07,29.32,3.56,12.97,13.47,16.81,25.84,18.78l-.02,13.99h-125.68Z"/><path d="M1715.78,549.83c-9.9,4.26-19.72,6.83-30.86,6.84l-87.62.12c-1.14,0-2.1-4.15-1.43-5.04.8-1.07,2.47-1.57,4.91-2.45,5.19-1.87,8.53-8.67,8.53-14.98l.13-108.28c.01-9.16-2.22-18.55-12.43-20.06-1.08-1.07-1.24-4.49-.62-6.33l83.69-.14c23.41-.04,49.16,6.25,50.39,34,.93,21.15-12.06,31.07-30.39,38.39,22.28,2.8,41.53,14.56,40.32,40.58-.76,16.38-8.78,30.55-24.61,37.35ZM1670.05,467.51c7.58-.07,14.99-3.27,20.03-7.97,5.95-5.54,7.51-13.18,7.68-21,.27-12.13-7.08-21.88-19.31-24.06-9.43-1.68-19.38-1.47-29.17-.61-5.18.46-8.54,4.77-8.55,9.91l-.08,44,29.39-.27ZM1706.72,508.9c-.41-10.21-4.32-18.36-12.85-23.18-5.5-2.35-11.89-4.46-18.1-4.47l-35.16-.03.13,51.9c.01,5.18,3.3,8.71,8.19,9.46,9.77.34,19.59.67,29.15-.31,17.63-1.81,29.36-15.39,28.64-33.37Z"/><path d="M1323.94,594.59l-.12-29.37c3.49-.55,6.71-.53,9.12.65,1.05,10.54,7.13,19.05,17,22.54,10.34,3.66,21.93,3.35,31.67-1.99,16.62-9.12,16.72-31.37,15.73-48.37-7.8,11.06-18.03,17.33-31,18.58-19.39,1.86-36.54-8.14-44.68-26.13-12.02-26.58-7.95-67.8,20.53-83.26,19.49-10.58,43.85-4.82,55.34,14.63l.17-18.72,40.64,1.28c.33,2.14.29,4.96-.14,6.93-7.64.67-12.63,6.36-12.68,14.29l-.5,89.78c-.08,13.54-5.74,26.19-15.43,35.05-20.36,18.62-60.4,16.28-85.64,4.09ZM1395.75,483.5c-.67-8.49-5.03-16.67-12.49-20.81-12.37-6.87-27.09-.73-32.25,12.5-6.15,15.77-6.12,33.7.05,49.42,2.73,6.97,8.43,12.05,13.89,13.66,8.03,2.37,15.24.7,21.21-4.12,12.43-10.03,10.82-35.03,9.58-50.65Z"/><path d="M2136.31,556.6l-28.21.07c-7.14.02-12.57-2.83-16.06-8.62l-29.51-48.99-8.3.35.36,36.51c.07,7.52,5.31,12.9,12.42,14.23,1.6.3,1.76,6.58.1,6.58h-54.25c-1.64,0-1.54-6.33.12-6.59,7.34-1.13,12.18-6.89,12.17-14.87l-.04-112.64c0-6.47-3.35-12.79-8.46-15.15l-4.24-1.95c-1.18-.54-.67-4.63-.09-6.07l41.88-1.27.04,89.56c5.51.58,11.48-1.37,15.72-5.42l14.82-14.18c3.14-3,8.91-10.26,6.38-14.27-1.99-3.15-5.27-1.76-8.5-3.9-.82-.54-.36-3.21-.14-5.42l49.35-.06-.4,6.46c-16.02,1.04-33.74,23.75-45.95,34.26l30.23,46.4c4.4,6.75,10.02,12.81,16.45,17.09l4.44,1.61c1.27.46,1.14,6.26-.33,6.26Z"/><path d="M830.05,545.97c-25.65,19.84-68.96,15.48-97.05.45l-.19-31.45c2.41-1.23,5.91-1.25,8.91-.58.2,11.23,5.74,20.16,15.63,25.2,17.59,8.96,46.79,8.4,57.87-8.23,6.69-10.03,3.63-21.78-6.4-28.33-21.97-14.35-44.49-17.67-61.92-32.76-8.95-7.76-14.16-18.05-14.14-29.26.02-11.6,4.88-22.48,14.33-30.13,23.5-19.01,64.1-16.67,90.17-3.93v30.82c-1.68,1.95-6.44,2.01-8.58.73-.36-9.49-4.8-18.12-13.73-22.27-20.11-9.34-53.09-4.98-53.94,16.82-1.11,28.59,67.85,28.84,82.63,62.5,7.88,17.93,1.77,38.53-13.58,50.41Z"/><path d="M1919.27,534.89c-.03,19.61,20.73,11.52,11.62,21.93h-53.82c-1.5-1.17-1.49-5.93.02-6.53,11.36-1.74,12.96-11.75,12.95-21.91v-56.91c0-8.47-2.27-19.78-13.04-20.19-1.18-1.22-1.3-5.48-.31-6.86l40.69-1.26.2,18.11c13.52-21.41,43.78-26.02,62.92-9.26,6.31,5.52,9.48,15.15,9.52,23.4l.27,50.96c.06,11.16.62,21.55,12.69,23.84,1.45.75,1.43,5.36.12,6.6l-43.41-.04c1.47-17.36,2.14-33.39,1.9-50.35l-.39-27.05c-.94-6.56-3.14-12.42-7.92-15.74-5.59-3.89-12.26-4.86-18.96-2.37-8.8,3.27-14.97,12.24-14.99,22.27l-.07,51.34Z"/><path d="M1218.95,536.48c.36,7.83,5.64,12.88,12.34,13.69,1.5.9,1.53,5.37.14,6.66l-54.23-.07c-2.3,0-2-6.31-.12-6.68,11.23-2.18,12.54-11.52,12.54-22.3v-54.9c.02-30.35-18.78-14.85-13.05-28.42l40.22-1.32.63,17.4c14.44-21,44.14-25.12,63.04-8.12,6.04,5.43,9.06,14.95,9.11,22.99l.31,53.03c.18,30.46,17.38,14.07,13.22,28.36h-43.93c1.56-17.49,2.29-33.46,2-50.36l-.47-27.36c-.87-6.51-3.24-12.28-8.04-15.55-5.37-3.66-11.76-4.66-18.2-2.47-8.94,3.04-14.97,11.79-15.52,21.75-.98,17.74-.85,35.44,0,53.67Z"/><path d="M1826.77,540.92c-13.63,19.67-41.88,24.17-61.48,10.53-8.94-6.22-13.23-16.05-12.83-26.44.37-9.86,6.09-18.66,15.17-24.33,24.46-15.29,56.66-13.47,57.59-29.06.26-4.28-2.19-9.26-6.62-11.71-13.88-7.71-30.96-4.06-42.49,6.6-3.88,3.58-9.97,4.27-13.78.72s-3.13-9.47.45-13.14c14.71-15.07,69.01-18.12,84.74,2.1,3.71,4.77,6.11,11.93,6.14,18.25l.22,51.35c.04,10.42.61,23.21,13.14,24.44,1.49.77,1.5,5.38.1,6.64l-26.61,1.48c-3.34.19-8.49-1.52-10.42-3.97-3.1-3.93-2.99-9.17-3.31-13.45ZM1800.67,542.68c13.43.19,23.33-9.2,24.02-22.37.5-9.53.41-19.1.39-29.51-10.46,8.39-26.06,10.41-36.62,19.84-6.06,5.41-8.21,13.18-5.42,20.44,2.61,6.8,9.09,11.47,17.64,11.59Z"/><path d="M931.97,540.84c-13.44,18.95-41.17,24.64-61.47,10.84-8.89-6.04-13.31-15.61-13.21-25.72.11-10.22,5.76-19.26,14.95-25.11,24.04-15.31,56.81-13.64,57.81-29,.31-4.7-2.21-9.62-6.79-12.09-14.37-7.75-31.38-3.53-43.08,7.34-3.6,3.35-9.55,2.99-12.43.63-4-3.27-3.98-9.45-.33-13.38,14.22-15.33,69.06-18.33,84.77,1.56,4.1,5.19,6.4,12.69,6.42,19.52l.16,51.96c.03,11.02,1.25,20.99,12.86,22.8,1.75.27,1.86,6.42.13,6.53l-26.04,1.61c-3.99.25-9.39-1.52-11.43-4.79s-2.24-6.44-2.32-12.7ZM906.05,542.69c12.63-.09,22.44-8.74,23.36-21.28.73-9.83.57-19.7.71-30.53-10.37,7.97-26,10.41-36.53,19.53-6.26,5.43-8.6,13.35-5.57,20.99,2.67,6.72,9.36,11.35,18.02,11.29Z"/><path d="M1534.3,544.95c-19.72,20.42-60.73,16.23-83.74,5.03v-28.53s8.82.01,8.82.01c.31,9.03,4.56,16.17,12.64,20.15,15.65,7.72,41.85,5.14,43.5-9.98,2.52-23.09-59.95-19.83-64.44-51.07-1.41-9.78,1.19-18.54,8.06-25.2,18.31-17.74,53.93-15.74,76.44-5.94l.19,26.77-8.71.25c-.42-7.61-3.41-13.4-10.01-16.63-14.63-7.14-37.86-4.32-38.58,8.22-1.02,17.7,49.26,18.75,61.44,40.74,6.51,11.76,3.93,26.29-5.62,36.18Z"/><path d="M1096.2,450.8c-11.38,1.95-17.08,17.39-20.97,27.3l-30.74,78.41c-11.48.32-25.92,2.87-30.17-10.47l-24.31-76.23c-2.13-6.69-5.93-13.31-11.5-16.96-1.45-.95-3.31-1.58-4.22-2.27-1.09-.83-.53-4.81.34-6.16l39.44-1.23c2.66,11.15,4.43,21.01,7.68,31.31l18.01,57.04,19.03-52.4c2.19-6.02,3.3-12.34,3.94-18.57-1.6-14.2-14.73-4.68-10.15-15.94l43.73-.15-.11,6.33Z"/><path d="M1106.59,556.86c-1.33,0-2.58-4.08-1.95-5.1s2.37-1.84,4.34-2.35c5.76-1.5,9.47-7.56,9.47-14.07l.03-69.8c0-7.85-5.33-13.6-13.08-14.14-.38-1.77-.55-3.97-.61-6.91l42.82-1.33.04,85.19c0,10.65,1.4,20.02,12.08,21.77,1.81.3,1.98,6.63-.02,6.64l-53.13.1Z"/><path d="M1466.61,61.28c-11.07,5.43-23.37,5.67-34.34,1.22-10-4.05-16.64-12.88-18.05-22.21-1.69-11.17,2.15-21.6,10.99-28.21,11.67-8.72,26.97-10.13,40.11-4.28,10.96,4.88,17.56,14.73,17.89,26.11.34,11.39-5.47,21.91-16.61,27.36Z"/><path d="M1143.21,405.14c4.64,4.22,4.93,10.78,2.45,15.74-2.39,4.79-8.21,7.45-14.26,7.45-5.93,0-11.58-2.64-13.93-7.58-2.39-5.01-1.82-11.42,2.66-15.5,6.24-5.69,16.43-6.17,23.08-.11Z"/><path d="M378.98,309.85c-4.56,13.88-39.71,1.44-52.94-24.82-2.33-4.62-2.84-10.58,1.01-13.97,3.18-2.8,8.71-3.19,13.04-2.09,15.35,3.91,28.49,14,36.58,27.55,2.22,3.71,3.75,8.93,2.3,13.33Z" fill="transparent"/><path d="M1683.65,328.53c-66.5.23-65.33-99.77-56.38-143.72,6.18-30.32,22.76-57.74,56.87-58.78,64.73-1.97,65.22,94.94,58.47,138.58-4.96,32.12-21.4,63.78-58.96,63.91Z" fill="transparent"/><path d="M1706.72,508.9c.72,17.98-11,31.56-28.64,33.37-9.56.98-19.38.65-29.15.31-4.89-.75-8.17-4.28-8.19-9.46l-.13-51.9,35.16.03c6.21,0,12.6,2.12,18.1,4.47,8.53,4.82,12.44,12.97,12.85,23.18Z" fill="transparent"/><path d="M1670.05,467.51l-29.39.27.08-44c0-5.14,3.37-9.46,8.55-9.91,9.79-.86,19.74-1.07,29.17.61,12.22,2.18,19.58,11.93,19.31,24.06-.18,7.82-1.73,15.46-7.68,21-5.04,4.69-12.44,7.9-20.03,7.97Z" fill="transparent"/><path d="M1395.75,483.5c1.24,15.62,2.85,40.62-9.58,50.65-5.97,4.82-13.18,6.49-21.21,4.12-5.46-1.61-11.16-6.69-13.89-13.66-6.17-15.72-6.2-33.65-.05-49.42,5.16-13.23,19.89-19.37,32.25-12.5,7.45,4.14,11.81,12.32,12.49,20.81Z" fill="transparent"/><path d="M1800.67,542.68c-8.55-.12-15.03-4.79-17.64-11.59-2.78-7.26-.64-15.03,5.42-20.44,10.56-9.43,26.15-11.45,36.62-19.84.02,10.41.11,19.98-.39,29.51-.69,13.17-10.59,22.56-24.02,22.37Z" fill="transparent"/><path d="M906.05,542.69c-8.66.06-15.35-4.57-18.02-11.29-3.03-7.64-.69-15.56,5.57-20.99,10.52-9.12,26.15-11.55,36.53-19.53-.14,10.83.01,20.69-.71,30.53-.93,12.54-10.73,21.19-23.36,21.28Z" fill="transparent"/></svg>