<svg xmlns="http://www.w3.org/2000/svg" viewBox="0 0 529.59 92.88">
  <!-- Icon block: rect with WBJ letters as transparent cutouts (evenodd) -->
  <path fill-rule="evenodd" fill="#231f20" d="M0,0H92.88V92.88H0ZM69.98,60.98c1.22.74,3.78,1.27,6.21,1.27,7.08,0,10.64-2.58,10.64-9.52v-20.43h2.26v-.96h-13.38v.96h3.21v26.37c0,1.61-.65,2.62-2.26,2.62-1.82,0-2.95-2.01-5.21-11.52h-1.48v11.22ZM51.65,46.27h1.52c4.74,0,6.91,1.31,6.91,7.12,0,5.33-1.43,7.2-5.82,7.2h-2.61v-14.32ZM43.75,60.58h-2.26v.96h13.64c8.17,0,12.86-3.06,12.86-8.38,0-5.89-6.17-7.29-10.47-7.6v-.09c3.95-.44,8.86-2.36,8.86-7.07,0-4.19-3.52-7.07-10.73-7.07h-14.16v.96h2.26v28.29ZM51.65,32.3h2.82c2.78,0,4,1.57,4,6.37s-1.04,6.63-5.69,6.63h-1.13v-13.01ZM2.61,32.3h2.13l7.86,29.25h3.43l6.25-21.52h.09l5.73,21.52h3.48l8.43-29.25h1.48v-.96h-6.17v.96h3.6l-5.86,19.99h-.09l-5.04-19.99h3.26v-.96h-13.03v.96h2.17l1.48,5.72-4.13,14.28h-.09l-5.3-19.99h3.04v-.96H2.61v.96Z"/>
  <!-- Worcester Business Journal wordmark -->
  <path fill="#231f20" d="M529.59,59.38v-3.56h-7.7v-17.99h-4.35v21.56h12.05ZM506.71,41.56h.06l2.08,9.69h-4.23l2.08-9.69ZM498.34,59.38h4.53l1-4.56h5.74l1,4.56h4.53l-5.71-21.56h-5.37l-5.71,21.56ZM481.62,37.82v21.56h3.99v-15.1h.06l5.31,15.1h4.95v-21.56h-3.98v14.76h-.06l-5.25-14.76h-5.01ZM463.92,59.38h4.35v-9.12h2.33c1.75,0,2.51,1.03,2.57,2.72l.12,4.14c.03.85.12,1.66.54,2.26h4.71v-.18c-.82-.42-.94-1.6-.97-3.87-.06-4.56-.51-6.19-3.47-6.58v-.06c2.45-.51,3.59-2.44,3.59-5.31,0-3.68-2.17-5.56-5.74-5.56h-8.03v21.56ZM468.27,41.02h2.05c1.96,0,3.02,1,3.02,2.99,0,2.32-1.18,3.23-3.26,3.23h-1.81v-6.22ZM446.5,37.82v15.04c0,5.77,3.35,6.94,6.88,6.94s6.88-1.45,6.88-6.94v-15.04h-4.35v15.04c0,2.14-.51,3.74-2.54,3.74s-2.54-1.6-2.54-3.74v-15.04h-4.35ZM432.98,48.6c0-5.77.42-8,2.99-8s2.99,2.23,2.99,8-.42,8-2.99,8-2.99-2.2-2.99-8M428.63,48.6c0,6.55.82,11.2,7.34,11.2s7.34-4.65,7.34-11.2-.82-11.2-7.34-11.2-7.34,4.65-7.34,11.2M420.99,37.82v15.4c0,2.29-.36,3.38-1.93,3.38s-1.93-1.09-1.93-3.38v-.66h-3.99v.94c0,3.38,1.12,6.31,5.71,6.31s6.49-1.87,6.49-6.46v-15.52h-4.35ZM388.63,52.64v.88c0,3.98,1.93,6.28,6.85,6.28s7.49-2.05,7.49-6.61c0-2.63-.85-4.29-4.11-5.71l-3.35-1.45c-1.84-.78-2.23-1.6-2.23-2.93s.51-2.51,2.48-2.51c1.66,0,2.36,1.18,2.36,3.2h4.17v-.6c0-4.14-2.81-5.8-6.67-5.8-4.11,0-6.67,2.14-6.67,6.34,0,3.59,1.78,5.19,5.65,6.52,2.87,1,3.86,1.72,3.86,3.68,0,1.81-1.27,2.66-2.6,2.66-2.3,0-2.87-1.3-2.87-3.32v-.63h-4.35ZM372.05,52.64v.88c0,3.98,1.93,6.28,6.85,6.28s7.49-2.05,7.49-6.61c0-2.63-.85-4.29-4.11-5.71l-3.35-1.45c-1.84-.78-2.23-1.6-2.23-2.93s.51-2.51,2.47-2.51c1.66,0,2.36,1.18,2.36,3.2h4.17v-.6c0-4.14-2.81-5.8-6.67-5.8-4.11,0-6.67,2.14-6.67,6.34,0,3.59,1.78,5.19,5.65,6.52,2.87,1,3.86,1.72,3.86,3.68,0,1.81-1.27,2.66-2.6,2.66-2.29,0-2.87-1.3-2.87-3.32v-.63h-4.35ZM357.47,37.82v21.56h12.35v-3.56h-8v-5.8h7.25v-3.56h-7.25v-5.07h7.7v-3.56h-12.05ZM339.24,37.82v21.56h3.99v-15.1h.06l5.31,15.1h4.95v-21.56h-3.99v14.76h-.06l-5.25-14.76h-5.01ZM335.1,37.82h-4.35v21.56h4.35v-21.56ZM313.12,52.64v.88c0,3.98,1.93,6.28,6.85,6.28s7.49-2.05,7.49-6.61c0-2.63-.85-4.29-4.11-5.71l-3.35-1.45c-1.84-.78-2.23-1.6-2.23-2.93s.51-2.51,2.48-2.51c1.66,0,2.35,1.18,2.35,3.2h4.17v-.6c0-4.14-2.81-5.8-6.67-5.8-4.11,0-6.67,2.14-6.67,6.34,0,3.59,1.78,5.19,5.65,6.52,2.87,1,3.86,1.72,3.86,3.68,0,1.81-1.27,2.66-2.6,2.66-2.29,0-2.87-1.3-2.87-3.32v-.63h-4.35ZM296.54,37.82v15.04c0,5.77,3.35,6.94,6.88,6.94s6.88-1.45,6.88-6.94v-15.04h-4.35v15.04c0,2.14-.51,3.74-2.54,3.74s-2.54-1.6-2.54-3.74v-15.04h-4.35ZM283.47,49.68h1.87c1.9,0,3.32.72,3.32,3.23s-1.42,3.26-3.5,3.26h-1.69v-6.49ZM283.47,41.02h1.57c2.14,0,3.14.75,3.14,2.81s-1.09,2.84-3.47,2.84h-1.24v-5.64ZM279.12,59.38h7.34c5.07,0,6.73-2.93,6.73-6.31,0-2.87-1.54-4.68-3.92-5.01v-.06c2.14-.6,3.26-2.39,3.26-4.71,0-4.14-2.57-5.47-6.13-5.47h-7.28v21.56ZM253.28,59.38h4.35v-9.12h2.33c1.75,0,2.51,1.03,2.57,2.72l.12,4.14c.03.85.12,1.66.54,2.26h4.71v-.18c-.82-.42-.94-1.6-.97-3.87-.06-4.56-.51-6.19-3.47-6.58v-.06c2.45-.51,3.59-2.44,3.59-5.31,0-3.68-2.17-5.56-5.74-5.56h-8.03v21.56ZM257.63,41.02h2.05c1.96,0,3.02,1,3.02,2.99,0,2.32-1.18,3.23-3.26,3.23h-1.81v-6.22ZM237.85,37.82v21.56h12.35v-3.56h-8v-5.8h7.25v-3.56h-7.25v-5.07h7.7v-3.56h-12.05ZM221.31,37.82v3.56h4.71v17.99h4.35v-17.99h4.71v-3.56h-13.77ZM205.04,52.64v.88c0,3.98,1.93,6.28,6.85,6.28s7.49-2.05,7.49-6.61c0-2.63-.85-4.29-4.11-5.71l-3.35-1.45c-1.84-.78-2.23-1.6-2.23-2.93s.51-2.51,2.48-2.51c1.66,0,2.36,1.18,2.36,3.2h4.17v-.6c0-4.14-2.81-5.8-6.67-5.8-4.11,0-6.67,2.14-6.67,6.34,0,3.59,1.78,5.19,5.65,6.52,2.87,1,3.86,1.72,3.86,3.68,0,1.81-1.27,2.66-2.6,2.66-2.29,0-2.87-1.3-2.87-3.32v-.63h-4.35ZM190.45,37.82v21.56h12.35v-3.56h-8v-5.8h7.25v-3.56h-7.25v-5.07h7.7v-3.56h-12.05ZM186.89,45.09c0-3.14-.45-7.7-6.67-7.7s-7.34,4.65-7.34,11.2.82,11.2,7.34,11.2c5.71,0,6.85-4.02,6.85-8.67h-4.35c0,4.65-1.15,5.46-2.72,5.46-1.87,0-2.78-1.18-2.78-7.7,0-6.1.51-8.3,2.72-8.3,1.96,0,2.6,1.36,2.6,4.5h4.35ZM155.64,59.38h4.35v-9.12h2.32c1.75,0,2.51,1.03,2.57,2.72l.12,4.14c.03.85.12,1.66.54,2.26h4.71v-.18c-.82-.42-.94-1.6-.97-3.87-.06-4.56-.51-6.19-3.47-6.58v-.06c2.44-.51,3.59-2.44,3.59-5.31,0-3.68-2.17-5.56-5.74-5.56h-8.03v21.56ZM159.99,41.02h2.05c1.96,0,3.02,1,3.02,2.99,0,2.32-1.18,3.23-3.26,3.23h-1.81v-6.22ZM141.85,48.6c0-5.77.42-8,2.99-8s2.99,2.23,2.99,8-.42,8-2.99,8-2.99-2.2-2.99-8M137.5,48.6c0,6.55.82,11.2,7.34,11.2s7.34-4.65,7.34-11.2-.82-11.2-7.34-11.2-7.34,4.65-7.34,11.2M116.76,59.38h4.86l2.42-15.64h.06l2.42,15.64h4.86l3.92-21.56h-4.17l-2.39,15.94h-.06l-2.54-15.94h-4.17l-2.54,15.94h-.06l-2.39-15.94h-4.17l3.93,21.56Z"/>
</svg>
