<?xml version="1.0" encoding="UTF-8"?><svg id="a" xmlns="http://www.w3.org/2000/svg" viewBox="0 0 226.77 226.77"><circle cx="113.39" cy="113.39" r="56.69" transform="translate(-34.76 52.02) rotate(-22.5)"/><path d="M170.08,56.69v113.39c31.31,0,56.69-25.38,56.69-56.69s-25.38-56.69-56.69-56.69Z"/><path d="M56.69,56.69h113.39c0-31.31-25.38-56.69-56.69-56.69s-56.69,25.38-56.69,56.69Z"/><path d="M56.69,170.08V56.69C25.38,56.69,0,82.08,0,113.39s25.38,56.69,56.69,56.69Z"/><path d="M170.08,170.08H56.69c0,31.31,25.38,56.69,56.69,56.69s56.69-25.38,56.69-56.69Z"/><path d="M226.77,56.69C226.77,25.38,201.39,0,170.08,0v56.69h56.69Z"/><path d="M56.69,0C25.38,0,0,25.38,0,56.69h56.69V0Z"/><path d="M0,170.08c0,31.31,25.38,56.69,56.69,56.69v-56.69H0Z"/><path d="M170.08,226.77c31.31,0,56.69-25.38,56.69-56.69h-56.69v56.69Z"/></svg>