<?xml version="1.0" encoding="UTF-8"?><svg id="a" xmlns="http://www.w3.org/2000/svg" viewBox="0 0 255.12 255.12"><path d="M229.85,82.36v90.41c15.14-9.37,25.26-26.09,25.26-45.2s-10.12-35.83-25.26-45.2Z"/><path d="M25.26,82.36C10.12,91.73,0,108.44,0,127.56s10.12,35.83,25.26,45.2v-90.41Z"/><path d="M172.76,25.26C163.39,10.12,146.68,0,127.56,0s-35.83,10.12-45.2,25.26h90.41Z"/><path d="M82.36,229.85c9.37,15.14,26.09,25.26,45.2,25.26s35.83-10.12,45.2-25.26h-90.41Z"/><path d="M127.56,74.38c-29.37,0-53.18,23.81-53.18,53.18s23.81,53.18,53.18,53.18,53.18-23.81,53.18-53.18-23.81-53.18-53.18-53.18Z"/><path d="M179.87,71.74c-4.42-24.91-26.13-43.84-52.31-43.84s-47.89,18.93-52.31,43.84h104.62Z"/><path d="M75.25,183.38c4.42,24.91,26.13,43.84,52.31,43.84s47.89-18.93,52.31-43.84h-104.62Z"/><path d="M183.38,179.87c24.91-4.42,43.84-26.13,43.84-52.31s-18.93-47.89-43.84-52.31v104.62Z"/><path d="M71.74,75.25c-24.91,4.42-43.84,26.13-43.84,52.31s18.93,47.89,43.84,52.31v-104.62Z"/><path d="M71.74,25.47c-25.41,1.73-45.89,21.28-49.05,46.27h49.05V25.47Z"/><path d="M183.38,71.74h49.06c-3.16-24.99-23.65-44.55-49.06-46.28v46.28Z"/><path d="M183.38,229.65c25.41-1.73,45.89-21.28,49.05-46.27h-49.05v46.27Z"/><path d="M71.74,183.38H22.68c3.16,24.99,23.64,44.55,49.06,46.28v-46.28Z"/></svg>