<?xml version="1.0" encoding="UTF-8"?><svg id="a" xmlns="http://www.w3.org/2000/svg" viewBox="0 0 226.77 226.77"><path d="M226.77,53.68h-53.68C173.94,24.39,197.48.84,226.77,0v53.68Z"/><path d="M113.39,53.68h53.68V0c-29.29.84-52.84,24.39-53.68,53.68Z"/><path d="M59.71,0v53.68h53.68C112.54,24.39,89,.84,59.71,0Z"/><path d="M0,53.68V0c29.29.84,52.84,24.39,53.68,53.68H0Z"/><path d="M173.09,113.39v53.68c29.29-.84,52.84-24.39,53.68-53.68v-53.68c-29.29.84-52.84,24.39-53.68,53.68Z"/><path d="M113.39,113.39c-.84-29.29-24.39-52.84-53.68-53.68v53.68c.84,29.29,24.39,52.84,53.68,53.68,29.29-.84,52.84-24.39,53.68-53.68v-53.68c-29.29.84-52.84,24.39-53.68,53.68Z"/><path d="M0,59.71v53.68c.84,29.29,24.39,52.84,53.68,53.68v-53.68C52.84,84.1,29.29,60.55,0,59.71Z"/><path d="M173.09,173.09v53.68c29.29-.84,52.84-24.39,53.68-53.68h-53.68Z"/><path d="M113.39,173.09h-53.68c.84,29.29,24.39,52.84,53.68,53.68,29.29-.84,52.84-24.39,53.68-53.68h-53.68Z"/><path d="M53.68,173.09H0c.84,29.29,24.39,52.84,53.68,53.68v-53.68Z"/></svg>