<?xml version="1.0" encoding="UTF-8"?><svg id="a" xmlns="http://www.w3.org/2000/svg" viewBox="0 0 256.94 255.12"><g id="b"><path d="M170.47,98.16c.86-.91,2.29-.95,3.2-.09.91.86.95,2.29.09,3.2-.86.91-2.29.95-3.2.09-.91-.86-.95-2.29-.09-3.2Z"/><path d="M185.17,104.23c1.47-1.56,3.93-1.63,5.49-.16,1.56,1.47,1.63,3.93.16,5.49-1.47,1.56-3.93,1.63-5.49.16-1.56-1.47-1.63-3.93-.16-5.49Z"/><path d="M198.14,114.04c1.92-2.03,5.12-2.12,7.15-.2,2.03,1.92,2.12,5.12.2,7.15-1.92,2.03-5.12,2.12-7.15.2-2.03-1.92-2.12-5.12-.2-7.15Z"/><path d="M208.62,126.96c2.22-2.35,5.93-2.46,8.28-.24,2.35,2.22,2.46,5.93.24,8.28-2.22,2.35-5.93,2.46-8.28.24-2.35-2.22-2.46-5.93-.24-8.28Z"/><path d="M215.99,142.26c2.4-2.54,6.41-2.66,8.96-.26,2.54,2.4,2.66,6.41.26,8.96-2.4,2.54-6.41,2.66-8.96.26-2.54-2.4-2.66-6.41-.26-8.96Z"/><path d="M219.79,159.09c2.48-2.62,6.61-2.74,9.23-.26,2.62,2.48,2.74,6.61.26,9.23-2.48,2.62-6.61,2.74-9.23.26-2.62-2.48-2.74-6.61-.26-9.23Z"/><path d="M219.82,176.58c2.45-2.59,6.53-2.71,9.12-.26,2.59,2.45,2.71,6.53.26,9.12-2.45,2.59-6.53,2.71-9.12.26-2.59-2.45-2.71-6.53-.26-9.12Z"/><path d="M216.14,193.82c2.3-2.44,6.14-2.55,8.58-.25,2.44,2.3,2.55,6.14.25,8.58-2.3,2.44-6.14,2.55-8.58.25-2.44-2.3-2.55-6.14-.25-8.58Z"/><path d="M208.9,209.91c2.04-2.16,5.44-2.26,7.6-.22,2.16,2.04,2.26,5.44.22,7.6-2.04,2.16-5.44,2.26-7.6.22-2.16-2.04-2.26-5.44-.22-7.6Z"/><path d="M198.57,224.07c1.64-1.74,4.39-1.82,6.13-.18,1.74,1.64,1.82,4.39.18,6.13-1.64,1.74-4.39,1.82-6.13.18s-1.82-4.39-.18-6.13Z"/><path d="M185.78,235.65c1.09-1.16,2.91-1.21,4.07-.12,1.16,1.09,1.21,2.91.12,4.07-1.09,1.16-2.91,1.21-4.07.12-1.16-1.09-1.21-2.91-.12-4.07Z"/><path d="M171.35,244.2c.33-.35.88-.37,1.23-.04.35.33.37.88.04,1.23-.33.35-.88.37-1.23.04-.35-.33-.37-.88-.04-1.23Z"/></g><g id="c"><path d="M179.15,125.47c1.21-.3,2.44.44,2.74,1.65.3,1.21-.44,2.44-1.65,2.74-1.21.3-2.44-.44-2.74-1.65-.3-1.21.44-2.44,1.65-2.74Z"/><path d="M188.24,138.52c2.08-.52,4.19.75,4.7,2.84.52,2.08-.75,4.19-2.84,4.7-2.08.52-4.19-.75-4.7-2.84-.52-2.08.75-4.19,2.84-4.7Z"/><path d="M193.84,153.78c2.71-.67,5.45.98,6.12,3.69.67,2.71-.98,5.45-3.69,6.12-2.71.67-5.45-.98-6.12-3.69-.67-2.71.98-5.45,3.69-6.12Z"/><path d="M195.67,170.31c3.14-.78,6.32,1.14,7.09,4.28.78,3.14-1.14,6.32-4.28,7.09-3.14.78-6.32-1.14-7.09-4.28-.78-3.14,1.14-6.32,4.28-7.09Z"/><path d="M193.6,187.16c3.4-.84,6.83,1.23,7.68,4.63.84,3.4-1.23,6.83-4.63,7.68-3.4.84-6.83-1.23-7.68-4.63-.84-3.4,1.23-6.83,4.63-7.68Z"/><path d="M187.7,203.39c3.5-.87,7.04,1.27,7.91,4.77.87,3.5-1.27,7.04-4.77,7.91-3.5.87-7.04-1.27-7.91-4.77-.87-3.5,1.27-7.04,4.77-7.91Z"/><path d="M178.27,218.11c3.46-.86,6.95,1.25,7.81,4.71.86,3.46-1.25,6.96-4.71,7.81s-6.96-1.25-7.81-4.71,1.25-6.96,4.71-7.81Z"/><path d="M165.85,230.62c3.25-.81,6.54,1.18,7.35,4.43.81,3.25-1.18,6.54-4.43,7.35-3.25.81-6.54-1.18-7.35-4.43-.81-3.25,1.18-6.54,4.43-7.35Z"/><path d="M151.06,240.25c2.88-.71,5.8,1.04,6.51,3.93s-1.04,5.8-3.93,6.51c-2.88.71-5.8-1.04-6.51-3.93-.71-2.88,1.04-5.8,3.93-6.51Z"/><path d="M134.72,246.57c2.32-.58,4.68.84,5.25,3.17.58,2.32-.84,4.68-3.17,5.25-2.32.58-4.68-.84-5.25-3.17-.58-2.32.84-4.68,3.17-5.25Z"/><path d="M117.7,249.4c1.54-.38,3.1.56,3.48,2.1.38,1.54-.56,3.1-2.1,3.48-1.54.38-3.1-.56-3.48-2.1-.38-1.54.56-3.1,2.1-3.49Z"/><path d="M100.94,248.79c.47-.12.94.17,1.06.64s-.17.94-.64,1.06c-.47.12-.94-.17-1.06-.64-.12-.47.17-.94.64-1.06Z"/></g><g id="d"><path d="M171.69,153.12c1.18.4,1.81,1.69,1.41,2.87-.4,1.18-1.69,1.81-2.87,1.41-1.18-.4-1.81-1.69-1.41-2.87.4-1.18,1.69-1.81,2.87-1.41Z"/><path d="M172.28,169.02c2.03.69,3.12,2.9,2.42,4.93-.69,2.03-2.9,3.12-4.93,2.42s-3.12-2.9-2.42-4.93,2.9-3.12,4.93-2.42Z"/><path d="M168.74,184.89c2.64.9,4.06,3.77,3.15,6.42s-3.77,4.06-6.42,3.15c-2.64-.9-4.06-3.77-3.16-6.42s3.77-4.06,6.42-3.16Z"/><path d="M161.34,199.78c3.06,1.04,4.7,4.37,3.66,7.43-1.04,3.06-4.37,4.7-7.43,3.66-3.06-1.04-4.7-4.37-3.66-7.43,1.04-3.06,4.37-4.7,7.43-3.66Z"/><path d="M150.49,212.84c3.31,1.13,5.08,4.73,3.95,8.04-1.13,3.31-4.73,5.08-8.04,3.96-3.31-1.13-5.08-4.73-3.95-8.04,1.13-3.31,4.73-5.08,8.04-3.95Z"/><path d="M136.75,223.3c3.41,1.16,5.24,4.87,4.08,8.29-1.16,3.41-4.87,5.24-8.29,4.07-3.41-1.16-5.24-4.87-4.08-8.29,1.16-3.41,4.87-5.24,8.29-4.07Z"/><path d="M120.86,230.59c3.37,1.15,5.17,4.81,4.02,8.19-1.15,3.37-4.81,5.17-8.19,4.02-3.37-1.15-5.17-4.81-4.03-8.19,1.15-3.37,4.81-5.17,8.19-4.02Z"/><path d="M103.65,234.4c3.17,1.08,4.87,4.53,3.79,7.7-1.08,3.17-4.53,4.87-7.7,3.79-3.17-1.08-4.87-4.53-3.79-7.7,1.08-3.17,4.53-4.87,7.7-3.79Z"/><path d="M86.01,234.5c2.81.96,4.31,4.01,3.36,6.82-.96,2.81-4.01,4.31-6.83,3.36-2.81-.96-4.31-4.01-3.36-6.83.96-2.81,4.01-4.31,6.82-3.36Z"/><path d="M68.83,230.98c2.27.77,3.48,3.24,2.71,5.5s-3.24,3.48-5.5,2.71-3.48-3.24-2.71-5.5c.77-2.27,3.24-3.48,5.5-2.71Z"/><path d="M52.98,224.16c1.5.51,2.31,2.15,1.8,3.65s-2.15,2.31-3.65,1.8c-1.5-.51-2.31-2.15-1.8-3.65.51-1.5,2.15-2.31,3.65-1.8Z"/><path d="M39.22,214.59c.46.16.7.65.54,1.11-.16.46-.65.7-1.11.54-.46-.16-.7-.65-.54-1.11.16-.46.65-.7,1.11-.54Z"/></g><g id="e"><path d="M150.46,172.36c.78.98.61,2.4-.36,3.18-.98.78-2.4.61-3.18-.36-.78-.98-.61-2.4.36-3.18.98-.78,2.4-.61,3.18.36Z"/><path d="M142.36,186.04c1.33,1.68,1.05,4.12-.63,5.46-1.68,1.33-4.12,1.05-5.46-.63-1.33-1.68-1.05-4.12.63-5.46,1.68-1.33,4.12-1.05,5.46.63Z"/><path d="M130.81,197.48c1.74,2.19,1.37,5.37-.81,7.1-2.19,1.74-5.37,1.37-7.1-.82-1.74-2.19-1.37-5.37.82-7.1,2.19-1.74,5.37-1.37,7.1.82Z"/><path d="M116.53,206.01c2.01,2.53,1.59,6.22-.94,8.23-2.53,2.01-6.22,1.59-8.23-.94-2.01-2.53-1.59-6.22.94-8.23,2.53-2.01,6.22-1.59,8.23.94Z"/><path d="M100.34,211.13c2.18,2.74,1.72,6.73-1.02,8.9-2.74,2.18-6.73,1.72-8.9-1.02-2.18-2.74-1.72-6.73,1.02-8.9,2.74-2.18,6.73-1.72,8.9,1.02Z"/><path d="M83.13,212.5c2.24,2.82,1.77,6.93-1.05,9.17-2.82,2.24-6.93,1.77-9.17-1.05-2.24-2.82-1.77-6.93,1.05-9.17,2.82-2.24,6.93-1.77,9.17,1.05Z"/><path d="M65.82,210.04c2.22,2.79,1.75,6.85-1.04,9.06-2.79,2.22-6.85,1.75-9.06-1.04-2.22-2.79-1.75-6.85,1.04-9.06,2.79-2.22,6.85-1.75,9.06,1.04Z"/><path d="M49.28,203.95c2.08,2.62,1.65,6.44-.98,8.52-2.62,2.08-6.44,1.65-8.52-.98-2.08-2.62-1.65-6.44.98-8.52,2.62-2.08,6.44-1.65,8.52.98Z"/><path d="M34.38,194.49c1.85,2.33,1.46,5.71-.87,7.56-2.33,1.85-5.71,1.46-7.56-.87s-1.46-5.71.87-7.56c2.33-1.85,5.71-1.46,7.56.87Z"/><path d="M21.84,182.25c1.49,1.88,1.18,4.6-.7,6.09-1.88,1.49-4.6,1.18-6.09-.7-1.49-1.88-1.18-4.6.7-6.09,1.88-1.49,4.6-1.18,6.09.7Z"/><path d="M12.19,167.94c.99,1.24.78,3.05-.46,4.04-1.24.99-3.05.78-4.04-.46s-.78-3.05.46-4.04c1.24-.99,3.05-.78,4.04.46Z"/><path d="M5.79,152.44c.3.38.24.93-.14,1.23-.38.3-.93.24-1.23-.14-.3-.38-.24-.93.14-1.23.38-.3.93-.24,1.23.14Z"/></g><g id="f"><path d="M122.2,177.06c.12,1.24-.78,2.35-2.02,2.48-1.24.12-2.35-.78-2.48-2.02-.12-1.24.78-2.35,2.02-2.48,1.24-.12,2.35.78,2.48,2.02Z"/><path d="M107.99,184.2c.21,2.13-1.34,4.04-3.48,4.25-2.13.21-4.04-1.34-4.25-3.48-.21-2.13,1.34-4.04,3.48-4.25,2.13-.21,4.04,1.34,4.25,3.48Z"/><path d="M92.09,187.57c.28,2.78-1.75,5.26-4.53,5.54-2.78.28-5.26-1.75-5.54-4.53-.28-2.78,1.75-5.26,4.53-5.54,2.78-.28,5.26,1.75,5.54,4.53Z"/><path d="M75.46,187.03c.32,3.22-2.03,6.09-5.24,6.41-3.22.32-6.09-2.03-6.41-5.24-.32-3.22,2.03-6.09,5.24-6.41,3.22-.32,6.09,2.03,6.41,5.24Z"/><path d="M59.07,182.58c.35,3.48-2.19,6.59-5.67,6.94-3.48.35-6.59-2.19-6.94-5.67-.35-3.48,2.19-6.59,5.67-6.94,3.48-.35,6.59,2.19,6.94,5.67Z"/><path d="M43.86,174.43c.36,3.59-2.26,6.79-5.85,7.15-3.59.36-6.79-2.26-7.15-5.85-.36-3.59,2.26-6.79,5.85-7.15,3.59-.36,6.79,2.26,7.15,5.85Z"/><path d="M30.62,163c.36,3.54-2.23,6.71-5.77,7.06-3.54.36-6.71-2.23-7.06-5.77-.36-3.54,2.23-6.71,5.77-7.06,3.54-.36,6.71,2.23,7.06,5.77Z"/><path d="M20.01,148.93c.33,3.33-2.1,6.31-5.43,6.64-3.33.33-6.31-2.1-6.64-5.43-.33-3.33,2.1-6.31,5.43-6.64,3.33-.33,6.31,2.1,6.64,5.43Z"/><path d="M12.58,132.93c.3,2.96-1.86,5.59-4.81,5.89s-5.59-1.86-5.89-4.81c-.3-2.96,1.86-5.59,4.81-5.89s5.59,1.86,5.89,4.81Z"/><path d="M8.65,115.84c.24,2.38-1.5,4.51-3.88,4.75-2.38.24-4.51-1.5-4.75-3.88-.24-2.38,1.5-4.51,3.88-4.75,2.38-.24,4.51,1.5,4.75,3.88Z"/><path d="M8.27,98.59c.16,1.58-.99,2.99-2.58,3.15s-2.99-.99-3.15-2.58c-.16-1.58.99-2.99,2.58-3.15,1.58-.16,2.99.99,3.15,2.58Z"/><path d="M11.26,82.09c.05.48-.3.91-.78.96-.48.05-.91-.3-.96-.78-.05-.48.3-.91.78-.96.48-.05.91.3.96.78Z"/></g><g id="g"><path d="M95.89,165.74c-.57,1.11-1.93,1.56-3.04.99-1.11-.57-1.56-1.93-.99-3.04.57-1.11,1.93-1.56,3.04-.99,1.11.57,1.56,1.93.99,3.04Z"/><path d="M80.07,164.06c-.97,1.91-3.31,2.67-5.22,1.7-1.91-.97-2.67-3.31-1.7-5.22.97-1.91,3.31-2.67,5.22-1.7,1.91.97,2.67,3.31,1.7,5.22Z"/><path d="M64.87,158.3c-1.27,2.49-4.31,3.48-6.8,2.21-2.49-1.27-3.48-4.31-2.21-6.8,1.27-2.49,4.31-3.48,6.8-2.21s3.48,4.31,2.21,6.8Z"/><path d="M51.18,148.86c-1.47,2.88-5,4.03-7.88,2.56-2.88-1.47-4.03-5-2.56-7.88,1.47-2.88,5-4.03,7.88-2.56,2.88,1.47,4.03,5,2.56,7.88Z"/><path d="M39.8,136.26c-1.59,3.12-5.41,4.36-8.52,2.77-3.12-1.59-4.36-5.41-2.77-8.52,1.59-3.12,5.41-4.36,8.52-2.77,3.12,1.59,4.36,5.41,2.77,8.52Z"/><path d="M31.4,121.17c-1.64,3.21-5.57,4.49-8.78,2.85-3.21-1.64-4.49-5.57-2.85-8.78,1.64-3.21,5.57-4.49,8.78-2.85,3.21,1.64,4.49,5.57,2.85,8.78Z"/><path d="M26.45,104.4c-1.62,3.17-5.5,4.44-8.68,2.82-3.17-1.62-4.44-5.5-2.82-8.68,1.62-3.17,5.5-4.44,8.68-2.82,3.17,1.62,4.44,5.5,2.82,8.68Z"/><path d="M25.12,86.83c-1.52,2.98-5.17,4.17-8.16,2.65-2.99-1.52-4.17-5.17-2.65-8.16,1.52-2.98,5.17-4.17,8.16-2.65,2.99,1.52,4.17,5.17,2.65,8.16Z"/><path d="M27.53,69.35c-1.35,2.65-4.59,3.7-7.23,2.35-2.65-1.35-3.7-4.59-2.35-7.23,1.35-2.65,4.59-3.7,7.23-2.35,2.65,1.35,3.7,4.59,2.35,7.23Z"/><path d="M33.46,52.85c-1.09,2.13-3.7,2.98-5.83,1.9-2.13-1.09-2.98-3.7-1.9-5.83,1.09-2.13,3.7-2.98,5.83-1.9,2.13,1.09,2.98,3.7,1.9,5.83Z"/><path d="M42.46,38.13c-.72,1.42-2.45,1.98-3.87,1.26-1.42-.72-1.98-2.45-1.26-3.87.72-1.42,2.45-1.98,3.87-1.26,1.42.72,1.98,2.45,1.26,3.87Z"/><path d="M53.9,25.87c-.22.43-.74.6-1.17.38-.43-.22-.6-.74-.38-1.17.22-.43.74-.6,1.17-.38.43.22.6.74.38,1.17Z"/></g><g id="h"><path d="M79.87,141.99c-1.08.63-2.46.27-3.09-.81-.63-1.08-.27-2.46.81-3.09s2.46-.27,3.09.81c.63,1.08.27,2.46-.81,3.09Z"/><path d="M67.48,132.03c-1.85,1.08-4.23.46-5.31-1.4-1.08-1.85-.46-4.23,1.4-5.31,1.85-1.08,4.23-.46,5.31,1.4,1.08,1.85.46,4.23-1.4,5.31Z"/><path d="M57.8,118.96c-2.41,1.41-5.51.59-6.92-1.82-1.41-2.41-.59-5.51,1.82-6.92,2.41-1.41,5.51-.59,6.92,1.82,1.41,2.41.59,5.51-1.82,6.92Z"/><path d="M51.38,103.61c-2.79,1.63-6.38.69-8.01-2.11-1.63-2.79-.69-6.38,2.11-8.01,2.79-1.63,6.38-.69,8.01,2.11,1.63,2.79.69,6.38-2.11,8.01Z"/><path d="M48.62,86.86c-3.02,1.76-6.9.74-8.67-2.28-1.77-3.02-.74-6.9,2.28-8.67,3.02-1.76,6.9-.74,8.67,2.28,1.76,3.02.74,6.9-2.28,8.67Z"/><path d="M49.72,69.63c-3.11,1.82-7.11.77-8.93-2.35-1.82-3.11-.77-7.11,2.35-8.93,3.11-1.82,7.11-.77,8.93,2.35,1.82,3.11.77,7.11-2.35,8.93Z"/><path d="M54.62,52.84c-3.08,1.8-7.03.76-8.82-2.32-1.8-3.08-.76-7.03,2.32-8.82,3.08-1.8,7.03-.76,8.82,2.32,1.8,3.08.76,7.03-2.32,8.82Z"/><path d="M63,37.34c-2.89,1.69-6.61.71-8.3-2.18-1.69-2.89-.71-6.61,2.18-8.3,2.89-1.69,6.61-.71,8.3,2.18,1.69,2.89.71,6.61-2.18,8.3Z"/><path d="M74.48,23.94c-2.57,1.5-5.86.63-7.36-1.93-1.5-2.57-.63-5.86,1.93-7.36,2.57-1.5,5.86-.63,7.36,1.93,1.5,2.57.63,5.86-1.93,7.36Z"/><path d="M88.39,13.27c-2.07,1.21-4.72.51-5.93-1.56-1.21-2.07-.51-4.72,1.56-5.93,2.07-1.21,4.72-.51,5.93,1.56,1.21,2.07.51,4.72-1.56,5.93Z"/><path d="M103.92,5.76c-1.37.8-3.13.34-3.94-1.03-.8-1.37-.34-3.13,1.03-3.94,1.37-.8,3.13-.34,3.94,1.03.8,1.37.34,3.13-1.03,3.94Z"/><path d="M120.17,1.63c-.42.24-.95.1-1.19-.31-.24-.42-.1-.95.31-1.19.42-.24.95-.1,1.19.31.24.42.1.95-.31,1.19Z"/></g><g id="i"><path d="M79.24,113.35c-1.25-.05-2.22-1.11-2.16-2.36.05-1.25,1.11-2.22,2.36-2.16,1.25.05,2.22,1.11,2.16,2.36-.05,1.25-1.11,2.22-2.36,2.16Z"/><path d="M74.2,98.27c-2.14-.09-3.81-1.9-3.71-4.05.09-2.14,1.9-3.81,4.05-3.71s3.81,1.9,3.71,4.05c-.09,2.14-1.9,3.81-4.05,3.71Z"/><path d="M73.12,82.04c-2.79-.12-4.95-2.48-4.84-5.27.12-2.79,2.48-4.95,5.27-4.83,2.79.12,4.95,2.48,4.83,5.27-.12,2.79-2.48,4.96-5.27,4.84Z"/><path d="M76.02,65.67c-3.23-.14-5.74-2.87-5.6-6.1.14-3.23,2.87-5.74,6.1-5.6,3.23.14,5.74,2.87,5.6,6.1-.14,3.23-2.87,5.74-6.1,5.6Z"/><path d="M82.75,50.08c-3.5-.15-6.21-3.11-6.06-6.6.15-3.5,3.11-6.21,6.6-6.06,3.5.15,6.21,3.11,6.06,6.6-.15,3.5-3.11,6.21-6.6,6.06Z"/><path d="M92.99,36.18c-3.6-.15-6.4-3.2-6.24-6.8.15-3.6,3.2-6.4,6.8-6.24,3.6.15,6.4,3.2,6.25,6.8-.15,3.6-3.2,6.4-6.8,6.24Z"/><path d="M106.19,24.7c-3.56-.15-6.32-3.16-6.17-6.72.15-3.56,3.16-6.32,6.72-6.17,3.56.15,6.32,3.16,6.17,6.72-.15,3.56-3.16,6.32-6.72,6.17Z"/><path d="M121.62,16.2c-3.35-.14-5.94-2.97-5.8-6.32.14-3.35,2.97-5.94,6.32-5.8,3.35.14,5.94,2.97,5.8,6.32-.14,3.35-2.97,5.94-6.32,5.8Z"/><path d="M138.52,11.13c-2.97-.13-5.27-2.64-5.14-5.6.13-2.97,2.64-5.27,5.6-5.14,2.97.13,5.27,2.64,5.14,5.6-.13,2.97-2.64,5.27-5.6,5.14Z"/><path d="M155.99,9.67c-2.39-.1-4.25-2.13-4.15-4.52.1-2.39,2.13-4.25,4.52-4.15,2.39.1,4.25,2.13,4.15,4.52-.1,2.39-2.13,4.25-4.52,4.15Z"/><path d="M173.12,11.74c-1.59-.07-2.82-1.41-2.75-3,.07-1.59,1.41-2.82,3-2.75,1.59.07,2.82,1.41,2.75,3-.07,1.59-1.41,2.82-3,2.75Z"/><path d="M189.02,17.06c-.48-.02-.85-.43-.83-.91.02-.48.43-.85.91-.83.48.02.85.43.83.91-.02.48-.43.85-.91.83Z"/></g><g id="j"><path d="M94.19,88.92c-1.02-.72-1.26-2.13-.55-3.15.72-1.02,2.13-1.27,3.15-.55,1.02.72,1.27,2.13.55,3.15-.72,1.02-2.13,1.26-3.15.55Z"/><path d="M98.1,73.5c-1.75-1.24-2.17-3.66-.94-5.41,1.24-1.75,3.66-2.17,5.41-.94,1.75,1.24,2.17,3.66.94,5.41-1.24,1.75-3.66,2.17-5.41.94Z"/><path d="M105.96,59.27c-2.28-1.61-2.83-4.76-1.22-7.05,1.61-2.28,4.76-2.83,7.05-1.22,2.28,1.61,2.83,4.76,1.22,7.05-1.61,2.28-4.76,2.83-7.05,1.22Z"/><path d="M117.26,47.06c-2.64-1.86-3.28-5.52-1.41-8.16,1.86-2.64,5.52-3.28,8.16-1.41,2.64,1.86,3.28,5.52,1.41,8.16-1.86,2.64-5.52,3.28-8.16,1.41Z"/><path d="M131.35,37.59c-2.86-2.02-3.55-5.97-1.53-8.83,2.02-2.86,5.97-3.55,8.83-1.53,2.86,2.02,3.55,5.97,1.53,8.83-2.02,2.86-5.97,3.55-8.83,1.53Z"/><path d="M147.48,31.43c-2.95-2.08-3.65-6.15-1.57-9.1,2.08-2.95,6.15-3.65,9.1-1.57s3.65,6.15,1.58,9.1c-2.08,2.95-6.15,3.65-9.1,1.57Z"/><path d="M164.78,28.91c-2.91-2.05-3.61-6.08-1.56-8.99,2.05-2.91,6.08-3.61,8.99-1.56,2.91,2.05,3.61,6.08,1.56,8.99-2.05,2.91-6.08,3.61-8.99,1.56Z"/><path d="M182.37,30.1c-2.74-1.93-3.39-5.71-1.46-8.45,1.93-2.74,5.71-3.39,8.45-1.46,2.74,1.93,3.39,5.71,1.46,8.45-1.93,2.74-5.71,3.39-8.45,1.46Z"/><path d="M199.33,34.97c-2.43-1.71-3.01-5.07-1.3-7.49,1.71-2.43,5.07-3.01,7.49-1.3,2.43,1.71,3.01,5.07,1.3,7.49-1.71,2.43-5.07,3.01-7.49,1.3Z"/><path d="M214.81,43.19c-1.96-1.38-2.43-4.09-1.05-6.04,1.38-1.96,4.09-2.43,6.04-1.05,1.96,1.38,2.43,4.09,1.05,6.04-1.38,1.96-4.09,2.43-6.04,1.05Z"/><path d="M228.1,54.19c-1.3-.92-1.61-2.71-.69-4.01.92-1.3,2.71-1.61,4.01-.69,1.3.92,1.61,2.71.69,4.01-.92,1.3-2.71,1.61-4.01.69Z"/><path d="M238.61,67.26c-.39-.28-.49-.82-.21-1.22s.82-.49,1.22-.21.49.82.21,1.22-.82.49-1.22.21Z"/></g><g id="k"><path d="M119.97,76.44c-.47-1.16.09-2.48,1.25-2.95,1.16-.47,2.48.09,2.95,1.24.47,1.16-.09,2.48-1.24,2.95-1.16.47-2.48-.09-2.95-1.24Z"/><path d="M131.6,65.59c-.81-1.99.15-4.25,2.14-5.06,1.99-.81,4.25.15,5.06,2.14.81,1.99-.15,4.25-2.14,5.06-1.99.81-4.25-.15-5.06-2.14Z"/><path d="M145.91,57.87c-1.05-2.59.2-5.54,2.78-6.59,2.59-1.05,5.54.2,6.59,2.78,1.05,2.59-.2,5.54-2.78,6.59-2.59,1.05-5.54-.2-6.59-2.78Z"/><path d="M162.01,53.7c-1.22-3,.23-6.41,3.22-7.63,3-1.22,6.41.23,7.63,3.22,1.22,3-.23,6.41-3.23,7.63-3,1.22-6.41-.23-7.63-3.22Z"/><path d="M178.99,53.36c-1.32-3.24.25-6.94,3.49-8.26,3.24-1.32,6.94.25,8.26,3.49,1.32,3.24-.25,6.94-3.49,8.26s-6.94-.25-8.26-3.49Z"/><path d="M195.88,56.89c-1.36-3.34.25-7.15,3.59-8.51,3.34-1.36,7.15.25,8.51,3.59,1.36,3.34-.25,7.15-3.59,8.51s-7.15-.25-8.51-3.59Z"/><path d="M211.81,64.13c-1.34-3.3.25-7.06,3.55-8.4,3.3-1.34,7.06.25,8.4,3.55,1.34,3.3-.25,7.06-3.55,8.4-3.3,1.34-7.06-.25-8.4-3.55Z"/><path d="M225.96,74.64c-1.26-3.1.24-6.64,3.34-7.9,3.1-1.26,6.64.23,7.9,3.34,1.26,3.1-.23,6.64-3.34,7.9-3.1,1.26-6.64-.23-7.9-3.34Z"/><path d="M237.59,87.9c-1.12-2.75.21-5.89,2.96-7.01,2.75-1.12,5.89.21,7.01,2.96,1.12,2.75-.21,5.89-2.96,7.01-2.75,1.12-5.89-.21-7.01-2.96Z"/><path d="M246.17,103.19c-.9-2.22.17-4.75,2.39-5.65,2.22-.9,4.75.17,5.65,2.39.9,2.22-.17,4.75-2.39,5.65-2.22.9-4.75-.17-5.65-2.39Z"/><path d="M251.4,119.63c-.6-1.47.11-3.15,1.58-3.75s3.15.11,3.75,1.58c.6,1.47-.11,3.15-1.58,3.75-1.47.6-3.15-.11-3.75-1.58Z"/><path d="M253.17,136.31c-.18-.45.03-.96.48-1.14.45-.18.96.03,1.14.48.18.45-.03.95-.48,1.14-.45.18-.96-.03-1.14-.48Z"/></g><g id="l"><path d="M148.41,79.89c.23-1.23,1.41-2.04,2.64-1.81,1.23.23,2.04,1.41,1.81,2.64-.23,1.23-1.41,2.04-2.64,1.81-1.23-.23-2.04-1.41-1.81-2.64Z"/><path d="M164.06,77.05c.4-2.11,2.43-3.5,4.53-3.1,2.11.4,3.5,2.43,3.1,4.53-.4,2.11-2.43,3.5-4.53,3.1-2.11-.4-3.5-2.43-3.1-4.53Z"/><path d="M180.27,78.29c.52-2.74,3.16-4.55,5.9-4.04,2.74.52,4.55,3.16,4.04,5.9-.52,2.74-3.16,4.55-5.9,4.04-2.74-.52-4.55-3.16-4.04-5.9Z"/><path d="M196.07,83.49c.6-3.18,3.66-5.27,6.84-4.68,3.18.6,5.27,3.66,4.68,6.84-.6,3.18-3.66,5.27-6.84,4.68-3.18-.6-5.27-3.66-4.68-6.84Z"/><path d="M210.54,92.37c.65-3.44,3.96-5.7,7.4-5.06,3.44.65,5.71,3.96,5.06,7.4-.65,3.44-3.96,5.71-7.4,5.06-3.44-.65-5.71-3.96-5.06-7.4Z"/><path d="M222.84,104.48c.67-3.54,4.08-5.88,7.62-5.21,3.55.67,5.88,4.08,5.21,7.62-.67,3.54-4.08,5.88-7.62,5.21-3.54-.67-5.88-4.08-5.21-7.62Z"/><path d="M232.32,119.18c.66-3.5,4.03-5.81,7.53-5.15,3.5.66,5.81,4.03,5.15,7.53-.66,3.5-4.03,5.81-7.53,5.15-3.5-.66-5.81-4.03-5.15-7.53Z"/><path d="M238.54,135.67c.62-3.29,3.79-5.46,7.08-4.84,3.29.62,5.46,3.79,4.84,7.08-.62,3.29-3.79,5.46-7.08,4.84-3.29-.62-5.46-3.79-4.84-7.08Z"/><path d="M241.16,153.12c.55-2.92,3.36-4.84,6.28-4.29,2.92.55,4.84,3.36,4.29,6.28-.55,2.92-3.36,4.84-6.28,4.29-2.92-.55-4.84-3.36-4.29-6.28Z"/><path d="M240.12,170.62c.44-2.35,2.71-3.9,5.06-3.46,2.35.44,3.9,2.71,3.46,5.06-.44,2.35-2.71,3.9-5.06,3.46-2.35-.44-3.9-2.71-3.46-5.06Z"/><path d="M235.62,187.28c.29-1.56,1.8-2.59,3.36-2.3,1.56.29,2.59,1.8,2.3,3.36-.29,1.56-1.8,2.59-3.36,2.3-1.56-.29-2.59-1.8-2.3-3.36Z"/><path d="M228.1,202.26c.09-.47.54-.79,1.02-.7.47.09.79.54.7,1.02-.09.47-.54.79-1.02.7-.47-.09-.79-.54-.7-1.02Z"/></g></svg>