<?xml version="1.0" encoding="UTF-8"?><svg id="a" xmlns="http://www.w3.org/2000/svg" viewBox="0 0 253.54 255.12"><path d="M158.22,170.76c-.02-.05-.08-.08-.13-.06-.05.02-.08.08-.06.13s.08.08.13.06c.05-.02.08-.08.06-.13Z"/><path d="M168.37,160.93c-.07-.19-.29-.29-.48-.21-.19.07-.29.29-.21.48.07.19.29.29.48.21s.29-.29.21-.48Z"/><path d="M175.69,148.73c-.16-.42-.63-.63-1.06-.47-.42.16-.63.63-.47,1.06s.64.63,1.06.47c.42-.16.63-.64.47-1.06Z"/><path d="M179.7,135.05c-.29-.75-1.13-1.13-1.88-.84s-1.13,1.13-.84,1.88,1.13,1.13,1.88.84c.75-.29,1.13-1.13.84-1.88Z"/><path d="M180.03,120.92c-.43-1.12-1.69-1.68-2.81-1.25-1.12.43-1.68,1.69-1.25,2.81.43,1.12,1.69,1.68,2.81,1.25,1.12-.43,1.68-1.69,1.25-2.81Z"/><path d="M176.67,107.37c-.59-1.52-2.3-2.29-3.82-1.7-1.52.59-2.29,2.3-1.7,3.82.59,1.52,2.3,2.29,3.82,1.7,1.52-.59,2.29-2.3,1.7-3.82Z"/><path d="M169.89,95.41c-.74-1.93-2.9-2.89-4.83-2.15-1.93.74-2.89,2.9-2.15,4.83.74,1.93,2.9,2.89,4.83,2.15,1.93-.74,2.89-2.9,2.15-4.83Z"/><path d="M160.12,85.96c-.87-2.27-3.42-3.4-5.69-2.53-2.27.87-3.4,3.42-2.53,5.69.87,2.27,3.42,3.4,5.69,2.53,2.27-.87,3.4-3.42,2.53-5.69Z"/><path d="M148.17,79.69c-.98-2.56-3.85-3.84-6.41-2.86-2.56.98-3.84,3.85-2.86,6.41.98,2.56,3.85,3.84,6.41,2.86,2.56-.98,3.84-3.85,2.86-6.41Z"/><path d="M134.86,77.07c-1.06-2.75-4.14-4.13-6.89-3.07-2.75,1.06-4.13,4.14-3.07,6.89,1.06,2.75,4.14,4.13,6.89,3.07,2.75-1.06,4.13-4.14,3.07-6.89Z"/><path d="M121.21,78.31c-1.09-2.84-4.28-4.26-7.12-3.17-2.84,1.09-4.26,4.28-3.17,7.12,1.09,2.84,4.28,4.26,7.12,3.17,2.84-1.09,4.26-4.28,3.17-7.12Z"/><path d="M108.26,83.29c-1.09-2.85-4.28-4.27-7.13-3.17-2.85,1.09-4.27,4.28-3.17,7.13,1.09,2.85,4.28,4.27,7.13,3.17,2.85-1.09,4.27-4.28,3.17-7.13Z"/><path d="M96.96,91.64c-1.06-2.76-4.15-4.14-6.91-3.08-2.76,1.06-4.14,4.15-3.08,6.91,1.06,2.76,4.15,4.14,6.91,3.08,2.76-1.06,4.14-4.15,3.08-6.91Z"/><path d="M88.15,102.76c-.99-2.57-3.88-3.86-6.45-2.87-2.57.99-3.86,3.88-2.87,6.45.99,2.57,3.88,3.86,6.45,2.87,2.57-.99,3.86-3.88,2.87-6.45Z"/><path d="M82.42,115.83c-.88-2.29-3.44-3.43-5.73-2.55-2.29.88-3.43,3.44-2.55,5.73.88,2.29,3.44,3.43,5.73,2.55,2.29-.88,3.43-3.44,2.55-5.73Z"/><path d="M80.26,129.86c-.75-1.95-2.93-2.92-4.87-2.17-1.95.75-2.92,2.93-2.17,4.87.75,1.95,2.93,2.92,4.87,2.17,1.95-.75,2.92-2.93,2.17-4.87Z"/><path d="M81.78,143.83c-.59-1.54-2.32-2.31-3.86-1.72-1.54.59-2.31,2.32-1.72,3.86.59,1.54,2.32,2.31,3.86,1.72,1.54-.59,2.31-2.32,1.72-3.86Z"/><path d="M86.89,156.71c-.44-1.14-1.71-1.7-2.85-1.27-1.14.44-1.7,1.71-1.27,2.85.44,1.14,1.71,1.7,2.85,1.27,1.14-.44,1.7-1.71,1.27-2.85Z"/><path d="M95.25,167.51c-.29-.76-1.14-1.14-1.9-.85-.76.29-1.14,1.14-.85,1.9s1.14,1.14,1.9.85c.76-.29,1.14-1.14.85-1.9Z"/><path d="M106.19,175.45c-.16-.43-.64-.64-1.07-.48-.43.16-.64.64-.48,1.07.16.43.64.64,1.07.48.43-.16.64-.64.48-1.07Z"/><path d="M118.96,179.92c-.07-.19-.29-.29-.49-.22-.19.07-.29.29-.22.49.07.19.29.29.49.22.19-.07.29-.29.22-.49Z"/><path d="M132.57,180.62c-.02-.05-.08-.08-.13-.06-.05.02-.08.08-.06.13.02.05.08.08.13.06.05-.02.08-.08.06-.13Z"/><path d="M187.87,164.2c-.05-.05-.13-.05-.18,0-.05.05-.05.13,0,.18.05.05.13.05.18,0,.05-.05.05-.13,0-.18Z"/><path d="M195.22,146.84c-.19-.2-.51-.2-.7-.01-.2.19-.2.51-.01.7.19.2.51.2.7.01.2-.19.2-.51.01-.7Z"/><path d="M197.84,128.05c-.42-.43-1.11-.45-1.54-.03-.43.42-.45,1.11-.03,1.54.42.43,1.11.45,1.54.03.43-.42.45-1.11.03-1.54Z"/><path d="M195.64,109.18c-.74-.77-1.97-.79-2.74-.05-.77.74-.79,1.97-.05,2.74s1.97.79,2.74.05c.77-.74.79-1.97.05-2.74Z"/><path d="M188.67,91.66c-1.11-1.15-2.95-1.19-4.11-.07-1.15,1.11-1.19,2.95-.07,4.1s2.95,1.19,4.1.07c1.15-1.11,1.19-2.95.07-4.11Z"/><path d="M177.49,76.79c-1.51-1.57-4.01-1.61-5.58-.1-1.57,1.51-1.61,4.01-.1,5.58s4.01,1.61,5.58.1c1.57-1.51,1.61-4.01.1-5.58Z"/><path d="M162.94,65.64c-1.91-1.98-5.07-2.04-7.05-.12-1.98,1.91-2.03,5.07-.12,7.05,1.91,1.98,5.07,2.03,7.05.12,1.98-1.91,2.03-5.07.12-7.05Z"/><path d="M146.03,59.13c-2.25-2.33-5.97-2.4-8.3-.14-2.33,2.25-2.4,5.97-.14,8.3,2.25,2.33,5.97,2.4,8.3.14,2.33-2.25,2.4-5.97.14-8.3Z"/><path d="M128.09,57.67c-2.54-2.63-6.73-2.7-9.36-.16-2.63,2.54-2.7,6.73-.16,9.36,2.54,2.63,6.73,2.7,9.36.16,2.63-2.54,2.7-6.73.16-9.36Z"/><path d="M110.4,61.38c-2.73-2.83-7.23-2.91-10.06-.18-2.83,2.73-2.91,7.23-.18,10.06,2.73,2.83,7.23,2.91,10.06.18,2.83-2.73,2.91-7.23.18-10.06Z"/><path d="M94.29,70.01c-2.82-2.92-7.47-3-10.4-.18-2.92,2.82-3,7.47-.18,10.4,2.82,2.92,7.47,3,10.4.18,2.92-2.82,3-7.47.18-10.4Z"/><path d="M80.98,82.87c-2.82-2.92-7.48-3-10.41-.18-2.92,2.82-3,7.48-.18,10.41,2.82,2.92,7.48,3,10.41.18,2.92-2.82,3-7.48.18-10.41Z"/><path d="M71.47,99.01c-2.74-2.83-7.25-2.91-10.09-.18-2.83,2.74-2.91,7.25-.18,10.09,2.74,2.83,7.25,2.91,10.09.18,2.83-2.74,2.91-7.25.18-10.09Z"/><path d="M66.45,117.25c-2.55-2.65-6.77-2.72-9.41-.16-2.65,2.55-2.72,6.77-.16,9.41,2.55,2.65,6.77,2.72,9.41.16,2.65-2.55,2.72-6.77.16-9.41Z"/><path d="M66.23,136.27c-2.27-2.35-6.01-2.41-8.36-.15-2.35,2.27-2.41,6.01-.15,8.36,2.27,2.35,6.01,2.41,8.36.15,2.35-2.27,2.41-6.01.15-8.36Z"/><path d="M70.88,154.61c-1.93-2-5.11-2.05-7.11-.12-2,1.93-2.05,5.11-.12,7.11,1.93,2,5.11,2.05,7.11.12,2-1.93,2.05-5.11.12-7.11Z"/><path d="M80.02,170.97c-1.53-1.58-4.05-1.63-5.63-.1-1.58,1.53-1.63,4.05-.1,5.63,1.53,1.58,4.05,1.63,5.63.1,1.58-1.53,1.63-4.05.1-5.63Z"/><path d="M93.01,184.11c-1.13-1.17-2.99-1.2-4.15-.07-1.17,1.13-1.2,2.99-.07,4.15,1.13,1.17,2.99,1.2,4.15.07,1.17-1.13,1.2-2.99.07-4.15Z"/><path d="M108.89,193.02c-.75-.78-2-.8-2.78-.05-.78.75-.8,2-.05,2.78.75.78,2,.8,2.78.05.78-.75.8-2,.05-2.78Z"/><path d="M126.46,197.05c-.42-.44-1.12-.45-1.56-.03-.44.42-.45,1.12-.03,1.56.42.44,1.12.45,1.56.03.44-.42.45-1.12.03-1.56Z"/><path d="M144.46,195.9c-.19-.2-.51-.21-.71-.01-.2.19-.21.51-.01.71.19.2.51.21.71.01.2-.19.21-.51.01-.71Z"/><path d="M161.53,189.66c-.05-.05-.13-.05-.19,0-.05.05-.05.14,0,.19.05.05.13.05.19,0,.05-.05.05-.14,0-.19Z"/><path d="M220.85,140.7c-.09-.04-.19,0-.23.09-.04.09,0,.19.09.23.09.04.19,0,.23-.09.04-.09,0-.19-.09-.23Z"/><path d="M220.82,115.57c-.34-.14-.73.01-.87.35-.14.34.01.73.35.87.34.14.73-.01.87-.35.14-.34-.01-.73-.35-.87Z"/><path d="M214.26,91.14c-.74-.31-1.59.03-1.91.77-.31.74.03,1.59.77,1.91.74.31,1.59-.03,1.91-.77.31-.74-.03-1.59-.77-1.91Z"/><path d="M201.72,69.12c-1.32-.56-2.83.06-3.39,1.37-.56,1.32.06,2.83,1.37,3.39,1.32.56,2.83-.06,3.39-1.37.56-1.32-.06-2.83-1.37-3.39Z"/><path d="M184.04,51.25c-1.97-.84-4.24.08-5.08,2.05s.08,4.24,2.05,5.08,4.24-.08,5.08-2.05-.08-4.24-2.05-5.08Z"/><path d="M162.57,38.82c-2.67-1.13-5.76.11-6.89,2.79-1.13,2.67.11,5.76,2.79,6.89,2.67,1.13,5.76-.11,6.89-2.79,1.13-2.67-.11-5.76-2.79-6.89Z"/><path d="M138.91,32.71c-3.38-1.43-7.28.14-8.71,3.52s.14,7.28,3.52,8.71c3.38,1.43,7.28-.14,8.71-3.52,1.43-3.38-.14-7.28-3.52-8.71Z"/><path d="M114.76,33.54c-3.98-1.69-8.57.17-10.26,4.14-1.69,3.98.17,8.57,4.14,10.26,3.98,1.69,8.57-.17,10.26-4.14,1.69-3.98-.17-8.57-4.14-10.26Z"/><path d="M91.98,41.09c-4.49-1.9-9.67.19-11.57,4.68-1.9,4.49.19,9.67,4.68,11.57,4.49,1.9,9.67-.19,11.57-4.68,1.9-4.49-.19-9.67-4.68-11.57Z"/><path d="M72.2,54.87c-4.82-2.05-10.39.2-12.44,5.03-2.05,4.82.2,10.39,5.03,12.44,4.82,2.05,10.39-.2,12.44-5.03,2.05-4.82-.2-10.39-5.03-12.44Z"/><path d="M56.93,73.85c-4.98-2.12-10.74.21-12.85,5.19-2.12,4.98.21,10.74,5.19,12.85,4.98,2.12,10.74-.21,12.85-5.19,2.12-4.98-.21-10.74-5.19-12.85Z"/><path d="M47.29,96.57c-4.99-2.12-10.75.21-12.87,5.2-2.12,4.99.21,10.75,5.2,12.87,4.99,2.12,10.75-.21,12.87-5.2,2.12-4.99-.21-10.75-5.2-12.87Z"/><path d="M44.02,121.33c-4.84-2.05-10.42.2-12.47,5.04-2.05,4.84.2,10.42,5.04,12.47,4.84,2.05,10.42-.2,12.47-5.04,2.05-4.84-.2-10.42-5.04-12.47Z"/><path d="M47.37,146.33c-4.51-1.92-9.72.19-11.64,4.7-1.92,4.51.19,9.72,4.7,11.64s9.72-.19,11.64-4.7c1.92-4.51-.19-9.72-4.7-11.64Z"/><path d="M57,169.79c-4.01-1.7-8.64.17-10.34,4.18-1.7,4.01.17,8.64,4.18,10.34,4.01,1.7,8.64-.17,10.34-4.18,1.7-4.01-.17-8.64-4.18-10.34Z"/><path d="M72.27,189.88c-3.41-1.45-7.35.14-8.79,3.55-1.45,3.41.14,7.35,3.55,8.79,3.41,1.45,7.35-.14,8.79-3.55,1.45-3.41-.14-7.35-3.55-8.79Z"/><path d="M92.01,205.2c-2.7-1.15-5.82.11-6.96,2.81-1.15,2.7.11,5.82,2.81,6.96,2.7,1.15,5.82-.11,6.96-2.81,1.15-2.7-.11-5.82-2.81-6.96Z"/><path d="M114.8,214.56c-1.99-.84-4.29.08-5.13,2.07-.84,1.99.08,4.29,2.07,5.13,1.99.84,4.29-.08,5.13-2.07.84-1.99-.08-4.29-2.07-5.13Z"/><path d="M138.93,217.22c-1.33-.56-2.87.06-3.43,1.39-.56,1.33.06,2.87,1.39,3.43,1.33.56,2.87-.06,3.43-1.39.56-1.33-.06-2.87-1.39-3.43Z"/><path d="M162.59,213.02c-.75-.32-1.61.03-1.93.78-.32.75.03,1.61.78,1.93.75.32,1.61-.03,1.93-.78.32-.75-.03-1.61-.78-1.93Z"/><path d="M184.09,202.22c-.34-.14-.74.01-.88.36-.14.34.01.74.36.88.34.14.74-.01.88-.36s-.01-.74-.36-.88Z"/><path d="M201.78,185.68c-.09-.04-.19,0-.23.09-.04.09,0,.19.09.23.09.04.19,0,.23-.09.04-.09,0-.19-.09-.23Z"/><path d="M249.09,94.67c-.13,0-.23.1-.23.23s.1.23.23.23.23-.1.23-.23-.1-.23-.23-.23Z"/><path d="M235.96,63.84c-.49,0-.88.4-.88.88s.4.88.88.88.88-.4.88-.88-.4-.88-.88-.88Z"/><path d="M215.18,37.28c-1.07,0-1.94.87-1.94,1.94s.87,1.94,1.94,1.94,1.94-.87,1.94-1.94-.87-1.94-1.94-1.94Z"/><path d="M188.31,16.79c-1.91,0-3.45,1.54-3.45,3.45s1.54,3.45,3.45,3.45,3.45-1.54,3.45-3.45-1.54-3.45-3.45-3.45Z"/><path d="M157.31,4.07c-2.85,0-5.16,2.31-5.16,5.16s2.31,5.16,5.16,5.16,5.16-2.31,5.16-5.16-2.31-5.16-5.16-5.16Z"/><path d="M124.48,0c-3.87,0-7.01,3.14-7.01,7.01s3.14,7.01,7.01,7.01,7.01-3.14,7.01-7.01-3.14-7.01-7.01-7.01Z"/><circle cx="92.25" cy="13.69" r="8.86" transform="translate(-1 14.91) rotate(-9.19)"/><path d="M63.05,18.43c-5.76,0-10.43,4.67-10.43,10.43s4.67,10.43,10.43,10.43,10.43-4.67,10.43-10.43-4.67-10.43-10.43-10.43Z"/><path d="M39.02,39.56c-6.5,0-11.77,5.27-11.77,11.77s5.27,11.77,11.77,11.77,11.77-5.27,11.77-11.77-5.27-11.77-11.77-11.77Z"/><path d="M21.92,66.78c-6.99,0-12.65,5.66-12.65,12.65s5.66,12.65,12.65,12.65,12.65-5.66,12.65-12.65-5.66-12.65-12.65-12.65Z"/><circle cx="13.07" cy="111.1" r="13.07"/><circle cx="13.08" cy="144.01" r="13.08"/><path d="M21.96,163.03c-7,0-12.68,5.68-12.68,12.68s5.68,12.68,12.68,12.68,12.68-5.68,12.68-12.68-5.68-12.68-12.68-12.68Z"/><circle cx="39.09" cy="203.8" r="11.84" transform="translate(-32.14 8.89) rotate(-9.22)"/><path d="M63.14,215.73c-5.81,0-10.51,4.71-10.51,10.51s4.71,10.51,10.51,10.51,10.51-4.71,10.51-10.51-4.71-10.51-10.51-10.51Z"/><path d="M92.35,232.44c-4.94,0-8.94,4-8.94,8.94s4,8.94,8.94,8.94,8.94-4,8.94-8.94-4-8.94-8.94-8.94Z"/><path d="M124.56,240.95c-3.91,0-7.08,3.17-7.08,7.08s3.17,7.08,7.08,7.08,7.08-3.17,7.08-7.08-3.17-7.08-7.08-7.08Z"/><path d="M157.4,240.57c-2.88,0-5.22,2.34-5.22,5.22s2.34,5.22,5.22,5.22,5.22-2.34,5.22-5.22-2.34-5.22-5.22-5.22Z"/><path d="M188.4,231.26c-1.93,0-3.49,1.56-3.49,3.49s1.56,3.49,3.49,3.49,3.49-1.56,3.49-3.49-1.56-3.49-3.49-3.49Z"/><path d="M215.26,213.78c-1.08,0-1.96.88-1.96,1.96s.88,1.96,1.96,1.96,1.96-.88,1.96-1.96-.88-1.96-1.96-1.96Z"/><path d="M236.01,189.33c-.49,0-.9.4-.9.9s.4.9.9.9.9-.4.9-.9-.4-.9-.9-.9Z"/><circle cx="249.11" cy="160.05" r=".24"/></svg>