<?xml version="1.0" encoding="UTF-8"?><svg id="a" xmlns="http://www.w3.org/2000/svg" viewBox="0 0 228.2 228.2"><path d="M75.48,99.91c-13.01,0-23.56-10.55-23.56-23.56s10.55-23.56,23.56-23.56V.87C33.8.87,0,34.67,0,76.36s33.8,75.48,75.48,75.48v-51.93Z"/><path d="M152.72,128.29c13.01,0,23.56,10.55,23.56,23.56s-10.55,23.56-23.56,23.56v51.93c41.69,0,75.48-33.8,75.48-75.49s-33.8-75.48-75.48-75.48v51.93Z"/><path d="M128.29,75.49c0-13.01,10.55-23.56,23.56-23.56s23.56,10.55,23.56,23.56h51.93C227.33,33.8,193.53,0,151.84,0s-75.49,33.8-75.49,75.49h51.93Z"/><path d="M99.91,152.72c0,13.01-10.55,23.56-23.56,23.56s-23.56-10.55-23.56-23.56H.87c0,41.69,33.8,75.49,75.49,75.49s75.49-33.8,75.49-75.49h-51.93Z"/></svg>