<?xml version="1.0" encoding="UTF-8"?><svg id="a" xmlns="http://www.w3.org/2000/svg" viewBox="0 0 230.59 240.94"><path d="M121.92,0c-33.27,0-60.24,26.97-60.24,60.24,33.27,0,60.24-26.97,60.24-60.24Z"/><path d="M61.68,60.24c0,33.27,26.97,60.24,60.24,60.24,0-33.27-26.97-60.24-60.24-60.24Z"/><path d="M121.92,120.47c33.27,0,60.24-26.97,60.24-60.24-33.27,0-60.24,26.97-60.24,60.24Z"/><path d="M182.15,60.24C182.15,26.97,155.19,0,121.92,0c0,33.27,26.97,60.24,60.24,60.24Z"/><path d="M230.59,60.24c0-33.27-26.97-60.24-60.24-60.24,0,33.27,26.97,60.24,60.24,60.24Z"/><path d="M170.36,120.47c33.27,0,60.24-26.97,60.24-60.24-33.27,0-60.24,26.97-60.24,60.24Z"/><path d="M170.36,240.94c33.27,0,60.24-26.97,60.24-60.24-33.27,0-60.24,26.97-60.24,60.24Z"/><path d="M170.36,120.47c-33.27,0-60.24,26.97-60.24,60.24,33.27,0,60.24-26.97,60.24-60.24Z"/><path d="M230.59,180.71c0-33.27-26.97-60.24-60.24-60.24,0,33.27,26.97,60.24,60.24,60.24Z"/><path d="M110.12,180.71c0,33.27,26.97,60.24,60.24,60.24,0-33.27-26.97-60.24-60.24-60.24Z"/><path d="M61.68,180.71c0,33.27,26.97,60.24,60.24,60.24,0-33.27-26.97-60.24-60.24-60.24Z"/><path d="M121.92,120.47c-33.27,0-60.24,26.97-60.24,60.24,33.27,0,60.24-26.97,60.24-60.24Z"/><path d="M60.24,60.24C60.24,26.97,33.27,0,0,0c0,33.27,26.97,60.24,60.24,60.24Z"/><path d="M0,120.47c33.27,0,60.24-26.97,60.24-60.24C26.97,60.24,0,87.21,0,120.47Z"/><path d="M60.24,180.71C60.24,147.44,33.27,120.47,0,120.47,0,153.74,26.97,180.71,60.24,180.71Z"/><path d="M0,240.94c33.27,0,60.24-26.97,60.24-60.24C26.97,180.71,0,207.68,0,240.94Z"/></svg>