<?xml version="1.0" encoding="UTF-8"?><svg id="a" xmlns="http://www.w3.org/2000/svg" viewBox="0 0 226.77 226.77"><path d="M113.39,113.39V0C82.07,0,56.69,25.38,56.69,56.69s25.38,56.69,56.69,56.69Z"/><path d="M0,0v113.39c31.31,0,56.69-25.38,56.69-56.69C56.69,25.38,31.31,0,0,0Z"/><path d="M113.39,113.39H0C0,144.7,25.38,170.08,56.69,170.08s56.69-25.38,56.69-56.69Z"/><path d="M0,226.77h113.39c0-31.31-25.38-56.69-56.69-56.69-31.31,0-56.69,25.38-56.69,56.69Z"/><path d="M113.39,113.39v113.39c31.31,0,56.69-25.38,56.69-56.69s-25.38-56.69-56.69-56.69Z"/><path d="M226.77,226.77v-113.39c-31.31,0-56.69,25.38-56.69,56.69,0,31.31,25.38,56.69,56.69,56.69Z"/><path d="M113.39,113.39h113.39c0-31.31-25.38-56.69-56.69-56.69s-56.69,25.38-56.69,56.69Z"/><path d="M226.77,0h-113.39c0,31.31,25.38,56.69,56.69,56.69C201.39,56.69,226.77,31.31,226.77,0Z"/></svg>