<?xml version="1.0" encoding="UTF-8"?><svg id="a" xmlns="http://www.w3.org/2000/svg" viewBox="0 0 253.4 253.4"><path d="M80.21,131.37h-38.39c-23.1,0-41.82,18.72-41.82,41.81h80.21v80.21c23.09,0,41.82-18.72,41.82-41.82v-38.4c0-23.09-18.72-41.81-41.82-41.81Z"/><path d="M131.37,173.19v38.4c0,23.09,18.72,41.82,41.82,41.82v-80.21h80.21c0-23.09-18.72-41.81-41.82-41.81h-38.39c-23.09,0-41.82,18.72-41.82,41.81Z"/><path d="M122.03,80.21v-38.4C122.03,18.72,103.31,0,80.21,0v80.21H0c0,23.09,18.72,41.82,41.82,41.82h38.39c23.09,0,41.82-18.72,41.82-41.82Z"/><path d="M173.19,122.03h38.39c23.09,0,41.82-18.72,41.82-41.82h-80.21V0c-23.09,0-41.82,18.72-41.82,41.82v38.4c0,23.09,18.72,41.82,41.82,41.82Z"/></svg>