<?xml version="1.0" encoding="UTF-8"?><svg id="a" xmlns="http://www.w3.org/2000/svg" viewBox="0 0 226.77 226.77"><path d="M172.24,0C142.12,0,117.71,24.41,117.71,54.53v54.53h54.53c30.12,0,54.53-24.41,54.53-54.53V0h-54.53Z"/><path d="M54.53,117.71C24.41,117.71,0,142.12,0,172.24v54.53h54.53c30.12,0,54.53-24.41,54.53-54.53v-54.53h-54.53Z"/><path d="M0,54.53c0,30.12,24.41,54.53,54.53,54.53h54.53v-54.53c0-30.12-24.41-54.53-54.53-54.53C24.41,0,0,24.41,0,54.53Z"/><path d="M226.77,172.24c0-30.12-24.41-54.53-54.53-54.53h-54.53v54.53c0,30.12,24.41,54.53,54.53,54.53,30.12,0,54.53-24.41,54.53-54.53Z"/></svg>