<?xml version="1.0" encoding="UTF-8"?><svg id="a" xmlns="http://www.w3.org/2000/svg" viewBox="0 0 231.49 227.29"><polygon points="155.72 151.53 231.49 151.53 231.49 227.29 155.72 151.53"/><polygon points="155.72 75.76 231.49 75.76 231.49 151.53 155.72 75.76"/><polygon points="155.72 0 231.49 0 231.49 75.76 155.72 0"/><polygon points="75.76 151.53 151.53 151.53 151.53 227.29 75.76 151.53"/><polygon points="75.76 75.76 151.53 75.76 151.53 151.53 75.76 75.76"/><polygon points="75.76 0 151.53 0 151.53 75.76 75.76 0"/><polygon points=".9 151.53 76.66 151.53 76.66 227.29 .9 151.53"/><polygon points="0 75.76 75.76 75.76 75.76 151.53 0 75.76"/><polygon points="0 0 75.76 0 75.76 75.76 0 0"/></svg>