<?xml version="1.0" encoding="UTF-8"?><svg id="a" xmlns="http://www.w3.org/2000/svg" viewBox="0 0 226.77 226.77"><path d="M173.68,113.57l-60.11,60.11c1.87,29.63,26.42,53.09,56.51,53.09s56.69-25.38,56.69-56.69-23.47-54.65-53.1-56.51Z"/><path d="M170.08,0c-30.1,0-54.65,23.47-56.51,53.09l60.11,60.11c29.63-1.86,53.09-26.42,53.09-56.51h0c0-31.31-25.38-56.69-56.69-56.69Z"/><path d="M113.2,53.1C111.34,23.47,86.79,0,56.69,0S0,25.38,0,56.69h0c0,30.1,23.47,54.65,53.1,56.51l60.11-60.11Z"/><path d="M53.1,113.57C23.47,115.43,0,139.98,0,170.08h0c0,31.31,25.38,56.69,56.69,56.69s54.65-23.47,56.51-53.1l-60.11-60.11Z"/></svg>