<?xml version="1.0" encoding="UTF-8"?><svg id="a" xmlns="http://www.w3.org/2000/svg" viewBox="0 0 175 46.11"><g id="b"><g id="c"><polygon points="19.28 0 0 0 0 46.11 19.28 0" fill="#fff" fill-rule="evenodd"/><polygon points="32.85 0 52.1 0 52.1 46.11 32.85 0" fill="#fff" fill-rule="evenodd"/><polygon points="26.06 16.99 38.33 46.11 30.28 46.11 26.62 36.84 17.63 36.84 26.06 16.99" fill="#fff" fill-rule="evenodd"/><path d="M83.56,29.32l2.27,6.52c.08.16.19.24.39.24h4.37c.24,0,.28-.11.24-.35l-9.03-25.08c-.04-.2-.07-.24-.28-.24h-5.43c-.15,0-.24.11-.24.28-.08,1.32-.19,1.72-.35,2.11l-8.05,22.9c-.04.28.05.39.28.39h3.91c.24,0,.35-.08.44-.31l2.15-6.44h9.33,0ZM75.47,25.06h0c1.18-3.57,2.74-8.14,3.37-10.75h.04c.78,2.74,2.61,8.16,3.44,10.75h-6.85Z" fill="#fff" fill-rule="evenodd"/><path d="M102.44,36.47c2.35,0,4.85-.43,7.39-1.52.2-.08.24-.16.24-.35-.08-.7-.16-1.72-.16-2.5V8.48c0-.15,0-.23-.19-.23h-4.26c-.16,0-.24.08-.24.28v8c-.67-.08-1.13-.11-1.68-.11-6.87,0-11.09,4.53-11.09,10.2,0,6.57,4.33,9.85,10,9.85h0ZM105.21,32.1h0c-.7.23-1.48.31-2.27.31-3.12,0-5.66-1.76-5.66-6.03,0-3.78,2.63-6.02,6.1-6.02.7,0,1.32.08,1.83.28v11.46Z" fill="#fff" fill-rule="evenodd"/><path d="M123.64,16.42c-5.87,0-9.5,4.5-9.5,10.05,0,4.96,2.89,10,9.41,10,5.51,0,9.38-4.06,9.38-10.12,0-5.35-3.28-9.92-9.3-9.92ZM123.41,20.37h0c3.32,0,4.72,2.85,4.72,6.1,0,4.02-2.07,6.02-4.48,6.02-2.98,0-4.73-2.5-4.73-6.1s1.87-6.02,4.5-6.02Z" fill="#fff" fill-rule="evenodd"/><path d="M137.34,8.26c-.16,0-.28.08-.28.28v26.73c0,.11.11.31.28.35,1.87.58,3.83.85,5.85.85,5.79,0,11.42-3.59,11.42-10.83,0-5.24-3.59-9.22-9.22-9.22-1.29,0-2.5.2-3.55.55l-.05-8.4c0-.28-.07-.31-.35-.31,0,0-4.09,0-4.09,0ZM149.8,26.12h0c0,4.33-2.96,6.37-6.17,6.37-.67,0-1.26-.04-1.8-.2v-11.41c.62-.24,1.36-.44,2.73-.44,3.09,0,5.24,1.96,5.24,5.68Z" fill="#fff" fill-rule="evenodd"/><path d="M170.5,27.53c1.91,0,3.48-.04,4.02-.16.2-.04.28-.11.31-.28.11-.43.16-1.32.16-2.41,0-3.72-2.24-8.25-8.01-8.25s-9.18,4.81-9.18,10.24c0,4.81,2.54,9.81,9.65,9.81,2.66,0,4.38-.43,5.87-1.13.15-.08.23-.2.23-.43v-3.25c0-.19-.11-.23-.23-.15-1.48.63-3.09.94-4.85.94-3.98,0-5.79-2.2-5.9-4.92,0,0,7.94,0,7.94,0ZM162.57,24.16h0c.31-1.91,1.52-3.98,4.22-3.98,2.98,0,3.76,2.5,3.76,3.63v.31c-.16.04-.67.04-2.15.04h-5.83Z" fill="#fff" fill-rule="evenodd"/></g></g></svg>