<?xml version="1.0" encoding="UTF-8"?><svg id="a" xmlns="http://www.w3.org/2000/svg" xmlns:xlink="http://www.w3.org/1999/xlink" viewBox="0 0 175 42.44"><defs><linearGradient id="b" x1="-221.86" y1="92.31" x2="-221.6" y2="92.31" gradientTransform="translate(28627.06 5029.36) scale(129.03 -54.12)" gradientUnits="userSpaceOnUse"><stop offset="0" stop-color="#8930fd"/><stop offset="1" stop-color="#49ccf9"/></linearGradient><linearGradient id="c" x1="-221.87" y1="90.23" x2="-221.61" y2="90.23" gradientTransform="translate(27431.07 6885.27) scale(123.63 -76.2)" gradientUnits="userSpaceOnUse"><stop offset="0" stop-color="#ff02f0"/><stop offset="1" stop-color="#ffc800"/></linearGradient></defs><path d="M0,31.31l6.27-4.8c3.33,4.35,6.87,6.35,10.8,6.35s7.35-1.98,10.53-6.29l6.36,4.68c-4.59,6.22-10.29,9.5-16.89,9.5S4.73,37.49,0,31.31Z" fill="url(#b)"/><path d="M17.05,10.44l-11.15,9.61L.74,14.08,17.07,0l16.2,14.09-5.18,5.96-11.05-9.6Z" fill="url(#c)"/><path d="M57.99,34.82c-3.81,0-6.98-1.23-9.56-3.7-2.57-2.5-3.84-5.71-3.84-9.63s1.3-7.19,3.88-9.73c2.61-2.57,5.78-3.84,9.56-3.84,4.66,0,8.78,2.01,11.18,5.15l-4.2,4.41c-2.01-2.15-4.2-3.25-6.56-3.25-2.01,0-3.67.67-5.05,2.04-1.34,1.38-2.01,3.11-2.01,5.18s.67,3.7,2.01,5.08c1.38,1.34,3.03,2.01,5.01,2.01,2.57,0,4.83-1.13,6.7-3.35l4.37,4.2c-1.2,1.59-2.82,2.89-4.83,3.91-2.01,1.02-4.23,1.52-6.67,1.52h0ZM76.89,7.53v26.91h-6.21V7.53s6.21,0,6.21,0ZM82.77,13.24c-2.08,0-3.6-1.52-3.6-3.6s1.59-3.53,3.6-3.53,3.56,1.52,3.56,3.53-1.55,3.6-3.56,3.6h0ZM85.91,14.97v19.47h-6.24V14.97s6.24,0,6.24,0ZM97.86,34.86c-3.07,0-5.54-.95-7.47-2.86-1.91-1.9-2.86-4.34-2.86-7.33s.95-5.43,2.89-7.33c1.94-1.91,4.44-2.86,7.55-2.86,4.06,0,7.62,1.97,9.27,5.68l-4.97,2.61c-.99-1.66-2.36-2.51-4.16-2.51-1.31,0-2.36.42-3.21,1.27-.81.84-1.26,1.97-1.23,3.14,0,2.57,1.87,4.48,4.37,4.48,1.8,0,3.46-.99,4.16-2.5l4.97,2.96c-1.69,3.25-5.18,5.26-9.31,5.26h0ZM128.82,34.44h-7.41l-5.75-7.72-.92.85v6.88h-6.2V7.53h6.21v13.08l5.85-5.64h7.58l-8.36,7.83,8.99,11.64ZM129.23,24.31v-15.94h6.63v15.84c0,2.93,1.69,4.34,4.13,4.34s4.09-1.48,4.09-4.34v-15.84h6.67v15.94c0,7.69-5.33,10.58-10.76,10.58s-10.76-2.89-10.76-10.58ZM165.48,14.48c2.79,0,5.05.99,6.84,2.96,1.8,1.94,2.68,4.37,2.68,7.23s-.92,5.29-2.71,7.3c-1.8,1.97-4.06,2.96-6.77,2.96-2.15,0-4.02-.71-5.54-2.12v9.63h-6.24V14.97h6.14v1.8c1.52-1.52,3.38-2.29,5.61-2.29h0ZM168.65,24.74c0-2.54-1.83-4.48-4.37-4.48s-4.41,1.94-4.41,4.48c0,1.23.42,2.29,1.23,3.17.84.88,1.9,1.31,3.17,1.31s2.33-.42,3.14-1.31c.81-.86,1.25-2,1.24-3.17h0Z" fill="#fff"/></svg>