<?xml version="1.0" encoding="UTF-8"?><svg id="a" xmlns="http://www.w3.org/2000/svg" xmlns:xlink="http://www.w3.org/1999/xlink" viewBox="0 0 147.47 80"><defs><clipPath id="b"><rect y="-75.52" width="175" height="54.33" fill="none"/></clipPath><radialGradient id="e" cx="-807.45" cy="416.31" fx="-807.45" fy="416.31" r=".28" gradientTransform="translate(308989.67 159281.86) scale(382.51 -382.51)" gradientUnits="userSpaceOnUse"><stop offset="0" stop-color="#fff"/><stop offset="0" stop-color="#fff"/><stop offset=".03" stop-color="#cbffff"/><stop offset=".06" stop-color="#96ffff"/><stop offset=".08" stop-color="#68ffff"/><stop offset=".11" stop-color="#43ffff"/><stop offset=".14" stop-color="#25ffff"/><stop offset=".16" stop-color="#1ff"/><stop offset=".19" stop-color="#04ffff"/><stop offset=".22" stop-color="aqua"/><stop offset="1" stop-color="blue" stop-opacity="0"/></radialGradient></defs><g id="c"><g id="d"><path d="M104.23,51.79c-2.04.47-7.41.74-7.41.74l-.68,2.13s2.68-.23,4.63-.03c0,0,.64-.07.71.72.03.74-.06,1.53-.06,1.53,0,0-.04.48-.72.6-.74.13-5.78.31-5.78.31l-.82,2.76s-.3.64.38.45c.64-.17,5.92-1.16,6.62-1.02.74.18,1.56,1.16,1.32,2.07-.28,1.11-5.56,4.48-8.77,4.24,0,0-1.69.11-3.12-2.17-1.33-2.17.51-6.29.51-6.29,0,0-.84-1.93-.23-2.57,0,0,.37-.33,1.42-.41l1.29-2.68s-1.47.1-2.35-.98c-.82-1.03-.88-1.5-.26-1.79.67-.33,6.8-1.45,11.03-1.3,0,0,1.47-.14,2.74,2.41-.01,0,.61,1.03-.44,1.28ZM88.34,62.08c-.54,1.28-1.97,2.64-3.74,1.79-1.76-.85-4.55-6.56-4.55-6.56,0,0-1.06-2.13-1.26-2.08,0,0-.23-.41-.37,1.91-.14,2.32.03,6.85-.89,7.55-.88.71-1.94.43-2.49-.41-.5-.82-.71-2.78-.44-6.21.33-3.43,1.12-7.09,2.14-8.23,1.02-1.13,1.84-.31,2.15-.01,0,0,1.36,1.23,3.61,4.86l.4.67s2.04,3.43,2.25,3.42c0,0,.17.16.31.04.21-.06.13-1.16.13-1.16,0,0-.43-3.73-2.28-10.05,0,0-.28-.79-.09-1.53.18-.75.94-.4.94-.4,0,0,2.89,1.45,4.28,6.15,1.37,4.75.44,8.99-.1,10.26ZM74.13,49.99c-.24.48-.38,1.18-1.6,1.36,0,0-11.67.79-12.22,1.62,0,0-.41.48.23.62.64.13,3.27.48,4.55.55,1.36.01,5.95.06,7.6,2.11,0,0,.98.98.94,3.19-.04,2.27-.44,3.06-1.32,3.88-.92.77-8.83,4.31-13.93-1.13,0,0-2.35-2.62.81-4.61,0,0,2.28-1.37,8.08.24,0,0,1.76.64,1.67,1.28-.1.68-1.45,1.4-3.4,1.36-1.9-.06-3.29-.96-3.02-.82.26.1-2.04-1.11-2.75-.28-.71.75-.54,1.22.16,1.69,1.77,1.01,8.62.65,10.66-1.62,0,0,.81-.92-.43-1.67-1.23-.71-4.76-1.13-6.14-1.2-1.32-.07-6.22.01-6.93-1.29,0,0-.71-.88.07-3.37.82-2.61,6.53-3.61,9-3.84,0,0,6.79-.24,8.04,1.15-.01,0,.16.33-.06.79ZM54.86,65.28c-.82.61-2.57.34-3.06-.34-.5-.61-.67-3.03-.57-6.83.1-3.84.18-8.6,1.01-9.35.88-.77,1.42-.1,1.76.43.37.51.81,1.08.91,2.28.09,1.2.37,7.53.37,7.53,0,0,.37,5.7-.41,6.29ZM56.63,44.9c-2.4.79-4.04.52-5.43-.07-.61,1.06-.96,1.39-1.43,1.46-.68.07-1.29-1.02-1.4-1.37-.11-.27-.44-.72-.04-1.8-1.36-1.22-1.46-2.86-1.23-3.97.34-1.28,2.64-6.12,9.62-6.69,0,0,3.42-.26,4,1.57h.1s3.32.01,3.25,2.96c-.04,2.96-3.69,6.65-7.43,7.91ZM50.11,38.34c-.71,1.13-.74,1.81-.41,2.28.81-1.23,2.28-3.17,4.45-4.65-1.67.14-3.08.86-4.04,2.37ZM59.76,36.44c-2.2.33-5.6,3.27-7.21,5.68,2.48.45,6.86.28,8.8-3.67-.01,0,.92-2.45-1.59-2.01ZM119.41,59.27c-1.32,2.3-5.02,7.09-9.95,5.97-1.63,3.95-2.99,7.94-3.77,13.92,0,0-.17,1.16-1.13.75-.95-.34-2.54-1.93-2.85-4.12-.34-2.89.95-7.78,3.57-13.38-.77-1.25-1.29-3.03-.84-5.57,0,0,.67-4.71,5.39-8.96,0,0,.57-.5.89-.34.37.16.2,1.69-.1,2.42s-2.41,4.39-2.41,4.39c0,0-1.32,2.47-.95,4.41,2.48-3.81,8.12-11.51,11.62-9.09,1.18.84,1.72,2.66,1.72,4.63-.01,1.74-.43,3.59-1.19,4.96ZM118.38,53.24s-.2-1.52-1.67.16c-1.28,1.4-3.57,4.05-5.43,7.64,1.94-.21,3.81-1.28,4.38-1.81.92-.82,3.06-3.03,2.72-5.98ZM49.57,55.16c-.27,3.43-1.59,9.2-10.93,12.05-6.17,1.86-11.99.96-15.17.16-.07,1.26-.21,1.8-.41,2.01-.27.27-2.28,1.43-3.39-.21-.5-.78-.75-2.2-.89-3.46-7.14-3.29-10.43-8.02-10.56-8.23-.16-.16-1.79-1.86-.16-3.94,1.53-1.89,6.53-3.77,11.04-4.54.16-3.86.61-6.76,1.15-8.09.65-1.54,1.47-.16,2.18.89.6.78.95,4.14.98,6.82,2.95-.14,4.69.07,7.98.67,4.28.78,7.14,2.96,6.89,5.44-.18,2.44-2.42,3.44-3.27,3.52-.89.07-2.28-.57-2.28-.57-.95-.45-.07-.85,1.08-1.35,1.25-.61.96-1.23.96-1.23-.47-1.36-6.02-2.31-11.55-2.31-.03,3.05.13,8.11.2,11.06,3.87.74,6.76.6,6.76.6,0,0,14.12-.4,14.54-9.41.44-9.03-14.07-17.69-24.8-20.44-10.72-2.81-16.78-.85-17.31-.58-.57.28-.04.37-.04.37,0,0,.58.09,1.59.43,1.06.34.24.89.24.89-1.83.58-3.88.21-4.28-.62-.4-.84.27-1.59,1.03-2.66.77-1.13,1.6-1.09,1.6-1.09,13.25-4.59,29.4,3.71,29.4,3.71,15.12,7.67,17.7,16.65,17.42,20.14ZM9.57,54.7c-1.5.74-.47,1.8-.47,1.8,2.82,3.03,6.29,4.93,9.6,6.11.38-5.23.33-7.07.37-9.71-5.16.35-8.14,1.18-9.5,1.8Z" fill="#fff"/><path d="M147.47,53.62v1.87c0,.41-.33.74-.74.74h-8.92c0,.47.01.88.01,1.26,0,2.76-.11,5.02-.38,7.55-.04.38-.35.67-.72.67h-1.93c-.2,0-.38-.09-.51-.23s-.2-.34-.17-.54c.27-2.52.4-4.75.4-7.46,0-.4,0-.81-.01-1.26h-8.82c-.41,0-.74-.33-.74-.74v-1.87c0-.41.33-.74.74-.74h8.69c-.18-3.05-.55-5.98-1.15-8.96-.03-.18.01-.37.13-.51.11-.14.28-.23.47-.23h2.08c.33,0,.6.23.67.55.58,3.08.95,6.07,1.13,9.14h9.03c.4,0,.74.34.74.74Z" fill="#fff"/><path d="M28.31,28.91h-.01M28.2,28.93s-.09-.01-.13-.01c.04.01.09.01.13.01h.04-.04ZM28.2,28.93s-.09-.01-.13-.01c.04.01.09.01.13.01h.04-.04Z" fill="none"/><path d="M135.34,38.78c-4.61-11.32-12.39-20.98-22.51-27.92C102.47,3.76,90.32,0,77.71,0c-20.86,0-40.23,10.36-51.78,27.72-.13.18-.16.43-.09.64.07.23.24.38.45.45l1.62.55c.1.03.2.04.28.04.3,0,.58-.16.75-.4,5.3-7.8,12.47-14.27,20.75-18.75,8.55-4.62,18.23-7.07,27.99-7.07,11.81,0,23.19,3.49,32.94,10.06,9.51,6.42,16.9,15.39,21.36,25.92.13.31.44.52.78.52h1.93c.23,0,.44-.11.55-.3.14-.18.17-.41.09-.62ZM28.2,28.93s-.09-.01-.13-.03c.04.01.09.03.13.03h.03-.03ZM132.37,39.45s.09.06.13.07c-.04-.03-.09-.04-.13-.07Z" fill="url(#e)"/></g></g></svg>