<?xml version="1.0" encoding="UTF-8"?><svg id="a" xmlns="http://www.w3.org/2000/svg" viewBox="0 0 175.75 42.47"><path d="M98.08,42.14h-14.24l3.24-25.86h40.21c-.29,2.76-.29,9.55-11.98,9.3h-15.17l-2.05,16.56h0Z" fill="#fff" fill-rule="evenodd"/><polygon points="129.03 16.27 143.41 16.27 140.22 42.14 125.73 42.14 129.03 16.27 129.03 16.27" fill="#fff" fill-rule="evenodd"/><polygon points="156.94 16.27 171.32 16.27 168.13 42.14 153.64 42.14 156.94 16.27 156.94 16.27" fill="#fff" fill-rule="evenodd"/><polygon points="37.07 42.14 0 42.14 3.05 16.27 40.33 16.27 39.16 25.57 16.13 25.57 15.37 30.37 38.58 30.37 37.07 42.14 37.07 42.14" fill="#fff" fill-rule="evenodd"/><polygon points="40.92 11.77 3.56 11.77 5.01 0 42.38 0 40.92 11.77 40.92 11.77" fill="#fff" fill-rule="evenodd"/><path d="M55.62,0h62.26c9.12,0,10.65,4.58,9.92,11.77H43.08c1.02-8.65,4.73-11.77,12.54-11.77h0Z" fill="#fff" fill-rule="evenodd"/><path d="M67.06,42.14h-27.78l1.47-11.77h28.33l.58-4.8h-19.59c-2.9.17-8.61.29-7.52-9.3h35.11c2.83,0,6.97,1.6,6.25,6.97l-1.29,9.09c-1.19,7.25-5.86,9.8-15.56,9.8h0Z" fill="#fff" fill-rule="evenodd"/><path d="M170.42,39.8c0-1.46,1.19-2.66,2.67-2.66s2.66,1.19,2.66,2.66-1.19,2.67-2.66,2.67-2.67-1.19-2.67-2.67h0Z" fill="#fff" fill-rule="evenodd"/><path d="M171.82,11.77h-42.21l1.38-11.77h32.48c8.14,0,9.08,4.58,8.35,11.77h0Z" fill="#fff" fill-rule="evenodd"/><path d="M175.43,39.8c0-1.29-1.05-2.34-2.34-2.34s-2.34,1.05-2.34,2.34,1.05,2.35,2.34,2.35,2.34-1.05,2.34-2.35h0Z" fill="#fff" fill-rule="evenodd"/><path d="M174.42,41.29h-.43l-.85-1.37h-.67v1.37h-.36v-2.98h1.3c.25,0,.5.01.73.15.22.13.33.39.33.64,0,.59-.41.8-.94.82l.9,1.37h0Z" fill="#fff" fill-rule="evenodd"/><path d="M173.02,39.63c.42,0,1.07.07,1.07-.54,0-.46-.4-.52-.77-.52h-.85v1.05h.56Z" fill="#fff" fill-rule="evenodd"/></svg>