<?xml version="1.0" encoding="UTF-8"?><svg id="a" xmlns="http://www.w3.org/2000/svg" xmlns:xlink="http://www.w3.org/1999/xlink" viewBox="0 0 175 31.27"><defs><clipPath id="b"><rect x="195" y="-75.52" width="175" height="54.33" fill="none"/></clipPath></defs><path d="M153.93,30.75h5.82v-9.42l8.13,9.42h7.12l-9.46-10.86,8.08-9.41h-6.48l-7.39,8.68V0l-5.82.76v29.99ZM140.5,9.96c-6.46,0-10.95,4.35-10.95,10.65s4.49,10.65,10.95,10.65,10.95-4.35,10.95-10.65-4.49-10.65-10.95-10.65h0ZM140.5,26.3c-3,0-5.05-2.32-5.05-5.69s2.05-5.69,5.05-5.69,5.05,2.32,5.05,5.69-2.05,5.69-5.05,5.69ZM116.83,9.96c-6.46,0-10.95,4.35-10.95,10.65s4.49,10.65,10.95,10.65,10.95-4.35,10.95-10.65-4.49-10.65-10.95-10.65h0ZM116.83,26.3c-2.99,0-5.05-2.32-5.05-5.69s2.05-5.69,5.05-5.69,5.05,2.32,5.05,5.69-2.05,5.69-5.05,5.69ZM94.55,9.96c-2.69,0-4.93,1.06-6.32,2.99V0l-5.83.76v29.99h5.17l.1-3.13c1.38,2.33,3.85,3.65,6.88,3.65,5.53,0,9.57-4.49,9.57-10.65s-4.03-10.65-9.57-10.65h0ZM93.17,26.3c-3,0-5.05-2.32-5.05-5.69s2.05-5.69,5.05-5.69,5.05,2.32,5.05,5.69-2.05,5.69-5.05,5.69ZM70.72,26.56c-3.09,0-5.31-1.44-6.07-3.91h14.35c.14-.76.24-1.65.24-2.26,0-6.52-3.65-10.43-9.78-10.43s-10.47,4.35-10.47,10.65,4.49,10.65,11.15,10.65c3.45,0,6.8-1.15,8.9-3.07l-2.1-3.69c-2.03,1.4-4.03,2.06-6.22,2.06h0ZM69.42,14.49c2.69,0,4.41,1.64,4.41,4.17v.02h-9.3c.56-2.69,2.3-4.19,4.89-4.19h0ZM49.87,31.27c3.01,0,5.96-1.15,8.04-3.16l-2.28-3.83c-1.62,1.26-3.45,1.94-5.19,1.94-3.23,0-5.39-2.26-5.39-5.61s2.15-5.61,5.39-5.61c1.6,0,3.33.58,4.75,1.6l2.32-3.91c-1.87-1.69-4.77-2.73-7.64-2.73-6.32,0-10.79,4.41-10.79,10.65,0,6.22,4.48,10.65,10.8,10.65ZM31.35,10.48l-.1,3.16c-1.38-2.35-3.85-3.67-6.88-3.67-5.55,0-9.57,4.49-9.57,10.65s4.05,10.65,9.57,10.65c3.03,0,5.51-1.31,6.88-3.65l.1,3.13h5.17V10.48h-5.17ZM25.75,26.3c-2.99,0-5.05-2.32-5.05-5.69s2.05-5.69,5.05-5.69,5.05,2.32,5.05,5.69-2.06,5.69-5.05,5.69h0ZM14.36,10.52h-5.24v-1.73c0-2.59,1.01-3.58,3.64-3.58.81,0,1.47.02,1.85.06V.81c-.72-.2-2.47-.4-3.48-.4C5.78.42,3.31,2.94,3.31,8.4v2.11H0v4.9h3.31v15.33h5.82v-15.33h4.34l.9-4.9Z" fill="#fff"/></svg>