<?xml version="1.0" encoding="UTF-8"?><svg id="a" xmlns="http://www.w3.org/2000/svg" xmlns:xlink="http://www.w3.org/1999/xlink" viewBox="0 0 175 39.36"><defs><linearGradient id="f" x1="74.48" y1="6605.61" x2="195.21" y2="6709.8" gradientTransform="translate(3.58 669.41) scale(.1 -.1)" gradientUnits="userSpaceOnUse"><stop offset="0" stop-color="#fff"/><stop offset="1" stop-color="#fff" stop-opacity="0"/></linearGradient><mask id="d" x="-.04" y="-.04" width="39.44" height="39.44" maskUnits="userSpaceOnUse"><g id="e"><rect x="-.04" y="-.04" width="39.44" height="39.44" fill="url(#f)"/></g></mask><linearGradient id="i" x1="80.28" y1="6785.79" x2="165.64" y2="6684.28" xlink:href="#f"/><mask id="g" x="-.04" y="-.04" width="39.44" height="39.44" maskUnits="userSpaceOnUse"><g id="h"><rect x="-.04" y="-.04" width="39.44" height="39.44" fill="url(#i)"/></g></mask><linearGradient id="l" x1="-1.75" y1="6685.86" x2="187.37" y2="6684.08" xlink:href="#f"/><mask id="j" x="-.04" y="-.04" width="39.44" height="39.44" maskUnits="userSpaceOnUse"><g id="k"><rect x="-.04" y="-.04" width="39.44" height="39.44" fill="url(#l)"/></g></mask></defs><g id="b"><g id="c"><path d="M80.67,20.64c0,4.25-1.26,7.64-3.78,10.16-2.83,3-6.56,4.51-11.18,4.51s-8.16-1.53-11.22-4.59c-3.06-3.06-4.59-6.83-4.59-11.31s1.53-8.25,4.59-11.31c3.06-3.06,6.8-4.59,11.22-4.59,2.24,0,4.35.4,6.33,1.19,1.98.79,3.61,1.91,4.89,3.36l-2.81,2.81c-.94-1.13-2.15-2.02-3.63-2.66-1.49-.64-3.08-.96-4.78-.96-3.32,0-6.12,1.15-8.42,3.44-2.27,2.32-3.4,5.23-3.4,8.71s1.13,6.39,3.4,8.71c2.3,2.3,5.1,3.44,8.42,3.44,3.03,0,5.55-.85,7.57-2.55,2.01-1.7,3.17-4.04,3.49-7.01h-11.05v-3.66h14.75c.14.79.21,1.56.21,2.3h0ZM92.94,13.2c3.12,0,5.6,1.01,7.45,3.03,1.85,2.02,2.77,4.84,2.77,8.48l-.04.43h-16.53c.06,2.06.74,3.72,2.06,4.98,1.32,1.26,2.89,1.89,4.72,1.89,2.52,0,4.49-1.26,5.92-3.78l3.52,1.72c-.94,1.77-2.25,3.16-3.93,4.16-1.67,1-3.57,1.5-5.69,1.5-3.09,0-5.64-1.06-7.64-3.18s-3.01-4.79-3.01-8.03.97-5.87,2.92-8.01c1.95-2.13,4.44-3.2,7.47-3.2h0ZM92.86,16.81c-1.49,0-2.77.46-3.84,1.37-1.07.92-1.78,2.15-2.13,3.69h12.06c-.11-1.46-.71-2.67-1.78-3.63-1.07-.96-2.51-1.44-4.31-1.44h0ZM109.64,34.86h-3.94V13.89h3.77v2.91h.17c.6-1.03,1.52-1.88,2.76-2.57,1.24-.68,2.48-1.03,3.7-1.03,1.54,0,2.9.36,4.07,1.07,1.17.71,2.03,1.7,2.57,2.95,1.74-2.68,4.15-4.02,7.23-4.02,2.43,0,4.29.74,5.61,2.23,1.31,1.48,1.97,3.6,1.97,6.33v13.1h-3.94v-12.5c0-1.97-.36-3.39-1.07-4.26-.71-.87-1.91-1.31-3.6-1.31-1.51,0-2.78.64-3.81,1.93-1.03,1.28-1.54,2.8-1.54,4.54v11.6h-3.94v-12.5c0-1.97-.36-3.39-1.07-4.26-.71-.87-1.91-1.31-3.6-1.31-1.51,0-2.78.64-3.81,1.93-1.03,1.28-1.54,2.8-1.54,4.54v11.6h0ZM145.99,6.61c0,.77-.27,1.43-.81,1.97s-1.2.81-1.97.81-1.43-.27-1.97-.81c-.54-.54-.81-1.2-.81-1.97s.27-1.43.81-1.97c.54-.54,1.2-.81,1.97-.81s1.43.27,1.97.81c.54.54.81,1.2.81,1.97ZM145.17,13.85v21.01h-3.94V13.85h3.94ZM175,6.61c0,.77-.27,1.43-.81,1.97-.54.54-1.2.81-1.97.81s-1.43-.27-1.97-.81c-.54-.54-.81-1.2-.81-1.97s.27-1.43.81-1.97c.54-.54,1.2-.81,1.97-.81s1.43.27,1.97.81c.54.54.81,1.2.81,1.97ZM174.19,13.85v21.01h-3.94V13.85h3.94ZM148.61,13.89h3.77v2.91h.17c.6-1.03,1.52-1.88,2.76-2.57,1.24-.68,2.53-1.03,3.87-1.03,2.57,0,4.54.73,5.93,2.2,1.38,1.47,2.08,3.56,2.08,6.27v13.18h-3.94v-12.93c-.09-3.42-1.81-5.14-5.18-5.14-1.57,0-2.88.63-3.94,1.9-1.06,1.27-1.58,2.79-1.58,4.56v11.6h-3.94V13.89h0Z" fill="#fff"/><path d="M18.9,38.77c-2.58-8.82-9.49-15.73-18.31-18.31C.23,20.36,0,20.05,0,19.68,0,19.31.23,19,.59,18.9,9.4,16.32,16.32,9.4,18.9.59c.1-.35.42-.59.78-.59s.68.23.78.59c2.58,8.82,9.49,15.73,18.31,18.31.35.1.59.42.59.78s-.23.68-.59.78c-8.82,2.58-15.73,9.49-18.31,18.31-.1.35-.41.59-.78.59s-.68-.23-.78-.59h0Z" fill="#fff"/><g mask="url(#d)"><path d="M18.9,38.77c-2.58-8.82-9.49-15.73-18.31-18.31C.23,20.36,0,20.05,0,19.68,0,19.31.23,19,.59,18.9,9.4,16.32,16.32,9.4,18.9.59c.1-.35.42-.59.78-.59s.68.23.78.59c2.58,8.82,9.49,15.73,18.31,18.31.35.1.59.42.59.78s-.23.68-.59.78c-8.82,2.58-15.73,9.49-18.31,18.31-.1.35-.41.59-.78.59s-.68-.23-.78-.59h0Z" fill="#fff"/></g><g mask="url(#g)"><path d="M18.9,38.77c-2.58-8.82-9.49-15.73-18.31-18.31C.23,20.36,0,20.05,0,19.68,0,19.31.23,19,.59,18.9,9.4,16.32,16.32,9.4,18.9.59c.1-.35.42-.59.78-.59s.68.23.78.59c2.58,8.82,9.49,15.73,18.31,18.31.35.1.59.42.59.78s-.23.68-.59.78c-8.82,2.58-15.73,9.49-18.31,18.31-.1.35-.41.59-.78.59s-.68-.23-.78-.59h0Z" fill="#fff"/></g><g mask="url(#j)"><path d="M18.9,38.77c-2.58-8.82-9.49-15.73-18.31-18.31C.23,20.36,0,20.05,0,19.68,0,19.31.23,19,.59,18.9,9.4,16.32,16.32,9.4,18.9.59c.1-.35.42-.59.78-.59s.68.23.78.59c2.58,8.82,9.49,15.73,18.31,18.31.35.1.59.42.59.78s-.23.68-.59.78c-8.82,2.58-15.73,9.49-18.31,18.31-.1.35-.41.59-.78.59s-.68-.23-.78-.59h0Z" fill="#fff"/></g></g></g></svg>