<?xml version="1.0" encoding="UTF-8"?><svg id="a" xmlns="http://www.w3.org/2000/svg" viewBox="0 0 175 39.54"><g id="b"><g id="c"><g id="d"><g id="e"><path d="M23.78,0l10.1,5.49v25.99l-10.1,8.06V0ZM10.95,3.44l8.16,2.4v25.05l-8.16,3.54V3.44ZM82.4,12.87c5.07,0,7.83,2.6,7.83,6.92v11.7h-4.03l-.03-2.34c-1.3,1.88-3.41,2.79-5.69,2.79-3.28,0-5.62-2.14-5.62-5.23,0-3.38,2.14-5.36,6.43-6.04l4.71-.75v-.29c0-1.95-1.43-2.99-3.93-2.99-2.37,0-4.42,1.01-6.17,2.6v-4.19c1.62-1.3,3.83-2.18,6.5-2.18ZM132.76,12.87c5.33,0,8.74,4,8.74,9.39,0,.58,0,.94-.13,1.49h-13.48c.32,2.53,2.4,4.52,5.82,4.52,2.31,0,4.52-.81,6.73-2.44v4.16h.03c-1.88,1.17-4.32,1.95-7.02,1.95-6.01,0-9.81-4.09-9.81-9.59-.03-5.46,3.77-9.49,9.13-9.49ZM149.49,7.38v5.91h4.81v3.64h-4.81v8.16c0,2.05.88,2.92,2.83,2.92.71,0,1.43-.16,1.98-.55v3.83c-.71.42-1.79.68-3.25.68-3.67,0-5.82-2.24-5.82-6.04v-8.97h-3.22l7.47-9.59ZM165.32,12.83c5.56,0,9.68,4.19,9.68,9.55s-4.13,9.55-9.68,9.55-9.68-4.19-9.68-9.55c-.03-5.33,4.09-9.55,9.68-9.55ZM103.71,12.9c.45,0,.75.03.81.13v4.42c-.16-.13-.55-.16-1.1-.16-3.15,0-5.07,2.44-5.07,6.21v8.03h-4.26V13.29h4.22v3.12c.88-2.11,3.05-3.51,5.39-3.51ZM49.84,5.49l8.74,14.13,8.61-14.13h4.48v25.99h-4.29V12.38l-8.94,14.36-8.87-14.23v18.98h-4.32V5.49h4.58ZM111.54,5.49v14.65l6.86-6.89h5.26l-7.9,7.93,8.48,10.3h-5.26l-6.5-8.09-.94.84v7.21h-4.26V5.46h4.26v.03ZM.03,7.57l6.21,1.01v19.82l-6.24,1.66L.03,7.57ZM86.07,23.23l-4.06.68c-1.98.32-2.96,1.17-2.96,2.5.03,1.27,1.07,2.05,2.5,2.05,2.66,0,4.52-1.72,4.52-4.22v-1.01h0ZM165.28,16.8c-3.02,0-5.39,2.5-5.39,5.62s2.37,5.62,5.39,5.62,5.39-2.5,5.39-5.62-2.37-5.62-5.39-5.62ZM132.66,16.34c-2.6,0-4.48,2.01-4.78,4.19h9.39c-.26-2.47-2.05-4.19-4.61-4.19Z" fill="#fff"/></g></g></g></g></svg>