<?xml version="1.0" encoding="UTF-8"?><svg id="a" xmlns="http://www.w3.org/2000/svg" viewBox="0 0 175 46.96"><path d="M24,0h-7.37c-.01,10.02-.03,16.51-.04,26.52C13.42,16.75,10.25,10.28,7.07,0H0v46.96c2.39-.34,4.94-.67,7.34-.98,0-9.82.01-15.85.02-25.67,3.29,9.66,5.31,15.36,8.59,24.54,2.57-.29,5.4-.66,7.97-.92.03-14.65.05-29.3.08-43.95" fill="#fff"/><path d="M51.51,0h-20.41c-.03,14.44-.05,28.89-.08,43.33,6.83-.62,13.66-1.13,20.5-1.52,0-2.11,0-5.15.01-7.26-4.45.27-8.7.56-13.13.86,0-3.88.02-7.09.02-10.98,3.24-.06,6.66,0,9.97-.06,0-2.12,0-5.17.01-7.29-3.28.06-6.74.06-9.97.13,0-3.88.02-6.01.02-9.9,2.03-.02,4.02-.03,6-.03.35,0,.7,0,1.05,0h1.04c1.66,0,3.32,0,5.01-.02,0-2.11-.05-5.15-.05-7.26" fill="#fff"/><path d="M79.02.03c-7.49,0-15.23,0-22.73,0,0,2.1,0,5.12-.01,7.22.33,0,.65,0,.98,0,.99,0,1.97,0,2.96.02.99,0,1.97.02,2.96.02.25,0,.51,0,.76,0-.02,11.64-.03,22.28-.05,33.92,2.4-.09,4.98-.16,7.38-.23.01-11.58.02-22.15.03-33.73,2.54,0,5.16-.02,7.71-.02,0-2.06,0-5.13,0-7.2" fill="#fff"/><path d="M104.3,0h-20.49c0,13.59,0,27.19,0,40.78.79,0,1.59,0,2.4,0,1.64,0,3.29,0,4.9.02,0-5.77,0-11.03,0-16.8.4,0,.81,0,1.22,0,.95,0,1.92,0,2.89,0,.97,0,1.95,0,2.92,0s1.99,0,2.95.02c0-2.07,0-5.14,0-7.21-.91,0-1.84-.01-2.79-.01-1.01,0-2.03,0-3.04,0-1.01,0-2.02,0-3.02,0-.38,0-.76,0-1.13,0,0-3.71,0-5.8,0-9.51.8,0,1.6,0,2.4,0s1.61,0,2.42,0c.81,0,1.62,0,2.44,0,1.98,0,3.96,0,5.96.01,0-2.07,0-5.21,0-7.28" fill="#fff"/><path d="M109.08.03c.02,13.73-.05,27.45-.03,41.18,6.55.24,13.44.51,19.98.96,0-2.11,0-5.15-.01-7.26-4.14-.24-8.45-.54-12.6-.71-.02-11.75.05-22.42.03-34.17-2.4,0-4.97,0-7.37,0" fill="#fff"/><path d="M135.08.03c.03,14.19.06,28.39.08,42.58,2.4.19,4.88.38,7.28.6,0-14.38.03-28.79,0-43.18-2.4,0-4.97,0-7.37,0" fill="#fff"/><path d="M148.76.03c2.95,7.18,5.64,14.37,8.63,22-3.11,7.32-6.27,14.59-9.38,21.62,2.57.25,5.24.63,7.81.91,1.84-4.52,3.52-8,5.37-12.65,1.84,4.95,3.52,8.77,5.36,13.88,2.57.33,5.89.81,8.46,1.18-3.11-8.31-6.51-16.96-9.63-24.81,3.11-7.37,6.29-14.41,9.52-22.12-2.65,0-5.39,0-8.05,0-1.99,4.76-3.37,7.83-5.28,12.36-1.78-4.72-2.98-7.77-4.76-12.36-2.65,0-5.39,0-8.05,0" fill="#fff"/></svg>