<?xml version="1.0" encoding="UTF-8"?><svg id="a" xmlns="http://www.w3.org/2000/svg" viewBox="0 0 175 35.18"><path d="M82.36,17.54c0,3.95,3.15,7.14,7.07,7.14,3.9,0,7.16-3.25,7.13-7.12-.03-3.88-3.23-7.08-7.1-7.08-3.91,0-7.09,3.16-7.09,7.05h0ZM100.68,0c0,.4-.02.81-.02,1.21,0,8.76,0,17.52,0,26.27v.81h-4.24v-1.76c-3.29,2.4-6.79,3.13-10.59,2-2.59-.77-4.63-2.31-6.14-4.54-3.04-4.47-2.53-10.34,1.28-14.39,3.45-3.66,9.91-5.07,15.36-1.04.02-.21.04-.39.05-.56,0-1.73.05-3.45-.01-5.18-.05-1.27.33-2.23,1.5-2.82h2.81Z" fill="#fff"/><path d="M11.2,10.49c-3.89,0-7.1,3.17-7.11,7.04,0,3.95,3.14,7.15,7.04,7.16,3.92,0,7.13-3.16,7.15-7.07.02-3.89-3.19-7.13-7.09-7.13h0ZM0,6.78c.7.02,1.4.04,2.1.05.68,0,1.36,0,2.09,0v1.84c2.79-2.09,5.8-2.94,9.13-2.38,3.35.56,5.97,2.3,7.79,5.17,2.82,4.41,2.23,10.17-1.31,13.99-3.2,3.46-9.77,5.44-15.58,1.13v1.94c0,1.34-.05,2.69.02,4.03.07,1.26-.39,2.14-1.55,2.64H0V6.78h0Z" fill="#fff"/><path d="M174.49,4c0-1.94-1.55-3.49-3.49-3.49-1.94,0-3.48,1.56-3.47,3.5,0,1.9,1.56,3.45,3.45,3.46,1.93,0,3.51-1.55,3.51-3.47h0ZM175,4.99c-.08.16-.18.31-.25.47-.69,1.72-2.41,2.75-4.22,2.52-1.88-.24-3.27-1.63-3.51-3.51-.24-1.8.8-3.54,2.52-4.22.16-.07.31-.17.47-.25h1.79c.52.25,1.07.45,1.56.75.91.56,1.3,1.49,1.63,2.45v1.79h0Z" fill="#fff"/><path d="M44.32,17.68c.04-3.88-3.09-7.14-6.9-7.19-4-.05-7.23,3.06-7.28,7-.05,3.87,3.09,7.15,6.9,7.19,4,.05,7.24-3.06,7.28-7h0ZM44.16,8.6v-1.72h4.22v21.43h-4.21v-1.76c-3.03,2.26-6.3,3.01-9.86,2.19-2.67-.61-4.84-2.07-6.5-4.25-3.31-4.36-3.02-10.49.66-14.6,3.53-3.94,10.17-5.4,15.68-1.29h0Z" fill="#fff"/><path d="M153.66,10.49c-3.89,0-7.07,3.19-7.08,7.09-.01,3.92,3.19,7.12,7.11,7.11,3.91,0,7.09-3.22,7.08-7.15,0-3.87-3.23-7.06-7.12-7.05h0ZM164.87,6.88v21.43h-4.21v-1.78c-3.19,2.36-6.61,3.1-10.34,2.09-2.51-.68-4.54-2.11-6.1-4.2-3.14-4.2-2.98-10.14.38-14.15.97-1.16,2.11-2.1,3.45-2.81,1.31-.7,2.71-1.12,4.19-1.27,1.5-.15,3-.1,4.42.43,1.36.51,2.65,1.19,3.98,1.8v-1.54h4.23Z" fill="#fff"/><path d="M121.96,17.6c0-3.73-3.06-6.84-6.76-6.85-3.83-.02-7,3.11-6.95,6.87.04,3.73,3.11,6.81,6.81,6.82,3.81,0,6.89-3.05,6.9-6.84h0ZM126.58,17.66c-.21,6.71-5.36,11.63-12.05,11.37-6.04-.24-11-5.23-10.88-11.63.13-6.61,5.46-11.55,12.09-11.24,6.04.28,10.81,5.25,10.83,11.5h0Z" fill="#fff"/><path d="M74.68,28.32h-4.58v-.7c0-3.3,0-6.61,0-9.91,0-3.88-3.03-6.95-6.84-6.95-3.81,0-6.84,3.08-6.84,6.96,0,3.28,0,6.57,0,9.85v.75h-4.61v-.69c0-3.33,0-6.65,0-9.98,0-5.97,4.49-10.92,10.4-11.46,5.89-.54,11.25,3.52,12.33,9.37.1.52.16,1.06.16,1.59.01,3.62,0,7.25,0,10.87,0,.08-.01.17-.03.32h0Z" fill="#fff"/><path d="M134.06,28.31h-4.61v-11c0-5.9,3.52-10,9.38-10.91.81-.13,1.63-.19,2.5-.29v4.56c-.91.16-1.81.24-2.66.48-2.96.83-4.6,3.04-4.61,6.12-.01,3.43,0,6.86,0,10.29v.75h0Z" fill="#fff"/><path d="M170.12,2.26v1.68c.45,0,.91.1,1.27-.03.31-.12.68-.48.75-.79.09-.44-.24-.81-.74-.85-.41-.03-.83,0-1.28,0h0ZM171.66,4.53c.39.58.74,1.11,1.11,1.67-.45.16-.73.1-.94-.29-.17-.32-.41-.59-.58-.91-.25-.47-.59-.62-1.17-.43,0,.4-.02.82,0,1.24.02.45-.17.56-.59.41V1.71c.71,0,1.41-.05,2.1.01.63.06,1.03.47,1.15,1.11.12.64-.13,1.17-.7,1.5-.11.06-.23.11-.39.19h0Z" fill="#fff"/></svg>