<?xml version="1.0" encoding="UTF-8"?><svg id="a" xmlns="http://www.w3.org/2000/svg" viewBox="0 0 175 40.29"><path d="M44.73,10.28c0-6.95-7.33-10.28-16.07-10.28C19.3,0,10.76,4.15,7.58,10.57c-.87,1.69-1.3,3.62-1.3,5.5-.05,1.69.43,3.33,1.3,4.68,1.35,1.98,3.76,3.23,7.29,3.23,4.34,0,7.77-2.36,7.77-6.51,0,0,.05-1.16-1.3-1.16-1.11,0-1.4.77-1.35,1.16.14,3.23-1.79,5.84-5.21,5.84-3.86,0-5.45-3.28-5.45-6.75,0-7.14,5.4-11.92,11-13.99,2.65-1.01,5.4-1.5,8.2-1.45,6.37,0,11.58,2.46,11.58,8.97,0,5.45-4.58,10.13-10.08,10.52l.24-.72c1.11-4,2.51-8.4,4.78-11.68.14-.19.34-.53.63-.82l-.34-.39c-.48.29-.92.63-1.4.96-10.52,8.2-10.86,31.36-24.9,31.36-.48,0-.96-.05-1.45-.1-2.94-.48-4.44-2.46-4.44-5.16,0-.53.19-1.3.19-1.69.05-.77-.63-1.45-1.4-1.45h-.14C.53,30.93,0,31.94,0,33.34c-.1,4.05,2.94,6.47,7.58,6.9.53.05,1.01.05,1.59.05,10.95,0,17.66-8.3,20.51-18.33,1.45-.14,2.89-.48,4.29-.92,5.02-1.35,10.76-4.82,10.76-10.76" fill="#fff"/><path d="M148.99,12.69h-3.86l-.87,2.03-1.5,3.43h-1.79l-.53,1.16h1.88l-2.27,4.97c-1.59,3.52-4.1,6.95-5.55,6.95-.34,0-.53-.14-.53-.43s.1-.63.43-1.5c.43-1.06,1.21-2.61,1.74-3.72.82-1.64,2.07-4.15,2.07-5.4s-.82-2.27-2.36-2.27c-1.79,0-3.38,1.06-4.82,2.61l.96-2.32h-3.62l-2.94,6.75c-1.21,2.36-3.62,6.32-5.11,6.32-.34,0-.43-.19-.43-.53.05-.29.1-.53.24-.82s1.88-4.44,1.88-4.44l3.23-7.33h-4l-3.14,7.14c-.96,2.22-3.43,5.98-4.97,5.98-.24.05-.53-.14-.53-.43v-.14c0-.39.29-1.11.53-1.59l1.64-3.62,3.38-7.33h-3.91l-.77,1.69c-.58,1.11-1.54,2.46-3.09,2.46-.72,0-1.11-.29-1.25-.58-.24-2.46-1.79-3.76-4.1-3.76-3.18,0-5.5,1.88-7,4.2-1.01,1.59-1.79,3.33-2.32,5.11-1.4,2.27-2.85,4.05-4,4.05-.29,0-.48-.14-.48-.53s.39-1.25.53-1.59l2.56-5.4c.72-1.69,1.21-2.75,1.21-3.86s-.82-1.98-2.12-1.98c-1.83,0-3.81,1.06-5.4,2.8.05-.29.05-.53.05-.82,0-1.3-.63-1.93-1.98-1.93-1.69,0-3.43,1.01-4.97,2.8l1.01-2.51h-3.52l-2.99,6.75c-1.4,3.18-3.72,6.32-4.97,6.32-.29,0-.48-.14-.48-.53,0-.63.68-2.12.92-2.75l3.96-8.97c.29-.68-1.59-1.11-4-1.11s-5.02,1.21-6.85,2.8c-1.3,1.11-2.27,1.64-2.75,1.64-.24,0-.34-.14-.34-.29,0-.53,1.3-2.07,1.3-3.28,0-.53-.29-.92-1.01-.92-1.4,0-3.09,1.35-4.29,2.75l1.01-2.46h-3.47l-2.99,6.75c-1.4,3.18-3.76,6.51-5.07,6.51-.29,0-.48-.14-.48-.53,0-.63.63-2.07,1.01-2.85l3.96-8.97c.29-.68-1.59-1.11-4-1.11-3.57,0-7.04,2.41-8.88,4.87-2.03,2.65-3.43,5.5-3.43,7.82-.05,1.88.92,3.04,2.85,3.04,2.17,0,3.91-1.69,4.87-2.99-.05.24-.1.53-.14.77,0,1.3.53,2.22,2.07,2.22,1.4,0,3.23-1.16,4.68-2.99l-1.21,2.75h3.76l3.72-8.4c1.21-2.75,2.61-4.15,2.99-4.15.14,0,.19.05.19.14,0,.29-.58,1.06-.58,1.74,0,.72.39,1.25,1.4,1.25.82,0,1.69-.39,2.51-.92-1.88,2.56-3.18,5.26-3.18,7.48-.05,1.88.92,3.04,2.85,3.04,2.03,0,3.91-1.93,4.97-3.23-.05.29-.05.58-.05.92,0,1.25.72,2.32,2.17,2.32,1.59,0,2.89-1.01,4.49-2.94l-1.21,2.7h3.86l3.52-8.01c1.54-3.47,3.62-5.31,4.68-5.31.24-.05.48.14.53.43v.1c-.05.39-.14.77-.34,1.11l-5.07,11.72h3.96l3.62-8.15c1.54-3.52,3.23-5.21,4.54-5.21.39,0,.53.19.53.63-.05.43-.14.92-.34,1.3l-3.47,7.38c-.34.72-.53,1.5-.58,2.27,0,1.11.63,2.12,2.36,2.12,2.27,0,3.96-1.69,5.89-4.25v.53c.14,2.03,1.3,3.81,4.29,3.81,3.52,0,6.42-2.46,8.11-6.32.63-1.4,1.11-2.85,1.25-4.34.39.19.82.29,1.25.24.58,0,1.16-.14,1.69-.43l-.63,1.3c-.72,1.5-1.5,3.14-2.07,4.49-.39.82-.63,1.69-.68,2.61,0,1.4.77,2.36,2.36,2.36s3.72-1.5,5.26-3.57h.05c-.1.43-.14.87-.14,1.3,0,1.16.34,2.27,1.98,2.27,1.88,0,3.33-1.35,4.73-3.04l-1.21,2.7h3.86l3.14-7.04c1.79-4,3.52-6.37,5.16-6.37.29,0,.53.19.53.48v.1c0,.68-.96,2.51-1.83,4.34-.82,1.69-1.4,2.94-1.83,3.96-.39.82-.63,1.74-.68,2.65,0,1.21.68,2.17,2.17,2.17,2.27,0,4.54-2.17,5.74-3.81-.29.82-.43,1.59-.43,2.46,0,2.27,1.35,3.38,3.23,3.38,1.25,0,2.46-.43,3.52-1.16,1.5-1.01,2.65-2.56,3.67-3.96l-.68-.63c-.92,1.3-1.98,2.56-3.04,3.33-.58.48-1.25.72-1.98.77-.82,0-1.3-.43-1.3-1.45s.48-2.41,1.21-4.29c.05-.05,1.11-2.41,2.07-4.68.82-1.93,1.69-3.81,1.83-4.2h2.56l.53-1.16h-2.51l2.22-5.74ZM39.47,31.17c-.53,0-.92-.19-.92-.92.05-1.88,1.59-5.26,3.57-7.96,1.4-1.88,3.18-3.23,5.11-3.23l-2.46,5.45c-1.83,4.15-3.81,6.66-5.31,6.66M63.5,31.17c-.53,0-.92-.19-.96-.92.05-1.88,1.59-5.26,3.57-7.96,1.4-1.88,3.18-3.23,5.11-3.23l-2.46,5.45c-1.83,4.25-3.76,6.66-5.26,6.66M106.15,20.55c-.1,2.07-1.93,7.14-4.05,10.13-.87,1.21-1.59,1.59-2.27,1.59-.92,0-1.16-.72-1.01-1.83.19-1.88,1.79-6.32,3.96-9.36,1.01-1.4,1.69-1.98,2.46-1.98.72,0,.96.63.92,1.45" fill="#fff"/><polygon points="166.07 18.04 169.6 9.89 165.45 9.89 161.88 18.04 153 18.04 151.5 21.52 160.43 21.52 156.86 29.72 161.06 29.72 164.58 21.52 173.5 21.52 175 18.04 166.07 18.04" fill="#fff"/></svg>