<?xml version="1.0" encoding="UTF-8"?><svg id="a" xmlns="http://www.w3.org/2000/svg" viewBox="0 0 175 53.85"><path d="M102.27,20.33c.13-.44.26-.85.39-1.29,1.01-3.39,2.01-6.76,3.02-10.15l.13-.39c.11-.39.48-.63.87-.63h3.32c.83,0,1.01.24.72,1.03l-1.31,3.48c-1.47,3.81-2.93,7.63-4.4,11.44-.04.13-.11.26-.15.39-.15.46-.61.77-1.09.72-.96-.02-1.92-.02-2.89,0-.68.02-1.07-.28-1.31-.9-.55-1.44-1.11-2.91-1.66-4.35-1.31-3.43-2.65-6.87-3.96-10.32-.13-.26-.22-.57-.28-.85-.07-.44.09-.66.52-.66,1.25-.02,2.49,0,3.72,0,.52,0,.77.35.9.81.24.83.48,1.68.74,2.51.9,3.04,1.77,6.1,2.67,9.14-.02.02,0,.02.04.02h0Z" fill="#fff"/><path d="M117.75,16.39v7.87c-.04.44-.24.63-.68.66-1.18.02-2.34.02-3.52,0-.44,0-.63-.22-.68-.63-.02-.13-.02-.28-.02-.42v-15.13c.02-.68.2-.87.87-.87h3.15c.68,0,.88.2.88.87v7.65Z" fill="#fff"/><path d="M115.33.01c.44-.04.87.04,1.29.22.85.33,1.44,1.11,1.49,2.03.18,1.99-1.16,3-2.93,2.95-.24,0-.48-.04-.72-.09-1.36-.33-2.06-1.38-1.92-2.89.11-1.2,1.05-2.1,2.34-2.21.15-.02.31-.04.46-.02h0Z" fill="#fff"/><path d="M174.98,15.03v.09c-.09-.09-.13-.22-.09-.33v-.17s0-.02.02-.02h-.02v-.22h.04s-.02-.02-.02-.04c-.04-.42-.13-.83-.24-1.22-.81-2.89-2.62-4.79-5.58-5.53-1.38-.33-2.78-.37-4.18-.15-2.95.44-5.07,2.01-6.1,4.81-1.01,2.67-.98,5.6.02,8.27.87,2.43,2.62,3.96,5.14,4.59,1.33.33,2.73.42,4.11.22,4.59-.55,6.49-4.02,6.8-7.04h-.02v-.31c-.02-.13-.04-.24.09-.33v.04s.02-.07.04-.09v-2.51s-.02-.02-.02-.04ZM169.73,19.19c-.13.46-.33.88-.61,1.27-.48.68-1.25,1.12-2.08,1.18-.42.04-.83.04-1.25-.04-.92-.17-1.68-.79-2.06-1.64-.33-.68-.53-1.42-.59-2.16-.11-1.29-.13-2.58.18-3.85.11-.5.33-1.01.59-1.44.48-.79,1.31-1.29,2.23-1.36.42-.04.83-.04,1.25.04.87.17,1.6.74,1.99,1.55.37.76.59,1.62.63,2.47.02.39.04.79.02,1.18.07.96-.04,1.9-.31,2.8h0Z" fill="#fff"/><path d="M136.65.16h-3.04c-.83,0-.98.15-.98.98v7.08c0,.15.07.31-.04.46-.2-.02-.31-.15-.46-.24-2.27-1.33-4.66-1.57-7.06-.46-1.68.79-2.73,2.21-3.41,3.89-.66,1.62-.81,3.32-.77,5.05,0,1.62.37,3.21,1.09,4.66.83,1.6,2.03,2.82,3.78,3.35,2.38.74,4.61.37,6.65-1.14.15-.09.24-.24.44-.28.11.24.2.5.24.77.09.35.39.59.77.59h.53c.79,0,1.55.02,2.32,0,.61,0,.79-.2.81-.83V1c-.02-.68-.2-.83-.85-.83h0ZM132.64,16.26v3.98c.04.26-.11.5-.35.61-1.05.59-2.25.83-3.43.66-1.01-.11-1.88-.72-2.34-1.62-.35-.7-.55-1.44-.61-2.21-.18-1.38-.07-2.78.26-4.11.11-.37.24-.72.44-1.07.46-.85,1.33-1.4,2.3-1.47,1.16-.11,2.32.11,3.37.59.26.09.42.35.39.63-.04,1.36-.02,2.67-.02,4h0Z" fill="#fff"/><path d="M149.85,17.99c1.27-.09,2.54-.33,3.67-.94,1.16-.57,1.97-1.64,2.21-2.91.15-.79.15-1.62-.02-2.41-.46-1.97-1.71-3.19-3.59-3.83-1.05-.33-2.17-.46-3.26-.42-3.67.09-6.47,1.95-7.61,5.62-.77,2.43-.66,4.9.09,7.33.77,2.49,2.51,4,5.01,4.68,1.07.26,2.19.37,3.28.33,1.6-.02,3.19-.33,4.7-.9.63-.24.79-.46.79-1.14v-1.57c-.02-.63-.28-.85-.92-.7-.48.13-.94.24-1.42.35-1.46.35-3,.42-4.48.15-1.49-.28-2.49-1.14-2.89-2.62-.11-.44-.2-.87-.24-1.33.11,0,.22,0,.31.04,1.44.26,2.91.37,4.37.26h0ZM145.28,14.49c.15-.85.35-1.68.87-2.38.81-1.07,1.92-1.38,3.19-1.25.11,0,.2.04.31.04,1.53.24,1.9,1.47,1.62,2.65-.22.88-.94,1.2-1.75,1.36-.44.09-.9.13-1.36.11-.9-.02-1.77-.09-2.65-.22-.2-.02-.28-.11-.24-.31Z" fill="#fff"/><path d="M86.67,53.76c-1.19-.06-2.39-.11-3.58-.2-3.19-.24-6.36-.72-9.47-1.44-10.74-2.49-20.16-7.5-28.38-14.78-.77-.68-1.49-1.38-2.23-2.08-.17-.15-.33-.37-.42-.59-.13-.31-.07-.63.15-.87s.57-.33.87-.2c.2.09.39.17.57.28,7.85,4.85,16.42,8.4,25.41,10.5,3.02.7,6.06,1.25,9.12,1.64,4.4.55,8.83.74,13.25.59,2.38-.07,4.75-.28,7.11-.59,5.51-.7,10.96-1.95,16.23-3.7,2.78-.92,5.49-1.97,8.13-3.19.39-.22.88-.28,1.31-.17.72.17,1.16.92.98,1.64-.02.09-.07.2-.11.28-.17.33-.42.61-.72.83-2.52,1.97-5.23,3.7-8.09,5.14-5.4,2.73-11.17,4.68-17.12,5.79-3.43.61-6.87.98-10.34,1.11h-.02v.09h-2.62v-.09h-.03ZM126.92,32.44c1.44.04,2.86.13,4.26.5.39.11.77.24,1.14.42.5.2.83.68.9,1.2.09.61.11,1.25.07,1.88-.28,3.74-1.44,7.35-3.37,10.56-.7,1.16-1.55,2.21-2.54,3.13-.2.2-.44.35-.7.44-.42.11-.68-.11-.7-.52.02-.22.07-.44.15-.66.77-2.06,1.51-4.09,2.1-6.21.35-1.16.59-2.34.74-3.54.04-.44.07-.87.02-1.31-.02-.74-.5-1.38-1.22-1.6-.68-.22-1.38-.35-2.1-.39-2.01-.09-4.02,0-6.01.26l-2.65.33c-.28.02-.55,0-.7-.26-.15-.26-.09-.52.07-.79.18-.24.39-.46.66-.61,1.62-1.16,3.43-1.86,5.36-2.32,1.49-.31,3-.46,4.53-.5h0Z" fill="#fff"/><path d="M16.77,14.55c-.09-1.14-.39-2.25-.85-3.28-.9-1.88-2.27-3.26-4.37-3.74-2.41-.52-4.57,0-6.54,1.47-.13.13-.28.24-.46.33-.04-.02-.09-.04-.09-.07-.07-.22-.11-.44-.17-.66-.17-.55-.39-.74-.98-.74-.66,0-1.33.02-1.99,0-.5-.02-.96.04-1.31.44,0,7.65,0,15.33.02,22.96.28.46.72.55,1.22.52.79-.02,1.57,0,2.36,0q1.38,0,1.38-1.36v-6.23c0-.15-.07-.33.09-.46,1.09.85,2.43,1.38,3.81,1.51,1.92.2,3.67-.28,5.14-1.6,1.07-.98,1.86-2.25,2.27-3.65.59-1.79.63-3.61.48-5.44h0ZM76.1,17.77c1.64.31,3.32.33,4.96.07.96-.13,1.88-.42,2.73-.88.98-.57,1.71-1.36,2.01-2.45.77-2.76-.42-5.53-3.28-6.56-1.4-.46-2.89-.61-4.35-.42-3.45.39-5.71,2.3-6.74,5.6-.72,2.25-.63,4.55-.04,6.82.77,2.91,2.69,4.64,5.6,5.25,1.66.37,3.35.31,5.01.04.87-.15,1.75-.37,2.58-.7.5-.2.77-.5.74-1.07-.02-.52,0-1.07,0-1.62,0-.66-.26-.85-.9-.7-.63.15-1.25.28-1.88.42-1.36.28-2.75.28-4.11.04-1.86-.37-3.06-1.97-2.95-3.94.2.02.42.04.61.09h0ZM46.01,24.94h-2.93c-.77,0-.96-.22-.96-.96v-15.18c0-.17.02-.35.07-.52.09-.26.35-.42.61-.42h2.73c.39,0,.63.24.77.61.11.31.17.59.28.92.22,0,.35-.15.5-.24,1.2-.74,2.47-1.38,3.89-1.64,1.09-.22,2.19-.22,3.28,0,1.03.22,1.95.83,2.54,1.71.04.07.09.11.13.15-.02.02,0,.02.02.07.55-.33,1.11-.68,1.71-.98,1.53-.79,3.24-1.18,4.96-1.09,1.25.07,2.38.42,3.26,1.33.83.85,1.14,1.9,1.22,3.04.02.24.02.48.02.74v11.33c0,.98-.13,1.11-1.11,1.11h-2.67c-.17,0-.35,0-.52-.02-.26-.02-.48-.24-.52-.5-.04-.24-.04-.48-.04-.72v-10.12c.02-.42-.02-.81-.13-1.2-.17-.68-.79-1.16-1.49-1.2-1.29-.09-2.58.17-3.76.72-.17.04-.28.22-.26.39v11.5c0,.22,0,.42-.04.63,0,.31-.24.52-.55.52-.33.02-.66.02-1.01.02h-2.32c-.81,0-.98-.2-.98-1.01v-10.34c0-.37-.02-.76-.11-1.14-.15-.74-.79-1.27-1.53-1.31-1.31-.09-2.65.17-3.83.74-.17.04-.28.24-.24.42v11.66c0,.81-.17.98-.98.98h0ZM23.88,24.92h-2.84c-.15,0-.33,0-.48-.02-.28-.02-.5-.26-.53-.55-.02-.17-.02-.35-.02-.52v-14.87c0-1.01.11-1.12,1.12-1.12h2.1c.57,0,.83.2.98.74.15.55.28,1.09.42,1.68.15-.04.28-.13.37-.26.39-.39.81-.77,1.25-1.12,1.14-.87,2.56-1.31,3.98-1.2.57.02.77.2.81.74.04.74.02,1.51.02,2.25.02.31,0,.59-.04.9-.09.39-.24.55-.63.59-.31.02-.59,0-.9-.02-1.47-.13-2.89.15-4.26.61-.31.11-.31.33-.31.57v10.5c0,.2,0,.37-.02.57-.02.28-.24.5-.52.5-.15.02-.33.02-.48.02ZM37.09,24.87h-3.04c-.11,0-.2,0-.31-.02-.31-.02-.57-.26-.59-.57-.02-.17-.02-.35-.02-.52.02-2.43.02-4.92.02-7.41v-7.76c.02-.52.22-.72.74-.74,1.14-.02,2.27-.02,3.41,0,.5,0,.66.15.7.66.02.2.02.37.02.57v14.56c0,.24-.02.48-.04.72-.02.28-.24.48-.52.5-.13.02-.24.02-.37.02h0ZM11.55,19.08c-.15.68-.5,1.29-1.01,1.75-.57.48-1.27.77-2.01.77-1.12.07-2.21-.17-3.19-.7-.24-.11-.39-.35-.37-.61v-3.96c0-1.31.02-2.62,0-3.94-.02-.31.15-.57.44-.68,1.2-.57,2.45-.83,3.76-.57.92.13,1.71.72,2.08,1.57.33.7.52,1.47.57,2.23.13,1.4.13,2.8-.26,4.13h0ZM75.55,14.42c.07-.52.22-1.03.42-1.51.66-1.6,2.03-2.14,3.43-2.06.39.02.79.11,1.16.26.57.24.94.77,1.01,1.38.07.37.04.77-.07,1.14-.26.79-.9,1.12-1.66,1.27-.46.11-.94.15-1.42.11-.85,0-1.73-.07-2.58-.2q-.33-.04-.28-.39h0ZM35.69.01c.35-.02.7.04,1.03.15,1.18.39,1.79,1.42,1.68,2.76-.09,1.14-.94,2.06-2.08,2.23-.48.09-.98.09-1.47,0-1.25-.24-2.16-1.16-2.08-2.73.13-1.55,1.16-2.41,2.91-2.41h0Z" fill="#fff"/></svg>