<?xml version="1.0" encoding="UTF-8"?><svg id="a" xmlns="http://www.w3.org/2000/svg" xmlns:xlink="http://www.w3.org/1999/xlink" viewBox="0 0 175 57.22"><defs><clipPath id="b"><rect y="1.7" width="175" height="54.33" fill="none"/></clipPath><clipPath id="c"><rect x="-95.87" y="-23.42" width="371.91" height="115.47" fill="none"/></clipPath></defs><g clip-path="url(#b)"><g clip-path="url(#c)"><path d="M27.56,19.57c0-4.97-4-8.98-8.89-8.98h-4.41v17.87h4.41c4.89,0,8.89-4.01,8.89-8.9M47.62,55.19h-16.18l-12.85-17.83h-4.32v17.79H0V1.7h20.43c11.78,0,21.39,8.01,21.39,17.87,0,6.01-3.69,11.38-9.3,14.66l15.09,20.96" fill="#fff"/><path d="M63.7,22.77c-3.77,0-6.97,5.12-6.97,11.46s3.2,11.46,6.97,11.46,7.05-5.13,7.05-11.46-3.2-11.46-7.05-11.46M85.66,34.23c0,12.11-9.85,21.8-21.95,21.8s-21.88-9.7-21.88-21.8,9.77-21.8,21.88-21.8,21.95,9.7,21.95,21.8" fill="#fff"/><path d="M119.13,13.32l-16.43,16.43V13.26h-14.26v41.89h14.26v-16.99l17.15,16.99h17.95l-21.8-21.8,18.05-18.05v24.86c0,8.25,4.96,15.87,17.46,15.87,5.93,0,11.38-3.37,14.03-6.41l6.41,5.53h3.04V13.32h-14.26v27.09c-1.61,2.8-3.84,4.56-7.3,4.56s-5.12-2.08-5.12-8.73V13.32h-29.19Z" fill="#fff"/></g></g></svg>