<?xml version="1.0" encoding="UTF-8"?><svg id="a" xmlns="http://www.w3.org/2000/svg" viewBox="0 0 175 50.99"><path d="M33.44,18.41c3.29,2.35,7.33,3.74,11.68,3.74v-8.38c-.82,0-1.65-.09-2.45-.26v6.6c-4.36,0-8.39-1.38-11.68-3.74v17.1c0,8.55-6.94,15.49-15.49,15.49-3.19,0-6.16-.96-8.63-2.62,2.81,2.88,6.74,4.66,11.08,4.66,8.56,0,15.5-6.93,15.5-15.49v-17.1h0ZM36.47,9.95c-1.68-1.84-2.79-4.21-3.03-6.84v-1.08h-2.32c.59,3.34,2.58,6.19,5.35,7.91h0ZM12.28,39.77c-.94-1.23-1.45-2.74-1.45-4.29,0-3.91,3.17-7.08,7.09-7.08.73,0,1.45.11,2.15.33v-8.57c-.81-.11-1.63-.16-2.45-.14v6.67c-.7-.22-1.42-.33-2.15-.33-3.91,0-7.09,3.17-7.09,7.08,0,2.77,1.59,5.16,3.9,6.33Z" fill="#ff004f"/><path d="M30.99,16.37c3.29,2.35,7.33,3.74,11.68,3.74v-6.6c-2.43-.52-4.58-1.79-6.2-3.55-2.77-1.73-4.77-4.58-5.35-7.91h-6.11v33.46c-.01,3.9-3.18,7.06-7.09,7.06-2.3,0-4.35-1.1-5.64-2.8-2.31-1.17-3.9-3.56-3.9-6.33,0-3.91,3.17-7.08,7.09-7.08.75,0,1.47.12,2.15.33v-6.67c-8.41.17-15.17,7.04-15.17,15.48,0,4.22,1.68,8.04,4.42,10.83,2.47,1.65,5.43,2.62,8.63,2.62,8.56,0,15.49-6.93,15.49-15.49v-17.1h0Z" fill="#fff"/><path d="M42.67,13.51v-1.78c-2.19,0-4.34-.61-6.2-1.77,1.65,1.8,3.82,3.04,6.2,3.55ZM31.12,2.04c-.06-.32-.1-.64-.13-.96V0h-8.43v33.46c-.01,3.9-3.18,7.06-7.09,7.06-1.15,0-2.23-.27-3.19-.76,1.3,1.7,3.34,2.8,5.64,2.8,3.91,0,7.07-3.16,7.09-7.06V2.04h6.11ZM17.62,20.02v-1.9c-.7-.1-1.41-.14-2.13-.14-8.56,0-15.5,6.93-15.5,15.49,0,5.36,2.73,10.09,6.87,12.87-2.73-2.79-4.42-6.61-4.42-10.83,0-8.44,6.76-15.31,15.17-15.48Z" fill="#00f2ea"/><path d="M140.37,41.94c6.12,0,11.09-4.92,11.09-11s-4.96-11-11.09-11h-1.67c6.12,0,11.09,4.92,11.09,11s-4.96,11-11.09,11h1.67Z" fill="#ff004f"/><path d="M138.55,19.95h-1.67c-6.12,0-11.09,4.92-11.09,11s4.96,11,11.09,11h1.67c-6.12,0-11.09-4.92-11.09-11,0-6.07,4.96-11,11.09-11Z" fill="#00f2ea"/><path d="M54.26,14.98v5.57h6.53v21.24h6.53v-21.09h5.32l1.82-5.72h-20.2ZM107.72,14.98v5.57h6.53v21.24h6.53v-21.09h5.31l1.82-5.72h-20.2ZM75.68,18.14c0-1.75,1.43-3.16,3.19-3.16s3.19,1.42,3.19,3.16-1.43,3.16-3.19,3.16c-1.76,0-3.19-1.42-3.19-3.16ZM75.68,23.56h6.38v18.23h-6.38v-18.23ZM84.79,14.98v26.81h6.38v-6.93l1.97-1.81,6.23,8.89h6.83l-8.96-12.96,8.05-7.83h-7.75l-6.38,6.33v-12.5h-6.38ZM153.58,14.98v26.81h6.38v-6.93l1.97-1.81,6.23,8.89h6.83l-8.96-12.96,8.05-7.83h-7.74l-6.38,6.33v-12.5h-6.38Z" fill="#fff"/><path d="M138.7,41.94c6.12,0,11.09-4.92,11.09-11s-4.96-11-11.09-11h-.15c-6.12,0-11.09,4.92-11.09,11s4.96,11,11.09,11h.15ZM133.23,30.94c0-2.95,2.41-5.35,5.39-5.35s5.39,2.39,5.39,5.35-2.41,5.35-5.39,5.35c-2.98,0-5.39-2.39-5.39-5.35Z" fill="#fff"/></svg>