<?xml version="1.0" encoding="UTF-8"?><svg id="a" xmlns="http://www.w3.org/2000/svg" xmlns:xlink="http://www.w3.org/1999/xlink" viewBox="0 0 175 38.97"><defs><clipPath id="b"><rect width="175" height="38.97" fill="none"/></clipPath><clipPath id="c"><rect x="195" y="1.7" width="175" height="54.33" fill="none"/></clipPath></defs><g clip-path="url(#b)"><path d="M22.41,11.18v16.6c4.84-2.78,9.59-5.51,14.44-8.3-4.88-2.8-9.62-5.53-14.44-8.3h0ZM37.08,0c.23.33.57.15.86.17,3.27.15,6.54.26,9.79.67,4.39.55,6.62,2.65,7.28,7.03.86,5.71.89,11.46.58,17.21-.12,2.27-.31,4.54-.73,6.78-.68,3.66-2.97,5.81-6.67,6.25-6.09.72-12.21.78-18.33.85-6.27.07-12.53-.1-18.78-.51-1.42-.09-2.84-.24-4.24-.5-3.05-.56-5.16-2.59-5.82-5.62-.53-2.4-.67-4.84-.86-7.28-.02-.26.14-.58-.18-.77v-9.57c.32-.19.16-.51.18-.77.17-2.15.32-4.31.68-6.44C1.54,3.5,3.81,1.35,7.82.84c3.19-.41,6.4-.5,9.61-.67.28-.01.63.17.85-.17h18.8Z" fill="#ee352e"/></g><path d="M165.79,19.78c0,.68,0,1.47,0,2.27,0,.33.03.53.45.52,1.05-.02,2.1,0,3.15,0,.24,0,.45,0,.45-.35-.04-1.93.08-3.87-.32-5.77-.21-.99-.86-1.42-1.85-1.4-.84.02-1.3.43-1.56,1.4-.27,1.05-.22,2.14-.31,3.34h0ZM175,30.59c-.33.25-.16.63-.22.94-.5,2.61-2.05,4.16-4.63,4.72-1.64.36-3.28.36-4.9-.08-2.48-.68-3.66-2.54-4.23-4.88-.21-.85-.41-1.73-.43-2.6-.11-4.06-.49-8.14.42-12.16.8-3.53,2.79-5.12,6.43-5.28.8-.04,1.6-.04,2.38.1,2.82.52,4.28,2.06,4.84,4.99.1.53.03,1.11.34,1.6v7.86c-2.93-.02-5.86-.04-8.79-.06-.26,0-.43.06-.43.38.03,1.76-.06,3.53.33,5.27.22.96.83,1.4,1.76,1.42.94.01,1.54-.41,1.84-1.33.23-.71.34-1.44.33-2.18,0-.45.07-.67.61-.63,1.25.11,2.5.17,3.75.2.32,0,.41.22.59.35v1.37h0Z" fill="#fff"/><path d="M152.44,24.26c0-1.36.03-2.73,0-4.09-.04-1.28-.09-2.56-.52-3.78-.41-1.16-1.49-1.54-2.54-.88-.88.56-1.41,1.36-1.41,2.46.01,4.21,0,8.42,0,12.62,0,1.04.54,1.7,1.54,1.91,1.09.23,1.85-.15,2.26-1.16.16-.39.28-.8.34-1.22.32-1.94.31-3.9.33-5.86h0ZM147.88,14.34c1-1.56,2.15-2.56,3.76-2.95,2.45-.6,4.51.47,5.42,2.8.54,1.4.72,2.87.79,4.34.18,3.89.34,7.79-.13,11.68-.14,1.13-.39,2.23-.84,3.29-.69,1.65-1.81,2.86-3.68,3.04-2.05.2-3.81-.43-5.11-2.11-.12-.15-.22-.32-.38-.54-.08.21-.15.36-.19.51q-.47,1.81-2.3,1.81c-.65,0-1.31-.04-1.96.01-.62.05-.75-.18-.74-.76.02-5.21.01-10.42.01-15.63,0-5.81.02-11.62-.02-17.42,0-.79.23-.94.95-.9,1.16.06,2.34.08,3.5,0,.84-.06.95.27.94.99-.03,3.87-.02,7.74-.02,11.85h0Z" fill="#fff"/><path d="M106.17,33.13c-.98,1.77-2.17,2.92-3.95,3.36-3.16.77-5.57-.86-6.01-4.07-.12-.88-.17-1.75-.17-2.64,0-5.72.01-11.44-.01-17.17,0-.64.12-.88.82-.85,1.34.06,2.68.05,4.01,0,.62-.02.74.18.74.76-.02,5.55-.02,11.1,0,16.65,0,.85-.02,1.71.24,2.54.2.66.63.97,1.32.97,1.32,0,2.29-.96,2.29-2.29,0-5.95.01-11.9-.02-17.85,0-.65.17-.81.8-.79,1.39.05,2.79.04,4.18,0,.5-.01.62.16.61.63-.01,7.74-.01,15.49,0,23.23,0,.41-.06.62-.55.61-1.11-.03-2.22-.03-3.33,0-.42.01-.52-.15-.57-.52-.1-.78-.24-1.55-.41-2.59h0Z" fill="#fff"/><path d="M134.42,33.13c-.89,1.62-1.95,2.74-3.53,3.24-3.43,1.08-6.11-.72-6.48-4.3-.16-1.59-.13-3.18-.13-4.78,0-4.9.01-9.8-.02-14.69,0-.68.18-.86.84-.84,1.34.05,2.68.05,4.01,0,.6-.02.75.15.75.75-.02,5.61-.02,11.22-.01,16.83,0,.74-.03,1.48.18,2.2.26.9.69,1.2,1.63,1.12,1.2-.11,2.03-1,2.03-2.19,0-5.95,0-11.9-.01-17.86,0-.64.11-.9.82-.86,1.36.06,2.73.04,4.1,0,.5-.01.68.09.68.65-.02,7.72-.02,15.43,0,23.15,0,.52-.11.69-.65.67-1.05-.05-2.11-.03-3.16,0-.4,0-.6-.06-.64-.54-.07-.78-.24-1.55-.4-2.56h0Z" fill="#fff"/><path d="M83.59,23.94c0,1.56-.03,3.13.01,4.69.03,1.05.08,2.1.49,3.1.27.66.76,1.05,1.49,1.08.75.03,1.24-.38,1.53-1.02.25-.54.36-1.13.41-1.73.28-3.66.13-7.33.1-11,0-.99-.1-1.99-.49-2.92-.28-.67-.79-1.04-1.52-1.04-.73,0-1.23.38-1.51,1.05-.21.53-.32,1.08-.39,1.65-.25,2.04-.09,4.09-.13,6.14h0ZM93.25,24.6c-.04,1.69,0,3.94-.44,6.16-.82,4.09-3.02,5.91-7.19,5.87-.88,0-1.76-.09-2.62-.29-2.69-.63-3.99-2.51-4.55-5.06-.24-1.09-.38-2.19-.42-3.29-.11-3.61-.32-7.22.38-10.8.92-4.69,4-6.22,8.43-5.81,3.45.32,5.4,2.1,6.11,6.8.29,1.95.3,3.91.29,6.43h0Z" fill="#fff"/><path d="M61.36,2.74c1.72,0,3.4.01,5.07,0,.48,0,.47.34.53.61,1.08,5.28,2.36,10.52,3.28,15.83,0,.05.04.1.08.2.55-2.65,1.08-5.27,1.64-7.88.6-2.74,1.24-5.48,1.84-8.22.08-.35.14-.55.56-.55,1.65.02,3.3,0,5.05,0-.54,1.92-1.06,3.78-1.58,5.63-1.54,5.49-3.08,10.97-4.62,16.46-.11.39-.12.78-.12,1.18,0,3.1-.02,6.21.02,9.31,0,.68-.13.95-.88.91-1.25-.07-2.51-.05-3.76,0-.65.03-.88-.13-.86-.83.05-1.82-.07-3.65.04-5.46.18-3.02-.37-5.9-1.21-8.79-1.73-5.96-3.33-11.96-4.98-17.94-.04-.13-.06-.27-.1-.46h0Z" fill="#fff"/><path d="M120.5,21.71c0,4.56-.02,9.11.02,13.67,0,.68-.19.86-.85.83-1.22-.05-2.45-.06-3.67,0-.71.03-.9-.18-.9-.89.03-7.63.02-15.26.02-22.9,0-1.51-.02-3.02.01-4.53.01-.54-.11-.75-.7-.73-1.37.05-2.73,0-4.1.03-.49.01-.71-.07-.68-.64.05-1.05.04-2.11,0-3.16-.02-.5.09-.68.65-.68,5.01.02,10.02.02,15.04,0,.54,0,.67.15.65.67-.04,1.08-.03,2.16,0,3.25.01.45-.13.58-.57.57-1.31-.03-2.62.03-3.93-.03-.74-.03-1,.13-.99.95.05,4.53.02,9.06.02,13.58h0Z" fill="#fff"/><path d="M22.41,11.18c4.82,2.77,9.56,5.49,14.44,8.3-4.86,2.79-9.6,5.52-14.44,8.3V11.18h0Z" fill="#fdfdfc"/></svg>